<?xml version="1.0" encoding="UTF-8" standalone="no"?>
<!-- Created with Inkscape (http://www.inkscape.org/) -->

<svg
   xmlns:dc="http://purl.org/dc/elements/1.1/"
   xmlns:cc="http://creativecommons.org/ns#"
   xmlns:rdf="http://www.w3.org/1999/02/22-rdf-syntax-ns#"
   xmlns:svg="http://www.w3.org/2000/svg"
   xmlns="http://www.w3.org/2000/svg"
   xmlns:sodipodi="http://sodipodi.sourceforge.net/DTD/sodipodi-0.dtd"
   xmlns:inkscape="http://www.inkscape.org/namespaces/inkscape"
   width="180"
   height="130"
   id="svg15338"
   version="1.1"
   inkscape:version="0.48.3.1 r9886"
   sodipodi:docname="2.svg">
  <defs
     id="defs15340">
    <inkscape:path-effect
       effect="spiro"
       id="path-effect4394"
       is_visible="true" />
    <inkscape:path-effect
       effect="spiro"
       id="path-effect4396"
       is_visible="true" />
    <inkscape:path-effect
       effect="spiro"
       id="path-effect4398"
       is_visible="true" />
    <inkscape:path-effect
       effect="spiro"
       id="path-effect4391"
       is_visible="true" />
    <inkscape:path-effect
       effect="spiro"
       id="path-effect4388"
       is_visible="true" />
    <inkscape:path-effect
       effect="spiro"
       id="path-effect4385"
       is_visible="true" />
    <inkscape:path-effect
       effect="spiro"
       id="path-effect4382"
       is_visible="true" />
    <inkscape:path-effect
       effect="spiro"
       id="path-effect4378"
       is_visible="true" />
    <inkscape:path-effect
       effect="spiro"
       id="path-effect4375"
       is_visible="true" />
    <inkscape:path-effect
       effect="spiro"
       id="path-effect4372"
       is_visible="true" />
    <inkscape:path-effect
       effect="spiro"
       id="path-effect4369"
       is_visible="true" />
    <inkscape:path-effect
       effect="spiro"
       id="path-effect4366"
       is_visible="true" />
    <inkscape:path-effect
       effect="spiro"
       id="path-effect4363"
       is_visible="true" />
    <inkscape:path-effect
       effect="spiro"
       id="path-effect4360"
       is_visible="true" />
    <inkscape:path-effect
       effect="spiro"
       id="path-effect4356"
       is_visible="true" />
    <inkscape:path-effect
       effect="spiro"
       id="path-effect4353"
       is_visible="true" />
    <inkscape:path-effect
       effect="spiro"
       id="path-effect4350"
       is_visible="true" />
    <inkscape:path-effect
       effect="spiro"
       id="path-effect4347"
       is_visible="true" />
    <inkscape:path-effect
       is_visible="true"
       id="path-effect4344"
       effect="spiro" />
    <inkscape:path-effect
       effect="spiro"
       id="path-effect4341"
       is_visible="true" />
    <inkscape:path-effect
       effect="spiro"
       id="path-effect4338"
       is_visible="true" />
    <inkscape:path-effect
       effect="spiro"
       id="path-effect4335"
       is_visible="true" />
    <inkscape:path-effect
       effect="spiro"
       id="path-effect4332"
       is_visible="true" />
  </defs>
  <sodipodi:namedview
     id="base"
     pagecolor="#ffffff"
     bordercolor="#666666"
     borderopacity="1.0"
     inkscape:pageopacity="0.0"
     inkscape:pageshadow="2"
     inkscape:zoom="2.8"
     inkscape:cx="79.771442"
     inkscape:cy="52.258375"
     inkscape:document-units="px"
     inkscape:current-layer="g15315"
     showgrid="false"
     borderlayer="true"
     inkscape:showpageshadow="false"
     inkscape:window-width="1280"
     inkscape:window-height="744"
     inkscape:window-x="0"
     inkscape:window-y="27"
     inkscape:window-maximized="1" />
  <metadata
     id="metadata15343">
    <rdf:RDF>
      <cc:Work
         rdf:about="">
        <dc:format>image/svg+xml</dc:format>
        <dc:type
           rdf:resource="http://purl.org/dc/dcmitype/StillImage" />
        <dc:title />
      </cc:Work>
    </rdf:RDF>
  </metadata>
  <g
     inkscape:label="Layer 1"
     inkscape:groupmode="layer"
     id="layer1"
     transform="translate(0,-922.36218)">
    <g
       transform="translate(1800.5473,-114.51193)"
       id="g15315">
      <g
         id="g3867"
         style="stroke-width:1.8;stroke-miterlimit:4;stroke-dasharray:none">
        <g
           id="g3843"
           style="stroke-width:1.8;stroke-miterlimit:4;stroke-dasharray:none">
          <path
             inkscape:connector-curvature="0"
             id="path15134"
             d="m -1713.7369,1055.4633 c -0.9082,0.03 -1.8014,0.4329 -2.4238,1.0958 -0.6639,0.707 -1.0059,1.6997 -0.9241,2.6661 -0.498,-1.2287 -1.5556,-2.2189 -2.8125,-2.6408 -1.257,-0.422 -2.694,-0.2653 -3.8326,0.414 -0.7054,0.4209 -1.2936,1.031 -1.6866,1.7522 -0.393,0.7213 -0.5892,1.5524 -0.5604,2.3732 0.029,0.8209 0.2846,1.6308 0.7271,2.3228 0.2097,0.3281 0.462,0.6287 0.7473,0.8938 -0.6759,-0.3443 -1.4328,-0.5255 -2.1915,-0.5151 -1.0011,0.014 -1.9993,0.3583 -2.7924,0.9695 -0.7929,0.6113 -1.3779,1.4844 -1.6461,2.449 -0.2682,0.9647 -0.2172,2.016 0.1465,2.949 0.1686,0.4327 0.4082,0.8378 0.6968,1.2017 -0.034,-0.012 -0.067,-0.026 -0.101,-0.035 -0.5629,-0.1586 -1.192,-0.055 -1.6765,0.2727 -0.5441,0.3679 -0.8887,1.0144 -0.8887,1.6713 0,0.3607 0.1093,0.7148 0.2929,1.0251 -0.1789,-0.1273 -0.3761,-0.2276 -0.5857,-0.2929 -0.491,-0.1529 -1.0389,-0.1166 -1.5048,0.101 -0.3328,0.1555 -0.6189,0.3998 -0.8281,0.7019 -0.2092,0.302 -0.34,0.6638 -0.3686,1.0301 -0.029,0.3662 0.042,0.7397 0.202,1.0705 0.1598,0.3308 0.4072,0.6178 0.7119,0.8231 -0.8973,-0.4872 -1.9916,-0.5894 -2.964,-0.2778 -0.884,0.2833 -1.6593,0.8992 -2.1259,1.7017 -0.4665,0.8025 -0.6204,1.783 -0.4292,2.6914 0.1912,0.9084 0.7291,1.7361 1.4795,2.2824 0.7505,0.5464 1.7076,0.804 2.6308,0.7069 -1.3575,0.3038 -2.6149,1.0469 -3.5346,2.0905 -0.957,1.0857 -1.5409,2.495 -1.6411,3.9386 -0.1361,-0.095 -0.2775,-0.1786 -0.4242,-0.2575 -0.6158,-0.3313 -1.3315,-0.5011 -2.0248,-0.409 -0.5679,0.075 -1.1101,0.3227 -1.5351,0.7069 -0.425,0.3841 -0.7312,0.9019 -0.8634,1.4593 -2.6874,-0.6145 -5.599,-0.1846 -7.9934,1.1816 -3.2163,1.8352 -5.3958,5.3663 -5.5948,9.0639 -2.2004,0.8361 -3.9435,2.7961 -4.5143,5.0798 -0.431,1.7247 -0.2033,3.6056 0.6211,5.1807 0.8244,1.5752 2.2403,2.8302 3.9033,3.459 -2.9986,2.1283 -5.0535,5.5439 -5.5292,9.19 -0.5546,4.2503 1.0843,8.7219 4.2466,11.6139 l 0,0.2626 c 1.9132,-0.3053 3.77,-0.5203 5.3979,-0.5656 10.5231,-0.2926 19.6164,1.8903 32.6248,4.1457 11.5177,1.9969 20.0852,0.9159 21.9048,0.6413 l -0.505,-6.3574 c 0.213,-0.035 0.4262,-0.069 0.6413,-0.106 13.0085,-2.2554 22.1018,-4.4382 32.6249,-4.1456 4.2379,0.1178 10.0367,1.3717 14.3001,2.4439 l 0,-0.1212 c 1.4508,-0.8211 2.5915,-2.1731 3.156,-3.7416 0.5644,-1.5686 0.5444,-3.3408 -0.051,-4.8981 -0.6371,-1.6677 -1.9335,-3.0739 -3.5448,-3.8426 -1.4098,-0.6727 -3.0456,-0.852 -4.5698,-0.5151 0.5166,-0.1835 0.9986,-0.461 1.419,-0.813 0.5913,-0.4951 1.0578,-1.1396 1.3381,-1.8582 0.2802,-0.7185 0.3725,-1.5075 0.2726,-2.2722 -0.1,-0.7648 -0.3928,-1.5035 -0.8483,-2.1259 -0.8855,-1.2101 -2.3896,-1.9382 -3.8881,-1.8835 -1.4985,0.055 -2.9468,0.8897 -3.7417,2.1612 0.2917,-1.5411 0.058,-3.1759 -0.6514,-4.5748 -0.7093,-1.3989 -1.8918,-2.5513 -3.3074,-3.2266 -0.01,-0 -0.02,-0.01 -0.03,-0.015 l 0,-0.02 c 0.6543,-0.2868 1.1882,-0.8368 1.4543,-1.4997 0.2661,-0.6629 0.2642,-1.431 -0.01,-2.0905 -0.2922,-0.7024 -0.8862,-1.2691 -1.6007,-1.53 -0.7145,-0.261 -1.5406,-0.2124 -2.2167,0.1363 0.5433,-0.5511 0.823,-1.3511 0.7423,-2.1208 -0.081,-0.7697 -0.5206,-1.4924 -1.1665,-1.9188 -0.2846,-0.1879 -0.6047,-0.3176 -0.9392,-0.3838 0.9914,-0.202 1.9341,-0.6463 2.7167,-1.2876 0.8198,-0.6718 1.4647,-1.5536 1.8531,-2.5399 0.4641,-1.1784 0.5551,-2.4993 0.2626,-3.7316 -0.2925,-1.2322 -0.9695,-2.3724 -1.9137,-3.2165 0.7509,0.1345 1.5477,-0 2.2116,-0.3787 0.6639,-0.3759 1.1932,-0.9886 1.4644,-1.7017 0.2639,-0.694 0.2832,-1.468 0.1161,-2.1915 -0.1671,-0.7235 -0.5149,-1.3985 -0.9644,-1.9895 -0.7102,-0.9335 -1.6793,-1.6668 -2.7672,-2.1056 -1.0878,-0.4389 -2.2946,-0.5784 -3.4538,-0.3989 -0.043,-2.2144 -1.2438,-4.3747 -3.1055,-5.5747 -1.6453,-1.0606 -3.7608,-1.3626 -5.6352,-0.7978 -1.8744,0.5647 -3.4762,1.9839 -4.2618,3.777 -0.2949,-0.846 -0.8391,-1.6046 -1.5451,-2.1561 -0.7062,-0.5515 -1.572,-0.8933 -2.4642,-0.9746 -1.3481,-0.1227 -2.7382,0.3719 -3.7063,1.318 -0.9609,0.9389 -1.4856,2.3049 -1.4038,3.6457 -0.08,-0.018 -0.1615,-0.032 -0.2424,-0.045 -1.2413,-0.2105 -2.5595,0.071 -3.6053,0.7726 0.4712,-0.4231 0.8276,-0.9721 1.02,-1.5754 0.1924,-0.6033 0.2199,-1.2557 0.081,-1.8734 -0.1681,-0.7462 -0.5858,-1.4361 -1.1664,-1.9339 -0.5807,-0.4979 -1.3225,-0.8012 -2.0855,-0.8534 0.9396,-0.2502 1.7615,-0.9106 2.2117,-1.7724 0.4502,-0.8618 0.5232,-1.9135 0.1919,-2.8277 -0.2359,-0.6507 -0.6691,-1.2267 -1.2271,-1.636 -0.558,-0.4094 -1.2374,-0.6521 -1.9289,-0.6817 -0.6914,-0.03 -1.3934,0.1499 -1.9844,0.51 -0.1,0.061 -0.1947,0.1313 -0.2878,0.2019 0.076,-0.1564 0.1433,-0.319 0.1969,-0.4847 0.23,-0.7122 0.2426,-1.4889 0.03,-2.2066 -0.2123,-0.7177 -0.6466,-1.3707 -1.2271,-1.8431 -0.5804,-0.4724 -1.3042,-0.766 -2.0501,-0.8281 -0.7461,-0.062 -1.5104,0.1094 -2.1612,0.4797 -0.4425,0.2517 -0.8344,0.5936 -1.1412,0.9998 0.171,-0.3591 0.278,-0.7455 0.3182,-1.1412 0.064,-0.6332 -0.047,-1.2848 -0.3232,-1.8582 -0.2762,-0.5735 -0.717,-1.0696 -1.2523,-1.4139 -0.5352,-0.3444 -1.1663,-0.5366 -1.8026,-0.5504 -0.061,-0 -0.1213,-0 -0.1818,0 z"
             style="fill:#ffffff;stroke:none;enable-background:new;stroke-linejoin:bevel;stroke-width:1.8;stroke-miterlimit:4;stroke-dasharray:none" />
          <path
             sodipodi:nodetypes="cscscsaccc"
             inkscape:original-d="m -1695.1186,1076.0542 c 0,0 2.5679,-6.1099 5.1116,-4.9951 2.5437,1.1148 4.009,3.1313 4.009,3.1313 0,0 5.6553,-4.3747 9.8948,-2.9812 4.2395,1.3935 3.109,5.574 3.109,5.574 0,0 6.7832,-2.2296 6.2179,2.5083 -0.5653,4.7378 1.4377,2.8867 0.8479,4.1804 -0.5836,1.2802 -3.6729,2.0795 -3.6729,2.0795 5.2105,2.6939 -0.2622,4.6333 1.6488,6.946 2.9847,3.7751 -2.6747,0.712 -4.7095,3.8593"
             inkscape:path-effect="#path-effect4394;#path-effect4396;#path-effect4398"
             inkscape:connector-curvature="0"
             id="path15136"
             d="m -1695.1186,1076.0542 c -0.092,-1.3505 0.4352,-2.7308 1.4033,-3.6769 0.9682,-0.9461 2.3602,-1.4409 3.7083,-1.3182 0.8922,0.081 1.7591,0.4244 2.4651,0.9759 0.7061,0.5515 1.249,1.3094 1.5439,2.1554 0.7856,-1.7931 2.3847,-3.2104 4.2591,-3.7752 1.8744,-0.5647 3.9903,-0.2666 5.6357,0.794 1.8616,1.2 3.0662,3.3596 3.109,5.574 1.1592,-0.1795 2.3662,-0.04 3.454,0.3987 1.0879,0.4388 2.0537,1.176 2.7639,2.1096 0.4496,0.591 0.7998,1.2648 0.9668,1.9883 0.1671,0.7235 0.145,1.4981 -0.1189,2.1921 -0.2712,0.7131 -0.7975,1.3262 -1.4615,1.7021 -0.6639,0.3759 -1.4604,0.5118 -2.2114,0.3774 0.9442,0.8441 1.622,1.982 1.9145,3.2142 0.2925,1.2323 0.1984,2.5534 -0.2657,3.7318 -0.3885,0.9863 -1.0328,1.8705 -1.8527,2.5423 -0.8199,0.6719 -1.8134,1.1299 -2.8568,1.317"
             style="fill:#ffffff;stroke:#000000;stroke-width:1.8;stroke-linecap:butt;stroke-linejoin:bevel;stroke-miterlimit:4;stroke-opacity:1;stroke-dasharray:none" />
          <path
             inkscape:original-d="m -1741.6284,1090.9974 c 0,0 0.8022,-2.0908 1.6501,-4.0417 0.8479,-1.9509 3.5329,-2.0903 3.5329,-2.0903 0,0 -2.4023,-6.1313 -1.5544,-7.3855 0.8478,-1.2541 2.9676,0.2787 2.9676,0.2787 0,0 -0.7066,-3.3443 0.2826,-3.623 0.9893,-0.2787 2.685,0.836 2.685,0.836 0,0 -1.4131,-3.205 0,-3.3443 1.4132,-0.1394 2.9677,0.836 2.9677,0.836 0,0 0,-8.9183 2.4024,-8.6396 2.4023,0.2787 3.2502,1.2541 3.2502,1.2541 0,0 -3.1592,-6.7529 0.515,-6.7529 3.6743,0 5.8443,0.9002 5.8443,0.9002 0,0 0.5653,-5.0165 3.5329,-3.7624 2.9677,1.2541 2.685,5.574 2.685,5.574 0,0 1.4132,-3.3444 3.6743,-2.0902 2.261,1.2541 1.9784,6.6887 1.9784,6.6887 0,0 6.0766,-2.787 6.5006,0.2787 0.4239,3.0657 -2.4024,4.5986 -2.4024,4.5986 0,0 3.3916,-0.9755 3.2503,2.787 -0.1414,3.7624 -1.1012,3.4525 -1.1012,3.4525 0,0 4.9167,-0.9443 6.7538,1.146 1.8371,2.0902 0.5653,5.0165 0.5653,5.0165 0,0 3.8156,-2.9263 5.2287,-1.6721 1.4132,1.2541 -1.2718,6.6887 -1.2718,6.6887 0,0 2.3308,-0.5731 2.685,1.1148 0.8478,4.0412 -1.781,9.3364 -1.781,9.3364"
             inkscape:path-effect="#path-effect4391"
             sodipodi:nodetypes="cscccccccscscscscccccscccsc"
             inkscape:connector-curvature="0"
             id="path15138"
             d="m -1741.6284,1090.9974 c 0.078,-1.4807 0.6697,-2.9293 1.6501,-4.0417 0.9198,-1.0436 2.1754,-1.7865 3.5329,-2.0903 -0.9232,0.097 -1.8791,-0.1595 -2.6296,-0.7059 -0.7504,-0.5463 -1.2883,-1.3772 -1.4795,-2.2856 -0.1912,-0.9084 -0.034,-1.8856 0.4327,-2.6881 0.4666,-0.8025 1.238,-1.4226 2.122,-1.7059 0.9724,-0.3116 2.0702,-0.2085 2.9676,0.2787 -0.3047,-0.2052 -0.5536,-0.4925 -0.7135,-0.8233 -0.1598,-0.3308 -0.2301,-0.7043 -0.2016,-1.0706 0.029,-0.3663 0.156,-0.7244 0.3652,-1.0264 0.2092,-0.302 0.4996,-0.5472 0.8325,-0.7027 0.4659,-0.2177 1.0134,-0.2547 1.5044,-0.1019 0.4909,0.1529 0.9206,0.4942 1.1806,0.9379 -0.5442,-0.3679 -0.8879,-1.0153 -0.8879,-1.6721 0,-0.6569 0.3437,-1.3043 0.8879,-1.6722 0.4844,-0.3275 1.115,-0.4293 1.6779,-0.2707 0.5628,0.1585 1.0476,0.5745 1.2898,1.1067 -0.8503,-0.5286 -1.5227,-1.3382 -1.8863,-2.271 -0.3636,-0.9329 -0.4165,-1.9839 -0.1482,-2.9486 0.2682,-0.9646 0.856,-1.8375 1.649,-2.4487 0.793,-0.6113 1.7868,-0.9575 2.7879,-0.9713 1.1899,-0.016 2.3797,0.4427 3.2502,1.2541 -0.9478,-0.8832 -1.4653,-2.2085 -1.3668,-3.5003 0.098,-1.2918 0.811,-2.5233 1.8818,-3.2526 0.8964,-0.6105 2.0276,-0.8665 3.0995,-0.7014 1.072,0.1651 2.0736,0.7496 2.7448,1.6016 -0.082,-0.9664 0.2643,-1.9613 0.9282,-2.6683 0.6639,-0.7071 1.635,-1.115 2.6047,-1.0941 0.6363,0.014 1.2678,0.2067 1.8031,0.5511 0.5352,0.3444 0.9726,0.8391 1.2488,1.4125 0.2762,0.5734 0.3904,1.2238 0.3261,1.857 -0.064,0.6332 -0.3071,1.2473 -0.693,1.7534 0.3279,-0.6731 0.8629,-1.2435 1.5137,-1.6137 0.6508,-0.3702 1.4145,-0.5386 2.1606,-0.4765 0.7458,0.062 1.4709,0.3543 2.0514,0.8268 0.5805,0.4724 1.0139,1.123 1.2261,1.8407 0.2123,0.7177 0.2026,1.4994 -0.028,2.2116 -0.2301,0.7121 -0.6795,1.3518 -1.2716,1.8096 0.2906,-0.6281 0.7712,-1.1667 1.3622,-1.5268 0.591,-0.3602 1.29,-0.5403 1.9814,-0.5107 0.6914,0.03 1.3725,0.269 1.9305,0.6784 0.558,0.4093 0.9907,0.9872 1.2265,1.6378 0.3313,0.9142 0.2609,1.9661 -0.1893,2.8279 -0.4503,0.8619 -1.2735,1.5205 -2.2131,1.7707 0.763,0.052 1.5067,0.3567 2.0873,0.8545 0.5806,0.4979 0.995,1.1864 1.163,1.9325 0.1391,0.6178 0.1106,1.2725 -0.082,1.8758 -0.1924,0.6033 -0.5482,1.1536 -1.0193,1.5767 1.0458,-0.7012 2.364,-0.984 3.6054,-0.7734 1.2413,0.2107 2.3925,0.9125 3.1484,1.9194 0.5297,0.7057 0.8669,1.5545 0.9657,2.4313 0.099,0.8768 -0.041,1.7793 -0.4004,2.5852 0.4091,-0.9528 1.2454,-1.7125 2.2331,-2.0283 0.9876,-0.3159 2.1096,-0.1825 2.9956,0.3562 0.6277,0.3816 1.1349,0.9582 1.4333,1.6295 0.2984,0.6712 0.3867,1.4341 0.2495,2.1557 -0.1372,0.7217 -0.4993,1.3989 -1.0233,1.9138 -0.5239,0.5149 -1.2074,0.8651 -1.9313,0.9897 0.9745,0.1163 1.9147,0.5067 2.685,1.1148 0.7646,0.6036 1.3594,1.4199 1.6998,2.3326 0.3404,0.9127 0.4254,1.9192 0.2429,2.8761 -0.1825,0.9568 -0.6321,1.8613 -1.2846,2.5846 -0.6525,0.7233 -1.506,1.2633 -2.4391,1.5431"
             style="fill:#ffffff;stroke:#000000;stroke-width:1.8;stroke-linecap:butt;stroke-linejoin:bevel;stroke-miterlimit:4;stroke-opacity:1;stroke-dasharray:none" />
          <path
             sodipodi:nodetypes="cscsc"
             inkscape:original-d="m -1718.2028,1081.2633 c 0,0 0.9892,-2.2296 2.1198,-1.9509 1.1305,0.2787 2.4023,1.3935 2.4023,1.3935 0,0 -0.4239,-4.4591 1.9785,-4.0411 2.4024,0.418 1.8244,3.1841 1.8244,3.1841"
             inkscape:path-effect="#path-effect4388"
             inkscape:connector-curvature="0"
             id="path15140"
             d="m -1718.2028,1081.2633 c 0.092,-0.5073 0.3528,-0.9825 0.7322,-1.3316 0.3793,-0.3491 0.8745,-0.5701 1.3876,-0.6193 0.4918,-0.047 0.9975,0.063 1.4248,0.3111 0.4274,0.2479 0.7743,0.6321 0.9775,1.0824 -0.3638,-0.3416 -0.6145,-0.8018 -0.7043,-1.2928 -0.09,-0.4909 -0.018,-1.01 0.2015,-1.4583 0.2194,-0.4482 0.5855,-0.8232 1.0283,-1.0534 0.4428,-0.2302 0.96,-0.3145 1.453,-0.2366 0.6928,0.1094 1.3265,0.5463 1.6752,1.1549 0.3487,0.6085 0.4051,1.3762 0.1492,2.0292"
             style="fill:#ffffff;stroke:#000000;stroke-width:1.8;stroke-linecap:butt;stroke-linejoin:bevel;stroke-miterlimit:4;stroke-opacity:1;stroke-dasharray:none" />
          <path
             inkscape:original-d="m -1709.8778,1079.8489 c 0,0 2.261,-2.6477 3.6742,-1.2542 1.4132,1.3935 -0.1413,5.1559 -0.1413,5.1559 0,0 1.8371,2.369 1.2718,5.2953 -0.5653,2.9264 -4.9461,2.5083 -4.9461,2.5083"
             inkscape:path-effect="#path-effect4385"
             sodipodi:nodetypes="cccsc"
             inkscape:connector-curvature="0"
             id="path15142"
             d="m -1709.8778,1079.8489 c 0.329,-0.6342 0.9093,-1.1335 1.5855,-1.3643 0.6761,-0.2308 1.4406,-0.1905 2.0887,0.1101 0.4942,0.2292 0.9189,0.6057 1.2058,1.0688 0.2868,0.4631 0.4347,1.0111 0.4198,1.5556 -0.015,0.5446 -0.1926,1.0836 -0.5044,1.5303 -0.3118,0.4467 -0.7565,0.7994 -1.2625,1.0012 0.7638,0.6097 1.3166,1.479 1.5449,2.4293 0.2282,0.9504 0.1305,1.9759 -0.2731,2.866 -0.4124,0.9095 -1.1418,1.6714 -2.0324,2.1231 -0.8906,0.4516 -1.9363,0.5899 -2.9137,0.3852"
             style="fill:#ffffff;stroke:#000000;stroke-width:1.8;stroke-linecap:butt;stroke-linejoin:bevel;stroke-miterlimit:4;stroke-opacity:1;stroke-dasharray:none" />
          <path
             sodipodi:nodetypes="csc"
             inkscape:original-d="m -1715.6719,1085.7015 c 0,0 2.9805,-2.2511 4.3936,0.954 1.4132,3.205 -3.4986,8.0811 -3.4986,8.0811"
             inkscape:path-effect="#path-effect4382"
             inkscape:connector-curvature="0"
             id="path15144"
             d="m -1715.6719,1085.7015 c 0.749,-0.2264 1.5558,-0.2585 2.3205,-0.092 0.7646,0.166 1.4854,0.5299 2.0731,1.0465 0.7288,0.6407 1.2478,1.5162 1.4601,2.463 0.2123,0.9469 0.1167,1.9602 -0.2688,2.8506 -0.3855,0.8905 -1.059,1.6536 -1.8947,2.1467 -0.8357,0.4932 -1.8293,0.7138 -2.7952,0.6208"
             style="fill:#ffffff;stroke:#000000;stroke-width:1.8;stroke-linecap:butt;stroke-linejoin:bevel;stroke-miterlimit:4;stroke-opacity:1;stroke-dasharray:none" />
          <path
             sodipodi:nodetypes="csccccc"
             inkscape:original-d="m -1683.4618,1091.1157 c 0,0 5.2389,0.02 7.076,1.9714 1.8371,1.9509 1.5545,3.9017 1.5545,3.9017 0,0 1.8371,-1.2541 3.2503,-0.2787 1.4131,0.9755 0.4239,4.0412 0.4239,4.0412 0,0 2.685,0 3.8155,1.3935 1.1306,1.3934 -1.4412,3.5902 -1.4412,3.5902"
             inkscape:path-effect="#path-effect4378"
             inkscape:connector-curvature="0"
             id="path15146"
             d="m -1683.4618,1091.1157 c 1.2324,-0.4117 2.5881,-0.4461 3.8397,-0.097 1.2517,0.3488 2.3943,1.0792 3.2363,2.0688 0.9234,1.0854 1.4785,2.4787 1.5545,3.9017 0.4273,-0.4017 0.9924,-0.6541 1.5767,-0.7042 0.5844,-0.05 1.1841,0.1024 1.6736,0.4255 0.6459,0.4264 1.0859,1.1508 1.1667,1.9205 0.081,0.7696 -0.1995,1.5696 -0.7428,2.1207 0.676,-0.3487 1.4987,-0.4006 2.2132,-0.1396 0.7145,0.2609 1.3101,0.8308 1.6023,1.5331 0.2744,0.6595 0.2792,1.4267 0.013,2.0896 -0.2661,0.663 -0.8,1.2139 -1.4543,1.5006"
             style="fill:#ffffff;stroke:#000000;stroke-width:1.8;stroke-linecap:butt;stroke-linejoin:bevel;stroke-miterlimit:4;stroke-opacity:1;stroke-dasharray:none" />
          <path
             sodipodi:nodetypes="cccccsc"
             inkscape:original-d="m -1735.432,1096.6988 c 0,0 5.9111,-2.4969 6.0525,-0.5461 0.1413,1.9509 -0.7066,2.6477 -0.7066,2.6477 0,0 3.8155,-2.2296 4.8047,-0.5574 0.9892,1.6722 -3.2502,5.1559 -3.2502,5.1559 0,0 2.9676,1.2542 2.4023,3.7625 -0.5652,2.5082 -6.7831,3.0656 -6.7831,3.0656"
             inkscape:path-effect="#path-effect4375"
             inkscape:connector-curvature="0"
             id="path15148"
             d="m -1735.432,1096.6988 c 0.018,-0.7425 0.317,-1.4748 0.8245,-2.0171 0.5075,-0.5422 1.2185,-0.8894 1.9581,-0.9561 0.7397,-0.067 1.5013,0.1475 2.0977,0.5902 0.5963,0.4426 1.0219,1.1096 1.1722,1.8369 0.1917,0.9276 -0.078,1.939 -0.7066,2.6477 0.4956,-0.7785 1.353,-1.3158 2.2697,-1.4221 0.9167,-0.1063 1.8744,0.2203 2.535,0.8647 0.5057,0.4933 0.8358,1.1632 0.9188,1.8648 0.083,0.7016 -0.082,1.4301 -0.4586,2.0277 -0.3767,0.5977 -0.9629,1.0604 -1.6317,1.2881 -0.6688,0.2277 -1.4155,0.2189 -2.0787,-0.025 0.7162,0.3256 1.3349,0.8624 1.7583,1.5255 0.4234,0.6631 0.65,1.4502 0.644,2.237 -0.01,0.7778 -0.2391,1.5525 -0.6634,2.2044 -0.4243,0.6519 -1.0383,1.1788 -1.7471,1.4991 -0.7088,0.3203 -1.51,0.4331 -2.2796,0.3208 -0.7697,-0.1123 -1.5053,-0.4492 -2.093,-0.9587"
             style="fill:#ffffff;stroke:#000000;stroke-width:1.8;stroke-linecap:butt;stroke-linejoin:bevel;stroke-miterlimit:4;stroke-opacity:1;stroke-dasharray:none" />
          <path
             sodipodi:nodetypes="cscccccscc"
             inkscape:original-d="m -1724.0986,1099.8103 c 0,0 2.4915,3.0312 4.8939,4.7034 2.4024,1.6722 -0.8479,6.4101 -0.8479,6.4101 0,0 3.3916,-2.369 4.3807,0.1393 0.9893,2.5084 -1.837,5.574 -1.837,5.574 0,0 0.9892,-0.6967 2.261,0.6968 1.2719,1.3935 -2.1197,5.2952 -2.1197,5.2952 0,0 2.1197,0.4181 1.8371,2.7871 -0.2826,2.3689 -3.1968,5.1768 -3.1968,5.1768 0,0 1.501,0.2578 0.7944,1.7906"
             inkscape:path-effect="#path-effect4372"
             inkscape:connector-curvature="0"
             id="path15150"
             d="m -1724.0986,1099.8103 c 2.2573,0.6611 4.1438,2.4741 4.8939,4.7034 0.7118,2.1153 0.3894,4.5526 -0.8479,6.4101 0.6099,-0.5194 1.4166,-0.8019 2.2173,-0.7764 0.8007,0.025 1.5877,0.3586 2.1634,0.9157 0.4373,0.4232 0.7524,0.9714 0.8981,1.5623 0.1457,0.5909 0.1215,1.2226 -0.069,1.8006 -0.1905,0.578 -0.5467,1.1004 -1.0151,1.4889 -0.4685,0.3885 -1.0477,0.6419 -1.651,0.7222 0.8061,-0.085 1.6428,0.1726 2.261,0.6968 0.4771,0.4046 0.8229,0.9617 0.9736,1.5688 0.1508,0.6072 0.1058,1.2613 -0.1267,1.8421 -0.2325,0.5807 -0.6513,1.0852 -1.1794,1.4207 -0.528,0.3354 -1.1627,0.5 -1.7872,0.4636 0.9388,0.6477 1.612,1.669 1.8371,2.7871 0.2203,1.0943 0.01,2.2695 -0.5767,3.2193 -0.5865,0.9498 -1.543,1.6644 -2.6201,1.9575 l 0.7944,1.7906"
             style="fill:#ffffff;stroke:#000000;stroke-width:1.8;stroke-linecap:butt;stroke-linejoin:bevel;stroke-miterlimit:4;stroke-opacity:1;stroke-dasharray:none" />
          <path
             inkscape:original-d="m -1713.1281,1100.7513 c 0,0 5.0874,-0.1393 4.5221,3.0656 -0.5653,3.2051 -2.8263,3.2051 -2.8263,3.2051 l 0,0"
             inkscape:path-effect="#path-effect4369"
             sodipodi:nodetypes="cscc"
             inkscape:connector-curvature="0"
             id="path15152"
             d="m -1713.1281,1100.7513 c 0.9957,-0.4105 2.1938,-0.2874 3.0853,0.3169 0.8915,0.6044 1.4494,1.6718 1.4368,2.7487 -0.01,0.7759 -0.305,1.5452 -0.8182,2.1272 -0.5132,0.5819 -1.2395,0.9718 -2.0081,1.0779 l 0,0"
             style="fill:#ffffff;stroke:#000000;stroke-width:1.8;stroke-linecap:butt;stroke-linejoin:bevel;stroke-miterlimit:4;stroke-opacity:1;stroke-dasharray:none" />
          <path
             sodipodi:nodetypes="cccsc"
             inkscape:original-d="m -1700.551,1093.0871 c 0,0 6.0767,-2.2296 6.218,0.2787 0.1413,2.5082 -4.6635,7.3855 -4.6635,7.3855 0,0 2.685,-0.4181 2.4024,2.0902 -0.2826,2.5083 -7.8347,2.5304 -7.8347,2.5304"
             inkscape:path-effect="#path-effect4366"
             inkscape:connector-curvature="0"
             id="path15154"
             d="m -1700.551,1093.0871 c 0.8622,-0.754 2.0207,-1.1597 3.1649,-1.1084 1.1443,0.051 2.2618,0.559 3.0531,1.3871 0.6873,0.7192 1.1256,1.672 1.2246,2.6618 0.099,0.9898 -0.1418,2.0105 -0.6729,2.8517 -0.5311,0.8411 -1.3492,1.4974 -2.2855,1.8334 -0.9362,0.3361 -1.9849,0.3499 -2.9297,0.039 1.0327,0.3463 1.9166,1.1153 2.4024,2.0902 0.5326,1.0686 0.5745,2.3701 0.1117,3.4707 -0.4628,1.1007 -1.4221,1.9812 -2.5583,2.3481 -1.1363,0.367 -2.4293,0.214 -3.4485,-0.408 -1.0192,-0.6221 -1.7465,-1.7021 -1.9396,-2.8804"
             style="fill:#ffffff;stroke:#000000;stroke-width:1.8;stroke-linecap:butt;stroke-linejoin:bevel;stroke-miterlimit:4;stroke-opacity:1;stroke-dasharray:none" />
          <path
             sodipodi:nodetypes="csccc"
             inkscape:original-d="m -1692.8268,1097.3547 c 0,0 3.7225,0.3309 6.5488,1.585 2.8264,1.2542 0.9892,9.0578 0.9892,9.0578 0,0 3.6743,-3.2051 5.5114,-1.2542 1.8371,1.9509 -1.9784,7.5249 -1.9784,7.5249"
             inkscape:path-effect="#path-effect4363"
             inkscape:connector-curvature="0"
             id="path15156"
             d="m -1692.8268,1097.3547 c 1.1302,-0.3128 2.3402,-0.3325 3.4799,-0.057 1.1398,0.2758 2.2068,0.8466 3.0689,1.6416 1.2181,1.1233 2.0118,2.6963 2.1917,4.3436 0.1799,1.6472 -0.2556,3.3544 -1.2025,4.7142 0.5683,-0.8734 1.4854,-1.5128 2.5015,-1.7441 1.0161,-0.2312 2.1196,-0.052 3.0099,0.4899 0.7407,0.4505 1.3303,1.1448 1.6548,1.9487 0.3244,0.8039 0.382,1.713 0.1616,2.5514 -0.2204,0.8384 -0.7177,1.6016 -1.3956,2.1419 -0.6779,0.5404 -1.5327,0.855 -2.3992,0.8829"
             style="fill:#ffffff;stroke:#000000;stroke-width:1.8;stroke-linecap:butt;stroke-linejoin:bevel;stroke-miterlimit:4;stroke-opacity:1;stroke-dasharray:none" />
          <path
             sodipodi:nodetypes="ccccc"
             inkscape:original-d="m -1715.1487,1112.2527 c 0,0 7.4121,-1.5753 7.2709,0.2362 -0.1414,1.8116 -0.012,5.22 -0.012,5.22 0,0 3.4311,-0.5682 3.855,1.104 0.424,1.6722 -3.356,5.1769 -3.356,5.1769"
             inkscape:path-effect="#path-effect4360"
             inkscape:connector-curvature="0"
             id="path15158"
             d="m -1715.1487,1112.2527 c 0.8783,-1.0979 2.2894,-1.7481 3.6946,-1.7024 1.4052,0.046 2.7711,0.786 3.5763,1.9386 0.5308,0.7598 0.8208,1.6851 0.8187,2.6119 -0,0.9268 -0.2964,1.8508 -0.8307,2.6081 0.6685,-0.2635 1.4241,-0.3001 2.1149,-0.1022 0.6907,0.1978 1.3125,0.6288 1.7401,1.2062 0.3962,0.535 0.6245,1.1924 0.6452,1.8577 0.021,0.6654 -0.1662,1.3357 -0.5283,1.8943 -0.3621,0.5586 -0.8977,1.0029 -1.5136,1.2556 -0.6159,0.2527 -1.3092,0.3126 -1.9593,0.1693"
             style="fill:#ffffff;stroke:#000000;stroke-width:1.8;stroke-linecap:butt;stroke-linejoin:bevel;stroke-miterlimit:4;stroke-opacity:1;stroke-dasharray:none" />
          <path
             inkscape:original-d="m -1728.9556,1120.957 c 0,0 -3.3916,2.7869 -4.9461,6.9674 -1.5545,4.1805 -0.5653,6.8281 -0.5653,6.8281"
             inkscape:path-effect="#path-effect4356"
             inkscape:connector-curvature="0"
             id="path15160"
             d="m -1728.9556,1120.957 c -2.2907,1.7631 -4.0372,4.2234 -4.9461,6.9674 -0.7249,2.1885 -0.9204,4.5502 -0.5653,6.8281"
             style="fill:#ffffff;stroke:#000000;stroke-width:1.8;stroke-linecap:butt;stroke-linejoin:bevel;stroke-miterlimit:4;stroke-opacity:1;stroke-dasharray:none" />
          <path
             sodipodi:nodetypes="cscsccc"
             inkscape:original-d="m -1698.6782,1124.3014 c 0,0 7.9137,-11.2874 11.4466,-11.0087 3.5329,0.2788 1.5545,5.156 1.5545,5.156 0,0 3.3916,0.1393 3.6742,2.6476 0.2826,2.5083 -5.2287,3.9018 -5.2287,3.9018 0,0 1.6958,2.5083 1.2719,3.9018 -0.424,1.3935 -0.9892,1.3935 -0.9892,1.3935"
             inkscape:path-effect="#path-effect4353"
             inkscape:connector-curvature="0"
             id="path15162"
             d="m -1698.6782,1124.3014 c -1.7729,-1.4182 -2.8939,-3.6207 -2.9974,-5.8886 -0.1034,-2.268 0.8125,-4.5633 2.4488,-6.1371 1.6364,-1.5738 3.9657,-2.3995 6.2279,-2.2077 2.2622,0.1918 4.4193,1.3979 5.7673,3.2247 1.087,1.4731 1.6461,3.3275 1.5545,5.156 0.8174,-0.059 1.653,0.1776 2.3178,0.6567 0.6649,0.4791 1.1539,1.1968 1.3564,1.9909 0.1714,0.6722 0.1388,1.3949 -0.093,2.0489 -0.2313,0.654 -0.6604,1.2365 -1.2163,1.6514 -0.556,0.4148 -1.2366,0.6603 -1.9293,0.696 -0.6928,0.036 -1.3949,-0.1388 -1.9905,-0.4945 0.6153,0.4076 1.0871,1.0275 1.3158,1.7293 0.2288,0.7017 0.213,1.4806 -0.044,2.1725 -0.2006,0.5402 -0.5454,1.026 -0.9892,1.3935"
             style="fill:#ffffff;stroke:#000000;stroke-width:1.8;stroke-linecap:butt;stroke-linejoin:bevel;stroke-miterlimit:4;stroke-opacity:1;stroke-dasharray:none" />
          <path
             sodipodi:nodetypes="cscscsc"
             inkscape:original-d="m -1678.0803,1108.7061 c 0,0 5.934,-4.6105 9.3256,-2.9382 3.3916,1.6722 3.9569,7.8036 3.9569,7.8036 0,0 4.8047,-5.0167 7.631,-0.2788 2.8264,4.7379 -2.8263,7.2462 -2.8263,7.2462 0,0 7.6311,-2.2296 8.7616,4.1805 1.1306,6.4101 -3.1089,8.6397 -3.1089,8.6397"
             inkscape:path-effect="#path-effect4350"
             inkscape:connector-curvature="0"
             id="path15164"
             d="m -1678.0803,1108.7061 c 0.8835,-1.5604 2.3739,-2.7667 4.0842,-3.3056 1.7103,-0.5388 3.623,-0.4048 5.2414,0.3674 1.4156,0.6754 2.5976,1.8293 3.307,3.2282 0.7093,1.3989 0.9416,3.0343 0.6499,4.5754 0.7948,-1.2715 2.2431,-2.109 3.7415,-2.1638 1.4985,-0.055 3.004,0.6749 3.8895,1.885 0.4555,0.6224 0.7511,1.3608 0.851,2.1256 0.1,0.7647 0,1.5543 -0.2764,2.2728 -0.2802,0.7186 -0.7441,1.3646 -1.3355,1.8597 -0.5913,0.4952 -1.3088,0.8384 -2.0654,0.9881 1.6971,-0.5539 3.6053,-0.43 5.2165,0.3387 1.6112,0.7688 2.908,2.1741 3.5451,3.8418 0.5949,1.5573 0.6122,3.3278 0.048,4.8964 -0.5644,1.5685 -1.7058,2.9221 -3.1566,3.7433"
             style="fill:#ffffff;stroke:#000000;stroke-width:1.8;stroke-linecap:butt;stroke-linejoin:bevel;stroke-miterlimit:4;stroke-opacity:1;stroke-dasharray:none" />
          <path
             sodipodi:nodetypes="cssc"
             inkscape:original-d="m -1723.4337,1135.7972 c 0,0 9.2865,1.6722 22.295,-0.5832 13.0084,-2.2553 22.101,-4.4375 32.624,-4.1449 7.5341,0.2095 20.0037,4.0007 20.0037,4.0007"
             inkscape:path-effect="#path-effect4347"
             inkscape:connector-curvature="0"
             id="path15166"
             d="m -1723.4337,1135.7972 c 7.4266,0.5426 14.9069,0.3469 22.295,-0.5832 10.8912,-1.3712 21.6485,-4.3371 32.624,-4.1449 6.8357,0.1197 13.6478,1.4821 20.0037,4.0007"
             style="fill:none;stroke:#000000;stroke-width:1.8;stroke-linecap:butt;stroke-linejoin:bevel;stroke-miterlimit:4;stroke-opacity:1;stroke-dasharray:none" />
          <path
             style="fill:none;stroke:#000000;stroke-width:1.8;stroke-linecap:butt;stroke-linejoin:bevel;stroke-miterlimit:4;stroke-opacity:1;stroke-dasharray:none"
             d="m -1700.8842,1141.6165 c -7.4266,0.5426 -14.9069,0.347 -22.295,-0.5832 -10.8912,-1.3712 -21.6485,-4.3372 -32.624,-4.145 -6.8357,0.1197 -13.6478,1.4821 -20.0037,4.0007"
             id="path15168"
             inkscape:connector-curvature="0"
             inkscape:path-effect="#path-effect4344"
             inkscape:original-d="m -1700.8842,1141.6165 c 0,0 -9.2865,1.6722 -22.295,-0.5832 -13.0084,-2.2554 -22.101,-4.4376 -32.624,-4.145 -7.5341,0.2095 -20.0037,4.0007 -20.0037,4.0007"
             sodipodi:nodetypes="cssc" />
          <path
             inkscape:original-d="m -1735.0752,1103.6259 c 0,0 2.7979,-0.3941 2.9978,-1.5765 0.1998,-1.1824 -2.1984,-1.5766 -2.1984,-1.5766 0,0 0.5996,-2.3648 -0.5996,-3.5472 -1.199,-1.1825 -4.1968,0.9853 -4.1968,0.9853 0,0 -0.5996,-5.5179 -1.399,-5.9121 -0.7994,-0.3941 -1.5988,-2.3648 -3.5973,-1.7736 -1.9985,0.5912 -2.3983,2.1678 -2.3983,2.1678 0,0 -1.3989,-0.9854 -7.994,1.1824 -6.5951,2.1677 -5.5959,9.0652 -5.5959,9.0652 0,0 -4.228,0.3403 -4.5107,5.0782 -0.2826,4.7379 4.5222,8.6396 4.5222,8.6396 0,0 -2.984,5.0069 -5.5278,9.1873 -2.5436,4.1805 0.1687,9.6424 4.3171,11.6832"
             inkscape:path-effect="#path-effect4341"
             sodipodi:nodetypes="ccccccccscscsc"
             inkscape:connector-curvature="0"
             id="path15170"
             d="m -1735.0752,1103.6259 c 0.2746,0.2373 0.6216,0.3896 0.9821,0.431 0.3606,0.041 0.7331,-0.028 1.0543,-0.1972 0.3212,-0.1689 0.5897,-0.4363 0.7599,-0.7568 0.1703,-0.3206 0.2414,-0.6928 0.2015,-1.0535 -0.056,-0.5053 -0.3348,-0.9818 -0.7479,-1.2781 -0.4132,-0.2963 -0.954,-0.4076 -1.4505,-0.2985 0.3444,-0.557 0.4781,-1.2409 0.369,-1.8866 -0.1092,-0.6458 -0.4603,-1.2477 -0.9686,-1.6606 -0.6434,-0.5226 -1.5333,-0.727 -2.3403,-0.5376 -0.8069,0.1895 -1.5129,0.7686 -1.8565,1.5229 0.4317,-2.047 -0.096,-4.2756 -1.399,-5.9121 -0.4357,-0.547 -0.9584,-1.0337 -1.5742,-1.365 -0.6159,-0.3313 -1.3299,-0.5007 -2.0231,-0.4086 -0.5679,0.075 -1.1112,0.3269 -1.5362,0.711 -0.425,0.3842 -0.7299,0.8994 -0.8621,1.4568 -2.6873,-0.6145 -5.5997,-0.1838 -7.994,1.1824 -3.2163,1.8352 -5.3968,5.3675 -5.5959,9.0652 -2.2004,0.8361 -3.9399,2.7945 -4.5107,5.0782 -0.4311,1.7248 -0.2069,3.605 0.6175,5.1801 0.8245,1.5751 2.2418,2.8308 3.9047,3.4595 -2.9986,2.1283 -5.052,5.5411 -5.5278,9.1873 -0.5587,4.2819 1.1083,8.7934 4.3171,11.6832"
             style="fill:#ffffff;stroke:#000000;stroke-width:1.8;stroke-linecap:butt;stroke-linejoin:bevel;stroke-miterlimit:4;stroke-opacity:1;stroke-dasharray:none;display:inline;enable-background:new" />
          <path
             inkscape:original-d="m -1749.5878,1103.3989 c 0,0 5.5113,-2.3689 6.6419,-0.5574 1.1305,1.8116 -1.9785,3.9018 -1.9785,3.9018 0,0 1.9785,1.6722 1.2719,3.6231 -0.7066,1.9509 -3.109,2.369 -3.109,2.369"
             inkscape:path-effect="#path-effect4338"
             inkscape:connector-curvature="0"
             id="path15172"
             d="m -1749.5878,1103.3989 c 0.055,-0.795 0.4029,-1.5664 0.9622,-2.1339 0.5594,-0.5676 1.3256,-0.9267 2.1197,-0.9933 0.7941,-0.067 1.6094,0.1597 2.2556,0.6261 0.6461,0.4664 1.1176,1.169 1.3044,1.9437 0.186,0.7713 0.088,1.6077 -0.2706,2.3153 -0.3588,0.7076 -0.9758,1.2807 -1.7079,1.5865 0.5596,0.392 0.9921,0.9624 1.2184,1.6071 0.2263,0.6446 0.2453,1.3603 0.053,2.016 -0.1958,0.6694 -0.6105,1.2727 -1.1652,1.6954 -0.5547,0.4227 -1.2465,0.6624 -1.9438,0.6736"
             style="fill:#ffffff;stroke:#000000;stroke-width:1.8;stroke-linecap:butt;stroke-linejoin:bevel;stroke-miterlimit:4;stroke-opacity:1;stroke-dasharray:none" />
          <path
             inkscape:original-d="m -1741.6741,1115.383 c 0,0 2.4024,-2.2296 3.8156,0 1.4131,2.2296 0.1413,7.1068 0.1413,7.1068"
             inkscape:path-effect="#path-effect4335"
             inkscape:connector-curvature="0"
             id="path15174"
             d="m -1741.6741,1115.383 c 1.1692,-0.6209 2.6464,-0.6209 3.8156,0 0.6364,0.3379 1.1801,0.8484 1.5575,1.4621 0.3773,0.6138 0.5874,1.3294 0.6018,2.0498 0.014,0.7204 -0.1672,1.4437 -0.5199,2.072 -0.3527,0.6283 -0.8757,1.1599 -1.4981,1.5229"
             style="fill:#ffffff;stroke:#000000;stroke-width:1.8;stroke-linecap:butt;stroke-linejoin:bevel;stroke-miterlimit:4;stroke-opacity:1;stroke-dasharray:none" />
          <path
             inkscape:original-d="m -1743.5723,1125.9736 c 0,0 -3.8155,3.7623 -3.8155,5.7133 0,1.9509 3.6742,1.2541 3.6742,1.2541"
             inkscape:path-effect="#path-effect4332"
             inkscape:connector-curvature="0"
             id="path15176"
             d="m -1743.5723,1125.9736 c -0.7289,-0.2097 -1.5241,-0.1816 -2.2364,0.079 -0.7122,0.2607 -1.3377,0.7526 -1.7589,1.3833 -0.4212,0.6308 -0.636,1.397 -0.6039,2.1548 0.032,0.7577 0.3107,1.5031 0.7837,2.096 0.4261,0.5341 1.0072,0.9431 1.6539,1.1638 0.6466,0.2207 1.3565,0.2525 2.0203,0.09"
             style="fill:#ffffff;stroke:#000000;stroke-width:1.8;stroke-linecap:butt;stroke-linejoin:bevel;stroke-miterlimit:4;stroke-opacity:1;stroke-dasharray:none" />
        </g>
      </g>
    </g>
  </g>
</svg>
