<?xml version="1.0" encoding="UTF-8" standalone="no"?>
<!-- Created with Inkscape (http://www.inkscape.org/) -->

<svg
   xmlns:dc="http://purl.org/dc/elements/1.1/"
   xmlns:cc="http://creativecommons.org/ns#"
   xmlns:rdf="http://www.w3.org/1999/02/22-rdf-syntax-ns#"
   xmlns:svg="http://www.w3.org/2000/svg"
   xmlns="http://www.w3.org/2000/svg"
   xmlns:sodipodi="http://sodipodi.sourceforge.net/DTD/sodipodi-0.dtd"
   xmlns:inkscape="http://www.inkscape.org/namespaces/inkscape"
   width="70"
   height="70"
   id="svg15338"
   version="1.1"
   inkscape:version="0.48.3.1 r9886"
   sodipodi:docname="5.svg">
  <defs
     id="defs15340">
    <inkscape:path-effect
       effect="spiro"
       id="path-effect4394"
       is_visible="true" />
    <inkscape:path-effect
       effect="spiro"
       id="path-effect4396"
       is_visible="true" />
    <inkscape:path-effect
       effect="spiro"
       id="path-effect4398"
       is_visible="true" />
    <inkscape:path-effect
       effect="spiro"
       id="path-effect4391"
       is_visible="true" />
    <inkscape:path-effect
       effect="spiro"
       id="path-effect4388"
       is_visible="true" />
    <inkscape:path-effect
       effect="spiro"
       id="path-effect4385"
       is_visible="true" />
    <inkscape:path-effect
       effect="spiro"
       id="path-effect4382"
       is_visible="true" />
    <inkscape:path-effect
       effect="spiro"
       id="path-effect4378"
       is_visible="true" />
    <inkscape:path-effect
       effect="spiro"
       id="path-effect4375"
       is_visible="true" />
    <inkscape:path-effect
       effect="spiro"
       id="path-effect4372"
       is_visible="true" />
    <inkscape:path-effect
       effect="spiro"
       id="path-effect4369"
       is_visible="true" />
    <inkscape:path-effect
       effect="spiro"
       id="path-effect4366"
       is_visible="true" />
    <inkscape:path-effect
       effect="spiro"
       id="path-effect4363"
       is_visible="true" />
    <inkscape:path-effect
       effect="spiro"
       id="path-effect4360"
       is_visible="true" />
    <inkscape:path-effect
       effect="spiro"
       id="path-effect4356"
       is_visible="true" />
    <inkscape:path-effect
       effect="spiro"
       id="path-effect4353"
       is_visible="true" />
    <inkscape:path-effect
       effect="spiro"
       id="path-effect4350"
       is_visible="true" />
    <inkscape:path-effect
       effect="spiro"
       id="path-effect4347"
       is_visible="true" />
    <inkscape:path-effect
       is_visible="true"
       id="path-effect4344"
       effect="spiro" />
    <inkscape:path-effect
       effect="spiro"
       id="path-effect4341"
       is_visible="true" />
    <inkscape:path-effect
       effect="spiro"
       id="path-effect4338"
       is_visible="true" />
    <inkscape:path-effect
       effect="spiro"
       id="path-effect4335"
       is_visible="true" />
    <inkscape:path-effect
       effect="spiro"
       id="path-effect4332"
       is_visible="true" />
  </defs>
  <sodipodi:namedview
     id="base"
     pagecolor="#ffffff"
     bordercolor="#666666"
     borderopacity="1.0"
     inkscape:pageopacity="0.0"
     inkscape:pageshadow="2"
     inkscape:zoom="1.979899"
     inkscape:cx="163.36156"
     inkscape:cy="57.309138"
     inkscape:document-units="px"
     inkscape:current-layer="g15315"
     showgrid="false"
     borderlayer="true"
     inkscape:showpageshadow="false"
     inkscape:window-width="1280"
     inkscape:window-height="744"
     inkscape:window-x="0"
     inkscape:window-y="27"
     inkscape:window-maximized="1" />
  <metadata
     id="metadata15343">
    <rdf:RDF>
      <cc:Work
         rdf:about="">
        <dc:format>image/svg+xml</dc:format>
        <dc:type
           rdf:resource="http://purl.org/dc/dcmitype/StillImage" />
        <dc:title></dc:title>
      </cc:Work>
    </rdf:RDF>
  </metadata>
  <g
     inkscape:label="Layer 1"
     inkscape:groupmode="layer"
     id="layer1"
     transform="translate(0,-982.3622)">
    <g
       transform="translate(1800.5473,-114.51193)"
       id="g15315">
      <g
         style="stroke-width:3.02470112;stroke-miterlimit:4;stroke-dasharray:none;display:inline;enable-background:new"
         transform="matrix(0.66122234,0,0,0.66122234,-2530.0965,686.0469)"
         id="g15258">
        <path
           style="fill:#ffffff;stroke:#000000;stroke-width:3.02470112;stroke-linecap:butt;stroke-linejoin:miter;stroke-miterlimit:4;stroke-opacity:1;stroke-dasharray:none;enable-background:new"
           d="m 1122.2065,668.76724 -0.4156,-6.49714 2.3495,-6.4854 1.4877,-16.41702 c 0,0 3.4187,-4.23293 5.6931,-5.62876 2.184,-1.34025 4.7332,-2.50365 7.2945,-2.42636 2.1715,0.0656 5.8711,1.35888 6.0489,2.42636 0.178,1.06744 1.6013,5.69318 1.4233,6.4048 -0.1779,0.71167 -0.3558,6.04899 -0.3558,6.9386 0,0.88954 2.4908,9.07349 2.4908,9.07349"
           id="path15260"
           inkscape:connector-curvature="0"
           sodipodi:nodetypes="ccccssscsc" />
        <path
           style="fill:#ffffff;stroke:#000000;stroke-width:3.02470112;stroke-linecap:butt;stroke-linejoin:miter;stroke-miterlimit:4;stroke-opacity:1;stroke-dasharray:none;enable-background:new"
           d="m 1114.6099,684.94827 7.9936,-16.69445 c 0,0 2.9432,-10.48099 6.5827,-14.23297 2.3082,-2.37961 5.5982,-4.10447 8.8956,-4.44779 2.5609,-0.26665 7.4723,1.95701 7.4723,1.95701 0,0 2.4907,3.9141 2.6686,4.62574 0.178,0.71166 0,6.40484 0,6.40484"
           id="path15262"
           inkscape:connector-curvature="0"
           sodipodi:nodetypes="ccsscsc" />
        <path
           style="fill:#ffffff;stroke:#000000;stroke-width:3.02470112;stroke-linecap:round;stroke-linejoin:round;stroke-miterlimit:4;stroke-opacity:1;stroke-dasharray:none;enable-background:new"
           d="m 1177.7867,686.75659 c 0,0 3.1287,-0.83501 4.951,-0.53372 1.9901,0.32908 3.3802,1.6012 5.5152,2.49077 2.135,0.88958 2.6687,4.6257 2.6687,4.6257 l 0.3558,6.22693 c 0,0 -0.6776,2.6021 -2.0854,3.69798 -3.1134,2.42368 -7.8094,1.7308 -11.6138,2.77674 -3.2423,0.89137 -7.595,3.13551 -10.92,3.63695 -4.0637,0.61288 -8.5862,0.30153 -13.8796,-0.52476 -2.4638,-0.38461 -0.9976,-7.98571 -0.9976,-7.98571 l 3.0245,-8.36189 c 0,0 0.9836,-2.57016 1.2453,-3.91403 0.2958,-1.51793 -0.1505,-3.10668 0.3559,-4.62569 0.2965,-0.88957 0.9971,-1.73721 0.8896,-2.66868 -0.1039,-0.89927 -1.3524,-1.41041 -1.4233,-2.31287 -0.061,-0.76859 0.7943,-1.36986 0.8895,-2.13491 0.2,-1.60629 -0.7117,-4.80361 -0.7117,-4.80361 l 16.0572,2.62825 5.4702,-3.33991 -1.957,8.8956 1.6012,6.22686"
           id="path15264"
           inkscape:connector-curvature="0"
           sodipodi:nodetypes="csssssccsssscccsccccc" />
        <path
           style="fill:#ffffff;stroke:#000000;stroke-width:3.02470112;stroke-linecap:round;stroke-linejoin:round;stroke-miterlimit:4;stroke-opacity:1;stroke-dasharray:none;enable-background:new"
           d="m 1177.5782,671.63413 c 0.4524,-2.05674 -3.2914,2.8812 -5.3374,3.38031 -3.354,0.81825 -6.9287,-0.2372 -10.3189,-0.88958 -2.008,-0.38643 -5.3122,0.188 -5.8711,-1.77907 -0.3673,-1.29335 1.4512,-2.45406 2.6687,-3.02453 3.7607,-1.76211 8.345,-0.95926 12.4539,-0.35577 2.2254,0.32686 6.4048,2.12409 6.4048,2.12409"
           id="path15266"
           inkscape:connector-curvature="0"
           sodipodi:nodetypes="caaaaac" />
        <path
           style="fill:#ffffff;stroke:#000000;stroke-width:3.02470112;stroke-linecap:butt;stroke-linejoin:miter;stroke-miterlimit:4;stroke-opacity:1;stroke-dasharray:none;enable-background:new"
           d="m 1113.5503,696.64084 c 0.9263,3.07167 1.9692,4.85039 4.585,6.7111 2.6159,1.86071 7.1427,1.8734 10.9225,1.18695 3.7798,-0.68644 6.742,-3.10349 9.0151,-5.82152 2.2731,-2.71804 1.8712,-5.49063 1.9481,-8.8867 0.091,-4.02639 -1.3738,-7.53133 -0.2795,-12.3839 1.0942,-4.85257 8.3257,-10.65415 8.4812,-14.88612 0.1556,-4.23198 -3.5582,-7.47236 -3.5582,-7.47236 0,0 -5.1557,-1.91802 -7.6502,-1.24535 -3.3358,0.89951 -6.043,3.73969 -8.006,6.58275 -2.5255,3.65746 -2.0116,8.80357 -4.2699,12.63173 -2.8154,4.77248 -6.7238,6.6307 -9.5399,10.99239 -1.7604,2.72677 -2.5746,9.51935 -1.6482,12.59103 z"
           id="path15268"
           inkscape:connector-curvature="0"
           sodipodi:nodetypes="zzzzszzcssssz" />
        <path
           inkscape:connector-curvature="0"
           id="path15270"
           d="m 1151.7809,701.16747 16.7028,1.02585 9.2574,-1.81519 10.165,-2.17823 3.0155,-4.86056"
           style="fill:none;stroke:#000000;stroke-width:3.02470112;stroke-linecap:butt;stroke-linejoin:miter;stroke-miterlimit:4;stroke-opacity:1;stroke-dasharray:none;enable-background:new" />
        <path
           sodipodi:nodetypes="cccc"
           inkscape:connector-curvature="0"
           id="path15272"
           d="m 1181.3143,690.13694 -4.0919,-3.38035 -1.6012,-6.22686 1.957,-8.8956"
           style="fill:none;stroke:#000000;stroke-width:3.02470112;stroke-linecap:round;stroke-linejoin:round;stroke-miterlimit:4;stroke-opacity:1;stroke-dasharray:none;enable-background:new" />
      </g>
    </g>
  </g>
</svg>
