<?xml version="1.0" encoding="UTF-8" standalone="no"?>
<!-- Created with Inkscape (http://www.inkscape.org/) -->

<svg
   xmlns:dc="http://purl.org/dc/elements/1.1/"
   xmlns:cc="http://creativecommons.org/ns#"
   xmlns:rdf="http://www.w3.org/1999/02/22-rdf-syntax-ns#"
   xmlns:svg="http://www.w3.org/2000/svg"
   xmlns="http://www.w3.org/2000/svg"
   xmlns:sodipodi="http://sodipodi.sourceforge.net/DTD/sodipodi-0.dtd"
   xmlns:inkscape="http://www.inkscape.org/namespaces/inkscape"
   width="180"
   height="130"
   id="svg15338"
   version="1.1"
   inkscape:version="0.48.3.1 r9886"
   sodipodi:docname="3.svg">
  <defs
     id="defs15340">
    <inkscape:path-effect
       effect="spiro"
       id="path-effect4394"
       is_visible="true" />
    <inkscape:path-effect
       effect="spiro"
       id="path-effect4396"
       is_visible="true" />
    <inkscape:path-effect
       effect="spiro"
       id="path-effect4398"
       is_visible="true" />
    <inkscape:path-effect
       effect="spiro"
       id="path-effect4391"
       is_visible="true" />
    <inkscape:path-effect
       effect="spiro"
       id="path-effect4388"
       is_visible="true" />
    <inkscape:path-effect
       effect="spiro"
       id="path-effect4385"
       is_visible="true" />
    <inkscape:path-effect
       effect="spiro"
       id="path-effect4382"
       is_visible="true" />
    <inkscape:path-effect
       effect="spiro"
       id="path-effect4378"
       is_visible="true" />
    <inkscape:path-effect
       effect="spiro"
       id="path-effect4375"
       is_visible="true" />
    <inkscape:path-effect
       effect="spiro"
       id="path-effect4372"
       is_visible="true" />
    <inkscape:path-effect
       effect="spiro"
       id="path-effect4369"
       is_visible="true" />
    <inkscape:path-effect
       effect="spiro"
       id="path-effect4366"
       is_visible="true" />
    <inkscape:path-effect
       effect="spiro"
       id="path-effect4363"
       is_visible="true" />
    <inkscape:path-effect
       effect="spiro"
       id="path-effect4360"
       is_visible="true" />
    <inkscape:path-effect
       effect="spiro"
       id="path-effect4356"
       is_visible="true" />
    <inkscape:path-effect
       effect="spiro"
       id="path-effect4353"
       is_visible="true" />
    <inkscape:path-effect
       effect="spiro"
       id="path-effect4350"
       is_visible="true" />
    <inkscape:path-effect
       effect="spiro"
       id="path-effect4347"
       is_visible="true" />
    <inkscape:path-effect
       is_visible="true"
       id="path-effect4344"
       effect="spiro" />
    <inkscape:path-effect
       effect="spiro"
       id="path-effect4341"
       is_visible="true" />
    <inkscape:path-effect
       effect="spiro"
       id="path-effect4338"
       is_visible="true" />
    <inkscape:path-effect
       effect="spiro"
       id="path-effect4335"
       is_visible="true" />
    <inkscape:path-effect
       effect="spiro"
       id="path-effect4332"
       is_visible="true" />
  </defs>
  <sodipodi:namedview
     id="base"
     pagecolor="#ffffff"
     bordercolor="#666666"
     borderopacity="1.0"
     inkscape:pageopacity="0.0"
     inkscape:pageshadow="2"
     inkscape:zoom="1.979899"
     inkscape:cx="169.42248"
     inkscape:cy="52.258375"
     inkscape:document-units="px"
     inkscape:current-layer="g15315"
     showgrid="false"
     borderlayer="true"
     inkscape:showpageshadow="false"
     inkscape:window-width="1280"
     inkscape:window-height="744"
     inkscape:window-x="0"
     inkscape:window-y="27"
     inkscape:window-maximized="1" />
  <metadata
     id="metadata15343">
    <rdf:RDF>
      <cc:Work
         rdf:about="">
        <dc:format>image/svg+xml</dc:format>
        <dc:type
           rdf:resource="http://purl.org/dc/dcmitype/StillImage" />
        <dc:title></dc:title>
      </cc:Work>
    </rdf:RDF>
  </metadata>
  <g
     inkscape:label="Layer 1"
     inkscape:groupmode="layer"
     id="layer1"
     transform="translate(0,-922.36218)">
    <g
       transform="translate(1800.5473,-114.51193)"
       id="g15315">
      <g
         transform="translate(-219.55837,-54.882747)"
         id="g15534">
        <g
           id="g15132"
           transform="matrix(0.52054144,0,0,0.52054144,-1550.3619,1058.5305)"
           style="fill:#ffffff;stroke-width:3.84215331;stroke-miterlimit:4;stroke-dasharray:none;display:inline;enable-background:new">
          <path
             inkscape:connector-curvature="0"
             id="path15134"
             d="m 107.17459,78.781789 c -2.18086,0.07299 -4.32567,1.039465 -5.82029,2.631275 -1.594289,1.697817 -2.415415,4.081575 -2.219,6.402318 -1.195992,-2.950576 -3.735694,-5.328514 -6.753941,-6.341671 -3.018285,-1.013234 -6.469212,-0.636972 -9.203351,0.994261 -1.693743,1.010635 -3.106249,2.475796 -4.049951,4.207603 -0.943857,1.732041 -1.414873,3.727818 -1.345922,5.699033 0.06883,1.97106 0.683612,3.916007 1.746086,5.577777 0.503649,0.787912 1.109464,1.509705 1.794589,2.146255 -1.623045,-0.826718 -3.440605,-1.261998 -5.26255,-1.236854 -2.404051,0.03337 -4.801156,0.860277 -6.705438,2.328114 -1.904243,1.46788 -3.308873,3.56442 -3.952946,5.88094 -0.644151,2.31643 -0.521576,4.84104 0.351662,7.08135 0.405053,1.03919 0.980369,2.01188 1.673294,2.88589 -0.08114,-0.0279 -0.159903,-0.0616 -0.242512,-0.0849 -1.351549,-0.38072 -2.86238,-0.13161 -4.0257,0.65482 -1.306733,0.88345 -2.134145,2.43611 -2.134106,4.01356 0,0.86614 0.262456,1.7164 0.703324,2.46148 -0.429538,-0.30568 -0.903193,-0.54649 -1.40657,-0.70325 -1.179113,-0.36714 -2.494692,-0.28019 -3.613468,0.24251 -0.799204,0.37339 -1.48623,0.96012 -1.988599,1.68544 -0.50233,0.72513 -0.816548,1.59399 -0.88515,2.47363 -0.06856,0.8794 0.101274,1.77619 0.485025,2.57062 0.383828,0.79432 0.977963,1.48363 1.70969,1.97646 -2.154826,-1.16984 -4.782725,-1.41523 -7.117709,-0.66689 -2.122853,0.68012 -3.984492,2.15929 -5.104898,4.08635 -1.120366,1.92702 -1.4898,4.28163 -1.030656,6.46292 0.459104,2.18137 1.750704,4.16892 3.552782,5.48077 1.802155,1.31213 4.100509,1.93083 6.317458,1.69759 -3.259867,0.72944 -6.279239,2.51394 -8.487922,5.02 -2.298005,2.60718 -3.700074,5.99133 -3.94084,9.45797 -0.326828,-0.22866 -0.666423,-0.429 -1.01855,-0.61839 -1.478897,-0.79563 -3.197551,-1.2034 -4.862347,-0.98219 -1.363655,0.18101 -2.665615,0.77503 -3.686183,1.69758 -1.020569,0.92244 -1.755981,2.16577 -2.073498,3.50432 -6.453187,-1.47571 -13.445139,-0.44339 -19.1947692,2.83735 -7.723407,4.40689 -12.9571271,12.88624 -13.4351669,21.76548 -5.2839686,2.00796 -9.4696489,6.7144 -10.8402879,12.19835 -1.035119,4.14168 -0.488322,8.6585 1.491468,12.44087 1.979713,3.78249 5.3798097,6.7962 9.3730711,8.30602 -7.2005901,5.11079 -12.1350691,13.31282 -13.2775531,22.06859 -1.331682,10.20623 2.603842,20.94408 10.1976503,27.88889 l 0,0.63053 c 4.594148,-0.73316 9.0530713,-1.24938 12.9622878,-1.35807 25.2694829,-0.7027 47.1056929,4.53917 78.3434559,9.95514 27.657861,4.79522 48.231301,2.19956 52.600861,1.53993 l -1.21256,-15.26611 c 0.51149,-0.0845 1.02348,-0.16506 1.53993,-0.25466 31.2378,-5.41589 53.07394,-10.65776 78.34353,-9.9551 10.17674,0.28298 24.10174,3.29413 34.33971,5.86879 l 0,-0.29101 c 3.48371,-1.97172 6.22309,-5.21836 7.57852,-8.98505 1.35539,-3.76666 1.30735,-8.02234 -0.1213,-11.76188 -1.52984,-4.0047 -4.64303,-7.38144 -8.51213,-9.22756 -3.38547,-1.61521 -7.31354,-2.04579 -10.97369,-1.23681 1.2405,-0.44071 2.39784,-1.10698 3.40732,-1.95224 1.41995,-1.18905 2.54036,-2.73678 3.21326,-4.46222 0.67302,-1.72545 0.8947,-3.62007 0.65478,-5.45649 -0.23999,-1.83645 -0.94343,-3.61036 -2.0371,-5.10489 -2.12642,-2.90596 -5.7383,-4.65429 -9.33671,-4.52287 -3.59834,0.13142 -7.07639,2.13643 -8.98505,5.18976 0.70041,-3.7007 0.13914,-7.62652 -1.56423,-10.98576 -1.70332,-3.35928 -4.54296,-6.12644 -7.94224,-7.74828 -0.0245,-0.0116 -0.0482,-0.0248 -0.0728,-0.0365 l 0,-0.0485 c 1.57117,-0.6885 2.85319,-2.00935 3.49218,-3.60128 0.63914,-1.59177 0.63456,-3.43622 -0.0241,-5.02 -0.7017,-1.6866 -2.12809,-3.04743 -3.84384,-3.67404 -1.71582,-0.62665 -3.69968,-0.51001 -5.32312,0.32737 1.3046,-1.32345 1.97626,-3.2445 1.78245,-5.09275 -0.19393,-1.84833 -1.25012,-3.5839 -2.801,-4.60773 -0.68353,-0.45126 -1.45212,-0.76261 -2.2554,-0.92154 2.38054,-0.48514 4.6444,-1.55208 6.52362,-3.09201 1.9688,-1.61339 3.51723,-3.73085 4.45007,-6.0992 1.11443,-2.82967 1.33285,-6.00176 0.63053,-8.96084 -0.70239,-2.95903 -2.32823,-5.69701 -4.59558,-7.72399 1.80336,0.32287 3.71668,-0.007 5.31097,-0.90944 1.5943,-0.90265 2.86529,-2.37382 3.51647,-4.08631 0.63371,-1.66658 0.67996,-3.52519 0.27887,-5.26251 -0.40129,-1.73747 -1.23647,-3.35838 -2.31597,-4.77748 -1.7055,-2.24182 -4.03249,-4.00262 -6.64483,-5.05636 -2.61238,-1.05386 -5.51023,-1.38884 -8.29392,-0.95794 -0.1029,-5.31753 -2.98685,-10.50504 -7.45726,-13.38667 -3.95112,-2.54692 -9.03103,-3.27205 -13.53217,-1.91584 -4.50106,1.35601 -8.3475,4.7641 -10.23401,9.06995 -0.70817,-2.03163 -2.01494,-3.8533 -3.71043,-5.17761 -1.69565,-1.32439 -3.77473,-2.14521 -5.9173,-2.34027 -3.23716,-0.29477 -6.57533,0.89291 -8.90019,3.16481 -2.30736,2.25478 -3.56725,5.53486 -3.37092,8.75464 -0.19207,-0.0428 -0.38794,-0.0762 -0.58203,-0.10911 -2.98095,-0.50567 -6.14641,0.17123 -8.65768,1.8552 1.13143,-1.01607 1.98732,-2.3344 2.44938,-3.78319 0.46201,-1.44875 0.52813,-3.01518 0.19401,-4.49858 -0.40354,-1.79179 -1.40677,-3.44864 -2.801,-4.64408 -1.39423,-1.19553 -3.17563,-1.92384 -5.00789,-2.04925 2.25633,-0.60085 4.22987,-2.18657 5.31101,-4.25607 1.08118,-2.06954 1.25637,-4.59511 0.46077,-6.79033 -0.56631,-1.56244 -1.60659,-2.94565 -2.9465,-3.928699 -1.33998,-0.983047 -2.97164,-1.565735 -4.63202,-1.636976 -1.66025,-0.07108 -3.34616,0.359927 -4.76534,1.224667 -0.23972,0.146128 -0.46741,0.315498 -0.69114,0.485028 0.1833,-0.375762 0.34425,-0.766032 0.47288,-1.164062 0.55246,-1.710195 0.58253,-3.575365 0.0727,-5.298869 -0.5097,-1.723426 -1.5525,-3.291334 -2.94654,-4.425825 -1.39384,-1.134491 -3.13197,-1.839522 -4.92295,-1.988599 -1.79176,-0.149154 -3.62713,0.262806 -5.18976,1.151913 -1.06267,0.604418 -2.00385,1.425389 -2.74042,2.400869 0.4106,-0.862295 0.66743,-1.790049 0.76393,-2.740386 0.15459,-1.520608 -0.11272,-3.085296 -0.77604,-4.462221 -0.66324,-1.377042 -1.72176,-2.568338 -3.00715,-3.395169 -1.28524,-0.827101 -2.8008,-1.288689 -4.32882,-1.32171 -0.14551,-0.0039 -0.29113,-0.0047 -0.43652,0 z"
             style="fill:#ffffff;stroke:none;enable-background:new" />
          <path
             sodipodi:nodetypes="cscscsaccc"
             inkscape:original-d="m 151.88372,128.22743 c 0,0 6.16629,-14.6719 12.27464,-11.99488 6.10824,2.67703 9.62711,7.51943 9.62711,7.51943 0,0 13.58037,-10.50523 23.76083,-7.15896 10.1805,3.34624 7.46568,13.38508 7.46568,13.38508 0,0 16.28882,-5.35405 14.93141,6.02322 -1.35745,11.37727 3.45248,6.93204 2.03609,10.0388 -1.40149,3.07404 -8.81995,4.99357 -8.81995,4.99357 12.51219,6.46886 -0.62952,11.12607 3.95927,16.67967 7.16738,9.06525 -6.42272,1.70984 -11.30897,9.26749"
             inkscape:path-effect="#path-effect4394;#path-effect4396;#path-effect4398"
             inkscape:connector-curvature="0"
             id="path15136"
             d="m 151.88372,128.22743 c -0.22,-3.24309 1.04503,-6.55763 3.36985,-8.82946 2.32482,-2.27183 5.66764,-3.46012 8.90479,-3.16542 2.14263,0.19506 4.22419,1.01908 5.91976,2.34344 1.69558,1.32436 2.99919,3.14439 3.70735,5.17599 1.88652,-4.30578 5.72643,-7.70945 10.22749,-9.06558 4.50107,-1.35614 9.58215,-0.6403 13.53334,1.90662 4.47036,2.88157 7.36285,8.06747 7.46568,13.38508 2.78371,-0.43098 5.68204,-0.0965 8.29438,0.95735 2.61234,1.05379 4.93154,2.82398 6.63703,5.06587 1.07958,1.41912 1.92054,3.03736 2.32174,4.77472 0.4012,1.73736 0.34807,3.59741 -0.28565,5.26408 -0.65115,1.7125 -1.91517,3.18462 -3.50949,4.08728 -1.59432,0.90265 -3.50701,1.22907 -5.31046,0.90629 2.26735,2.02695 3.89485,4.75942 4.59725,7.71849 0.7024,2.95907 0.47654,6.13147 -0.63798,8.96118 -0.93279,2.36832 -2.48008,4.49159 -4.44885,6.10496 -1.96877,1.61337 -4.35468,2.71328 -6.86012,3.16253"
             style="fill:#ffffff;stroke:#000000;stroke-width:3.84215331;stroke-linecap:butt;stroke-linejoin:miter;stroke-miterlimit:4;stroke-opacity:1;stroke-dasharray:none" />
          <path
             inkscape:original-d="m 40.197619,164.11134 c 0,0 1.926322,-5.02074 3.962453,-9.70557 2.036092,-4.68471 8.483769,-5.01938 8.483769,-5.01938 0,0 -5.768954,-14.72358 -3.732823,-17.73519 2.036015,-3.01161 7.126362,0.66925 7.126362,0.66925 0,0 -1.696847,-8.03099 0.678607,-8.70024 2.375531,-0.66926 6.447638,2.00769 6.447638,2.00769 0,0 -3.393422,-7.69633 0,-8.03099 3.393539,-0.33459 7.126362,2.00776 7.126362,2.00776 0,0 0,-21.416059 5.768954,-20.746803 5.768954,0.669255 7.805046,3.011613 7.805046,3.011613 0,0 -7.586475,-16.216219 1.236579,-16.216219 8.823209,0 14.034268,2.161888 14.034268,2.161888 0,0 1.357406,-12.046524 8.483656,-9.034912 7.12636,3.011611 6.44764,13.385073 6.44764,13.385073 0,0 3.39353,-8.030989 8.82317,-5.019378 5.42955,3.011612 4.75083,16.062098 4.75083,16.062098 0,0 14.59212,-6.692597 15.61013,0.66922 1.01812,7.36177 -5.76896,11.04264 -5.76896,11.04264 0,0 8.14437,-2.34236 7.80509,6.69255 -0.3394,9.03491 -2.64428,8.29081 -2.64428,8.29081 0,0 11.80673,-2.26759 16.21828,2.75179 4.41154,5.01938 1.35741,12.04653 1.35741,12.04653 0,0 9.16245,-7.02715 12.55591,-4.01542 3.39354,3.01161 -3.05414,16.06198 -3.05414,16.06198 0,0 5.59726,-1.37615 6.44768,2.67702 2.03602,9.70421 -4.27683,22.41991 -4.27683,22.41991"
             inkscape:path-effect="#path-effect4391"
             sodipodi:nodetypes="cscccccccscscscscccccscccsc"
             inkscape:connector-curvature="0"
             id="path15138"
             d="m 40.197619,164.11134 c 0.187901,-3.55562 1.608175,-7.03441 3.962453,-9.70557 2.208739,-2.50603 5.223916,-4.28994 8.483769,-5.01938 -2.216865,0.23317 -4.512497,-0.38302 -6.314616,-1.69498 -1.80212,-1.31195 -3.093728,-3.30729 -3.552838,-5.48859 -0.459111,-2.1813 -0.08139,-4.52799 1.038991,-6.45506 1.120384,-1.92707 2.972866,-3.41635 5.09564,-4.09656 2.335028,-0.74823 4.971468,-0.50063 7.126362,0.66925 -0.731757,-0.49287 -1.329537,-1.18263 -1.713374,-1.97702 -0.383837,-0.79439 -0.55275,-1.69138 -0.484143,-2.57097 0.06861,-0.87959 0.374558,-1.73954 0.876927,-2.4648 0.502368,-0.72527 1.199869,-1.31401 1.999197,-1.68745 1.118767,-0.52269 2.433548,-0.6117 3.612556,-0.24457 1.179009,0.36712 2.21083,1.18683 2.835082,2.25226 -1.306805,-0.88347 -2.132341,-2.43807 -2.132341,-4.01549 0,-1.57743 0.825536,-3.13203 2.132341,-4.0155 1.16328,-0.78644 2.677558,-1.0307 4.029117,-0.64992 1.35156,0.38079 2.515609,1.37963 3.097245,2.65768 -2.041883,-1.26945 -3.656527,-3.21339 -4.529729,-5.45355 -0.873203,-2.24016 -1.00009,-4.76402 -0.355969,-7.08046 0.64412,-2.31644 2.055652,-4.41253 3.959918,-5.88037 1.904266,-1.467841 4.290636,-2.299244 6.694734,-2.332423 2.85738,-0.03943 5.714729,1.063087 7.805046,3.011613 -2.276092,-2.120928 -3.51884,-5.303459 -3.282288,-8.405551 0.236552,-3.102092 1.947497,-6.059387 4.518867,-7.810668 2.152651,-1.466105 4.868962,-2.080752 7.44309,-1.684225 2.574128,0.396528 4.979539,1.800144 6.591178,3.846113 -0.19646,-2.320721 0.634547,-4.709809 2.228806,-6.407658 1.59425,-1.697848 3.92637,-2.677417 6.25485,-2.627254 1.52801,0.03292 3.04444,0.496409 4.32976,1.323371 1.28531,0.826961 2.33564,2.014904 2.99891,3.391843 0.66328,1.376939 0.93751,2.938729 0.78299,4.459262 -0.15451,1.520534 -0.73731,2.995232 -1.66402,4.210597 0.78733,-1.616317 2.07215,-2.986043 3.63485,-3.875043 1.56271,-0.889 3.39664,-1.293493 5.18832,-1.144335 1.79106,0.149106 3.53229,0.850836 4.92623,1.985318 1.39395,1.134483 2.43469,2.696897 2.94445,4.420347 0.50976,1.72345 0.48637,3.600612 -0.0662,5.310826 -0.55255,1.710217 -1.6319,3.246207 -3.05368,4.345607 0.69791,-1.50822 1.85191,-2.80175 3.27105,-3.666524 1.41914,-0.864777 3.09777,-1.297369 4.75811,-1.226189 1.66035,0.07118 3.2958,0.64585 4.63572,1.628911 1.33992,0.983062 2.37898,2.370602 2.94525,3.933022 0.79561,2.19521 0.62647,4.72115 -0.45471,6.79069 -1.08118,2.06955 -3.05793,3.65114 -5.31425,4.25195 1.8323,0.12545 3.61808,0.85654 5.0123,2.05203 1.39423,1.1955 2.38924,2.84881 2.79279,4.64052 0.33413,1.48349 0.26554,3.05566 -0.19653,4.50441 -0.46207,1.44875 -1.3164,2.77031 -2.44775,3.7864 2.51123,-1.68395 5.67675,-2.36301 8.65771,-1.85722 2.98097,0.50578 5.74533,2.19098 7.56057,4.60901 1.27211,1.69456 2.0817,3.73285 2.31896,5.83844 0.23726,2.10559 -0.0984,4.27293 -0.96155,6.20809 0.98232,-2.28808 2.99063,-4.1123 5.36234,-4.87078 2.3717,-0.75848 5.06586,-0.43813 7.19357,0.85536 1.50733,0.91634 2.72537,2.30105 3.44198,3.91294 0.71661,1.6119 0.92862,3.44386 0.5991,5.17682 -0.32952,1.73296 -1.1991,3.35926 -2.4573,4.59565 -1.25821,1.23639 -2.89946,2.0774 -4.63792,2.37657 2.34006,0.2792 4.59802,1.21669 6.44768,2.67702 1.83597,1.44952 3.2644,3.40973 4.08186,5.60145 0.81745,2.19172 1.02155,4.60857 0.58323,6.90634 -0.43832,2.29777 -1.5178,4.46977 -3.08467,6.20666 -1.56688,1.73688 -3.61661,3.0336 -5.85725,3.70546"
             style="fill:#ffffff;stroke:#000000;stroke-width:3.84215331;stroke-linecap:butt;stroke-linejoin:miter;stroke-miterlimit:4;stroke-opacity:1;stroke-dasharray:none" />
          <path
             sodipodi:nodetypes="cscsc"
             inkscape:original-d="m 96.450517,140.73648 c 0,0 2.375454,-5.35405 5.090273,-4.68479 2.71477,0.66925 5.76891,3.34627 5.76891,3.34627 0,0 -1.01801,-10.70801 4.75095,-9.70416 5.76895,1.00384 4.38101,7.64607 4.38101,7.64607"
             inkscape:path-effect="#path-effect4388"
             inkscape:connector-curvature="0"
             id="path15140"
             d="m 96.450517,140.73648 c 0.219902,-1.2182 0.847284,-2.35922 1.758133,-3.19752 0.910848,-0.83829 2.09991,-1.36902 3.33214,-1.48727 1.18097,-0.11333 2.39536,0.15182 3.4216,0.7471 1.02625,0.59528 1.85935,1.51777 2.34731,2.59917 -0.87371,-0.82037 -1.47573,-1.92541 -1.69124,-3.10436 -0.21551,-1.17895 -0.0434,-2.42551 0.48363,-3.50192 0.52699,-1.07641 1.40599,-1.97692 2.46935,-2.52976 1.06336,-0.55285 2.30539,-0.75508 3.48921,-0.56812 1.66357,0.26272 3.18547,1.31189 4.02277,2.77319 0.83729,1.46131 0.97282,3.30483 0.35824,4.87288"
             style="fill:#ffffff;stroke:#000000;stroke-width:3.84215331;stroke-linecap:butt;stroke-linejoin:miter;stroke-miterlimit:4;stroke-opacity:1;stroke-dasharray:none" />
          <path
             inkscape:original-d="m 116.44166,137.33987 c 0,0 5.42955,-6.35789 8.82305,-3.01161 3.39354,3.34616 -0.33928,12.38111 -0.33928,12.38111 0,0 4.4115,5.68864 3.05414,12.71578 -1.35745,7.02715 -11.87731,6.02334 -11.87731,6.02334"
             inkscape:path-effect="#path-effect4385"
             sodipodi:nodetypes="cccsc"
             inkscape:connector-curvature="0"
             id="path15142"
             d="m 116.44166,137.33987 c 0.79015,-1.52279 2.18366,-2.72188 3.80727,-3.27607 1.62361,-0.5542 3.45945,-0.4574 5.01578,0.26446 1.18669,0.55041 2.20662,1.4545 2.89543,2.56658 0.68881,1.11208 1.04391,2.42796 1.00808,3.73559 -0.0358,1.30763 -0.46247,2.60209 -1.21115,3.67478 -0.74868,1.07268 -1.81659,1.91956 -3.03164,2.40416 1.83426,1.46418 3.16169,3.55154 3.70982,5.83363 0.54812,2.28208 0.31351,4.74462 -0.65568,6.88215 -0.99023,2.18393 -2.74183,4.0137 -4.88048,5.09827 -2.13865,1.08457 -4.6498,1.41658 -6.99683,0.92507"
             style="fill:#ffffff;stroke:#000000;stroke-width:3.84215331;stroke-linecap:butt;stroke-linejoin:miter;stroke-miterlimit:4;stroke-opacity:1;stroke-dasharray:none" />
          <path
             sodipodi:nodetypes="csc"
             inkscape:original-d="m 102.52822,151.39416 c 0,0 7.15701,-5.40573 10.55044,2.29067 3.39353,7.6964 -8.40144,19.4057 -8.40144,19.4057"
             inkscape:path-effect="#path-effect4382"
             inkscape:connector-curvature="0"
             id="path15144"
             d="m 102.52822,151.39416 c 1.79859,-0.54359 3.73597,-0.62084 5.57213,-0.22218 1.83616,0.39866 3.56708,1.27236 4.97831,2.51285 1.75016,1.53841 2.99656,3.64088 3.50636,5.91462 0.50979,2.27373 0.28036,4.70709 -0.64542,6.84548 -0.92579,2.13839 -2.54319,3.97084 -4.55005,5.15503 -2.00685,1.18419 -4.39288,1.71404 -6.71233,1.49057"
             style="fill:#ffffff;stroke:#000000;stroke-width:3.84215331;stroke-linecap:butt;stroke-linejoin:miter;stroke-miterlimit:4;stroke-opacity:1;stroke-dasharray:none" />
          <path
             sodipodi:nodetypes="csccccc"
             inkscape:original-d="m 179.87574,164.39552 c 0,0 12.58033,0.049 16.99187,4.73384 4.41151,4.68479 3.73283,9.3695 3.73283,9.3695 0,0 4.41154,-3.01161 7.80504,-0.66926 3.39354,2.34244 1.01801,9.70421 1.01801,9.70421 0,0 6.44768,0 9.16245,3.34628 2.71486,3.34616 -3.46082,8.62136 -3.46082,8.62136"
             inkscape:path-effect="#path-effect4378"
             inkscape:connector-curvature="0"
             id="path15146"
             d="m 179.87574,164.39552 c 2.95939,-0.98873 6.2148,-1.07132 9.22052,-0.23395 3.00573,0.83738 5.74949,2.59131 7.77135,4.96779 2.21752,2.60645 3.55049,5.95223 3.73283,9.3695 1.02609,-0.96466 2.38302,-1.5707 3.78621,-1.69102 1.4032,-0.12032 2.84349,0.24587 4.01883,1.02176 1.55093,1.02384 2.6077,2.76335 2.80159,4.6116 0.19389,1.84826 -0.47888,3.7692 -1.78358,5.09261 1.62343,-0.83729 3.59896,-0.96193 5.31474,-0.33529 1.71578,0.62663 3.146,1.9951 3.84771,3.68157 0.65898,1.58378 0.67054,3.42602 0.0315,5.01795 -0.63904,1.59194 -1.92118,2.91485 -3.49233,3.60341"
             style="fill:#ffffff;stroke:#000000;stroke-width:3.84215331;stroke-linecap:butt;stroke-linejoin:miter;stroke-miterlimit:4;stroke-opacity:1;stroke-dasharray:none" />
          <path
             sodipodi:nodetypes="cccccsc"
             inkscape:original-d="m 55.077304,177.80248 c 0,0 14.194676,-5.9961 14.533999,-1.31139 0.339361,4.68479 -1.696731,6.35789 -1.696731,6.35789 0,0 9.162454,-5.35397 11.537869,-1.33855 2.375454,4.01557 -7.805046,12.38127 -7.805046,12.38127 0,0 7.126362,3.01161 5.768954,9.03491 -1.357408,6.02322 -16.288738,7.36174 -16.288738,7.36174"
             inkscape:path-effect="#path-effect4375"
             inkscape:connector-curvature="0"
             id="path15148"
             d="m 55.077304,177.80248 c 0.0424,-1.7829 0.761268,-3.54155 1.979898,-4.84366 1.21863,-1.30211 2.925867,-2.13575 4.702058,-2.29601 1.776191,-0.16027 3.605077,0.35432 5.037103,1.41726 1.432026,1.06294 2.454082,2.6645 2.81494,4.41102 0.460204,2.22734 -0.187935,4.65601 -1.696731,6.35789 1.190021,-1.86951 3.249033,-3.1596 5.450395,-3.41499 2.201361,-0.25538 4.501044,0.52904 6.087474,2.07644 1.214512,1.18463 2.007094,2.79336 2.206308,4.47821 0.199214,1.68485 -0.196331,3.43406 -1.101076,4.86927 -0.904746,1.43521 -2.312378,2.54641 -3.918422,3.09324 -1.606044,0.54683 -3.399291,0.52547 -4.991856,-0.0595 1.719953,0.78184 3.20566,2.07076 4.222428,3.66315 1.016769,1.59239 1.56093,3.4825 1.546526,5.37176 -0.01424,1.86781 -0.574077,3.72825 -1.592978,5.29374 -1.018901,1.5655 -2.493352,2.83065 -4.195455,3.59992 -1.702103,0.76927 -3.625988,1.04 -5.474289,0.77035 -1.848302,-0.26966 -3.614645,-1.07877 -5.026016,-2.30227"
             style="fill:#ffffff;stroke:#000000;stroke-width:3.84215331;stroke-linecap:butt;stroke-linejoin:miter;stroke-miterlimit:4;stroke-opacity:1;stroke-dasharray:none" />
          <path
             sodipodi:nodetypes="cscccccscc"
             inkscape:original-d="m 82.292626,185.27418 c 0,0 5.982907,7.27897 11.751939,11.29454 5.768954,4.01542 -2.036092,15.3928 -2.036092,15.3928 0,0 8.144367,-5.68871 10.519747,0.33459 2.37553,6.02334 -4.411509,13.38508 -4.411509,13.38508 0,0 2.375529,-1.6731 5.429669,1.6731 3.0541,3.34627 -5.090269,12.71578 -5.090269,12.71578 0,0 5.090269,1.00396 4.411549,6.69259 -0.67873,5.68863 -7.676576,12.43144 -7.676576,12.43144 0,0 3.604311,0.61893 1.907619,4.2998"
             inkscape:path-effect="#path-effect4372"
             inkscape:connector-curvature="0"
             id="path15150"
             d="m 82.292626,185.27418 c 5.420493,1.58745 9.950661,5.9413 11.751939,11.29454 1.709226,5.07967 0.935073,10.93224 -2.036092,15.3928 1.46461,-1.24732 3.401695,-1.92563 5.324496,-1.86448 1.9228,0.0612 3.812861,0.86119 5.195251,2.19907 1.05017,1.01635 1.80681,2.33259 2.15661,3.75156 0.34979,1.41897 0.2916,2.93608 -0.16587,4.32408 -0.45746,1.388 -1.31272,2.64241 -2.43765,3.57533 -1.12494,0.93292 -2.515924,1.54134 -3.964599,1.73411 1.935669,-0.20488 3.945029,0.41429 5.429669,1.6731 1.14582,0.97153 1.97615,2.30939 2.33816,3.76737 0.36202,1.45799 0.25393,3.02886 -0.30436,4.42352 -0.5583,1.39466 -1.56404,2.60619 -2.83213,3.41162 -1.26809,0.80543 -2.792233,1.20078 -4.291939,1.11327 2.254349,1.55524 3.870939,4.00771 4.411549,6.69259 0.52913,2.6279 0.0236,5.44995 -1.38482,7.73077 -1.40844,2.28082 -3.705186,3.99676 -6.291756,4.70067 l 1.907619,4.2998"
             style="fill:#ffffff;stroke:#000000;stroke-width:3.84215331;stroke-linecap:butt;stroke-linejoin:miter;stroke-miterlimit:4;stroke-opacity:1;stroke-dasharray:none" />
          <path
             inkscape:original-d="m 108.63661,187.53381 c 0,0 12.21659,-0.33459 10.85919,7.36169 -1.35745,7.69644 -6.78697,7.69644 -6.78697,7.69644 l 0,0"
             inkscape:path-effect="#path-effect4369"
             sodipodi:nodetypes="cscc"
             inkscape:connector-curvature="0"
             id="path15152"
             d="m 108.63661,187.53381 c 2.39109,-0.9858 5.26825,-0.69028 7.40902,0.761 2.14078,1.45128 3.48059,4.01453 3.45017,6.60069 -0.0219,1.86316 -0.73252,3.71047 -1.9649,5.10799 -1.23238,1.39752 -2.97629,2.33364 -4.82207,2.58845 l 0,0"
             style="fill:#ffffff;stroke:#000000;stroke-width:3.84215331;stroke-linecap:butt;stroke-linejoin:miter;stroke-miterlimit:4;stroke-opacity:1;stroke-dasharray:none" />
          <path
             sodipodi:nodetypes="cccsc"
             inkscape:original-d="m 138.83871,169.12936 c 0,0 14.59205,-5.35409 14.93145,0.66921 0.33928,6.02323 -11.19863,17.73524 -11.19863,17.73524 0,0 6.44768,-1.00388 5.769,5.01934 -0.67873,6.02334 -18.81393,6.07626 -18.81393,6.07626"
             inkscape:path-effect="#path-effect4366"
             inkscape:connector-curvature="0"
             id="path15154"
             d="m 138.83871,169.12936 c 2.0705,-1.8106 4.85227,-2.78483 7.60001,-2.66168 2.74774,0.12315 5.43121,1.34233 7.33144,3.33089 1.65037,1.72708 2.70299,4.01494 2.94085,6.3919 0.23786,2.37697 -0.34054,4.82804 -1.61595,6.84791 -1.27541,2.01986 -3.23979,3.59578 -5.48816,4.40285 -2.24837,0.80707 -4.76654,0.84021 -7.03537,0.0926 2.47984,0.83168 4.60233,2.67836 5.769,5.01934 1.27891,2.56619 1.37944,5.69142 0.26809,8.33449 -1.11135,2.64308 -3.41498,4.75742 -6.14343,5.63862 -2.72845,0.88119 -5.83362,0.51372 -8.28102,-0.98001 -2.44739,-1.49373 -4.19386,-4.08736 -4.65757,-6.91684"
             style="fill:#ffffff;stroke:#000000;stroke-width:3.84215331;stroke-linecap:butt;stroke-linejoin:miter;stroke-miterlimit:4;stroke-opacity:1;stroke-dasharray:none" />
          <path
             sodipodi:nodetypes="csccc"
             inkscape:original-d="m 157.38704,179.37741 c 0,0 8.93899,0.79463 15.72607,3.80624 6.78696,3.01161 2.37542,21.75073 2.37542,21.75073 0,0 8.82309,-7.6964 13.23471,-3.01169 4.41151,4.68479 -4.75094,18.06982 -4.75094,18.06982"
             inkscape:path-effect="#path-effect4363"
             inkscape:connector-curvature="0"
             id="path15156"
             d="m 157.38704,179.37741 c 2.71398,-0.75116 5.61958,-0.79845 8.35657,-0.136 2.73699,0.66244 5.29938,2.03317 7.3695,3.94224 2.92506,2.6975 4.83105,6.47481 5.26304,10.43029 0.43198,3.95549 -0.61376,8.05516 -2.88762,11.32044 1.36478,-2.09738 3.56705,-3.63279 6.007,-4.18802 2.43995,-0.55524 5.08976,-0.12397 7.22771,1.17633 1.77864,1.08177 3.19444,2.74908 3.97363,4.67952 0.77919,1.93045 0.91748,4.11341 0.38813,6.12675 -0.52935,2.01335 -1.72343,3.84599 -3.35134,5.14356 -1.6279,1.29757 -3.68067,2.05292 -5.76136,2.11999"
             style="fill:#ffffff;stroke:#000000;stroke-width:3.84215331;stroke-linecap:butt;stroke-linejoin:miter;stroke-miterlimit:4;stroke-opacity:1;stroke-dasharray:none" />
          <path
             sodipodi:nodetypes="ccccc"
             inkscape:original-d="m 103.78455,215.15267 c 0,0 17.79906,-3.78291 17.45978,0.56725 -0.3394,4.35012 -0.0276,12.53492 -0.0276,12.53492 0,0 8.23924,-1.36443 9.25736,2.6511 1.01801,4.01558 -8.05908,12.4316 -8.05908,12.4316"
             inkscape:path-effect="#path-effect4360"
             inkscape:connector-curvature="0"
             id="path15158"
             d="m 103.78455,215.15267 c 2.10919,-2.63614 5.49762,-4.19735 8.87191,-4.08772 3.3743,0.10962 6.65424,1.88749 8.58787,4.65497 1.27466,1.82434 1.97131,4.0463 1.96641,6.27182 -0.005,2.22552 -0.71133,4.44439 -1.99401,6.2631 1.60523,-0.63284 3.41981,-0.72057 5.0786,-0.24553 1.65879,0.47504 3.15186,1.51 4.17876,2.89663 0.95136,1.28463 1.49969,2.86333 1.54946,4.4611 0.0498,1.59777 -0.39923,3.20755 -1.26879,4.54889 -0.86956,1.34135 -2.15584,2.40834 -3.63475,3.01511 -1.47892,0.60676 -3.14393,0.75062 -4.705,0.4065"
             style="fill:#ffffff;stroke:#000000;stroke-width:3.84215331;stroke-linecap:butt;stroke-linejoin:miter;stroke-miterlimit:4;stroke-opacity:1;stroke-dasharray:none" />
          <path
             inkscape:original-d="m 70.629388,236.05461 c 0,0 -8.14437,6.69248 -11.877309,16.73127 -3.732823,10.03876 -1.357408,16.39665 -1.357408,16.39665"
             inkscape:path-effect="#path-effect4356"
             inkscape:connector-curvature="0"
             id="path15160"
             d="m 70.629388,236.05461 c -5.500699,4.23384 -9.694765,10.14192 -11.877309,16.73127 -1.740663,5.25526 -2.210176,10.92669 -1.357408,16.39665"
             style="fill:#ffffff;stroke:#000000;stroke-width:3.84215331;stroke-linecap:butt;stroke-linejoin:miter;stroke-miterlimit:4;stroke-opacity:1;stroke-dasharray:none" />
          <path
             sodipodi:nodetypes="cscsccc"
             inkscape:original-d="m 143.33574,244.08564 c 0,0 19.00363,-27.10474 27.4874,-26.43548 8.48369,0.66929 3.73282,12.38115 3.73282,12.38115 0,0 8.14437,0.33467 8.82309,6.35789 0.67869,6.0233 -12.55591,9.3695 -12.55591,9.3695 0,0 4.07214,6.0233 3.05414,9.36962 -1.01813,3.3462 -2.37542,3.3462 -2.37542,3.3462"
             inkscape:path-effect="#path-effect4353"
             inkscape:connector-curvature="0"
             id="path15162"
             d="m 143.33574,244.08564 c -4.2572,-3.40572 -6.94917,-8.69449 -7.19758,-14.14069 -0.2484,-5.44619 1.95095,-10.95805 5.88045,-14.73718 3.9295,-3.77912 9.52295,-5.76183 14.95531,-5.30121 5.43237,0.46062 10.61212,3.35681 13.84922,7.7436 2.61028,3.53735 3.95286,7.99047 3.73282,12.38115 1.96277,-0.14209 3.96941,0.42641 5.56598,1.57689 1.59657,1.15048 2.77082,2.87412 3.25711,4.781 0.41162,1.61407 0.33319,3.34971 -0.22233,4.92007 -0.55551,1.57037 -1.58591,2.96925 -2.92091,3.96545 -1.335,0.99621 -2.96931,1.5858 -4.63284,1.67133 -1.66354,0.0855 -3.3497,-0.33332 -4.77983,-1.18735 1.47761,0.97876 2.61039,2.46753 3.15967,4.15264 0.54929,1.68512 0.51145,3.55546 -0.10553,5.21698 -0.48165,1.29708 -1.3098,2.46367 -2.37542,3.3462"
             style="fill:#ffffff;stroke:#000000;stroke-width:3.84215331;stroke-linecap:butt;stroke-linejoin:miter;stroke-miterlimit:4;stroke-opacity:1;stroke-dasharray:none" />
          <path
             sodipodi:nodetypes="cscscsc"
             inkscape:original-d="m 192.79845,206.63596 c 0,0 14.24962,-11.0712 22.39399,-7.05563 8.14449,4.01554 9.5019,18.73912 9.5019,18.73912 0,0 11.53787,-12.04664 18.32483,-0.66929 6.78704,11.3773 -6.78696,17.40053 -6.78696,17.40053 0,0 18.32483,-5.35397 21.03968,10.03875 2.71482,15.39284 -7.46568,20.74689 -7.46568,20.74689"
             inkscape:path-effect="#path-effect4350"
             inkscape:connector-curvature="0"
             id="path15164"
             d="m 192.79845,206.63596 c 2.12158,-3.74718 5.70049,-6.64378 9.80755,-7.93779 4.10707,-1.294 8.70003,-0.97209 12.58644,0.88216 3.39932,1.62186 6.2378,4.39271 7.94114,7.75194 1.70334,3.35923 2.26121,7.28648 1.56076,10.98718 1.90868,-3.05332 5.38645,-5.06451 8.98486,-5.19594 3.59841,-0.13143 7.21363,1.6207 9.33997,4.52665 1.09367,1.49465 1.80351,3.26776 2.04342,5.10421 0.23991,1.83644 0.009,3.7324 -0.66362,5.45784 -0.673,1.72545 -1.78706,3.27678 -3.20703,4.46581 -1.41998,1.18902 -3.14289,2.01324 -4.95973,2.37267 4.07536,-1.33024 8.65755,-1.03272 12.52667,0.81337 3.86911,1.84609 6.98313,5.22069 8.51301,9.22538 1.42858,3.73954 1.47002,7.99125 0.1146,11.75793 -1.35542,3.76668 -4.09648,7.01712 -7.58028,8.98896"
             style="fill:#ffffff;stroke:#000000;stroke-width:3.84215331;stroke-linecap:butt;stroke-linejoin:miter;stroke-miterlimit:4;stroke-opacity:1;stroke-dasharray:none" />
          <path
             sodipodi:nodetypes="cssc"
             inkscape:original-d="m 83.889286,271.69119 c 0,0 22.300244,4.01553 53.537964,-1.4004 31.2378,-5.4159 53.07215,-10.65617 78.34171,-9.95347 18.09198,0.50307 48.03562,9.60712 48.03562,9.60712"
             inkscape:path-effect="#path-effect4347"
             inkscape:connector-curvature="0"
             id="path15166"
             d="m 83.889286,271.69119 c 17.833794,1.30306 35.796674,0.8332 53.537964,-1.4004 26.15357,-3.2927 51.98572,-10.41506 78.34171,-9.95347 16.41485,0.28749 32.77288,3.55909 48.03562,9.60712"
             style="fill:none;stroke:#000000;stroke-width:3.84215331;stroke-linecap:butt;stroke-linejoin:miter;stroke-miterlimit:4;stroke-opacity:1;stroke-dasharray:none" />
          <path
             style="fill:none;stroke:#000000;stroke-width:3.84215331;stroke-linecap:butt;stroke-linejoin:miter;stroke-miterlimit:4;stroke-opacity:1;stroke-dasharray:none"
             d="m 138.03854,285.6652 c -17.8338,1.30303 -35.79668,0.83316 -53.537968,-1.40044 C 58.347,280.97207 32.51485,273.84974 6.1588622,274.31133 c -16.4148462,0.28749 -32.7728722,3.55908 -48.0356202,9.60708"
             id="path15168"
             inkscape:connector-curvature="0"
             inkscape:path-effect="#path-effect4344"
             inkscape:original-d="m 138.03854,285.6652 c 0,0 -22.30024,4.01553 -53.537968,-1.40044 -31.237801,-5.41589 -53.072149,-10.65613 -78.3417098,-9.95343 -18.0919802,0.50307 -48.0356202,9.60708 -48.0356202,9.60708"
             sodipodi:nodetypes="cssc" />
          <path
             inkscape:original-d="m 55.934089,194.43683 c 0,0 6.718748,-0.94642 7.198728,-3.78587 0.479902,-2.83937 -5.27908,-3.78586 -5.27908,-3.78586 0,0 1.439784,-5.67882 -1.439784,-8.51815 -2.879414,-2.83945 -10.078141,2.36614 -10.078141,2.36614 0,0 -1.439745,-13.25055 -3.359432,-14.19696 -1.919648,-0.94654 -3.839295,-5.67882 -8.638395,-4.25918 -4.7991,1.41973 -5.758982,5.20559 -5.758982,5.20559 0,0 -3.359393,-2.36614 -19.1965155,2.83949 -15.8371613,5.20547 -13.4376114,21.76866 -13.4376114,21.76866 0,0 -10.1529901,0.81716 -10.8316741,12.19443 -0.678684,11.37731 10.8591846,20.74681 10.8591846,20.74681 0,0 -7.1656296,12.02313 -13.2740226,22.06188 -6.108238,10.03876 0.405015,23.1547 10.3668271,28.05527"
             inkscape:path-effect="#path-effect4341"
             sodipodi:nodetypes="ccccccccscscsc"
             inkscape:connector-curvature="0"
             id="path15170"
             d="m 55.934089,194.43683 c 0.659308,0.56991 1.492678,0.93564 2.358472,1.03505 0.865793,0.0994 1.76037,-0.0679 2.53169,-0.47357 0.77132,-0.40564 1.416139,-1.04789 1.824866,-1.81758 0.408727,-0.76969 0.579643,-1.66359 0.4837,-2.52977 -0.134397,-1.21334 -0.804058,-2.35762 -1.796092,-3.06905 -0.992034,-0.71143 -2.290644,-0.97869 -3.482988,-0.71681 0.827003,-1.33764 1.148196,-2.97987 0.886096,-4.53053 -0.2621,-1.55065 -1.105187,-2.99609 -2.32588,-3.98762 -1.545009,-1.25496 -3.682128,-1.74587 -5.619911,-1.29092 -1.937784,0.45496 -3.633142,1.84565 -4.45823,3.65706 1.036492,-4.91558 -0.229865,-10.2672 -3.359432,-14.19696 -1.046188,-1.31369 -2.30134,-2.48245 -3.780291,-3.27805 -1.478952,-0.79561 -3.193355,-1.20224 -4.858104,-0.98113 -1.363701,0.18113 -2.668254,0.78497 -3.688801,1.70745 -1.020547,0.92248 -1.752671,2.15961 -2.070181,3.49814 -6.453235,-1.47571 -13.446837,-0.44123 -19.1965155,2.83949 -7.7233521,4.40689 -12.9595008,12.88934 -13.4376114,21.76866 -5.2839493,2.00788 -9.4610661,6.71053 -10.8316741,12.19443 -1.03517,4.14179 -0.496961,8.65682 1.4828,12.43921 1.979761,3.7824 5.3830864,6.79779 9.3763846,8.3076 -7.2006356,5.11079 -12.1315176,13.30608 -13.2740226,22.06188 -1.341687,10.28227 2.661528,21.11599 10.3668271,28.05527"
             style="fill:#ffffff;stroke:#000000;stroke-width:3.84215331;stroke-linecap:butt;stroke-linejoin:miter;stroke-miterlimit:4;stroke-opacity:1;stroke-dasharray:none;display:inline;enable-background:new" />
          <path
             inkscape:original-d="m 21.084295,193.8917 c 0,0 13.234599,-5.68867 15.949415,-1.33855 2.714854,4.35016 -4.750908,9.36954 -4.750908,9.36954 0,0 4.750908,4.01553 3.054216,8.70032 -1.696808,4.68471 -7.465762,5.68867 -7.465762,5.68867"
             inkscape:path-effect="#path-effect4338"
             inkscape:connector-curvature="0"
             id="path15172"
             d="m 21.084295,193.8917 c 0.132187,-1.90897 0.967469,-3.76136 2.310636,-5.12428 1.343168,-1.36291 3.183177,-2.22513 5.090012,-2.38516 1.906835,-0.16003 3.864818,0.38344 5.416361,1.50342 1.551543,1.11997 2.68389,2.80724 3.132406,4.66747 0.446558,1.85211 0.211828,3.86057 -0.649778,5.55979 -0.861607,1.69922 -2.343126,3.07548 -4.10113,3.80975 1.343794,0.94121 2.382404,2.31113 2.925829,3.85914 0.543425,1.54802 0.589,3.26654 0.128387,4.84118 -0.470173,1.60732 -1.465974,3.05625 -2.798026,4.07123 -1.332053,1.01498 -2.993271,1.59062 -4.667736,1.61744"
             style="fill:#ffffff;stroke:#000000;stroke-width:3.84215331;stroke-linecap:butt;stroke-linejoin:miter;stroke-miterlimit:4;stroke-opacity:1;stroke-dasharray:none" />
          <path
             inkscape:original-d="m 40.087848,222.66957 c 0,0 5.768954,-5.35408 9.162454,0 3.393539,5.35397 0.339401,17.06591 0.339401,17.06591"
             inkscape:path-effect="#path-effect4335"
             inkscape:connector-curvature="0"
             id="path15174"
             d="m 40.087848,222.66957 c 2.807622,-1.49087 6.354832,-1.49087 9.162454,0 1.52816,0.81146 2.833786,2.03717 3.740034,3.5111 0.906247,1.47392 1.410739,3.19221 1.445142,4.92211 0.0344,1.7299 -0.401371,3.46689 -1.248299,4.97568 -0.846927,1.50879 -2.102788,2.78544 -3.597476,3.65702"
             style="fill:#ffffff;stroke:#000000;stroke-width:3.84215331;stroke-linecap:butt;stroke-linejoin:miter;stroke-miterlimit:4;stroke-opacity:1;stroke-dasharray:none" />
          <path
             inkscape:original-d="m 35.529631,248.10117 c 0,0 -9.162376,9.0348 -9.162376,13.71963 0,4.68482 8.823092,3.01161 8.823092,3.01161"
             inkscape:path-effect="#path-effect4332"
             inkscape:connector-curvature="0"
             id="path15176"
             d="m 35.529631,248.10117 c -1.750275,-0.50358 -3.659974,-0.43598 -5.37026,0.1901 -1.710285,0.62609 -3.212284,1.80741 -4.223768,3.32199 -1.011483,1.51458 -1.527203,3.35457 -1.450254,5.17423 0.07695,1.81965 0.746167,3.60953 1.881906,5.03331 1.023189,1.28269 2.418755,2.26473 3.971582,2.79476 1.552827,0.53003 3.257589,0.60623 4.85151,0.21685"
             style="fill:#ffffff;stroke:#000000;stroke-width:3.84215331;stroke-linecap:butt;stroke-linejoin:miter;stroke-miterlimit:4;stroke-opacity:1;stroke-dasharray:none" />
        </g>
      </g>
    </g>
  </g>
</svg>
