<?xml version="1.0" encoding="UTF-8" standalone="no"?>
<!-- Created with Inkscape (http://www.inkscape.org/) -->

<svg
   xmlns:dc="http://purl.org/dc/elements/1.1/"
   xmlns:cc="http://creativecommons.org/ns#"
   xmlns:rdf="http://www.w3.org/1999/02/22-rdf-syntax-ns#"
   xmlns:svg="http://www.w3.org/2000/svg"
   xmlns="http://www.w3.org/2000/svg"
   xmlns:xlink="http://www.w3.org/1999/xlink"
   xmlns:inkscape="http://www.inkscape.org/namespaces/inkscape"
   version="1.1"
   width="179.41849"
   height="228.2625"
   id="svg9697">
  <defs
     id="defs9699">
    <linearGradient
       id="linearGradient6500">
      <stop
         id="stop6502"
         style="stop-color:#aaaaaa;stop-opacity:1"
         offset="0" />
      <stop
         id="stop6504"
         style="stop-color:#aaaaaa;stop-opacity:0"
         offset="1" />
    </linearGradient>
    <linearGradient
       id="linearGradient6340">
      <stop
         id="stop6342"
         style="stop-color:#ff5555;stop-opacity:1"
         offset="0" />
      <stop
         id="stop6344"
         style="stop-color:#ff5555;stop-opacity:0"
         offset="1" />
    </linearGradient>
    <linearGradient
       x1="3430.7551"
       y1="1369.2029"
       x2="3415.6045"
       y2="1116.0568"
       id="linearGradient7792"
       xlink:href="#linearGradient5774-9-3"
       gradientUnits="userSpaceOnUse" />
    <linearGradient
       id="linearGradient5774-9-3">
      <stop
         id="stop5776-3-4"
         style="stop-color:#aaaaaa;stop-opacity:1"
         offset="0" />
      <stop
         id="stop5778-1-1"
         style="stop-color:#aaaaaa;stop-opacity:0"
         offset="1" />
    </linearGradient>
    <inkscape:path-effect
       effect="spiro"
       id="path-effect4905" />
    <inkscape:path-effect
       effect="spiro"
       id="path-effect4903" />
    <inkscape:path-effect
       effect="spiro"
       id="path-effect4899" />
    <inkscape:path-effect
       effect="spiro"
       id="path-effect5014" />
    <inkscape:path-effect
       effect="spiro"
       id="path-effect5026" />
    <inkscape:path-effect
       effect="spiro"
       id="path-effect5022" />
    <inkscape:path-effect
       effect="spiro"
       id="path-effect4976" />
    <inkscape:path-effect
       effect="spiro"
       id="path-effect4982" />
    <inkscape:path-effect
       effect="spiro"
       id="path-effect4907" />
    <inkscape:path-effect
       effect="spiro"
       id="path-effect4984" />
    <inkscape:path-effect
       effect="spiro"
       id="path-effect4980" />
    <inkscape:path-effect
       effect="spiro"
       id="path-effect4966" />
    <inkscape:path-effect
       effect="spiro"
       id="path-effect4986" />
    <inkscape:path-effect
       effect="spiro"
       id="path-effect4990" />
    <inkscape:path-effect
       effect="spiro"
       id="path-effect4909" />
    <inkscape:path-effect
       effect="spiro"
       id="path-effect4978" />
    <inkscape:path-effect
       effect="spiro"
       id="path-effect4972" />
    <inkscape:path-effect
       effect="spiro"
       id="path-effect4970" />
    <inkscape:path-effect
       effect="spiro"
       id="path-effect4968" />
    <inkscape:path-effect
       effect="spiro"
       id="path-effect4964" />
    <inkscape:path-effect
       effect="spiro"
       id="path-effect4974" />
    <inkscape:path-effect
       effect="spiro"
       id="path-effect5004" />
    <inkscape:path-effect
       effect="spiro"
       id="path-effect5006" />
    <linearGradient
       x1="2583.7461"
       y1="1651.2227"
       x2="3052.3567"
       y2="1596.2404"
       id="linearGradient10752"
       xlink:href="#linearGradient7392"
       gradientUnits="userSpaceOnUse"
       gradientTransform="matrix(0.40012878,0,0,0.40012878,-712.20545,229.44495)" />
    <linearGradient
       id="linearGradient7392">
      <stop
         id="stop7394"
         style="stop-color:#00a0aa;stop-opacity:1"
         offset="0" />
      <stop
         id="stop7396"
         style="stop-color:#00a0aa;stop-opacity:0"
         offset="1" />
    </linearGradient>
    <linearGradient
       x1="3854.2178"
       y1="1608.3271"
       x2="4127.1709"
       y2="1871.5856"
       id="linearGradient5498"
       xlink:href="#linearGradient5492"
       gradientUnits="userSpaceOnUse"
       gradientTransform="matrix(0.40012878,0,0,0.40012878,-719.80316,290.71014)" />
    <linearGradient
       id="linearGradient5492">
      <stop
         id="stop5494"
         style="stop-color:#aa5500;stop-opacity:1"
         offset="0" />
      <stop
         id="stop5496"
         style="stop-color:#aa5500;stop-opacity:0"
         offset="1" />
    </linearGradient>
    <filter
       color-interpolation-filters="sRGB"
       id="filter5768-1">
      <feBlend
         in2="BackgroundImage"
         mode="multiply"
         id="feBlend5770-6" />
    </filter>
    <linearGradient
       id="linearGradient5774-9-3-3">
      <stop
         id="stop5776-3-4-3"
         style="stop-color:#aaaaaa;stop-opacity:1"
         offset="0" />
      <stop
         id="stop5778-1-1-1"
         style="stop-color:#aaaaaa;stop-opacity:0"
         offset="1" />
    </linearGradient>
    <linearGradient
       x1="4440.0342"
       y1="-4001.8257"
       x2="4460.249"
       y2="-3791.3088"
       id="linearGradient5482"
       xlink:href="#linearGradient5476"
       gradientUnits="userSpaceOnUse"
       gradientTransform="matrix(0.72070617,0,0,0.73859546,-2056.2767,3651.7821)" />
    <linearGradient
       id="linearGradient5476">
      <stop
         id="stop5478"
         style="stop-color:#00aa00;stop-opacity:1"
         offset="0" />
      <stop
         id="stop5480"
         style="stop-color:#00aa00;stop-opacity:0"
         offset="1" />
    </linearGradient>
    <linearGradient
       x1="4469.2485"
       y1="2148.7688"
       x2="4797.5146"
       y2="2269.7676"
       id="linearGradient10703-0"
       xlink:href="#linearGradient5877-6-7"
       gradientUnits="userSpaceOnUse"
       gradientTransform="matrix(0.40012878,0,0,0.40012878,-671.62949,199.44967)" />
    <linearGradient
       id="linearGradient5877-6-7">
      <stop
         id="stop5879-1-7"
         style="stop-color:#0000aa;stop-opacity:1"
         offset="0" />
      <stop
         id="stop5881-6-2"
         style="stop-color:#0000aa;stop-opacity:0"
         offset="1" />
    </linearGradient>
    <filter
       color-interpolation-filters="sRGB"
       id="filter5768-1-4">
      <feBlend
         in2="BackgroundImage"
         mode="multiply"
         id="feBlend5770-6-9" />
    </filter>
    <linearGradient
       x1="4469.2485"
       y1="2148.7688"
       x2="4797.5146"
       y2="2269.7676"
       id="linearGradient4426"
       xlink:href="#linearGradient5877-6-7"
       gradientUnits="userSpaceOnUse"
       gradientTransform="matrix(0.40012878,0,0,0.40012878,-539.12222,406.42642)" />
    <linearGradient
       x1="3430.7551"
       y1="1369.2029"
       x2="3415.6045"
       y2="1116.0568"
       id="linearGradient4597"
       xlink:href="#linearGradient5774-9-3-3"
       gradientUnits="userSpaceOnUse" />
    <linearGradient
       x1="3972.1633"
       y1="-2948.3179"
       x2="3889.0527"
       y2="-2860.1675"
       id="linearGradient4401-5"
       xlink:href="#linearGradient5516-6-2-1"
       gradientUnits="userSpaceOnUse"
       gradientTransform="matrix(0.88482191,0,0,0.88482191,-2770.4284,3704.5045)" />
    <linearGradient
       id="linearGradient5516-6-2-1">
      <stop
         id="stop5518-3-4-4"
         style="stop-color:#ff5555;stop-opacity:1"
         offset="0" />
      <stop
         id="stop5520-6-4-0"
         style="stop-color:#ff5555;stop-opacity:0"
         offset="1" />
    </linearGradient>
    <linearGradient
       x1="654.02478"
       y1="1104.1107"
       x2="563.75751"
       y2="1168.3965"
       id="linearGradient6346"
       xlink:href="#linearGradient6340"
       gradientUnits="userSpaceOnUse"
       gradientTransform="translate(83.928571,-11.785714)" />
    <linearGradient
       x1="-23.280672"
       y1="-325.17831"
       x2="-29.576473"
       y2="-496.60687"
       id="linearGradient6506"
       xlink:href="#linearGradient6500"
       gradientUnits="userSpaceOnUse" />
  </defs>
  <metadata
     id="metadata9702">
    <rdf:RDF>
      <cc:Work
         rdf:about="">
        <dc:format>image/svg+xml</dc:format>
        <dc:type
           rdf:resource="http://purl.org/dc/dcmitype/StillImage" />
        <dc:title></dc:title>
      </cc:Work>
    </rdf:RDF>
  </metadata>
  <g
     transform="translate(-557.26982,-594.09763)"
     id="layer1">
    <path
       d="m 58.571432,-356.60688 -32.016104,21.67769 -32.0665632,21.60298 -37.9672448,-7.31037 -37.950096,-7.39887 -21.677684,-32.0161 -21.60298,-32.06657 7.31036,-37.96724 7.39887,-37.9501 32.016109,-21.67768 32.066563,-21.60298 37.9672442,7.31036 37.9500968,7.39887 21.677687,32.01611 21.602978,32.06656 -7.310364,37.96725 z"
       transform="matrix(0.8556925,0,0,0.8556925,668.98258,1036.627)"
       id="path6498"
       style="fill:url(#linearGradient6506);fill-opacity:1;stroke:none" />
    <path
       d="m 730.18178,1083.2311 14.14214,13.637 0.50507,61.1143 -7.07106,20.7081 -87.88328,22.7284 -41.92133,-57.0736 z"
       id="path5570"
       style="fill:url(#linearGradient6346);fill-opacity:1;stroke:none" />
    <path
       d="m 409.52065,1063.8839 c 0,12.7551 23.8841,23.0952 53.3465,23.0952 29.4625,0 53.3466,-10.3401 53.3466,-23.0952"
       id="path3648"
       style="fill:#ffffff;stroke:#000000;stroke-width:1.79999995;stroke-miterlimit:3.98013043;stroke-dasharray:none;display:inline;enable-background:new" />
    <path
       d="m 1009.7686,1190.9911 0,-177.4859 c 0,0 0.035,-28.71785 25.469,-28.71785 21.2029,0 20.5959,33.89385 20.5959,33.89385 l 0,157.2219 z"
       id="path3181"
       style="fill:#ffffff;stroke:#000000;stroke-width:1.79999995;stroke-linecap:butt;stroke-linejoin:miter;stroke-miterlimit:3.98013043;stroke-opacity:1;stroke-dasharray:none;display:inline;enable-background:new" />
    <path
       d="m 1011.6189,1002.692 c 0,0 3.5099,-14.13095 15.9943,-11.37655 11.2834,2.4894 11.8965,23.15085 11.8965,34.10855 0,11.5676 0,139.9174 0,139.9174 l -29.7018,8.0166"
       id="path3183"
       style="fill:none;stroke:#000000;stroke-width:1.79999995;stroke-linecap:butt;stroke-linejoin:miter;stroke-miterlimit:3.98013043;stroke-opacity:1;stroke-dasharray:none;display:inline;enable-background:new" />
    <path
       d="m 1055.9184,1174.8972 -16.819,-10.0588"
       id="path3185"
       style="fill:#ffffff;stroke:#000000;stroke-width:1.79999995;stroke-linecap:butt;stroke-linejoin:miter;stroke-miterlimit:3.98013043;stroke-opacity:1;stroke-dasharray:none;display:inline;enable-background:new" />
    <path
       d="m -209.14986,-108.88409 a 206.62996,89.455658 0 1 1 -413.25991,0 206.62996,89.455658 0 1 1 413.25991,0 z"
       transform="matrix(-0.25817445,0,0,0.25817445,355.52355,1091.9951)"
       id="path3629"
       style="fill:#ffffff;stroke:#000000;stroke-width:6.97203016;stroke-miterlimit:3.98013043;stroke-dasharray:none;display:inline;enable-background:new" />
    <path
       d="m 514.75495,1069.5567 c -2.3259,-4.2141 -7.3198,-7.98 -14.166,-10.9438 -9.6538,-4.1795 -22.9905,-6.7645 -37.7218,-6.7645 -25.0285,0 -46.0313,7.4619 -51.7862,17.5276"
       id="path3631"
       style="fill:#ffffff;stroke:#000000;stroke-width:1.79999995;stroke-miterlimit:3.98013043;stroke-dasharray:none;display:inline;enable-background:new" />
    <path
       d="m 454.24725,1052.9869 0,8.8071 15.5038,0 0,10.4497 16.5367,0 0,12.7268"
       id="path3633"
       style="fill:#ffffff;stroke:#000000;stroke-width:1.79999995;stroke-linecap:butt;stroke-linejoin:miter;stroke-miterlimit:3.98013043;stroke-opacity:1;stroke-dasharray:none;display:inline;enable-background:new" />
    <path
       d="m 486.05765,1073.0136 -31.6426,13.9"
       id="path3635"
       style="fill:#ffffff;stroke:#000000;stroke-width:1.79999995;stroke-linecap:butt;stroke-linejoin:miter;stroke-miterlimit:3.98013043;stroke-opacity:1;stroke-dasharray:none;display:inline;enable-background:new" />
    <path
       d="m 454.24725,1061.6088 -38.2022,12.9713"
       id="path3637"
       style="fill:#ffffff;stroke:#000000;stroke-width:1.79999995;stroke-linecap:butt;stroke-linejoin:miter;stroke-miterlimit:3.98013043;stroke-opacity:1;stroke-dasharray:none;display:inline;enable-background:new" />
    <path
       d="m 469.92825,1062.0966 -45.3387,17.4778"
       id="path3639"
       style="fill:#ffffff;stroke:#000000;stroke-width:1.79999995;stroke-linecap:butt;stroke-linejoin:miter;stroke-miterlimit:3.98013043;stroke-opacity:1;stroke-dasharray:none;display:inline;enable-background:new" />
    <path
       d="m 469.88885,1072.2281 -30.499,12.2262"
       id="path3646"
       style="fill:#ffffff;stroke:#000000;stroke-width:1.79999995;stroke-linecap:butt;stroke-linejoin:miter;stroke-miterlimit:3.98013043;stroke-opacity:1;stroke-dasharray:none;display:inline;enable-background:new" />
    <path
       d="m 1110.1415,623.25555 90.8005,0 0,184.69 -90.8005,0 z"
       id="path5246"
       style="fill:#ffffff;stroke:#000000;stroke-width:1.79999995;stroke-linecap:square;stroke-linejoin:miter;stroke-miterlimit:3.98013043;stroke-opacity:1;stroke-dasharray:none;display:inline;enable-background:new" />
    <path
       d="m 1122.0397,633.59035 67.4233,0 0,164.9357 -67.4233,0 z"
       id="path5248"
       style="fill:none;stroke:#000000;stroke-width:1.79999995;stroke-linecap:square;stroke-linejoin:miter;stroke-miterlimit:3.98013043;stroke-opacity:1;stroke-dasharray:none;display:inline;enable-background:new" />
    <path
       d="m 1188.7384,791.28005 -57.2792,0 0,-150.4057 56.7072,0"
       id="path5250"
       style="fill:#ffffff;stroke:#000000;stroke-width:1.79999995;stroke-linecap:square;stroke-linejoin:miter;stroke-miterlimit:3.98013043;stroke-opacity:1;stroke-dasharray:none;display:inline;enable-background:new" />
    <path
       d="m 1121.9624,633.72965 9.4071,7.1779"
       id="path5252"
       style="fill:none;stroke:#000000;stroke-width:1.79999995;stroke-linecap:butt;stroke-linejoin:miter;stroke-miterlimit:3.98013043;stroke-opacity:1;stroke-dasharray:none;display:inline;enable-background:new" />
    <path
       d="m 1122.3127,798.46915 9.6287,-7.3061"
       id="path5254"
       style="fill:none;stroke:#000000;stroke-width:1.79999995;stroke-linecap:butt;stroke-linejoin:miter;stroke-miterlimit:3.98013043;stroke-opacity:1;stroke-dasharray:none;display:inline;enable-background:new" />
    <path
       d="m 1188.7384,791.28005 -44.6951,-15.4441 0,-125.2376 44.1231,-9.724"
       id="path5260"
       style="fill:none;stroke:#000000;stroke-width:1.79999995;stroke-linecap:square;stroke-linejoin:miter;stroke-miterlimit:3.98013043;stroke-opacity:1;stroke-dasharray:none;display:inline;enable-background:new" />
    <path
       d="m 1153.8899,666.00825 c 0,0 0.083,-1.3901 1.4864,-1.3901 1.4036,-10e-5 1.4865,1.3901 1.4865,1.3901 l 0,100.0424 c 0,0 -0.058,1.5473 -1.4865,1.5473 -1.4288,0 -1.4864,-1.5473 -1.4864,-1.5473 z"
       id="rect5266"
       style="fill:none;stroke:#000000;stroke-width:1.79999995;stroke-miterlimit:3.98013043;stroke-dasharray:none;display:inline;enable-background:new" />
    <path
       d="m 1131.9392,641.35635 55.2933,-0.4655 -43.9378,9.1786 0,126.052 109.9252,38.7238 -46.2586,58.0637 -142.1563,-29.7537 66.9903,-51.7044 z"
       id="path5466"
       style="fill:url(#linearGradient5482);fill-opacity:1;stroke:none;display:inline;enable-background:new" />
    <path
       d="m 637.0295,786.4066 c -0.7848,5.3986 -6.3145,7.8399 -6.3145,7.8399 l -1.5415,15.8129 -4.8682,-0.4776 1.5558,-15.947 c 0,0 -4.6676,-3.639 -4.0912,-9.0605 1.2762,-12.0045 2.563,-24.107 3.8428,-36.1458 l 4.9029,0.1506 c -1.2097,11.3793 -2.3954,22.7631 -3.6294,34.1384 -0.4309,5.4508 2.0336,5.9614 2.0336,5.9614 0,0 2.9432,0.1632 3.479,-4.876 0.996,-9.369 2.4729,-21.8833 3.4096,-32.0724 l 4.903,0.4528 c -1.2775,11.4044 -2.4988,22.8116 -3.6819,34.2233 z"
       id="path5900"
       style="fill:#ffffff;stroke:#000000;stroke-width:1.79999995;stroke-linecap:round;stroke-linejoin:round;stroke-miterlimit:3.98013043;stroke-opacity:1;stroke-dasharray:none" />
    <path
       d="m 8085.7472,3829.6289 a 164.09143,164.09143 0 1 1 -328.1829,0 164.09143,164.09143 0 1 1 328.1829,0 z"
       transform="matrix(0.0244392,0.00259821,-0.00259821,0.0244392,442.842,698.2519)"
       id="path3670"
       style="fill:#ffffff;stroke:#000000;stroke-width:73.23943329;stroke-linecap:square;stroke-linejoin:miter;stroke-miterlimit:3.98013043;stroke-opacity:1;stroke-dasharray:none" />
    <path
       d="m 630.5156,748.5791 c -0.092,0.7483 -1.2634,1.2537 -2.6173,1.1286 -1.3538,-0.125 -2.3772,-0.8331 -2.2856,-1.5814 0.092,-0.7485 1.2635,-1.2538 2.6172,-1.1288 1.354,0.125 2.3772,0.8331 2.2857,1.5816 z"
       id="path3662"
       style="fill:#ffffff;stroke:#000000;stroke-width:1.79999995;stroke-miterlimit:3.98013043;stroke-dasharray:none" />
    <path
       d="m 640.7114,752.1321 c -0.092,0.7485 -1.2635,1.2538 -2.6173,1.1288 -1.354,-0.125 -2.3773,-0.8331 -2.2857,-1.5815 0.092,-0.7484 1.2634,-1.2538 2.6174,-1.1288 1.3538,0.125 2.3771,0.8331 2.2856,1.5815 z"
       id="path5244"
       style="fill:#ffffff;stroke:#000000;stroke-width:1.79999995;stroke-miterlimit:3.98013043;stroke-dasharray:none" />
    <path
       d="m 731.0555,1083.0187 9.8831,-5.9401 c 0,0 9.8855,1.1563 14.6304,0.03 2.7979,-0.6639 7.6987,-3.8917 7.6987,-3.8917 l 8.2893,6.1267 -27.328,16.4246 z"
       id="path3672"
       style="fill:#ffffff;stroke:#000000;stroke-width:1.79999995;stroke-linecap:round;stroke-linejoin:round;stroke-miterlimit:3.98013043;stroke-dasharray:none" />
    <path
       d="m 731.0555,1092.7392 0,-9.7205 13.1735,12.7495 0,9.8508 z"
       id="path3674"
       style="fill:#ffffff;stroke:#000000;stroke-width:1.79999995;stroke-linecap:round;stroke-linejoin:round;stroke-miterlimit:3.98013043;stroke-opacity:1;stroke-dasharray:none" />
    <path
       d="m 744.229,1105.619 0,-9.8508 27.328,-16.4247 0,8.447 z"
       id="path3676"
       style="fill:#ffffff;stroke:#000000;stroke-width:1.79999995;stroke-linecap:round;stroke-linejoin:bevel;stroke-miterlimit:3.98013043;stroke-opacity:1;stroke-dasharray:none" />
    <path
       d="m 755.3827,1092.9089 6.373,-3.8304 60.7296,48.7445 -5.1761,6.1696"
       id="path3678"
       style="fill:#ffffff;stroke:#000000;stroke-width:1.79999995;stroke-linecap:round;stroke-linejoin:round;stroke-miterlimit:3.98013043;stroke-opacity:1;stroke-dasharray:none" />
    <path
       d="m 814.0804,1147.689 -58.6977,-49.7389 0,-5.0412 61.8212,45.0832"
       id="path3680"
       style="fill:#ffffff;stroke:#000000;stroke-width:1.79999995;stroke-linecap:round;stroke-linejoin:round;stroke-miterlimit:3.98013043;stroke-opacity:1;stroke-dasharray:none" />
    <path
       d="m 12238.532,3136.0066 a 70.060333,31.740307 0 1 1 -140.121,0 70.060333,31.740307 0 1 1 140.121,0 z"
       transform="matrix(0.05145993,-0.0739561,0.11212942,0.0780216,-159.2992,1798.1315)"
       id="path3682"
       style="fill:#ffffff;stroke:#000000;stroke-width:16.22501564;stroke-linecap:square;stroke-linejoin:miter;stroke-miterlimit:3.98013043;stroke-opacity:1;stroke-dasharray:none" />
    <path
       d="m 780.81304,963.65214 -0.4285,-6.6999 2.4227,-6.6878 1.5341,-16.9294 c 0,0 3.5254,-4.3651 5.8709,-5.8044 2.2522,-1.3821 4.8809,-2.5817 7.5221,-2.5021 2.2393,0.068 6.0543,1.4013 6.2378,2.5021 0.1834,1.1008 1.6511,5.8708 1.4676,6.6047 -0.1834,0.7339 -0.367,6.2378 -0.367,7.1552 0,0.9172 2.5686,9.3566 2.5686,9.3566"
       id="path5438"
       style="fill:#ffffff;stroke:#000000;stroke-width:1.79999995;stroke-linecap:butt;stroke-linejoin:miter;stroke-miterlimit:3.98013043;stroke-opacity:1;stroke-dasharray:none;enable-background:new" />
    <path
       d="m 772.97934,980.33814 8.243,-17.2154 c 0,0 3.0351,-10.8081 6.7882,-14.6772 2.3802,-2.4539 5.7729,-4.2326 9.1732,-4.5865 2.6409,-0.2751 7.7055,2.018 7.7055,2.018 0,0 2.5685,4.0363 2.7519,4.7701 0.1835,0.7339 0,6.6047 0,6.6047"
       id="path5436"
       style="fill:#ffffff;stroke:#000000;stroke-width:1.79999995;stroke-linecap:butt;stroke-linejoin:miter;stroke-miterlimit:3.98013043;stroke-opacity:1;stroke-dasharray:none;enable-background:new" />
    <path
       d="m 811.31034,997.06354 40.3622,-8.0724 160.70216,39.81746 -101.65666,50.0433 -99.1735,-73.3855"
       id="path5474"
       style="fill:url(#linearGradient5498);fill-opacity:1;stroke:none;enable-background:new" />
    <path
       d="m 321.62565,777.54955 0,200.4488 c 8.5322,-0.1438 18.865,-0.8911 30.3848,-2.8884 32.2127,-5.5849 54.7303,-10.9904 80.7885,-10.2658 18.6566,0.5187 49.5285,9.9157 49.5285,9.9157 l 110.3105,27.98395 15.4924,0 -44.11,-196.22965 z"
       id="rect5524"
       style="fill:url(#linearGradient10752);fill-opacity:1;stroke:none;display:inline;enable-background:new" />
    <path
       d="m 320.81135,777.62825 c -2.2489,0.075 -4.4607,1.0719 -6.0019,2.7134 -1.6441,1.7508 -2.4908,4.2089 -2.2883,6.6021 -1.2333,-3.0427 -3.8523,-5.4948 -6.9647,-6.5396 -3.1125,-1.0449 -6.6711,-0.6568 -9.4906,1.0253 -1.7466,1.0422 -3.2032,2.5531 -4.1763,4.3389 -0.9733,1.7861 -1.459,3.8442 -1.3879,5.8769 0.071,2.0326 0.7049,4.0382 1.8005,5.7519 0.5194,0.8125 1.1441,1.5568 1.8506,2.2132 -1.6737,-0.8525 -3.548,-1.3014 -5.4268,-1.2755 -2.479,0.034 -4.951,0.8872 -6.9147,2.4008 -1.9636,1.5137 -3.4121,3.6757 -4.0763,6.0645 -0.6642,2.3887 -0.5378,4.9921 0.3627,7.3023 0.4177,1.0717 1.0109,2.0747 1.7255,2.976 -0.084,-0.029 -0.1649,-0.064 -0.2501,-0.088 -1.3937,-0.3926 -2.9517,-0.1357 -4.1513,0.6753 -1.3476,0.911 -2.2008,2.5121 -2.2007,4.1388 0,0.8932 0.2706,1.77 0.7252,2.5383 -0.4429,-0.3152 -0.9314,-0.5635 -1.4504,-0.7252 -1.216,-0.3786 -2.5726,-0.2889 -3.7263,0.2501 -0.8241,0.385 -1.5326,0.9901 -2.0506,1.738 -0.518,0.7478 -0.8421,1.6438 -0.9128,2.5509 -0.071,0.9068 0.1044,1.8316 0.5001,2.6508 0.3959,0.8191 1.0085,1.5299 1.7631,2.0381 -2.2221,-1.2063 -4.932,-1.4593 -7.3398,-0.6877 -2.1892,0.7014 -4.1089,2.2267 -5.2643,4.2139 -1.1553,1.9872 -1.5363,4.4153 -1.0628,6.6646 0.4734,2.2495 1.8054,4.2991 3.6637,5.6519 1.8584,1.353 4.2285,1.991 6.5146,1.7505 -3.3616,0.7522 -6.4752,2.5924 -8.7528,5.1767 -2.3697,2.6885 -3.8156,6.1783 -4.0639,9.7531 -0.337,-0.2358 -0.6872,-0.4424 -1.0503,-0.6377 -1.525,-0.8204 -3.2973,-1.2409 -5.0141,-1.0128 -1.4062,0.1867 -2.7488,0.7992 -3.8012,1.7506 -1.0524,0.9512 -1.8108,2.2333 -2.1382,3.6136 -6.6546,-1.5217 -13.8648,-0.4572 -19.7938,2.9259 -7.9645,4.5445 -13.3615,13.2884 -13.8545,22.4448 -5.4489,2.0706 -9.7652,6.9239 -11.1786,12.579 -1.0674,4.271 -0.5035,8.9288 1.538,12.8292 2.0415,3.9005 5.5477,7.0083 9.6656,8.5652 -7.4253,5.2703 -12.5138,13.7283 -13.6919,22.7573 -1.3732,10.5248 2.6851,21.5977 10.5159,28.7593 l 0,0.6502 c 4.7375,-0.756 9.3356,-1.2884 13.3668,-1.4005 26.0581,-0.7246 48.5758,4.6809 80.7885,10.2659 28.521,4.9448 49.7365,2.2682 54.2424,1.588 l -1.2504,-15.7426 c 0.5275,-0.087 1.0554,-0.1702 1.588,-0.2626 32.2127,-5.5849 54.7303,-10.9904 80.7885,-10.2658 10.4944,0.2918 24.854,3.397 35.4114,6.052 l 0,-0.3001 c 3.5925,-2.0333 6.4173,-5.3812 7.8151,-9.2655 1.3977,-3.8842 1.3481,-8.2727 -0.1251,-12.1289 -1.5776,-4.1297 -4.788,-7.6118 -8.7778,-9.5156 -3.4911,-1.6656 -7.5418,-2.1096 -11.3162,-1.2754 1.2792,-0.4544 2.4727,-1.1415 3.5137,-2.0132 1.4643,-1.2261 2.6196,-2.8221 3.3135,-4.6014 0.6941,-1.7793 0.9227,-3.7331 0.6753,-5.6268 -0.2475,-1.8938 -0.9729,-3.723 -2.1007,-5.2642 -2.1928,-2.9967 -5.9174,-4.7996 -9.6281,-4.664 -3.7107,0.1355 -7.2973,2.2031 -9.2655,5.3517 0.7223,-3.8162 0.1435,-7.8645 -1.613,-11.3286 -1.7565,-3.4641 -4.6848,-6.3177 -8.1901,-7.9901 -0.025,-0.012 -0.05,-0.026 -0.075,-0.038 l 0,-0.05 c 1.6202,-0.71 2.9422,-2.0721 3.6012,-3.7137 0.659,-1.6415 0.6543,-3.5435 -0.025,-5.1767 -0.7235,-1.7392 -2.1945,-3.1425 -3.9637,-3.7887 -1.7694,-0.6462 -3.8152,-0.5259 -5.4893,0.3376 1.3453,-1.3648 2.0379,-3.3458 1.8381,-5.2517 -0.2,-1.906 -1.2892,-3.6957 -2.8884,-4.7515 -0.7049,-0.4654 -1.4975,-0.7864 -2.3258,-0.9503 2.4548,-0.5003 4.7893,-1.6005 6.7272,-3.1885 2.0302,-1.6638 3.627,-3.8473 4.5889,-6.2896 1.1492,-2.9179 1.3745,-6.189 0.6502,-9.2405 -0.7243,-3.0513 -2.4008,-5.8748 -4.739,-7.965 1.8597,0.3329 3.8327,-0.01 5.4768,-0.9378 1.644,-0.9308 2.9547,-2.4479 3.6262,-4.2139 0.6535,-1.7186 0.7012,-3.6352 0.2875,-5.4267 -0.4138,-1.7917 -1.275,-3.4632 -2.3882,-4.9266 -1.7587,-2.3118 -4.1583,-4.1275 -6.8522,-5.2142 -2.6939,-1.0867 -5.6822,-1.4321 -8.5528,-0.9878 -0.1061,-5.4835 -3.08,-10.8329 -7.69,-13.8044 -4.0744,-2.6264 -9.3128,-3.3742 -13.9544,-1.9757 -4.6416,1.3984 -8.6081,4.9128 -10.5534,9.353 -0.7303,-2.095 -2.0779,-3.9735 -3.8263,-5.3392 -1.7485,-1.3657 -3.8925,-2.2121 -6.1019,-2.4133 -3.3382,-0.3039 -6.7806,0.9208 -9.178,3.2636 -2.3794,2.3252 -3.6786,5.7076 -3.4761,9.0279 -0.1981,-0.044 -0.4001,-0.079 -0.6002,-0.1125 -3.074,-0.5215 -6.3382,0.1765 -8.9279,1.9131 1.1668,-1.0478 2.0494,-2.4073 2.5258,-3.9013 0.4765,-1.494 0.5446,-3.1093 0.2001,-4.639 -0.4161,-1.8477 -1.4507,-3.5562 -2.8884,-4.789 -1.4378,-1.2328 -3.2747,-1.9839 -5.1642,-2.1132 2.3268,-0.6196 4.3619,-2.2548 5.4768,-4.3889 1.1149,-2.1341 1.2955,-4.7385 0.4751,-7.0022 -0.584,-1.6112 -1.6567,-3.0376 -3.0384,-4.0513 -1.3818,-1.0138 -3.0644,-1.6146 -4.7766,-1.6881 -1.7121,-0.073 -3.4506,0.3712 -4.9141,1.2629 -0.2472,0.1507 -0.482,0.3253 -0.7127,0.5001 0.189,-0.3874 0.355,-0.7899 0.4877,-1.2003 0.5697,-1.7636 0.6007,-3.687 0.075,-5.4643 -0.5256,-1.7772 -1.601,-3.394 -3.0385,-4.5639 -1.4374,-1.1699 -3.2297,-1.897 -5.0766,-2.0507 -1.8477,-0.1538 -3.7403,0.271 -5.3517,1.1879 -1.0959,0.6233 -2.0664,1.4698 -2.826,2.4758 0.4234,-0.8892 0.6883,-1.8459 0.7878,-2.8259 0.1594,-1.5681 -0.1163,-3.1816 -0.8003,-4.6015 -0.6839,-1.42 -1.7755,-2.6485 -3.101,-3.5011 -1.3253,-0.853 -2.8882,-1.329 -4.4639,-1.363 -0.15,0 -0.3002,0 -0.4501,0 z"
       id="path5534"
       style="fill:#ffffff;stroke:none;enable-background:new" />
    <path
       d="m 366.91575,828.61695 c -0.22686,-3.34431 1.07766,-6.7623 3.47506,-9.10503 2.39739,-2.34273 5.84455,-3.56809 9.18274,-3.26417 2.20948,0.20116 4.356,1.0509 6.10448,2.41659 1.74847,1.36569 3.09276,3.24251 3.82302,5.33751 1.9454,-4.44016 5.90515,-7.95006 10.54669,-9.34852 4.64154,-1.39846 9.88121,-0.66028 13.95571,1.96612 4.60987,2.9715 7.59265,8.31923 7.6987,13.8028 2.87059,-0.44444 5.85938,-0.0995 8.55324,0.98721 2.69387,1.08668 5.08545,2.91212 6.84416,5.22399 1.11326,1.46341 1.98046,3.13216 2.39418,4.92374 0.41371,1.79158 0.35892,3.70968 -0.29458,5.42836 -0.67147,1.76595 -1.97493,3.28402 -3.61901,4.21486 -1.64407,0.93084 -3.61644,1.26747 -5.47619,0.93464 2.33811,2.09021 4.01639,4.90796 4.7407,7.95937 0.72431,3.05141 0.4914,6.32281 -0.6579,9.24083 -0.96191,2.44223 -2.55748,4.63176 -4.58769,6.29548 -2.03022,1.66372 -4.49058,2.79795 -7.07421,3.26122"
       id="path4893"
       style="fill:none;stroke:#000000;stroke-width:1.79999995;stroke-linecap:butt;stroke-linejoin:miter;stroke-miterlimit:3.98013043;stroke-opacity:1;stroke-dasharray:none;enable-background:new" />
    <path
       d="m 251.74415,865.62075 c 0.19379,-3.66656 1.65838,-7.25389 4.0861,-10.0084 2.27766,-2.58425 5.38692,-4.42386 8.7485,-5.1761 -2.28603,0.24043 -4.65328,-0.39501 -6.51161,-1.7479 -1.85834,-1.3529 -3.19024,-3.41049 -3.66368,-5.65984 -0.47343,-2.24936 -0.0839,-4.66926 1.0714,-6.65646 1.15533,-1.9872 3.06559,-3.52295 5.25459,-4.2244 2.40791,-0.7716 5.12664,-0.5163 7.3488,0.6901 -0.75461,-0.50825 -1.37105,-1.21954 -1.76688,-2.03873 -0.39582,-0.81918 -0.57001,-1.74417 -0.49926,-2.65122 0.0707,-0.90705 0.38626,-1.79384 0.90432,-2.54175 0.51805,-0.7479 1.23733,-1.35501 2.06162,-1.7401 1.15368,-0.53898 2.50949,-0.63075 3.72528,-0.25216 1.21579,0.37859 2.2798,1.22388 2.92352,2.32256 -1.34758,-0.91105 -2.19886,-2.51416 -2.19886,-4.1408 0,-1.62664 0.85128,-3.22975 2.19886,-4.1408 1.19958,-0.811 2.76113,-1.06289 4.15487,-0.67023 1.39375,0.39267 2.59414,1.42269 3.19393,2.74063 -2.10562,-1.30906 -3.77066,-3.31368 -4.67112,-5.62375 -0.90045,-2.31007 -1.0313,-4.91271 -0.36708,-7.30145 0.66422,-2.38874 2.11981,-4.55024 4.08351,-6.06389 1.96371,-1.51365 4.42456,-2.371 6.90369,-2.40521 2.94654,-0.0407 5.89305,1.09627 8.0486,3.1056 -2.34712,-2.18712 -3.62865,-5.46898 -3.38471,-8.66788 0.24394,-3.1989 2.00829,-6.24849 4.65991,-8.05442 2.21982,-1.51185 5.02089,-2.14568 7.67534,-1.73679 2.65444,0.4089 5.13492,1.85629 6.79686,3.96609 -0.20257,-2.39315 0.6544,-4.85679 2.29842,-6.60761 1.64403,-1.75082 4.04893,-2.76094 6.45008,-2.70919 1.57569,0.034 3.13944,0.51192 4.46486,1.3647 1.32541,0.85277 2.40851,2.07779 3.09248,3.4977 0.68397,1.41991 0.96675,3.03043 0.80741,4.59841 -0.15934,1.56798 -0.76033,3.0887 -1.71595,4.34199 0.81188,-1.66677 2.1368,-3.07926 3.74826,-3.99601 1.61147,-0.91676 3.50264,-1.33389 5.35024,-1.18009 1.84697,0.15375 3.64254,0.87737 5.08,2.04726 1.43746,1.16989 2.51069,2.78107 3.03636,4.55832 0.52568,1.77724 0.50155,3.713 -0.0683,5.47659 -0.56979,1.76359 -1.68284,3.34753 -3.14901,4.48123 0.71969,-1.55529 1.90971,-2.88918 3.37314,-3.78094 1.46343,-0.89177 3.19445,-1.33786 4.9066,-1.26446 1.71216,0.0734 3.39865,0.66601 4.78038,1.67974 1.38174,1.01374 2.45324,2.44459 3.03718,4.05576 0.82045,2.26373 0.64604,4.8685 -0.46889,7.00264 -1.11492,2.13414 -3.15336,3.7651 -5.48011,4.38466 1.88949,0.12936 3.731,0.88327 5.16874,2.11607 1.43774,1.2328 2.46381,2.93771 2.87996,4.78533 0.34456,1.52979 0.27383,3.15104 -0.20265,4.64501 -0.47649,1.49397 -1.35749,2.85679 -2.52415,3.90459 2.58959,-1.73651 5.85389,-2.43677 8.92788,-1.91521 3.07399,0.52156 5.92463,2.25933 7.79652,4.75281 1.31183,1.74744 2.14669,3.84935 2.39136,6.02065 0.24466,2.17131 -0.1015,4.4063 -0.99156,6.40185 1.01297,-2.3595 3.08398,-4.24065 5.52971,-5.02279 2.44573,-0.78215 5.22398,-0.45178 7.41809,0.88209 1.55436,0.94495 2.8104,2.37287 3.54936,4.03506 0.73897,1.6622 0.95758,3.55133 0.61777,5.33836 -0.3398,1.78704 -1.23652,3.46408 -2.53399,4.73905 -1.29747,1.27497 -2.98993,2.14223 -4.78264,2.45073 2.41309,0.28793 4.74151,1.25468 6.6489,2.7606 1.89325,1.49476 3.36626,3.51615 4.20922,5.77626 0.84296,2.26012 1.05343,4.7524 0.60143,7.12188 -0.452,2.36947 -1.56516,4.60925 -3.18093,6.40034 -1.61577,1.79109 -3.72946,3.12828 -6.04002,3.82112"
       id="path4820"
       style="fill:none;stroke:#000000;stroke-width:1.79999995;stroke-linecap:butt;stroke-linejoin:miter;stroke-miterlimit:3.98013043;stroke-opacity:1;stroke-dasharray:none;enable-background:new" />
    <path
       d="m 309.75265,841.51645 c 0.22675,-1.25622 0.87371,-2.43285 1.81298,-3.29731 0.93927,-0.86446 2.16543,-1.41175 3.43612,-1.53369 1.21782,-0.11687 2.4701,0.15657 3.52836,0.77042 1.05827,0.61385 1.91736,1.56513 2.42054,2.68028 -0.90098,-0.84598 -1.52178,-1.98551 -1.74401,-3.20126 -0.22223,-1.21575 -0.0447,-2.50122 0.49875,-3.61122 0.54345,-1.11 1.44989,-2.0386 2.54644,-2.6087 1.09656,-0.57009 2.37736,-0.77862 3.59812,-0.58582 1.71548,0.27093 3.28487,1.35285 4.14829,2.85976 0.86341,1.50691 1.00317,3.40796 0.36941,5.02494"
       id="path4822"
       style="fill:none;stroke:#000000;stroke-width:1.79999995;stroke-linecap:butt;stroke-linejoin:miter;stroke-miterlimit:3.98013043;stroke-opacity:1;stroke-dasharray:none;enable-background:new" />
    <path
       d="m 330.36765,838.01385 c 0.81481,-1.57032 2.25181,-2.80683 3.92609,-3.37832 1.67428,-0.57149 3.56741,-0.47167 5.17231,0.27272 1.22372,0.56759 2.27548,1.4999 2.98579,2.64669 0.7103,1.14678 1.07648,2.50373 1.03953,3.85217 -0.0369,1.34844 -0.47691,2.6833 -1.24896,3.78946 -0.77204,1.10616 -1.87329,1.97946 -3.12626,2.47918 1.89152,1.50986 3.26038,3.66236 3.82562,6.01567 0.56524,2.3533 0.32331,4.89269 -0.67612,7.09693 -1.02113,2.2521 -2.8274,4.13897 -5.0328,5.25739 -2.20539,1.11841 -4.79492,1.46077 -7.2152,0.95391"
       id="path4824"
       style="fill:none;stroke:#000000;stroke-width:1.79999995;stroke-linecap:butt;stroke-linejoin:miter;stroke-miterlimit:3.98013043;stroke-opacity:1;stroke-dasharray:none;enable-background:new" />
    <path
       d="m 316.01995,852.50675 c 1.85471,-0.56056 3.85256,-0.64023 5.74602,-0.22914 1.89346,0.41109 3.6784,1.31205 5.13368,2.59124 1.8048,1.58642 3.09012,3.7545 3.61583,6.09921 0.52572,2.3447 0.28914,4.85402 -0.66553,7.05915 -0.95468,2.20514 -2.62256,4.09479 -4.69206,5.31594 -2.06949,1.22115 -4.53,1.76755 -6.92184,1.5371"
       id="path4826"
       style="fill:none;stroke:#000000;stroke-width:1.79999995;stroke-linecap:butt;stroke-linejoin:miter;stroke-miterlimit:3.98013043;stroke-opacity:1;stroke-dasharray:none;enable-background:new" />
    <path
       d="m 395.78145,865.91385 c 3.05174,-1.01957 6.40874,-1.10474 9.50825,-0.24123 3.09952,0.86352 5.9289,2.67219 8.01385,5.12283 2.28672,2.68779 3.66128,6.13799 3.8493,9.6619 1.05811,-0.99479 2.4574,-1.61977 3.9044,-1.74385 1.44701,-0.12409 2.93227,0.25353 4.1443,1.05365 1.59934,1.0558 2.68908,2.84961 2.88901,4.75556 0.19992,1.90595 -0.49387,3.88684 -1.83931,5.25154 1.67409,-0.86343 3.71127,-0.99195 5.4806,-0.34577 1.76933,0.64619 3.2442,2.05737 3.9678,3.79647 0.67954,1.6332 0.69147,3.53293 0.0325,5.17454 -0.65897,1.64161 -1.98112,3.00581 -3.60129,3.71586"
       id="path4828"
       style="fill:none;stroke:#000000;stroke-width:1.79999995;stroke-linecap:butt;stroke-linejoin:miter;stroke-miterlimit:3.98013043;stroke-opacity:1;stroke-dasharray:none;enable-background:new" />
    <path
       d="m 267.08815,879.73925 c 0.0437,-1.83855 0.78501,-3.65208 2.04167,-4.99484 1.25665,-1.34275 3.01717,-2.20241 4.84879,-2.36769 1.83163,-0.16528 3.71759,0.36535 5.19432,1.46146 1.47672,1.0961 2.53069,2.74765 2.90282,4.54867 0.47459,2.29689 -0.19379,4.80139 -1.7497,6.5564 1.22715,-1.92788 3.35042,-3.25826 5.6205,-3.52163 2.27007,-0.26337 4.64155,0.54553 6.2775,2.14123 1.25242,1.2216 2.06973,2.88054 2.27517,4.61796 0.20543,1.73743 -0.20245,3.54123 -1.13543,5.02124 -0.93298,1.48 -2.38453,2.62588 -4.0407,3.18978 -1.65616,0.56391 -3.50537,0.54189 -5.14764,-0.0613 1.77363,0.80625 3.30571,2.13539 4.35421,3.77748 1.0485,1.64209 1.60965,3.59119 1.59479,5.53942 -0.0147,1.92611 -0.592,3.8446 -1.6427,5.45895 -1.0507,1.61435 -2.57116,2.91899 -4.32639,3.71227 -1.75522,0.79328 -3.73915,1.07246 -5.64513,0.79439 -1.90599,-0.27806 -3.72746,-1.11242 -5.18288,-2.37411"
       id="path4830"
       style="fill:none;stroke:#000000;stroke-width:1.79999995;stroke-linecap:butt;stroke-linejoin:miter;stroke-miterlimit:3.98013043;stroke-opacity:1;stroke-dasharray:none;enable-background:new" />
    <path
       d="m 295.15285,887.44405 c 5.58967,1.63703 10.26121,6.12678 12.1187,11.6471 1.76256,5.2382 0.96427,11.27341 -2.0996,15.8732 1.51031,-1.28625 3.50784,-1.98572 5.49063,-1.92266 1.9828,0.063 3.93184,0.88805 5.35737,2.26766 1.08295,1.04807 1.86322,2.40539 2.22393,3.86864 0.36071,1.46326 0.3007,3.02771 -0.17104,4.45904 -0.47174,1.43132 -1.3537,2.72488 -2.51375,3.68691 -1.16005,0.96203 -2.59445,1.58943 -4.08834,1.78821 1.9961,-0.2113 4.0682,0.42719 5.5992,1.7253 1.18159,1.00185 2.03782,2.38147 2.41114,3.88496 0.37331,1.50349 0.26184,3.12339 -0.31389,4.56158 -0.57573,1.43819 -1.61287,2.68752 -2.92054,3.51809 -1.30768,0.83056 -2.8794,1.23823 -4.42591,1.14797 2.32474,1.60377 3.99182,4.1328 4.5493,6.9015 0.54565,2.70992 0.0244,5.62005 -1.42805,7.97205 -1.4524,2.352 -3.82085,4.12148 -6.48815,4.84735 l 1.9672,4.434"
       id="path4834"
       style="fill:none;stroke:#000000;stroke-width:1.79999995;stroke-linecap:butt;stroke-linejoin:miter;stroke-miterlimit:3.98013043;stroke-opacity:1;stroke-dasharray:none;enable-background:new" />
    <path
       d="m 322.31905,889.77425 c 2.4657,-1.01652 5.43261,-0.71177 7.64017,0.78479 2.20756,1.49656 3.58917,4.13977 3.55783,6.80661 -0.0226,1.9213 -0.75535,3.82627 -2.02617,5.26742 -1.27083,1.44115 -3.06915,2.4065 -4.97253,2.66928 l 0,0"
       id="path4836"
       style="fill:none;stroke:#000000;stroke-width:1.79999995;stroke-linecap:butt;stroke-linejoin:miter;stroke-miterlimit:3.98013043;stroke-opacity:1;stroke-dasharray:none;enable-background:new" />
    <path
       d="m 353.46365,870.79545 c 2.13512,-1.86712 5.00373,-2.87177 7.83723,-2.74477 2.83351,0.12699 5.60074,1.38423 7.56027,3.43487 1.70187,1.78099 2.78733,4.14026 3.03261,6.5914 0.24527,2.45115 -0.35118,4.97872 -1.66641,7.06162 -1.31522,2.0829 -3.34092,3.70799 -5.65946,4.54024 -2.31854,0.83225 -4.91531,0.86641 -7.25494,0.0954 2.55725,0.85763 4.74601,2.76195 5.9491,5.176 1.31883,2.64628 1.4225,5.86904 0.27646,8.59461 -1.14603,2.72557 -3.52155,4.9059 -6.33516,5.8146 -2.81361,0.9087 -6.01569,0.52975 -8.53947,-1.01059 -2.52378,-1.54035 -4.32475,-4.21493 -4.80293,-7.13272"
       id="path4838"
       style="fill:none;stroke:#000000;stroke-width:1.79999995;stroke-linecap:butt;stroke-linejoin:miter;stroke-miterlimit:3.98013043;stroke-opacity:1;stroke-dasharray:none;enable-background:new" />
    <path
       d="m 372.59085,881.36325 c 2.79869,-0.7746 5.79499,-0.82335 8.6174,-0.14022 2.82241,0.68313 5.46478,2.09665 7.5995,4.06532 3.01632,2.7817 4.98178,6.67688 5.42724,10.7558 0.44545,4.07893 -0.63293,8.30652 -2.97774,11.6737 1.40737,-2.16285 3.67838,-3.74618 6.19449,-4.31875 2.51611,-0.57257 5.24862,-0.12784 7.45331,1.21305 1.83415,1.11553 3.29413,2.83488 4.09764,4.82557 0.80351,1.9907 0.94612,4.24178 0.40025,6.31797 -0.54587,2.07618 -1.77721,3.96602 -3.45592,5.30409 -1.67871,1.33808 -3.79554,2.117 -5.94117,2.18617"
       id="path4841"
       style="fill:none;stroke:#000000;stroke-width:1.79999995;stroke-linecap:butt;stroke-linejoin:miter;stroke-miterlimit:3.98013043;stroke-opacity:1;stroke-dasharray:none;enable-background:new" />
    <path
       d="m 317.31555,918.25505 c 2.17505,-2.71832 5.66918,-4.32819 9.14873,-4.21515 3.47956,0.11303 6.86184,1.94629 8.85587,4.80005 1.3145,1.88125 2.03297,4.17253 2.028,6.46752 -0.005,2.29499 -0.73336,4.58315 -2.056,6.45868 1.65533,-0.6526 3.52654,-0.74308 5.23711,-0.25322 1.71056,0.48986 3.25023,1.55712 4.30919,2.98702 0.98106,1.32472 1.54651,2.95269 1.59783,4.60034 0.0513,1.64764 -0.41168,3.30765 -1.30838,4.69087 -0.8967,1.38321 -2.22312,2.48351 -3.7482,3.10921 -1.52508,0.6257 -3.24206,0.77404 -4.85185,0.41918"
       id="path4843"
       style="fill:none;stroke:#000000;stroke-width:1.79999995;stroke-linecap:butt;stroke-linejoin:miter;stroke-miterlimit:3.98013043;stroke-opacity:1;stroke-dasharray:none;enable-background:new" />
    <path
       d="m 283.12565,939.80925 c -5.67238,4.366 -9.99734,10.45848 -12.248,17.2535 -1.79498,5.41925 -2.27915,11.26765 -1.3998,16.9083"
       id="path4847"
       style="fill:none;stroke:#000000;stroke-width:1.79999995;stroke-linecap:butt;stroke-linejoin:miter;stroke-miterlimit:3.98013043;stroke-opacity:1;stroke-dasharray:none;enable-background:new" />
    <path
       d="m 358.10105,948.09095 c -4.39002,-3.51202 -7.16596,-8.96582 -7.4221,-14.58195 -0.25614,-5.61614 2.01184,-11.29998 6.06395,-15.19702 4.05211,-3.89705 9.82008,-5.94164 15.42195,-5.46667 5.60187,0.47497 10.94326,3.46149 14.2814,7.98514 2.69179,3.64775 4.0763,8.23987 3.8494,12.7676 2.02402,-0.14652 4.09327,0.43973 5.73966,1.62611 1.64638,1.18639 2.85727,2.96381 3.35874,4.93019 0.42447,1.66445 0.34359,3.45426 -0.22926,5.07364 -0.57286,1.61938 -1.63542,3.06192 -3.01209,4.08921 -1.37667,1.0273 -3.06199,1.63529 -4.77744,1.72349 -1.71546,0.0882 -3.45424,-0.34375 -4.92901,-1.22444 1.52375,1.00928 2.6919,2.5445 3.25833,4.28221 0.56644,1.7377 0.52742,3.66642 -0.10883,5.37979 -0.49669,1.33756 -1.3507,2.54055 -2.4496,3.4506"
       id="path4854"
       style="fill:none;stroke:#000000;stroke-width:1.79999995;stroke-linecap:butt;stroke-linejoin:miter;stroke-miterlimit:3.98013043;stroke-opacity:1;stroke-dasharray:none;enable-background:new" />
    <path
       d="m 409.10745,909.47255 c 2.18779,-3.8641 5.87838,-6.85108 10.11361,-8.18547 4.23522,-1.33438 8.9715,-1.00243 12.97919,0.90967 3.50541,1.67246 6.43248,4.52977 8.18899,7.99383 1.75651,3.46406 2.33181,7.51388 1.60951,11.33007 1.96825,-3.14861 5.55454,-5.22256 9.26525,-5.3581 3.71071,-0.13553 7.43875,1.67127 9.63145,4.6679 1.1278,1.5413 1.85981,3.36975 2.10721,5.26351 0.2474,1.89377 0.01,3.8489 -0.68433,5.6282 -0.69401,1.7793 -1.84285,3.37905 -3.30714,4.60518 -1.4643,1.22613 -3.24099,2.07607 -5.11454,2.44671 4.20254,-1.37177 8.92774,-1.06496 12.9176,0.83873 3.98986,1.90369 7.20107,5.3836 8.7787,9.51327 1.47318,3.85625 1.51591,8.24067 0.11818,12.1249 -1.39773,3.88424 -4.22434,7.23613 -7.81688,9.2695"
       id="path4897"
       style="fill:none;stroke:#000000;stroke-width:1.79999995;stroke-linecap:butt;stroke-linejoin:miter;stroke-miterlimit:3.98013043;stroke-opacity:1;stroke-dasharray:none;enable-background:new" />
    <path
       d="m 296.79935,976.55805 c 18.39036,1.34373 36.91383,0.85921 55.2088,-1.4441 26.96981,-3.39545 53.60816,-10.7401 80.7867,-10.2641 16.92712,0.29646 33.79564,3.67015 49.5347,9.9069"
       id="path5020"
       style="fill:none;stroke:#000000;stroke-width:1.79999995;stroke-linecap:butt;stroke-linejoin:miter;stroke-miterlimit:3.98013043;stroke-opacity:1;stroke-dasharray:none;enable-background:new" />
    <path
       d="m 352.63855,990.96815 c -18.39036,1.34373 -36.91383,0.85921 -55.2088,-1.4441 -26.96981,-3.39545 -53.60816,-10.7401 -80.7867,-10.2641 -16.92712,0.29646 -33.79564,3.67015 -49.5347,9.9069"
       id="path5024"
       style="fill:none;stroke:#000000;stroke-width:1.79999995;stroke-linecap:butt;stroke-linejoin:miter;stroke-miterlimit:3.98013043;stroke-opacity:1;stroke-dasharray:none;enable-background:new" />
    <path
       d="m 267.97175,896.89265 c 0.67988,0.5877 1.53926,0.96485 2.43207,1.06737 0.89282,0.10251 1.81531,-0.0701 2.61071,-0.48835 0.79539,-0.4183 1.46033,-1.08058 1.88182,-1.87429 0.42148,-0.79372 0.59774,-1.71551 0.4988,-2.60873 -0.13859,-1.25122 -0.82916,-2.43122 -1.85217,-3.16486 -1.02301,-0.73363 -2.36217,-1.00921 -3.59173,-0.73914 0.85282,-1.37939 1.18404,-3.07287 0.91376,-4.67192 -0.27028,-1.59905 -1.13967,-3.0896 -2.39846,-4.11208 -1.59323,-1.29414 -3.79706,-1.80037 -5.79532,-1.33121 -1.99827,0.46915 -3.74655,1.90325 -4.59738,3.77121 1.06888,-5.06896 -0.23698,-10.5876 -3.4642,-14.64 -1.07884,-1.35469 -2.37316,-2.55993 -3.89827,-3.38036 -1.52511,-0.82043 -3.29302,-1.23975 -5.00973,-1.01174 -1.40625,0.18678 -2.75151,0.80946 -3.8039,1.76072 -1.0524,0.95126 -1.80737,2.22698 -2.1348,3.60728 -6.65463,-1.52176 -13.86648,-0.45501 -19.7956,2.9281 -7.96441,4.54443 -13.36399,13.29165 -13.857,22.4481 -5.44885,2.07054 -9.75633,6.91996 -11.1697,12.575 -1.06746,4.27102 -0.51246,8.92694 1.52907,12.82736 2.04153,3.90041 5.55104,7.0099 9.66893,8.56684 -7.42531,5.27032 -12.51004,13.72137 -13.6882,22.7504 -1.38356,10.60318 2.74456,21.77501 10.6903,28.9309"
       id="path4791-2"
       style="fill:none;stroke:#000000;stroke-width:1.79999995;stroke-linecap:butt;stroke-linejoin:miter;stroke-miterlimit:3.98013043;stroke-opacity:1;stroke-dasharray:none;display:inline;enable-background:new" />
    <path
       d="m 232.03435,896.33055 c 0.13632,-1.96853 0.99767,-3.87872 2.38275,-5.28416 1.38508,-1.40543 3.2825,-2.29456 5.24884,-2.45958 1.96633,-0.16502 3.98541,0.39542 5.58536,1.55034 1.59996,1.15492 2.76764,2.89483 3.23015,4.8131 0.46049,1.9099 0.21845,3.98102 -0.67004,5.73326 -0.88848,1.75224 -2.41621,3.17145 -4.22906,3.92864 1.38573,0.9706 2.45675,2.38328 3.01713,3.97962 0.56038,1.59633 0.60737,3.36849 0.13237,4.99228 -0.48486,1.65749 -1.51174,3.15163 -2.88537,4.19829 -1.37363,1.04665 -3.0867,1.64025 -4.81343,1.66791"
       id="path4832"
       style="fill:none;stroke:#000000;stroke-width:1.79999995;stroke-linecap:butt;stroke-linejoin:miter;stroke-miterlimit:3.98013043;stroke-opacity:1;stroke-dasharray:none;enable-background:new" />
    <path
       d="m 251.63095,926.00655 c 2.89524,-1.53739 6.55316,-1.53739 9.4484,0 1.57585,0.83679 2.92222,2.10074 3.85675,3.62067 0.93453,1.51992 1.45477,3.29183 1.49024,5.07572 0.0355,1.78389 -0.41389,3.57508 -1.28725,5.13096 -0.87336,1.55588 -2.16841,2.87237 -3.70974,3.77115"
       id="path4845"
       style="fill:none;stroke:#000000;stroke-width:1.79999995;stroke-linecap:butt;stroke-linejoin:miter;stroke-miterlimit:3.98013043;stroke-opacity:1;stroke-dasharray:none;enable-background:new" />
    <path
       d="m 246.93045,952.23185 c -1.8049,-0.5193 -3.77419,-0.44958 -5.53785,0.19604 -1.76366,0.64563 -3.31253,1.86382 -4.35558,3.42567 -1.04305,1.56185 -1.57486,3.45926 -1.49551,5.3357 0.0794,1.87644 0.76946,3.72218 1.94064,5.19039 1.05512,1.32271 2.49423,2.3354 4.09551,2.88197 1.60128,0.54657 3.35923,0.62515 5.00289,0.22363"
       id="path4850"
       style="fill:none;stroke:#000000;stroke-width:1.79999995;stroke-linecap:butt;stroke-linejoin:miter;stroke-miterlimit:3.98013043;stroke-opacity:1;stroke-dasharray:none;enable-background:new" />
    <path
       d="m 838.12784,982.20294 c 0,0 3.2263,-0.8611 5.1054,-0.5504 2.0523,0.3393 3.4858,1.6512 5.6874,2.5685 2.2016,0.9174 2.7519,4.7701 2.7519,4.7701 l 0.367,6.4213 c 0,0 -0.6988,2.6833 -2.1505,3.8134 -3.2106,2.49916 -8.0531,1.78466 -11.9763,2.86336 -3.3435,0.9192 -7.832,3.2333 -11.2608,3.7504 -4.1905,0.632 -8.8542,0.3109 -14.3128,-0.5412 -2.5406,-0.3965 -1.0287,-8.23486 -1.0287,-8.23486 l 3.1189,-8.6228 c 0,0 1.0143,-2.6504 1.2843,-4.0362 0.3049,-1.5653 -0.1552,-3.2037 0.3669,-4.7701 0.3058,-0.9174 1.0282,-1.7914 0.9173,-2.7519 -0.1071,-0.9274 -1.3945,-1.4545 -1.4677,-2.3851 -0.063,-0.7926 0.8191,-1.4126 0.9174,-2.2015 0.2062,-1.6564 -0.7339,-4.9536 -0.7339,-4.9536 l 16.5582,2.7104 5.6409,-3.4442 -2.0181,9.1732 1.6513,6.4212"
       id="path5430"
       style="fill:#ffffff;stroke:#000000;stroke-width:1.79999995;stroke-linecap:round;stroke-linejoin:round;stroke-miterlimit:3.98013043;stroke-opacity:1;stroke-dasharray:none;enable-background:new" />
    <path
       d="m 837.91274,966.60854 c 0.4667,-2.1209 -3.3941,2.9711 -5.504,3.4857 -3.4586,0.8439 -7.1448,-0.2446 -10.6408,-0.9173 -2.0708,-0.3985 -5.478,0.1939 -6.0543,-1.8346 -0.3789,-1.3336 1.4965,-2.5306 2.7519,-3.1189 3.878,-1.8171 8.6054,-0.9892 12.8426,-0.3669 2.2948,0.3371 6.6046,2.1905 6.6046,2.1905"
       id="path5432"
       style="fill:#ffffff;stroke:#000000;stroke-width:1.79999995;stroke-linecap:round;stroke-linejoin:round;stroke-miterlimit:3.98013043;stroke-opacity:1;stroke-dasharray:none;enable-background:new" />
    <path
       d="m 771.88674,992.39564 c 0.9552,3.1675 2.0305,5.0018 4.728,6.9205 2.6975,1.91876 7.3657,1.93186 11.2634,1.22396 3.8978,-0.70776 6.9524,-3.20026 9.2964,-6.00316 2.344,-2.8029 1.9297,-5.6619 2.009,-9.164 0.094,-4.152 -1.4167,-7.7664 -0.2884,-12.7704 1.1285,-5.004 8.5856,-10.9867 8.746,-15.3507 0.1604,-4.364 -3.6692,-7.7055 -3.6692,-7.7055 0,0 -5.3166,-1.9779 -7.8891,-1.2843 -3.4398,0.9276 -6.2315,3.8565 -8.2558,6.7882 -2.6042,3.7716 -2.0744,9.0783 -4.4032,13.026 -2.9032,4.9214 -6.9336,6.8377 -9.8375,11.3355 -1.8154,2.8118 -2.655,9.8163 -1.6996,12.9839 z"
       id="path5434"
       style="fill:#ffffff;stroke:#000000;stroke-width:1.79999995;stroke-linecap:butt;stroke-linejoin:miter;stroke-miterlimit:3.98013043;stroke-opacity:1;stroke-dasharray:none;enable-background:new" />
    <path
       d="m 811.31034,997.06354 17.2241,1.0578 9.5463,-1.8717 10.4823,-2.2463 3.1095,-5.0122"
       id="path5440"
       style="fill:none;stroke:#000000;stroke-width:1.79999995;stroke-linecap:butt;stroke-linejoin:miter;stroke-miterlimit:3.98013043;stroke-opacity:1;stroke-dasharray:none;enable-background:new" />
    <path
       d="m 841.76554,985.68874 -4.2196,-3.4858 -1.6513,-6.4212 2.0181,-9.1732"
       id="path5887"
       style="fill:none;stroke:#000000;stroke-width:1.79999995;stroke-linecap:round;stroke-linejoin:round;stroke-miterlimit:3.98013043;stroke-opacity:1;stroke-dasharray:none;enable-background:new" />
    <path
       d="m 1246.7452,1218.1762 c 3.3376,-13.6841 9.8226,-22.2054 26.9373,-22.7352 l 137.9103,30.9778 -21.7806,167.356 -144.3837,-9.2542 z"
       id="rect4830"
       style="fill:url(#linearGradient4426);fill-opacity:1;stroke:none;display:inline;filter:url(#filter5768-1-4);enable-background:new" />
  </g>
</svg>
