<?xml version="1.0" encoding="UTF-8" standalone="no"?>
<!-- Created with Inkscape (http://www.inkscape.org/) -->

<svg
   xmlns:dc="http://purl.org/dc/elements/1.1/"
   xmlns:cc="http://creativecommons.org/ns#"
   xmlns:rdf="http://www.w3.org/1999/02/22-rdf-syntax-ns#"
   xmlns:svg="http://www.w3.org/2000/svg"
   xmlns="http://www.w3.org/2000/svg"
   xmlns:sodipodi="http://sodipodi.sourceforge.net/DTD/sodipodi-0.dtd"
   xmlns:inkscape="http://www.inkscape.org/namespaces/inkscape"
   width="744.09448819"
   height="1052.3622047"
   id="svg3126"
   version="1.1"
   inkscape:version="0.48.3.1 r9886"
   sodipodi:docname="bessst-logo.svg">
  <sodipodi:namedview
     id="base"
     pagecolor="#ffffff"
     bordercolor="#666666"
     borderopacity="1.0"
     inkscape:pageopacity="0.0"
     inkscape:pageshadow="2"
     inkscape:zoom="2.6162188"
     inkscape:cx="-25.112592"
     inkscape:cy="721.73754"
     inkscape:document-units="px"
     inkscape:current-layer="layer1"
     showgrid="false"
     inkscape:window-width="1280"
     inkscape:window-height="744"
     inkscape:window-x="0"
     inkscape:window-y="27"
     inkscape:window-maximized="1" />
  <defs
     id="defs3128" />
  <metadata
     id="metadata3131">
    <rdf:RDF>
      <cc:Work
         rdf:about="">
        <dc:format>image/svg+xml</dc:format>
        <dc:type
           rdf:resource="http://purl.org/dc/dcmitype/StillImage" />
        <dc:title />
      </cc:Work>
    </rdf:RDF>
  </metadata>
  <g
     id="layer1"
     inkscape:groupmode="layer"
     inkscape:label="Layer 1">
    <text
       sodipodi:linespacing="125%"
       id="text3981"
       y="366.5239"
       x="-648.17657"
       style="font-size:35.23974228px;font-style:normal;font-variant:normal;font-weight:normal;font-stretch:normal;text-align:start;line-height:125%;letter-spacing:0px;word-spacing:0px;writing-mode:lr-tb;text-anchor:start;fill:#000000;fill-opacity:1;stroke:none;font-family:Cicle;-inkscape-font-specification:Cicle"
       xml:space="preserve"><tspan
         style="font-size:35.23974228px;font-style:normal;font-variant:normal;font-weight:normal;font-stretch:normal;text-align:start;line-height:125%;writing-mode:lr-tb;text-anchor:start;font-family:Cicle;-inkscape-font-specification:Cicle"
         y="366.5239"
         x="-648.17657"
         id="tspan3983"
         sodipodi:role="line">bessst</tspan></text>
    <text
       xml:space="preserve"
       style="font-size:35.23974228px;font-style:normal;font-variant:normal;font-weight:normal;font-stretch:normal;text-align:start;line-height:125%;letter-spacing:0px;word-spacing:0px;writing-mode:lr-tb;text-anchor:start;fill:#000000;fill-opacity:1;stroke:none;font-family:WinterthurCondensed;-inkscape-font-specification:WinterthurCondensed"
       x="-649.6972"
       y="419.7038"
       id="text4414"
       sodipodi:linespacing="125%"><tspan
         sodipodi:role="line"
         id="tspan4416"
         x="-649.6972"
         y="419.7038"
         style="font-size:35.23974228px;font-style:normal;font-variant:normal;font-weight:normal;font-stretch:normal;text-align:start;line-height:125%;writing-mode:lr-tb;text-anchor:start;font-family:WinterthurCondensed;-inkscape-font-specification:WinterthurCondensed">bessst</tspan></text>
    <text
       sodipodi:linespacing="125%"
       id="text4418"
       y="481.4043"
       x="-649.6767"
       style="font-size:35.23974228px;font-style:normal;font-variant:normal;font-weight:500;font-stretch:normal;text-align:start;line-height:125%;letter-spacing:0px;word-spacing:0px;writing-mode:lr-tb;text-anchor:start;fill:#000000;fill-opacity:1;stroke:none;font-family:Didact Gothic;-inkscape-font-specification:Didact Gothic Medium"
       xml:space="preserve"><tspan
         style="font-size:35.23974228px;font-style:normal;font-variant:normal;font-weight:500;font-stretch:normal;text-align:start;line-height:125%;writing-mode:lr-tb;text-anchor:start;font-family:Didact Gothic;-inkscape-font-specification:Didact Gothic Medium"
         y="481.4043"
         x="-649.6767"
         id="tspan4420"
         sodipodi:role="line">bessst</tspan></text>
    <text
       sodipodi:linespacing="125%"
       id="text4426"
       y="565.07153"
       x="-293.24451"
       style="font-size:75.19156647px;font-style:normal;font-variant:normal;font-weight:500;font-stretch:normal;text-align:start;line-height:125%;letter-spacing:0px;word-spacing:0px;writing-mode:lr-tb;text-anchor:start;fill:#000000;fill-opacity:1;stroke:none;font-family:LetsTrace;-inkscape-font-specification:LetsTrace Medium"
       xml:space="preserve"><tspan
         style="font-size:75.19156647px;font-style:normal;font-variant:normal;font-weight:500;font-stretch:normal;text-align:start;line-height:125%;writing-mode:lr-tb;text-anchor:start;font-family:LetsTrace;-inkscape-font-specification:LetsTrace Medium"
         y="565.07153"
         x="-293.24451"
         id="tspan4428"
         sodipodi:role="line">besst</tspan></text>
    <path
       sodipodi:type="arc"
       style="fill:none;stroke:#000000;stroke-width:6.25;stroke-miterlimit:4;stroke-dasharray:none;display:inline;enable-background:new"
       id="path3986"
       sodipodi:cx="-415.77982"
       sodipodi:cy="-108.88409"
       sodipodi:rx="206.62996"
       sodipodi:ry="89.455658"
       d="m -209.14986,-108.88409 a 206.62996,89.455658 0 1 1 -413.25991,0 206.62996,89.455658 0 1 1 413.25991,0 z"
       transform="matrix(-0.38470681,0,0,0.38470681,-641.36473,632.23996)" />
    <path
       style="fill:none;stroke:#000000;stroke-width:2.40441751;stroke-miterlimit:4;display:inline;enable-background:new"
       d="m -404.09334,598.80466 c -3.46563,-6.2797 -10.90719,-11.8911 -21.10881,-16.3076 -14.38518,-6.2278 -34.25816,-10.0798 -56.20931,-10.0798 -37.2952,0 -68.59164,11.1192 -77.16677,26.118"
       id="path3988"
       inkscape:connector-curvature="0"
       sodipodi:nodetypes="cssc" />
    <path
       style="fill:none;stroke:#000000;stroke-width:2.40441751;stroke-linecap:butt;stroke-linejoin:miter;stroke-miterlimit:4;stroke-opacity:1;stroke-dasharray:none;display:inline;enable-background:new"
       d="m -494.25614,574.11386 0,13.1235 23.10235,0 0,15.5712 24.64128,0 0,18.9642"
       id="path3991"
       inkscape:connector-curvature="0"
       sodipodi:nodetypes="cccccc" />
    <path
       style="fill:#ccffaa;stroke:#000000;stroke-width:2.40441751;stroke-linecap:butt;stroke-linejoin:miter;stroke-miterlimit:4;stroke-opacity:1;stroke-dasharray:none;display:inline;enable-background:new"
       d="m -446.85527,603.95546 -47.15074,20.7126"
       id="path3993"
       inkscape:connector-curvature="0"
       sodipodi:nodetypes="cc" />
    <path
       inkscape:connector-curvature="0"
       id="path3995"
       d="m -494.25614,586.96126 -56.92527,19.3287"
       style="fill:none;stroke:#000000;stroke-width:2.40441751;stroke-linecap:butt;stroke-linejoin:miter;stroke-miterlimit:4;stroke-opacity:1;stroke-dasharray:none;display:inline;enable-background:new"
       sodipodi:nodetypes="cc" />
    <path
       style="fill:none;stroke:#000000;stroke-width:2.40441751;stroke-linecap:butt;stroke-linejoin:miter;stroke-miterlimit:4;stroke-opacity:1;stroke-dasharray:none;display:inline;enable-background:new"
       d="m -470.88986,587.68836 -67.55937,26.0436"
       id="path3997"
       inkscape:connector-curvature="0"
       sodipodi:nodetypes="cc" />
    <path
       inkscape:connector-curvature="0"
       id="path3999"
       d="m -470.94865,602.78526 -45.4464,18.2181"
       style="fill:none;stroke:#000000;stroke-width:2.40441751;stroke-linecap:butt;stroke-linejoin:miter;stroke-miterlimit:4;stroke-opacity:1;stroke-dasharray:none;display:inline;enable-background:new"
       sodipodi:nodetypes="cc" />
    <path
       style="fill:none;stroke:#000000;stroke-width:2.40441751;stroke-miterlimit:4;display:inline;enable-background:new"
       d="m -560.90338,590.35146 c 0,19.0064 35.58978,34.4142 79.49192,34.4142 43.90223,0 79.49202,-15.4078 79.49202,-34.4142"
       id="path4003"
       inkscape:connector-curvature="0"
       sodipodi:nodetypes="csc" />
    <g
       transform="matrix(0.38470681,0,0,0.38470681,-836.16473,2031.4619)"
       style="font-size:89.23809052px;font-style:normal;font-variant:normal;font-weight:normal;font-stretch:normal;text-align:start;line-height:125%;letter-spacing:5.82278442px;word-spacing:0px;writing-mode:lr-tb;text-anchor:start;fill:#000000;fill-opacity:1;stroke:none;display:inline;enable-background:new;font-family:Cicle;-inkscape-font-specification:Cicle"
       id="g4892">
      <path
         style="stroke:none"
         d="m 1057.2205,-3571.8488 c 0,0.6544 0.3272,1.2493 0.9816,1.7847 0.6544,0.5354 1.5468,1.0114 2.6771,1.4278 1.1304,0.4165 2.4392,0.7734 3.9265,1.0709 1.5468,0.238 3.1828,0.3867 4.9081,0.4462 2.2607,-0.059 4.3727,-0.5652 6.3359,-1.5171 2.0227,-0.9518 3.7777,-2.2607 5.2651,-3.9265 1.5467,-1.6657 2.7663,-3.5695 3.6587,-5.7112 0.8924,-2.2012 1.3386,-4.5511 1.3386,-7.0498 0,-2.3797 -0.4462,-4.6701 -1.3386,-6.8713 -0.8924,-2.2012 -2.112,-4.105 -3.6587,-5.7113 -1.4874,-1.6657 -3.2424,-2.9745 -5.2651,-3.9264 -1.9632,-1.0114 -4.0752,-1.5171 -6.3359,-1.5171 -3.1531,0 -5.9195,0.4165 -8.2991,1.2493 -2.3797,0.833 -3.7778,1.8146 -4.1942,2.9449 l 0,27.3069 m 0,8.7453 -4.3655,0 0.1711,-61.2173 4.4621,0 0,18.8292 c 3.2126,-1.8442 7.2878,-2.7663 12.2256,-2.7664 2.9746,10e-5 5.741,0.6247 8.2992,1.874 2.6176,1.1899 4.8783,2.8557 6.7821,4.9973 1.9632,2.0823 3.5099,4.5215 4.6403,7.3176 1.1303,2.7366 1.6955,5.6517 1.6956,8.7453 -10e-5,3.1531 -0.5653,6.1277 -1.6956,8.9238 -1.1304,2.7367 -2.6771,5.1461 -4.6403,7.2283 -1.9038,2.0822 -4.1645,3.748 -6.7821,4.9973 -2.5582,1.2494 -5.3246,1.9038 -8.2992,1.9633 -2.6177,-0.119 -4.9676,-0.4165 -7.0498,-0.8924 -2.0822,-0.476 -3.8967,-1.1601 -5.4435,-2.0525 l 0,2.0525"
         id="path4894"
         inkscape:connector-curvature="0"
         sodipodi:nodetypes="csccccccssccscccccccccccccccccccc" />
      <path
         style="stroke:none"
         inkscape:connector-curvature="0"
         d="m 1121.1763,-3567.1192 c 0.8924,0 1.8442,-0.089 2.8556,-0.2677 1.0114,-0.238 2.0227,-0.5057 3.0341,-0.8032 1.0708,-0.3569 2.0822,-0.7436 3.0341,-1.1601 0.9519,-0.4164 1.8145,-0.8031 2.5879,-1.1601 l 1.874,4.2835 c -1.7253,0.9518 -3.51,1.755 -5.3543,2.4094 -1.8442,0.5949 -3.748,1.0708 -5.7112,1.4278 -0.357,0.059 -0.7437,0.089 -1.1601,0.089 -0.4165,0 -0.8032,0 -1.1601,0 -2.4987,0 -4.8486,-0.5354 -7.0498,-1.6063 -2.2012,-1.1303 -4.1645,-2.6474 -5.8897,-4.5511 -1.6658,-1.9632 -3.0341,-4.2537 -4.105,-6.8713 -1.0708,-2.6177 -1.6955,-5.4138 -1.874,-8.3884 l 0,-1.6063 c 0,-3.1531 0.476,-6.1277 1.4278,-8.9238 0.9519,-2.7961 2.231,-5.2353 3.8373,-7.3175 1.6657,-2.0822 3.5695,-3.7182 5.7112,-4.9081 2.2012,-1.2493 4.5214,-1.874 6.9606,-1.874 2.4986,0 4.8188,0.5949 6.9606,1.7847 2.1416,1.1304 4.0156,2.707 5.622,4.7297 1.6062,2.0227 2.8555,4.4024 3.748,7.139 0.8923,2.7367 1.3385,5.7113 1.3385,8.9238 l 0,2.6772 -30.6086,0 c 0.1784,2.2607 0.6544,4.3726 1.4278,6.3359 0.7734,1.9037 1.755,3.5695 2.9448,4.9973 1.2494,1.4278 2.6772,2.5582 4.2835,3.391 1.6657,0.8329 3.4207,1.2494 5.265,1.2494 m 11.9579,-20.7033 c -0.1785,-2.2011 -0.6544,-4.2536 -1.4278,-6.1574 -0.7139,-1.9037 -1.6658,-3.5397 -2.8556,-4.9081 -1.1304,-1.4278 -2.4392,-2.5284 -3.9265,-3.3018 -1.4873,-0.7734 -3.0639,-1.1601 -4.7296,-1.1601 -1.6063,0 -3.1234,0.4165 -4.5512,1.2493 -1.4278,0.7735 -2.7069,1.8741 -3.8372,3.3018 -1.1304,1.3684 -2.0822,3.0044 -2.8556,4.9081 -0.7734,1.9038 -1.3088,3.9265 -1.6063,6.0682 l 25.7898,0"
         id="path4896" />
      <path
         style="stroke:none"
         inkscape:connector-curvature="0"
         d="m 1176.2655,-3599.2449 c -1.3684,-1.3088 -3.0044,-2.2904 -4.9081,-2.9449 -1.9038,-0.7139 -3.8968,-1.0708 -5.979,-1.0709 -2.7961,10e-5 -5.146,0.6247 -7.0498,1.874 -1.8442,1.2494 -2.7664,2.8854 -2.7664,4.9081 0,1.0114 0.238,1.9931 0.714,2.9449 0.5354,0.8924 1.2493,1.7253 2.1417,2.4987 0.9518,0.7734 2.0524,1.4278 3.3018,1.9632 1.2493,0.5355 2.6176,0.9222 4.1049,1.1601 2.0227,0.2975 3.8967,0.8627 5.622,1.6955 1.7253,0.8329 3.2126,1.874 4.4619,3.1234 1.2493,1.1898 2.231,2.5284 2.9449,4.0157 0.7139,1.4873 1.0708,3.0341 1.0708,4.6403 0,1.7848 -0.3867,3.4208 -1.1601,4.9081 -0.7734,1.4873 -1.8442,2.7664 -3.2125,3.8373 -1.3089,1.0113 -2.8557,1.8145 -4.6404,2.4094 -1.7848,0.5949 -3.6885,0.8924 -5.7112,0.8924 -2.7367,0 -5.4436,-0.5354 -8.1207,-1.6063 -2.6772,-1.1303 -4.8486,-2.7069 -6.5144,-4.7296 l 3.6588,-2.8556 c 1.2493,1.2493 2.8258,2.2904 4.7296,3.1233 1.9037,0.8329 3.8967,1.2493 5.9789,1.2493 1.4278,0 2.7367,-0.1784 3.9265,-0.5354 1.2493,-0.3569 2.3202,-0.8329 3.2126,-1.4278 0.9518,-0.6544 1.6955,-1.4278 2.2309,-2.3202 0.5354,-0.8924 0.8032,-1.874 0.8032,-2.9449 0,-0.9518 -0.2975,-1.9037 -0.8924,-2.8556 -0.5354,-0.9518 -1.2791,-1.8145 -2.2309,-2.5879 -0.8925,-0.8328 -1.9633,-1.5468 -3.2126,-2.1417 -1.2494,-0.5949 -2.5284,-1.0411 -3.8373,-1.3386 -1.9632,-0.2974 -3.8372,-0.8626 -5.622,-1.6955 -1.7252,-0.8923 -3.2423,-1.9335 -4.5511,-3.1233 -1.2493,-1.1898 -2.2607,-2.4987 -3.0341,-3.9265 -0.7139,-1.4873 -1.0709,-2.9746 -1.0708,-4.4619 -10e-5,-1.7252 0.3866,-3.3018 1.16,-4.7296 0.8329,-1.4278 1.9335,-2.6474 3.3019,-3.6588 1.4278,-1.0113 3.034,-1.7847 4.8188,-2.3202 1.8443,-0.5948 3.7777,-0.8923 5.8005,-0.8924 2.7961,10e-5 5.4732,0.5653 8.0314,1.6956 2.5581,1.1304 4.6999,2.5879 6.4252,4.3726 l -3.9265,2.8557"
         id="path4898" />
      <path
         style="stroke:none"
         inkscape:connector-curvature="0"
         d="m 1219.387,-3599.2449 c -1.3683,-1.3088 -3.0044,-2.2904 -4.9081,-2.9449 -1.9038,-0.7139 -3.8967,-1.0708 -5.9789,-1.0709 -2.7962,10e-5 -5.1461,0.6247 -7.0499,1.874 -1.8442,1.2494 -2.7663,2.8854 -2.7663,4.9081 0,1.0114 0.2379,1.9931 0.7139,2.9449 0.5354,0.8924 1.2493,1.7253 2.1417,2.4987 0.9518,0.7734 2.0524,1.4278 3.3018,1.9632 1.2493,0.5355 2.6176,0.9222 4.1049,1.1601 2.0228,0.2975 3.8968,0.8627 5.622,1.6955 1.7253,0.8329 3.2126,1.874 4.462,3.1234 1.2493,1.1898 2.2309,2.5284 2.9448,4.0157 0.7139,1.4873 1.0708,3.0341 1.0709,4.6403 -1e-4,1.7848 -0.3868,3.4208 -1.1601,4.9081 -0.7735,1.4873 -1.8443,2.7664 -3.2126,3.8373 -1.3089,1.0113 -2.8556,1.8145 -4.6404,2.4094 -1.7848,0.5949 -3.6885,0.8924 -5.7112,0.8924 -2.7367,0 -5.4436,-0.5354 -8.1207,-1.6063 -2.6771,-1.1303 -4.8486,-2.7069 -6.5144,-4.7296 l 3.6588,-2.8556 c 1.2493,1.2493 2.8259,2.2904 4.7296,3.1233 1.9037,0.8329 3.8967,1.2493 5.979,1.2493 1.4278,0 2.7366,-0.1784 3.9264,-0.5354 1.2494,-0.3569 2.3202,-0.8329 3.2126,-1.4278 0.9519,-0.6544 1.6955,-1.4278 2.231,-2.3202 0.5354,-0.8924 0.8031,-1.874 0.8031,-2.9449 0,-0.9518 -0.2975,-1.9037 -0.8924,-2.8556 -0.5354,-0.9518 -1.2791,-1.8145 -2.2309,-2.5879 -0.8924,-0.8328 -1.9633,-1.5468 -3.2126,-2.1417 -1.2493,-0.5949 -2.5284,-1.0411 -3.8372,-1.3386 -1.9633,-0.2974 -3.8373,-0.8626 -5.622,-1.6955 -1.7253,-0.8923 -3.2424,-1.9335 -4.5512,-3.1233 -1.2493,-1.1898 -2.2607,-2.4987 -3.0341,-3.9265 -0.7139,-1.4873 -1.0708,-2.9746 -1.0708,-4.4619 0,-1.7252 0.3867,-3.3018 1.1601,-4.7296 0.8329,-1.4278 1.9335,-2.6474 3.3018,-3.6588 1.4278,-1.0113 3.0341,-1.7847 4.8188,-2.3202 1.8443,-0.5948 3.7778,-0.8923 5.8005,-0.8924 2.7961,10e-5 5.4733,0.5653 8.0314,1.6956 2.5582,1.1304 4.6999,2.5879 6.4252,4.3726 l -3.9265,2.8557"
         id="path4900" />
      <path
         style="stroke:none"
         inkscape:connector-curvature="0"
         d="m 1262.5085,-3599.2449 c -1.3683,-1.3088 -3.0044,-2.2904 -4.9081,-2.9449 -1.9037,-0.7139 -3.8967,-1.0708 -5.9789,-1.0709 -2.7962,10e-5 -5.1461,0.6247 -7.0498,1.874 -1.8443,1.2494 -2.7664,2.8854 -2.7664,4.9081 0,1.0114 0.2379,1.9931 0.7139,2.9449 0.5354,0.8924 1.2493,1.7253 2.1417,2.4987 0.9519,0.7734 2.0525,1.4278 3.3018,1.9632 1.2493,0.5355 2.6176,0.9222 4.105,1.1601 2.0227,0.2975 3.8967,0.8627 5.622,1.6955 1.7252,0.8329 3.2125,1.874 4.4619,3.1234 1.2493,1.1898 2.2309,2.5284 2.9448,4.0157 0.7139,1.4873 1.0709,3.0341 1.0709,4.6403 0,1.7848 -0.3867,3.4208 -1.1601,4.9081 -0.7734,1.4873 -1.8443,2.7664 -3.2126,3.8373 -1.3088,1.0113 -2.8556,1.8145 -4.6404,2.4094 -1.7847,0.5949 -3.6885,0.8924 -5.7112,0.8924 -2.7366,0 -5.4435,-0.5354 -8.1207,-1.6063 -2.6771,-1.1303 -4.8486,-2.7069 -6.5143,-4.7296 l 3.6587,-2.8556 c 1.2493,1.2493 2.8259,2.2904 4.7296,3.1233 1.9038,0.8329 3.8967,1.2493 5.979,1.2493 1.4278,0 2.7366,-0.1784 3.9265,-0.5354 1.2493,-0.3569 2.3201,-0.8329 3.2125,-1.4278 0.9519,-0.6544 1.6955,-1.4278 2.231,-2.3202 0.5354,-0.8924 0.8031,-1.874 0.8031,-2.9449 0,-0.9518 -0.2975,-1.9037 -0.8924,-2.8556 -0.5354,-0.9518 -1.2791,-1.8145 -2.2309,-2.5879 -0.8924,-0.8328 -1.9633,-1.5468 -3.2126,-2.1417 -1.2493,-0.5949 -2.5284,-1.0411 -3.8372,-1.3386 -1.9633,-0.2974 -3.8373,-0.8626 -5.622,-1.6955 -1.7253,-0.8923 -3.2423,-1.9335 -4.5512,-3.1233 -1.2493,-1.1898 -2.2607,-2.4987 -3.034,-3.9265 -0.714,-1.4873 -1.0709,-2.9746 -1.0709,-4.4619 0,-1.7252 0.3867,-3.3018 1.1601,-4.7296 0.8329,-1.4278 1.9335,-2.6474 3.3018,-3.6588 1.4278,-1.0113 3.0341,-1.7847 4.8189,-2.3202 1.8442,-0.5948 3.7777,-0.8923 5.8004,-0.8924 2.7961,10e-5 5.4733,0.5653 8.0315,1.6956 2.5581,1.1304 4.6998,2.5879 6.4251,4.3726 l -3.9265,2.8557"
         id="path4902" />
      <path
         style="stroke:none"
         inkscape:connector-curvature="0"
         d="m 1291.2627,-3624.3208 0,17.2229 11.6902,0 0,4.9081 -11.6902,0 0,39.0863 -4.7296,0 0,-39.0863 -6.6036,0 0,-4.9081 6.4251,0 0,-17.2229 4.9081,0"
         id="path4904" />
    </g>
    <path
       transform="matrix(-0.38470681,0,0,0.38470681,-402.96873,589.30848)"
       d="m -209.14986,-108.88409 a 206.62996,89.455658 0 1 1 -413.25991,0 206.62996,89.455658 0 1 1 413.25991,0 z"
       sodipodi:ry="89.455658"
       sodipodi:rx="206.62996"
       sodipodi:cy="-108.88409"
       sodipodi:cx="-415.77982"
       id="path3209"
       style="fill:none;stroke:#000000;stroke-width:6.25;stroke-miterlimit:4;stroke-dasharray:none;display:inline;enable-background:new"
       sodipodi:type="arc" />
    <path
       sodipodi:nodetypes="cssc"
       inkscape:connector-curvature="0"
       id="path3211"
       d="m -165.69734,555.87318 c -3.46563,-6.2797 -10.90719,-11.8911 -21.10881,-16.3076 -14.38518,-6.2278 -34.25816,-10.0798 -56.20931,-10.0798 -37.2952,0 -68.59164,11.1192 -77.16677,26.118"
       style="fill:none;stroke:#000000;stroke-width:2.40441751;stroke-miterlimit:4;display:inline;enable-background:new" />
    <path
       sodipodi:nodetypes="csc"
       inkscape:connector-curvature="0"
       id="path3223"
       d="m -322.50738,547.41998 c 0,19.0064 35.58978,34.4142 79.49192,34.4142 43.90223,0 79.49202,-15.4078 79.49202,-34.4142"
       style="fill:none;stroke:#000000;stroke-width:2.40441751;stroke-miterlimit:4;display:inline;enable-background:new" />
    <text
       xml:space="preserve"
       style="font-size:75.19156647px;font-style:normal;font-variant:normal;font-weight:500;font-stretch:normal;text-align:start;line-height:125%;letter-spacing:0px;word-spacing:0px;writing-mode:lr-tb;text-anchor:start;fill:#000000;fill-opacity:1;stroke:none;font-family:LetsTrace;-inkscape-font-specification:LetsTrace Medium"
       x="-293.24451"
       y="432.21439"
       id="text3225"
       sodipodi:linespacing="125%"><tspan
         sodipodi:role="line"
         id="tspan3227"
         x="-293.24451"
         y="432.21439"
         style="font-size:75.19156647px;font-style:normal;font-variant:normal;font-weight:500;font-stretch:normal;text-align:start;line-height:125%;writing-mode:lr-tb;text-anchor:start;font-family:LetsTrace;-inkscape-font-specification:LetsTrace Medium">besst</tspan></text>
    <path
       sodipodi:type="arc"
       style="fill:none;stroke:#000000;stroke-width:6.25;stroke-miterlimit:4;stroke-dasharray:none;display:inline;enable-background:new"
       id="path3229"
       sodipodi:cx="-415.77982"
       sodipodi:cy="-108.88409"
       sodipodi:rx="206.62996"
       sodipodi:ry="89.455658"
       d="m -209.14986,-108.88409 a 206.62996,89.455658 0 1 1 -413.25991,0 206.62996,89.455658 0 1 1 413.25991,0 z"
       transform="matrix(-0.38470681,0,0,0.38470681,-402.96873,456.45134)" />
    <path
       style="fill:none;stroke:#000000;stroke-width:2.40441751;stroke-miterlimit:4;display:inline;enable-background:new"
       d="m -165.69734,423.01604 c -3.46563,-6.2797 -10.90719,-11.8911 -21.10881,-16.3076 -14.38518,-6.2278 -34.25816,-10.0798 -56.20931,-10.0798 -37.2952,0 -68.59164,11.1192 -77.16677,26.118"
       id="path3231"
       inkscape:connector-curvature="0"
       sodipodi:nodetypes="cssc" />
    <path
       style="fill:none;stroke:#000000;stroke-width:2.40441751;stroke-miterlimit:4;display:inline;enable-background:new"
       d="m -322.50738,414.56284 c 0,19.0064 35.58978,34.4142 79.49192,34.4142 43.90223,0 79.49202,-15.4078 79.49202,-34.4142"
       id="path3233"
       inkscape:connector-curvature="0"
       sodipodi:nodetypes="csc" />
    <text
       xml:space="preserve"
       style="font-size:35.23974228px;font-style:normal;font-variant:normal;font-weight:500;font-stretch:normal;text-align:start;line-height:125%;letter-spacing:0px;word-spacing:0px;writing-mode:lr-tb;text-anchor:start;fill:#000000;fill-opacity:1;stroke:none;font-family:Didact Gothic;-inkscape-font-specification:Didact Gothic Medium"
       x="-338.31628"
       y="246.80287"
       id="text3254"
       sodipodi:linespacing="125%"><tspan
         sodipodi:role="line"
         id="tspan3256"
         x="-338.31628"
         y="246.80287"
         style="font-size:35.23974228px;font-style:normal;font-variant:normal;font-weight:normal;font-stretch:normal;text-align:start;line-height:125%;writing-mode:lr;text-anchor:start;font-family:Karla;-inkscape-font-specification:Karla">bessst</tspan></text>
    <text
       sodipodi:linespacing="125%"
       id="text3258"
       y="318.69687"
       x="-372.91187"
       style="font-size:35.23974228px;font-style:normal;font-variant:normal;font-weight:500;font-stretch:normal;text-align:start;line-height:125%;letter-spacing:0px;word-spacing:0px;writing-mode:lr-tb;text-anchor:start;fill:#000000;fill-opacity:1;stroke:none;font-family:Didact Gothic;-inkscape-font-specification:Didact Gothic Medium"
       xml:space="preserve"><tspan
         style="font-size:35.23974228px;font-style:normal;font-variant:normal;font-weight:normal;font-stretch:normal;text-align:start;line-height:125%;writing-mode:lr-tb;text-anchor:start;font-family:Karla;-inkscape-font-specification:Karla"
         y="318.69687"
         x="-372.91187"
         id="tspan3260"
         sodipodi:role="line">BESSST</tspan></text>
    <path
       inkscape:connector-curvature="0"
       id="path3345"
       style="font-size:35.23974228px;font-style:normal;font-variant:normal;font-weight:normal;font-stretch:normal;text-align:start;line-height:125%;letter-spacing:0px;word-spacing:0px;writing-mode:lr-tb;text-anchor:start;fill:#000000;fill-opacity:1;stroke:none;font-family:Karla;-inkscape-font-specification:Karla"
       d="m -200.69909,277.07105 8.28134,0 c 2.32581,2e-5 4.11129,0.55211 5.35644,1.65627 1.26862,1.10419 1.90293,2.49029 1.90295,4.15829 -2e-5,1.26864 -0.35242,2.37282 -1.05719,3.31253 -0.68132,0.93974 -1.72677,1.57406 -3.13634,1.90295 1.38608,0.23494 2.49026,0.83402 3.31254,1.79723 0.84573,0.96322 1.26861,2.05565 1.26863,3.27729 -2e-5,2.72521 -1.32739,4.56942 -3.98209,5.53264 -0.98673,0.3524 -2.19663,0.5286 -3.6297,0.5286 l -8.31658,0 0,-22.1658 m 8.2461,19.73425 c 1.6915,1e-5 2.90139,-0.34064 3.6297,-1.02195 0.72827,-0.6813 1.09241,-1.58578 1.09243,-2.71346 -2e-5,-1.12766 -0.3994,-2.0204 -1.19815,-2.67822 -0.79878,-0.68129 -1.97344,-1.02194 -3.52398,-1.02195 l -5.46216,0 0,7.43558 5.46216,0 m -5.46216,-9.83188 5.42692,0 c 1.36259,1e-5 2.44328,-0.3289 3.24206,-0.98672 0.82224,-0.68128 1.23337,-1.60926 1.23339,-2.78394 -2e-5,-1.17464 -0.3994,-2.09087 -1.19815,-2.7487 -0.77529,-0.65778 -1.86772,-0.98669 -3.2773,-0.98671 l -5.42692,0 0,7.50607" />
    <path
       inkscape:connector-curvature="0"
       id="path3347"
       style="font-size:35.23974228px;font-style:normal;font-variant:normal;font-weight:normal;font-stretch:normal;text-align:start;line-height:125%;letter-spacing:0px;word-spacing:0px;writing-mode:lr-tb;text-anchor:start;fill:#000000;fill-opacity:1;stroke:none;font-family:Karla;-inkscape-font-specification:Karla"
       d="m -178.84714,279.07105 13.63778,0 0,2.3963 -10.85384,0 0,7.43559 10.21952,0 0,2.36106 -10.21952,0 0,7.5413 10.85384,0 0,2.43155 -13.63778,0 0,-22.1658" />
    <path
       inkscape:connector-curvature="0"
       id="path3349"
       style="font-size:35.23974228px;font-style:normal;font-variant:normal;font-weight:normal;font-stretch:normal;text-align:start;line-height:125%;letter-spacing:0px;word-spacing:0px;writing-mode:lr-tb;text-anchor:start;fill:#000000;fill-opacity:1;stroke:none;font-family:Karla;-inkscape-font-specification:Karla"
       d="m -147.25306,286.46273 c -0.3994,-2.16135 -1.98519,-3.24204 -4.75737,-3.24206 -1.48008,2e-5 -2.61949,0.32893 -3.41825,0.98672 -0.79878,0.63433 -1.19816,1.4096 -1.19816,2.32582 0,0.89276 0.24668,1.57406 0.74004,2.0439 0.49335,0.46988 1.29211,0.88101 2.3963,1.2334 l 4.61641,1.58578 c 1.57402,0.54036 2.81916,1.28039 3.73541,2.22011 0.93971,0.93973 1.40957,2.26709 1.40959,3.98209 -2e-5,1.69151 -0.72831,3.12459 -2.18486,4.29925 -1.4566,1.15116 -3.40653,1.72674 -5.8498,1.72674 -2.4433,0 -4.45196,-0.61082 -6.026,-1.83246 -1.55055,-1.24514 -2.34932,-2.98363 -2.3963,-5.21548 l 2.71346,0 c 0,1.45658 0.5051,2.5725 1.51531,3.34777 1.03369,0.77528 2.34931,1.16291 3.94685,1.16291 1.62102,0 2.90139,-0.35239 3.84113,-1.05719 0.93971,-0.72828 1.40958,-1.57404 1.40959,-2.53726 -10e-6,-0.98671 -0.29368,-1.76198 -0.88099,-2.32582 -0.56385,-0.56383 -1.4096,-1.03369 -2.53726,-1.40959 l -3.91161,-1.44483 c -1.83248,-0.61081 -3.21857,-1.3391 -4.15829,-2.18487 -0.93973,-0.84574 -1.4096,-2.07913 -1.40959,-3.70017 -10e-6,-1.6445 0.6578,-3.00711 1.97342,-4.08781 1.31561,-1.10416 3.15982,-1.65625 5.53264,-1.65627 2.3728,2e-5 4.18177,0.52862 5.42692,1.58579 1.26862,1.03372 1.9969,2.43156 2.18487,4.19353 l -2.71346,0" />
    <path
       inkscape:connector-curvature="0"
       id="path3351"
       style="font-size:35.23974228px;font-style:normal;font-variant:normal;font-weight:normal;font-stretch:normal;text-align:start;line-height:125%;letter-spacing:0px;word-spacing:0px;writing-mode:lr-tb;text-anchor:start;fill:#000000;fill-opacity:1;stroke:none;font-family:Karla;-inkscape-font-specification:Karla"
       d="m -125.9165,282.46273 c -0.3994,-2.16135 -1.98519,-3.24204 -4.75737,-3.24206 -1.48007,2e-5 -2.61949,0.32893 -3.41825,0.98672 -0.79878,0.63433 -1.19816,1.4096 -1.19815,2.32582 -1e-5,0.89276 0.24667,1.57406 0.74003,2.0439 0.49335,0.46988 1.29212,0.88101 2.3963,1.2334 l 4.61641,1.58578 c 1.57403,0.54036 2.81916,1.28039 3.73541,2.22011 0.93971,0.93973 1.40957,2.26709 1.40959,3.98209 -2e-5,1.69151 -0.7283,3.12459 -2.18486,4.29925 -1.45659,1.15116 -3.40652,1.72674 -5.8498,1.72674 -2.4433,0 -4.45196,-0.61082 -6.02599,-1.83246 -1.55056,-1.24514 -2.34932,-2.98363 -2.39631,-5.21548 l 2.71346,0 c 0,1.45658 0.5051,2.5725 1.51531,3.34777 1.03369,0.77528 2.34931,1.16291 3.94685,1.16291 1.62102,0 2.9014,-0.35239 3.84114,-1.05719 0.93971,-0.72828 1.40957,-1.57404 1.40959,-2.53726 -2e-5,-0.98671 -0.29368,-1.76198 -0.881,-2.32582 -0.56385,-0.56383 -1.4096,-1.03369 -2.53726,-1.40959 l -3.91161,-1.44483 c -1.83247,-0.61081 -3.21857,-1.3391 -4.15829,-2.18487 -0.93973,-0.84574 -1.40959,-2.07913 -1.40959,-3.70017 0,-1.6445 0.6578,-3.00711 1.97343,-4.08781 1.31561,-1.10416 3.15982,-1.65625 5.53263,-1.65627 2.3728,2e-5 4.18177,0.52862 5.42693,1.58579 1.26861,1.03372 1.9969,2.43156 2.18486,4.19353 l -2.71346,0" />
    <path
       inkscape:connector-curvature="0"
       id="path3353"
       style="font-size:35.23974228px;font-style:normal;font-variant:normal;font-weight:normal;font-stretch:normal;text-align:start;line-height:125%;letter-spacing:0px;word-spacing:0px;writing-mode:lr-tb;text-anchor:start;fill:#000000;fill-opacity:1;stroke:none;font-family:Karla;-inkscape-font-specification:Karla"
       d="m -104.57994,282.46273 c -0.3994,-2.16135 -1.98518,-3.24204 -4.75736,-3.24206 -1.48008,2e-5 -2.6195,0.32893 -3.41826,0.98672 -0.79877,0.63433 -1.19816,1.4096 -1.19815,2.32582 -1e-5,0.89276 0.24667,1.57406 0.74004,2.0439 0.49334,0.46988 1.29211,0.88101 2.3963,1.2334 l 4.6164,1.58578 c 1.57403,0.54036 2.81917,1.28039 3.73542,2.22011 0.9397,0.93973 1.40957,2.26709 1.40959,3.98209 -2e-5,1.69151 -0.72831,3.12459 -2.18487,4.29925 -1.45659,1.15116 -3.40652,1.72674 -5.8498,1.72674 -2.44329,0 -4.45196,-0.61082 -6.02599,-1.83246 -1.55055,-1.24514 -2.34932,-2.98363 -2.3963,-5.21548 l 2.71346,0 c -1e-5,1.45658 0.50509,2.5725 1.51531,3.34777 1.03369,0.77528 2.3493,1.16291 3.94685,1.16291 1.62101,0 2.90139,-0.35239 3.84113,-1.05719 0.93971,-0.72828 1.40957,-1.57404 1.40959,-2.53726 -2e-5,-0.98671 -0.29368,-1.76198 -0.881,-2.32582 -0.56385,-0.56383 -1.4096,-1.03369 -2.53726,-1.40959 l -3.91161,-1.44483 c -1.83247,-0.61081 -3.21857,-1.3391 -4.15829,-2.18487 -0.93973,-0.84574 -1.40959,-2.07913 -1.40959,-3.70017 0,-1.6445 0.65781,-3.00711 1.97343,-4.08781 1.31561,-1.10416 3.15982,-1.65625 5.53264,-1.65627 2.37279,2e-5 4.18177,0.52862 5.42692,1.58579 1.26861,1.03372 1.9969,2.43156 2.18486,4.19353 l -2.71346,0" />
    <path
       inkscape:connector-curvature="0"
       id="path3355"
       style="font-size:35.23974228px;font-style:normal;font-variant:normal;font-weight:normal;font-stretch:normal;text-align:start;line-height:125%;letter-spacing:0px;word-spacing:0px;writing-mode:lr-tb;text-anchor:start;fill:#000000;fill-opacity:1;stroke:none;font-family:Karla;-inkscape-font-specification:Karla"
       d="m -98.396464,279.07105 17.232234,0 0,2.3963 -7.224147,0 0,19.7695 -2.78394,0 0,-19.7695 -7.224147,0 0,-2.3963" />
  </g>
</svg>
