<?xml version="1.0" encoding="UTF-8" standalone="no"?>
<!-- Created with Inkscape (http://www.inkscape.org/) -->

<svg
   xmlns:dc="http://purl.org/dc/elements/1.1/"
   xmlns:cc="http://creativecommons.org/ns#"
   xmlns:rdf="http://www.w3.org/1999/02/22-rdf-syntax-ns#"
   xmlns:svg="http://www.w3.org/2000/svg"
   xmlns="http://www.w3.org/2000/svg"
   xmlns:xlink="http://www.w3.org/1999/xlink"
   xmlns:sodipodi="http://sodipodi.sourceforge.net/DTD/sodipodi-0.dtd"
   xmlns:inkscape="http://www.inkscape.org/namespaces/inkscape"
   width="1052.3622"
   height="744.09448"
   id="svg2"
   version="1.1"
   inkscape:version="0.48.3.1 r9886"
   sodipodi:docname="perspectives.svg"
   enable-background="new">
  <defs
     id="defs4">
    <inkscape:path-effect
       is_visible="true"
       id="path-effect4381"
       effect="spiro" />
    <inkscape:path-effect
       is_visible="true"
       id="path-effect4359"
       effect="spiro" />
    <inkscape:path-effect
       is_visible="true"
       id="path-effect4357"
       effect="spiro" />
    <inkscape:path-effect
       effect="spiro"
       id="path-effect4000"
       is_visible="true" />
    <inkscape:path-effect
       effect="spiro"
       id="path-effect4906"
       is_visible="true" />
    <linearGradient
       inkscape:collect="always"
       id="linearGradient4877">
      <stop
         style="stop-color:#0000ff;stop-opacity:1;"
         offset="0"
         id="stop4879" />
      <stop
         style="stop-color:#0000ff;stop-opacity:0;"
         offset="1"
         id="stop4881" />
    </linearGradient>
    <linearGradient
       inkscape:collect="always"
       id="linearGradient4834">
      <stop
         style="stop-color:#ff8080;stop-opacity:1;"
         offset="0"
         id="stop4836" />
      <stop
         style="stop-color:#ff8080;stop-opacity:0;"
         offset="1"
         id="stop4838" />
    </linearGradient>
    <linearGradient
       inkscape:collect="always"
       id="linearGradient3777">
      <stop
         style="stop-color:#2aff80;stop-opacity:1;"
         offset="0"
         id="stop3779" />
      <stop
         style="stop-color:#2aff80;stop-opacity:0;"
         offset="1"
         id="stop3781" />
    </linearGradient>
    <linearGradient
       inkscape:collect="always"
       xlink:href="#linearGradient3777"
       id="linearGradient3783"
       x1="-532.93762"
       y1="165.37805"
       x2="-565.09607"
       y2="447.90305"
       gradientUnits="userSpaceOnUse"
       gradientTransform="matrix(0.42652051,0,0,0.93765464,-1678.3479,684.27105)" />
    <linearGradient
       inkscape:collect="always"
       xlink:href="#linearGradient4834"
       id="linearGradient4845"
       gradientUnits="userSpaceOnUse"
       gradientTransform="matrix(1.8703921,0,0,1.4053748,544.85482,-1310.7294)"
       x1="-2135.2866"
       y1="650.19305"
       x2="-1968.4884"
       y2="650.19305" />
    <linearGradient
       inkscape:collect="always"
       xlink:href="#linearGradient4877"
       id="linearGradient4883"
       x1="1650.1232"
       y1="473.62081"
       x2="1888.8964"
       y2="473.62081"
       gradientUnits="userSpaceOnUse"
       gradientTransform="translate(-3656.2369,-164.10407)" />
    <inkscape:path-effect
       is_visible="true"
       id="path-effect4381-0"
       effect="spiro" />
  </defs>
  <sodipodi:namedview
     id="base"
     pagecolor="#ffffff"
     bordercolor="#666666"
     borderopacity="1.0"
     inkscape:pageopacity="0.0"
     inkscape:pageshadow="2"
     inkscape:zoom="0.0291384"
     inkscape:cx="-4617.1058"
     inkscape:cy="1897.7645"
     inkscape:document-units="px"
     inkscape:current-layer="layer1"
     showgrid="false"
     inkscape:showpageshadow="false"
     borderlayer="true"
     inkscape:window-width="1280"
     inkscape:window-height="744"
     inkscape:window-x="0"
     inkscape:window-y="27"
     inkscape:window-maximized="1"
     showguides="true"
     inkscape:guide-bbox="true" />
  <metadata
     id="metadata7">
    <rdf:RDF>
      <cc:Work
         rdf:about="">
        <dc:format>image/svg+xml</dc:format>
        <dc:type
           rdf:resource="http://purl.org/dc/dcmitype/StillImage" />
        <dc:title />
      </cc:Work>
    </rdf:RDF>
  </metadata>
  <g
     inkscape:groupmode="layer"
     id="layer2"
     inkscape:label="d"
     style="display:none"
     sodipodi:insensitive="true">
    <path
       style="fill:none;stroke:#000000;stroke-width:6.25;stroke-linecap:square;stroke-linejoin:round;stroke-miterlimit:4;stroke-opacity:1;stroke-dasharray:none"
       d="m -3241.7297,1028.289 c 0,0 17.4606,-16.9329 19.9223,-65.38575 3.1097,-61.20339 11.782,-60.90458 17.7801,-69.86701 6.5058,-9.72117 13.7099,4.88867 13.7099,4.88867 0,0 5.9168,-14.08748 11.9962,-13.0365 9.4256,1.6295 6.8551,16.29551 6.8551,16.29551 0,0 3.3174,-16.95413 11.9961,-17.92502 14.5667,-1.6295 10.2825,26.07285 10.2825,26.07285 0,0 -0.257,-15.94226 10.2823,-8.14783 10.5393,7.79458 1.7139,24.44334 1.7139,24.44334 0,0 5.7273,-13.25709 15.4236,-4.07392 15.3419,14.53006 -6.7546,61.83714 -5.1413,79.84806 1.6133,18.0109 5.9981,38.2944 5.9981,38.2944"
       id="path3206"
       inkscape:connector-curvature="0"
       sodipodi:nodetypes="csscscsczcszc" />
    <path
       style="fill:none;stroke:#000000;stroke-width:6.25;stroke-linecap:square;stroke-linejoin:round;stroke-miterlimit:4;stroke-opacity:1;stroke-dasharray:none"
       d="m -3123.9884,977.32681 c 0,0 6.9243,-25.0785 17.6444,-17.47903 10.7529,7.62274 11.1393,107.55052 11.1393,107.55052"
       id="path3208"
       inkscape:connector-curvature="0"
       sodipodi:nodetypes="csc" />
    <path
       style="fill:none;stroke:#000000;stroke-width:6.25;stroke-linecap:square;stroke-linejoin:round;stroke-miterlimit:4;stroke-opacity:1;stroke-dasharray:none"
       d="m -3174.8937,885.70316 c 0,0 23.5656,-45.21294 17.9943,-70.88545 -5.5712,-25.67267 12.044,-26.07285 19.7081,-26.07285 13.8166,0 24.8492,4.88867 32.5611,17.92502 4.2009,7.10138 1.7137,29.332 1.7137,29.332 l 0,0"
       id="path3210"
       inkscape:connector-curvature="0"
       sodipodi:nodetypes="czsscc" />
    <path
       style="fill:none;stroke:#000000;stroke-width:6.25;stroke-linecap:square;stroke-linejoin:round;stroke-miterlimit:4;stroke-opacity:1;stroke-dasharray:none"
       d="m -3101.2028,816.44721 c 0,0 5.1413,-11.40684 10.2825,-4.88867 5.1413,6.51833 6.855,45.62752 6.855,45.62752 0,0 4.2843,-18.73992 11.1393,-12.22159 6.8549,6.51817 7.7119,64.36728 7.7119,64.36728 0,0 3.6349,-19.66231 11.1394,-19.55467 7.5046,0.10794 6.2302,22.02317 21.4216,55.40485 15.1914,33.38152 29.1369,56.77777 73.6911,83.10707"
       id="path3212"
       inkscape:connector-curvature="0"
       sodipodi:nodetypes="cscsczzc" />
    <path
       style="fill:none;stroke:#000000;stroke-width:6.25;stroke-linecap:square;stroke-linejoin:round;stroke-miterlimit:4;stroke-opacity:1;stroke-dasharray:none"
       d="m -3126.0521,788.74486 c 0,0 -5.1888,-72.05736 6.8551,-73.32986 7.7117,-0.81475 8.5688,9.77734 8.5688,9.77734 0,0 -5.9983,-57.03436 2.5705,-57.03436 8.5688,0 10.2825,11.40684 10.2825,11.40684 0,0 -2.5097,-90.16094 41.9866,-102.66173 37.7024,-10.59209 54.84,8.96254 63.4086,26.88759 8.5688,17.92508 13.7099,42.36837 13.7099,42.36837"
       id="path3214"
       inkscape:connector-curvature="0"
       sodipodi:nodetypes="cscscssc" />
    <path
       style="fill:none;stroke:#000000;stroke-width:6.25;stroke-linecap:square;stroke-linejoin:round;stroke-miterlimit:4;stroke-opacity:1;stroke-dasharray:none"
       d="m -3040.3647,922.36809 c 0,0 -1.8575,-53.34184 7.7116,-53.77519 17.9944,-0.81475 17.5344,32.44521 7.712,29.33201 -9.8225,-3.11336 -3.0233,-52.70324 8.5686,-54.5901 15.6688,-2.55047 12.8532,51.33093 12.8532,51.33093 0,0 -3.4276,-175.17682 5.9981,-173.54732 9.4254,1.62966 6.8549,39.10934 6.8549,39.10934 0,0 -1.3167,-111.52339 10.2825,-114.06871 11.1393,-2.44425 10.2825,17.11026 10.2825,17.11026 0,0 -3.51,-37.79194 13.7098,-37.47968 15.8813,0.28801 13.7101,116.51297 13.7101,116.51297 0,0 -0.1854,-20.33861 5.9981,-19.55468 12.853,1.62966 11.996,87.99587 11.996,87.99587 0,0 2e-4,-19.55467 11.9962,-18.73976 11.9961,0.81475 10.2824,92.06963 23.9923,96.14354 13.7101,4.07392 12.8532,-21.18417 23.9925,-21.18417 11.1394,0 -6.8551,83.92195 31.7042,136.8824 38.5592,52.9604 113.964,92.8844 113.964,92.8844"
       id="path3987"
       inkscape:connector-curvature="0"
       sodipodi:nodetypes="cszscscscscscssssc" />
    <image
       y="-5304.5176"
       x="446.35031"
       id="image4877"
       xlink:href="file:///home/ludi/wrk/osp.work.bessst/de_houtsnedes_uit_de_hypnerotomachia/cu31924030677326_0042.png"
       height="3126"
       width="2163" />
    <path
       sodipodi:type="arc"
       style="fill:none;stroke:#0000ff;stroke-width:6;stroke-linecap:square;stroke-linejoin:miter;stroke-miterlimit:3.875;stroke-opacity:1;stroke-dasharray:none"
       id="path4925"
       sodipodi:cx="1586.7689"
       sodipodi:cy="-3883.7651"
       sodipodi:rx="78.775764"
       sodipodi:ry="22.50736"
       d="m 1665.5447,-3883.7651 a 78.775764,22.50736 0 1 1 -157.5515,0 78.775764,22.50736 0 1 1 157.5515,0 z" />
    <path
       d="m 1665.5447,-3883.7651 a 78.775764,22.50736 0 1 1 -157.5515,0 78.775764,22.50736 0 1 1 157.5515,0 z"
       sodipodi:ry="22.50736"
       sodipodi:rx="78.775764"
       sodipodi:cy="-3883.7651"
       sodipodi:cx="1586.7689"
       id="path4927"
       style="fill:#ffffff;stroke:#0000ff;stroke-width:6;stroke-linecap:square;stroke-linejoin:miter;stroke-miterlimit:3.875;stroke-opacity:1;stroke-dasharray:none"
       sodipodi:type="arc"
       transform="translate(0,13.850684)" />
  </g>
  <g
     inkscape:label="Layer 1"
     inkscape:groupmode="layer"
     id="layer1"
     transform="translate(0,-308.2677)"
     style="display:inline;">
    <path
       style="fill:#1a1a1a;fill-opacity:1;stroke:#1a1a1a;stroke-width:6.25;stroke-miterlimit:4"
       d="m -1493.145,74.01984 30.7071,-10.58327 0,13.12135 -30.7071,4 z"
       id="rect4100"
       inkscape:connector-curvature="0"
       sodipodi:nodetypes="ccccc" />
    <path
       style="fill:url(#linearGradient3783);fill-opacity:1;stroke:none"
       d="m -1980.6755,837.97827 114.706,-48.91847 161.5624,1.30993 -43.8286,3.06601 -7.3001,30.6639 -52.206,-0.27609 -4.861,39.19625 -58.0988,4.46744 -5.026,306.80406 -473.0099,-178.8659 z"
       id="rect3008"
       inkscape:connector-curvature="0"
       sodipodi:nodetypes="ccccccccccc" />
    <path
       style="fill:#e5ffd5;stroke:none"
       d="m -619.98384,617.86496 34.0183,-28.97859 44.7279,-18.89909 57.3272,-11.33944 55.4373,-6.92967 45.9878,4.40979 0,35.90825 c 0,0 -62.367,-3.14984 -62.367,10e-6 0,3.14984 -1.26,38.42813 -1.26,38.42813 l -62.9969,1.88991 -1.8899,47.24771 -28.9786,-10.70949 -35.2783,-12.59938 -31.4984,-21.41896 z"
       id="path4008"
       inkscape:connector-curvature="0"
       sodipodi:nodetypes="cccccccsccccccc" />
    <rect
       y="188.59494"
       x="-2006.1138"
       height="241.84355"
       width="238.77325"
       id="rect4873"
       style="fill:url(#linearGradient4883);fill-opacity:1;stroke:none" />
    <path
       style="fill:url(#linearGradient4845);fill-opacity:1;stroke:none"
       d="m -3448.9684,-583.37829 29.8973,-32.2622 36.991,-6.12888 245.0898,47.3528 0,363.86592 -311.9781,0 z"
       id="rect4830"
       inkscape:connector-curvature="0"
       sodipodi:nodetypes="ccccccc" />
    <g
       id="g4847"
       transform="translate(-1311.5079,-994.61402)">
      <path
         sodipodi:nodetypes="ccsccc"
         inkscape:connector-curvature="0"
         id="path3181"
         d="m -2135.65,784.60059 0,-356.48233 c 0,0 0.087,-57.6802 62.7164,-57.6802 52.2111,0 50.7165,68.07616 50.7165,68.07616 l 0,315.7818 z"
         style="fill:none;stroke:#000000;stroke-width:6.25;stroke-linecap:butt;stroke-linejoin:miter;stroke-miterlimit:4;stroke-opacity:1;stroke-dasharray:none" />
      <path
         sodipodi:nodetypes="csscc"
         inkscape:connector-curvature="0"
         id="path3183"
         d="m -2131.0938,406.3998 c 0,0 8.6429,-28.38228 39.3854,-22.85004 27.7848,5 29.2944,46.4988 29.2944,68.50759 0,23.23351 0,281.02546 0,281.02546 l -71.7208,15.27485"
         style="fill:none;stroke:#000000;stroke-width:6.25;stroke-linecap:butt;stroke-linejoin:miter;stroke-miterlimit:4;stroke-opacity:1;stroke-dasharray:none" />
      <path
         sodipodi:nodetypes="cc"
         inkscape:connector-curvature="0"
         id="path3185"
         d="m -2022.0079,752.27571 -41.4162,-20.20305"
         style="fill:none;stroke:#000000;stroke-width:6.25;stroke-linecap:butt;stroke-linejoin:miter;stroke-miterlimit:4;stroke-opacity:1;stroke-dasharray:none" />
    </g>
    <g
       id="g4863"
       transform="translate(-105.06047,-42.680816)">
      <path
         sodipodi:nodetypes="cccccc"
         inkscape:connector-curvature="0"
         id="path3187"
         d="m -1589.612,367.17178 0,268.30991 40.1222,0 60.904,0 -1.3121,-252.72382 z"
         style="fill:none;stroke:#000000;stroke-width:6.25;stroke-linecap:butt;stroke-linejoin:miter;stroke-miterlimit:4;stroke-opacity:1;stroke-dasharray:none" />
      <path
         sodipodi:nodetypes="ccc"
         inkscape:connector-curvature="0"
         id="path3189"
         d="m -1546.3152,637.4497 0,-236.21763 -41.9847,-7.87228"
         style="fill:none;stroke:#000000;stroke-width:6.25;stroke-linecap:butt;stroke-linejoin:miter;stroke-miterlimit:4;stroke-opacity:1;stroke-dasharray:none" />
      <path
         sodipodi:nodetypes="cc"
         inkscape:connector-curvature="0"
         id="path3191"
         d="m -1491.8339,384.73587 -57.1052,19.12012"
         style="fill:none;stroke:#000000;stroke-width:6.25;stroke-linecap:butt;stroke-linejoin:miter;stroke-miterlimit:4;stroke-opacity:1;stroke-dasharray:none" />
    </g>
    <path
       style="fill:none;stroke:#000000;stroke-width:6.25;stroke-linecap:butt;stroke-linejoin:miter;stroke-miterlimit:4;stroke-opacity:1;stroke-dasharray:none"
       d="m -1413.2144,527.486 87.9059,0 0,309.69125 -50.556,0 -37.3499,-15.84976 z"
       id="path3193"
       inkscape:connector-curvature="0"
       sodipodi:nodetypes="cccccc" />
    <path
       style="fill:none;stroke:#000000;stroke-width:6.25;stroke-linecap:butt;stroke-linejoin:miter;stroke-miterlimit:4;stroke-opacity:1;stroke-dasharray:none"
       d="m -1414.5262,529.35828 40.6727,42.73668 0,267.65374"
       id="path3195"
       inkscape:connector-curvature="0"
       sodipodi:nodetypes="ccc" />
    <path
       style="fill:none;stroke:#000000;stroke-width:6.25;stroke-linecap:butt;stroke-linejoin:miter;stroke-miterlimit:4;stroke-opacity:1;stroke-dasharray:none"
       d="m -1324.3202,572.29796 -50.8454,0"
       id="path3197"
       inkscape:connector-curvature="0"
       sodipodi:nodetypes="cc" />
    <path
       sodipodi:type="arc"
       style="fill:none;stroke:#000000;stroke-width:6.25;stroke-miterlimit:4;stroke-dasharray:none"
       id="path3986"
       sodipodi:cx="-415.77982"
       sodipodi:cy="-108.88409"
       sodipodi:rx="206.62996"
       sodipodi:ry="89.455658"
       d="m -209.14986,-108.88409 a 206.62996,89.455658 0 1 1 -413.25991,0 206.62996,89.455658 0 1 1 413.25991,0 z"
       transform="translate(-1368.975,941.69303)" />
    <path
       style="fill:none;stroke:#000000;stroke-width:6.25;stroke-miterlimit:4"
       d="m -1985.7341,854.78195 c 9.0085,-16.32344 28.3521,-30.90954 54.8699,-42.38979 37.3926,-16.18828 89.0501,-26.20095 146.1094,-26.20095 96.9445,0 178.2959,28.90303 200.586,67.89051"
       id="path3988"
       inkscape:connector-curvature="0"
       sodipodi:nodetypes="cssc" />
    <path
       style="fill:none;stroke:#000000;stroke-width:6.25;stroke-linecap:butt;stroke-linejoin:miter;stroke-miterlimit:4;stroke-opacity:1;stroke-dasharray:none"
       d="m -1751.3664,790.601 0,34.11315 -60.052,0 0,40.47553 -64.052,0 0,49.29511"
       id="path3991"
       inkscape:connector-curvature="0"
       sodipodi:nodetypes="cccccc" />
    <path
       style="fill:#ccffaa;stroke:#000000;stroke-width:6.25;stroke-linecap:butt;stroke-linejoin:miter;stroke-miterlimit:4;stroke-opacity:1;stroke-dasharray:none"
       d="m -1874.5795,868.17076 122.5629,53.83999"
       id="path3993"
       inkscape:connector-curvature="0"
       sodipodi:nodetypes="cc" />
    <path
       inkscape:connector-curvature="0"
       id="path3995"
       d="m -1751.3664,823.99647 147.9704,50.24269"
       style="fill:none;stroke:#000000;stroke-width:6.25;stroke-linecap:butt;stroke-linejoin:miter;stroke-miterlimit:4;stroke-opacity:1;stroke-dasharray:none"
       sodipodi:nodetypes="cc" />
    <path
       style="fill:none;stroke:#000000;stroke-width:6.25;stroke-linecap:butt;stroke-linejoin:miter;stroke-miterlimit:4;stroke-opacity:1;stroke-dasharray:none"
       d="m -1812.1044,825.88638 175.6126,67.69732"
       id="path3997"
       inkscape:connector-curvature="0"
       sodipodi:nodetypes="cc" />
    <path
       inkscape:connector-curvature="0"
       id="path3999"
       d="m -1811.9515,865.12899 118.1325,47.35579"
       style="fill:none;stroke:#000000;stroke-width:6.25;stroke-linecap:butt;stroke-linejoin:miter;stroke-miterlimit:4;stroke-opacity:1;stroke-dasharray:none"
       sodipodi:nodetypes="cc" />
    <path
       style="fill:none;stroke:#000000;stroke-width:6.25;stroke-miterlimit:4"
       d="m -1578.1248,832.80894 c 0,49.405 -92.5114,89.45566 -206.63,89.45566 -114.1186,0 -206.6299,-40.05066 -206.6299,-89.45566"
       id="path4003"
       inkscape:connector-curvature="0"
       sodipodi:nodetypes="csc" />
    <text
       xml:space="preserve"
       style="font-size:104.45230865px;font-style:normal;font-variant:normal;font-weight:normal;font-stretch:normal;text-align:start;line-height:125%;letter-spacing:6.81551218px;word-spacing:0px;writing-mode:lr-tb;text-anchor:start;fill:#000000;fill-opacity:1;stroke:none;font-family:Quattrocento Roman;-inkscape-font-specification:'Quattrocento Roman,'"
       x="-1453.325"
       y="1379.0603"
       id="text4010"
       sodipodi:linespacing="125%"><tspan
         sodipodi:role="line"
         id="tspan4012"
         x="-1453.325"
         y="1379.0603">BESSST</tspan></text>
    <text
       sodipodi:linespacing="125%"
       id="text3002"
       y="875.96173"
       x="-359.92807"
       style="font-size:40px;font-style:normal;font-variant:normal;font-weight:normal;font-stretch:normal;text-align:start;line-height:125%;letter-spacing:0px;word-spacing:0px;writing-mode:lr-tb;text-anchor:start;fill:#000000;fill-opacity:1;stroke:none;font-family:Quattrocento Roman;-inkscape-font-specification:'Quattrocento Roman,'"
       xml:space="preserve"><tspan
         y="875.96173"
         x="-359.92807"
         id="tspan3004"
         sodipodi:role="line">BESSST</tspan></text>
    <path
       style="fill:#000000;stroke:#000000;stroke-width:6.25;stroke-linecap:butt;stroke-linejoin:miter;stroke-miterlimit:4;stroke-opacity:1;stroke-dasharray:none"
       d="M -1225.4423,251.33032 -774.49906,123.61486"
       id="path4090"
       inkscape:connector-curvature="0"
       sodipodi:nodetypes="cc" />
    <path
       inkscape:connector-curvature="0"
       id="path4092"
       d="M -1225.4423,295.71771 -770.54913,136.63556"
       style="fill:#000000;stroke:#000000;stroke-width:6.25;stroke-linecap:butt;stroke-linejoin:miter;stroke-miterlimit:4;stroke-opacity:1;stroke-dasharray:none"
       sodipodi:nodetypes="cc" />
    <path
       inkscape:connector-curvature="0"
       id="path4096"
       d="M -1225.4423,338.88 -769.28252,152.04803"
       style="fill:#000000;stroke:#000000;stroke-width:6.25;stroke-linecap:butt;stroke-linejoin:miter;stroke-miterlimit:4;stroke-opacity:1;stroke-dasharray:none"
       sodipodi:nodetypes="cc" />
    <path
       style="fill:#000000;stroke:#000000;stroke-width:6.25;stroke-linecap:butt;stroke-linejoin:miter;stroke-miterlimit:4;stroke-opacity:1;stroke-dasharray:none"
       d="M -1225.4423,403.26739 -763.96586,166.43542"
       id="path4098"
       inkscape:connector-curvature="0"
       sodipodi:nodetypes="cc" />
    <g
       style="font-size:51.73566437px;font-style:italic;font-variant:normal;font-weight:normal;font-stretch:normal;text-align:start;line-height:125%;letter-spacing:3.37575173px;word-spacing:0px;writing-mode:lr-tb;text-anchor:start;fill:#000000;fill-opacity:1;stroke:none;font-family:Certege;-inkscape-font-specification:Certege Italic"
       id="text4114"
       transform="matrix(1,0,0.62191004,1,-27.055542,324.29171)">
      <path
         d="m -767.37064,686.72296 c 0.23576,3e-5 0.53048,0.008 0.88415,0.0253 0.35365,3e-5 0.77468,3e-5 1.26308,0 1.38095,3e-5 2.4672,-0.34521 3.25874,-1.03572 0.79151,-0.7073 1.43147,-1.70934 1.91988,-3.00612 0.23575,-0.6231 0.35364,-1.20411 0.35366,-1.74305 -2e-5,-1.46514 -0.95996,-2.19773 -2.87981,-2.19776 -1.19573,3e-5 -1.79359,-0.008 -1.79358,-0.0253 l -0.0505,0 -2.9556,7.98265 m -5.2544,14.39909 c -0.84206,2.34091 -1.26309,3.78924 -1.26308,4.34499 -10e-6,0.3705 0.10946,0.6147 0.3284,0.73258 0.23577,0.11789 0.61469,0.17684 1.13677,0.17683 0.15156,10e-6 0.4126,10e-6 0.78311,0 0.38733,-0.0168 0.69889,-0.0253 0.93467,-0.0253 0.53891,0 1.00204,-0.0421 1.38939,-0.12631 0.40417,-0.0842 0.87572,-0.27787 1.41465,-0.58101 0.5389,-0.31998 1.03571,-0.75784 1.49043,-1.3136 0.47153,-0.57259 0.98518,-1.37254 1.54095,-2.39985 0.55574,-1.0273 1.10308,-2.26511 1.642,-3.71345 0.67363,-1.86934 1.01045,-3.41872 1.01047,-4.64813 -2e-5,-0.60626 -0.0842,-1.12833 -0.25262,-1.56621 -0.16843,-0.45469 -0.38736,-0.80835 -0.6568,-1.06099 -0.25263,-0.25259 -0.56419,-0.44627 -0.93468,-0.58101 -0.37052,-0.15155 -0.72418,-0.24418 -1.06098,-0.27788 -0.32,-0.0505 -0.67366,-0.0758 -1.06099,-0.0758 -0.97679,2e-5 -1.77674,2e-5 -2.39985,0 l -4.04184,11.11509 m -3.63767,8.51314 c -0.74101,0 -1.33044,-0.13473 -1.76831,-0.40418 -0.43787,-0.2863 -0.6568,-0.70732 -0.6568,-1.26308 0,-0.30314 0.0674,-0.6568 0.2021,-1.06099 l 11.03929,-29.93494 c 0.37049,-0.99359 1.33043,-1.4904 2.87982,-1.49043 l 3.10717,0 c 1.68409,3e-5 2.99769,0.52211 3.94081,1.56622 0.95991,1.04417 1.43988,2.29883 1.4399,3.76397 -2e-5,0.62315 -0.10107,1.25468 -0.30313,1.89462 -1.24626,3.65452 -2.9051,5.65018 -4.97653,5.98698 0.30312,0.13475 0.6231,0.32842 0.95994,0.58102 0.3368,0.23579 0.63994,0.48841 0.90941,0.75785 0.28628,0.26947 0.51364,0.66524 0.68207,1.18729 0.18523,0.50525 0.27785,1.1031 0.27787,1.79357 -2e-5,1.53255 -0.46315,3.58715 -1.38938,6.16382 -0.43789,1.21256 -0.85891,2.29039 -1.26308,3.23348 -0.4042,0.92626 -0.81681,1.75147 -1.23782,2.47563 -0.42104,0.72417 -0.82522,1.34729 -1.21255,1.86936 -0.37052,0.50523 -0.79154,0.93468 -1.26308,1.28833 -0.47156,0.35367 -0.91785,0.63154 -1.33886,0.83364 -0.42104,0.20209 -0.92627,0.36208 -1.51569,0.47997 -0.58945,0.11788 -1.14521,0.19367 -1.66727,0.22735 -0.52208,0.0337 -1.16204,0.0505 -1.91987,0.0505 l -4.92601,0"
         id="path4123"
         inkscape:connector-curvature="0" />
      <path
         d="m -750.22734,706.35119 c -10e-6,-0.0337 3.60397,-0.0505 10.81194,-0.0505 0.50522,0 0.89256,0.15157 1.16204,0.45471 0.26944,0.2863 0.40416,0.64838 0.40418,1.08624 -2e-5,0.47155 -0.16001,0.89258 -0.47997,1.26308 -0.30315,0.35366 -0.71576,0.53049 -1.23781,0.53049 l -0.0253,0 -13.59071,0 c -0.95994,0 -1.43991,-0.33682 -1.43991,-1.01046 0,-0.23577 0.0589,-0.48839 0.17683,-0.75785 l 11.56979,-31.37485 c 0.2526,-0.6736 0.8252,-1.01043 1.71779,-1.01046 l 11.59505,0 c 1.14516,3e-5 1.71776,0.48842 1.71779,1.46517 -3e-5,0.42106 -0.10108,0.89261 -0.30314,1.41465 -0.18528,0.45474 -0.57262,0.68209 -1.16203,0.68206 -0.25264,3e-5 -0.58947,-0.0421 -1.01047,-0.12631 -0.42105,-0.10101 -0.67366,-0.15996 -0.75784,-0.17683 l -8.96785,0.0253 -4.11764,11.21613 7.0985,0 0.0253,0 c 0.50521,2e-5 0.89256,0.15159 1.16203,0.45471 0.26944,0.28632 0.40417,0.63998 0.40419,1.06099 -2e-5,0.45472 -0.16001,0.86733 -0.47997,1.23781 -0.30316,0.37052 -0.71577,0.55577 -1.23782,0.55576 l -0.0505,0 -8.18475,0 -4.79969,13.06022"
         id="path4125"
         inkscape:connector-curvature="0" />
      <path
         d="m -728.94115,704.10291 c 0.50523,-1.38096 1.14519,-2.07144 1.91988,-2.07145 0.52207,10e-6 0.9852,0.0842 1.38939,0.25262 0.40418,0.16842 0.60627,0.45472 0.60627,0.85889 0,0.15158 -0.0253,0.30315 -0.0758,0.45471 -0.0842,0.18526 -0.12631,0.38735 -0.12631,0.60628 0,0.47155 0.21893,0.87574 0.6568,1.21255 0.4547,0.33683 0.95993,0.58102 1.5157,0.73259 0.57258,0.13473 1.14518,0.20209 1.71778,0.20209 0.60627,0 1.1536,-0.0758 1.642,-0.22735 0.48838,-0.15157 0.90099,-0.35366 1.23782,-0.60628 0.33681,-0.26945 0.64837,-0.58101 0.93468,-0.93468 0.28628,-0.3705 0.52205,-0.77468 0.70732,-1.21255 0.20208,-0.43786 0.40417,-0.90099 0.60628,-1.38939 0.20207,-0.48838 0.38733,-0.98519 0.55575,-1.49043 0.2526,-0.69047 0.37891,-1.40622 0.37892,-2.14723 -10e-6,-0.90941 -0.19368,-1.88619 -0.58101,-2.93034 -0.38736,-1.06097 -0.86733,-2.07143 -1.43991,-3.03139 -0.55577,-0.95992 -1.11994,-1.91144 -1.69252,-2.85455 -0.55577,-0.95992 -1.02732,-1.96196 -1.41465,-3.00613 -0.38736,-1.06096 -0.58103,-2.04616 -0.58102,-2.9556 -10e-6,-0.74098 0.1263,-1.4483 0.37893,-2.12197 0.38733,-1.0778 0.79993,-1.98721 1.23781,-2.72825 0.43786,-0.74097 0.85888,-1.32199 1.26308,-1.74305 0.40417,-0.43783 0.8673,-0.76623 1.38939,-0.9852 0.53889,-0.23574 1.0357,-0.37889 1.49043,-0.42944 0.47153,-0.0673 1.05255,-0.10102 1.74305,-0.10105 0.20207,3e-5 0.53889,0.008 1.01046,0.0253 0.47153,3e-5 0.83361,3e-5 1.08624,0 0.72415,3e-5 1.38095,0.12634 1.97041,0.37892 0.58941,0.23581 1.05254,0.54737 1.38938,0.93468 0.35364,0.37054 0.64836,0.77472 0.88416,1.21256 0.25259,0.43789 0.42942,0.84208 0.53049,1.21255 0.10102,0.37053 0.16838,0.68209 0.20209,0.93468 l 0.0758,0.37892 c 0.0168,3e-5 0.0252,0.1516 0.0253,0.45471 -3e-5,0.60631 -0.10107,1.04417 -0.30314,1.3136 -0.28632,0.40421 -0.76629,0.6063 -1.43991,0.60628 -0.75787,-0.10102 -1.31362,-0.63993 -1.66726,-1.61674 -0.20212,-0.5052 -0.36211,-0.94307 -0.47997,-1.3136 -0.11791,-0.38732 -0.36211,-0.68203 -0.73259,-0.88416 -0.37052,-0.2189 -0.91785,-0.32837 -1.642,-0.3284 l -0.35366,0 c -0.50525,3e-5 -0.89259,0.0169 -1.16203,0.0505 -0.25263,0.0169 -0.54735,0.0758 -0.88416,0.17683 -0.31999,0.0842 -0.58103,0.2358 -0.7831,0.4547 -0.20211,0.21897 -0.42105,0.51369 -0.65681,0.88416 -0.21894,0.37053 -0.42946,0.84208 -0.63153,1.41465 -0.16843,0.45473 -0.25263,0.90102 -0.25262,1.33886 -1e-5,0.74103 0.19366,1.58308 0.58102,2.52615 0.38732,0.94313 0.85045,1.89464 1.38938,2.85456 0.55574,0.94312 1.10307,1.9199 1.642,2.93034 0.55574,0.99364 1.01887,2.0883 1.38939,3.284 0.38732,1.17889 0.58099,2.31566 0.58101,3.41031 -2e-5,1.02732 -0.16843,2.03778 -0.50523,3.03139 -0.79154,2.2567 -1.4315,3.78924 -1.91988,4.5976 -1.061,1.80199 -2.64405,2.96403 -4.74917,3.4861 -1.11152,0.28629 -2.4167,0.42944 -3.91554,0.42944 -1.66727,0 -3.13244,-0.50523 -4.39551,-1.51569 -1.24624,-1.0273 -1.86936,-2.11355 -1.86935,-3.25874 -10e-6,-0.25261 0.0421,-0.50523 0.1263,-0.75785"
         id="path4127"
         inkscape:connector-curvature="0" />
      <path
         d="m -704.34569,704.10291 c 0.50523,-1.38096 1.14519,-2.07144 1.91988,-2.07145 0.52206,10e-6 0.98519,0.0842 1.38938,0.25262 0.40418,0.16842 0.60627,0.45472 0.60628,0.85889 -10e-6,0.15158 -0.0253,0.30315 -0.0758,0.45471 -0.0842,0.18526 -0.12632,0.38735 -0.12631,0.60628 -10e-6,0.47155 0.21892,0.87574 0.6568,1.21255 0.4547,0.33683 0.95993,0.58102 1.51569,0.73259 0.57259,0.13473 1.14518,0.20209 1.71779,0.20209 0.60626,0 1.1536,-0.0758 1.642,-0.22735 0.48838,-0.15157 0.90098,-0.35366 1.23781,-0.60628 0.33681,-0.26945 0.64837,-0.58101 0.93468,-0.93468 0.28629,-0.3705 0.52206,-0.77468 0.70733,-1.21255 0.20207,-0.43786 0.40417,-0.90099 0.60627,-1.38939 0.20208,-0.48838 0.38733,-0.98519 0.55576,-1.49043 0.2526,-0.69047 0.3789,-1.40622 0.37892,-2.14723 -2e-5,-0.90941 -0.19369,-1.88619 -0.58102,-2.93034 -0.38735,-1.06097 -0.86732,-2.07143 -1.4399,-3.03139 -0.55577,-0.95992 -1.11995,-1.91144 -1.69253,-2.85455 -0.55576,-0.95992 -1.02731,-1.96196 -1.41465,-3.00613 -0.38735,-1.06096 -0.58102,-2.04616 -0.58101,-2.9556 -10e-6,-0.74098 0.1263,-1.4483 0.37892,-2.12197 0.38733,-1.0778 0.79994,-1.98721 1.23782,-2.72825 0.43785,-0.74097 0.85888,-1.32199 1.26308,-1.74305 0.40417,-0.43783 0.8673,-0.76623 1.38938,-0.9852 0.5389,-0.23574 1.03571,-0.37889 1.49043,-0.42944 0.47154,-0.0673 1.05255,-0.10102 1.74305,-0.10105 0.20207,3e-5 0.5389,0.008 1.01046,0.0253 0.47153,3e-5 0.83361,3e-5 1.08625,0 0.72414,3e-5 1.38094,0.12634 1.9704,0.37892 0.58941,0.23581 1.05254,0.54737 1.38939,0.93468 0.35363,0.37054 0.64835,0.77472 0.88415,1.21256 0.25259,0.43789 0.42942,0.84208 0.53049,1.21255 0.10102,0.37053 0.16839,0.68209 0.2021,0.93468 l 0.0758,0.37892 c 0.0168,3e-5 0.0252,0.1516 0.0253,0.45471 -2e-5,0.60631 -0.10107,1.04417 -0.30314,1.3136 -0.28632,0.40421 -0.76629,0.6063 -1.43991,0.60628 -0.75786,-0.10102 -1.31362,-0.63993 -1.66726,-1.61674 -0.20211,-0.5052 -0.3621,-0.94307 -0.47997,-1.3136 -0.11791,-0.38732 -0.3621,-0.68203 -0.73258,-0.88416 -0.37053,-0.2189 -0.91786,-0.32837 -1.642,-0.3284 l -0.35367,0 c -0.50524,3e-5 -0.89259,0.0169 -1.16203,0.0505 -0.25263,0.0169 -0.54735,0.0758 -0.88415,0.17683 -0.32,0.0842 -0.58103,0.2358 -0.78311,0.4547 -0.20211,0.21897 -0.42104,0.51369 -0.6568,0.88416 -0.21895,0.37053 -0.42946,0.84208 -0.63154,1.41465 -0.16842,0.45473 -0.25263,0.90102 -0.25261,1.33886 -2e-5,0.74103 0.19365,1.58308 0.58101,2.52615 0.38733,0.94313 0.85046,1.89464 1.38939,2.85456 0.55573,0.94312 1.10307,1.9199 1.642,2.93034 0.55573,0.99364 1.01886,2.0883 1.38938,3.284 0.38733,1.17889 0.581,2.31566 0.58102,3.41031 -2e-5,1.02732 -0.16843,2.03778 -0.50523,3.03139 -0.79155,2.2567 -1.43151,3.78924 -1.91988,4.5976 -1.061,1.80199 -2.64406,2.96403 -4.74917,3.4861 -1.11152,0.28629 -2.4167,0.42944 -3.91554,0.42944 -1.66727,0 -3.13244,-0.50523 -4.39551,-1.51569 -1.24624,-1.0273 -1.86936,-2.11355 -1.86936,-3.25874 0,-0.25261 0.0421,-0.50523 0.12631,-0.75785"
         id="path4129"
         inkscape:connector-curvature="0" />
      <path
         d="m -679.75023,704.10291 c 0.50523,-1.38096 1.14518,-2.07144 1.91988,-2.07145 0.52206,10e-6 0.98519,0.0842 1.38938,0.25262 0.40418,0.16842 0.60627,0.45472 0.60628,0.85889 -10e-6,0.15158 -0.0253,0.30315 -0.0758,0.45471 -0.0842,0.18526 -0.12631,0.38735 -0.1263,0.60628 -10e-6,0.47155 0.21892,0.87574 0.6568,1.21255 0.4547,0.33683 0.95993,0.58102 1.51569,0.73259 0.57259,0.13473 1.14518,0.20209 1.71779,0.20209 0.60626,0 1.1536,-0.0758 1.642,-0.22735 0.48837,-0.15157 0.90098,-0.35366 1.23781,-0.60628 0.33681,-0.26945 0.64837,-0.58101 0.93468,-0.93468 0.28628,-0.3705 0.52206,-0.77468 0.70732,-1.21255 0.20208,-0.43786 0.40417,-0.90099 0.60628,-1.38939 0.20208,-0.48838 0.38733,-0.98519 0.55576,-1.49043 0.2526,-0.69047 0.3789,-1.40622 0.37892,-2.14723 -2e-5,-0.90941 -0.19369,-1.88619 -0.58102,-2.93034 -0.38736,-1.06097 -0.86732,-2.07143 -1.43991,-3.03139 -0.55576,-0.95992 -1.11994,-1.91144 -1.69252,-2.85455 -0.55577,-0.95992 -1.02731,-1.96196 -1.41465,-3.00613 -0.38735,-1.06096 -0.58102,-2.04616 -0.58101,-2.9556 -10e-6,-0.74098 0.12629,-1.4483 0.37892,-2.12197 0.38733,-1.0778 0.79994,-1.98721 1.23782,-2.72825 0.43785,-0.74097 0.85888,-1.32199 1.26307,-1.74305 0.40418,-0.43783 0.8673,-0.76623 1.38939,-0.9852 0.5389,-0.23574 1.03571,-0.37889 1.49043,-0.42944 0.47153,-0.0673 1.05255,-0.10102 1.74305,-0.10105 0.20207,3e-5 0.53889,0.008 1.01046,0.0253 0.47153,3e-5 0.83361,3e-5 1.08625,0 0.72414,3e-5 1.38094,0.12634 1.9704,0.37892 0.58941,0.23581 1.05254,0.54737 1.38939,0.93468 0.35363,0.37054 0.64835,0.77472 0.88415,1.21256 0.25259,0.43789 0.42942,0.84208 0.53049,1.21255 0.10102,0.37053 0.16839,0.68209 0.20209,0.93468 l 0.0758,0.37892 c 0.0168,3e-5 0.0252,0.1516 0.0253,0.45471 -2e-5,0.60631 -0.10107,1.04417 -0.30314,1.3136 -0.28632,0.40421 -0.76629,0.6063 -1.43991,0.60628 -0.75787,-0.10102 -1.31362,-0.63993 -1.66726,-1.61674 -0.20211,-0.5052 -0.3621,-0.94307 -0.47997,-1.3136 -0.11791,-0.38732 -0.3621,-0.68203 -0.73258,-0.88416 -0.37053,-0.2189 -0.91786,-0.32837 -1.642,-0.3284 l -0.35367,0 c -0.50525,3e-5 -0.89259,0.0169 -1.16203,0.0505 -0.25263,0.0169 -0.54735,0.0758 -0.88415,0.17683 -0.32,0.0842 -0.58103,0.2358 -0.78311,0.4547 -0.20211,0.21897 -0.42104,0.51369 -0.6568,0.88416 -0.21895,0.37053 -0.42946,0.84208 -0.63154,1.41465 -0.16842,0.45473 -0.25263,0.90102 -0.25262,1.33886 -1e-5,0.74103 0.19366,1.58308 0.58102,2.52615 0.38733,0.94313 0.85046,1.89464 1.38939,2.85456 0.55573,0.94312 1.10307,1.9199 1.642,2.93034 0.55573,0.99364 1.01886,2.0883 1.38938,3.284 0.38733,1.17889 0.581,2.31566 0.58102,3.41031 -2e-5,1.02732 -0.16843,2.03778 -0.50523,3.03139 -0.79155,2.2567 -1.43151,3.78924 -1.91988,4.5976 -1.061,1.80199 -2.64406,2.96403 -4.74917,3.4861 -1.11152,0.28629 -2.4167,0.42944 -3.91554,0.42944 -1.66727,0 -3.13244,-0.50523 -4.39551,-1.51569 -1.24624,-1.0273 -1.86936,-2.11355 -1.86936,-3.25874 0,-0.25261 0.0421,-0.50523 0.12631,-0.75785"
         id="path4131"
         inkscape:connector-curvature="0" />
      <path
         d="m -630.37319,678.74031 -5.33019,0.0253 -10.15514,27.58562 c -0.0674,0.21894 -0.18526,0.50523 -0.35366,0.85889 -0.15158,0.33683 -0.26105,0.58944 -0.3284,0.75785 -0.1179,0.33682 -0.24421,0.60628 -0.37893,0.80837 -0.11789,0.20209 -0.2442,0.3705 -0.37892,0.50523 -0.1179,0.11789 -0.31157,0.20209 -0.58102,0.25262 -0.26946,0.0505 -0.51366,0.0842 -0.73258,0.10104 -0.21894,0 -0.58945,0 -1.11151,0 -0.35367,0 -0.62312,-0.10104 -0.80837,-0.30314 -0.18526,-0.20209 -0.27788,-0.44628 -0.27788,-0.73258 0,-0.18525 0.0589,-0.35366 0.17684,-0.50523 0.11788,-0.16841 0.27786,-0.39576 0.47996,-0.68206 0.21893,-0.30314 0.4126,-0.6568 0.58102,-1.06099 0.23577,-0.58943 0.8673,-2.26511 1.89462,-5.02705 1.02729,-2.76192 2.45878,-6.64377 4.29446,-11.64558 1.83566,-5.0186 3.1661,-8.65626 3.99133,-10.91299 l -8.15949,0 c -0.60628,3e-5 -1.10309,-0.11785 -1.49043,-0.35366 -0.38735,-0.25258 -0.58102,-0.74097 -0.58101,-1.46517 l 0,-0.17683 c 0.0337,-0.57256 0.2105,-0.96833 0.53049,-1.18729 0.33681,-0.2189 0.79152,-0.32837 1.36412,-0.3284 0.33681,3e-5 0.84204,0.0505 1.5157,0.15157 0.69047,0.0842 1.17886,0.12634 1.46517,0.1263 l 0.20209,0 15.68743,-0.0505 c 0.5894,3e-5 1.01885,0.13476 1.28833,0.40419 0.28627,0.25264 0.42942,0.60631 0.42945,1.06098 -3e-5,0.42106 -0.10108,0.89261 -0.30314,1.41465 -0.18528,0.45474 -0.57262,0.68209 -1.16203,0.68206 -0.25264,3e-5 -0.58946,-0.0421 -1.01046,-0.12631 -0.42105,-0.10101 -0.67367,-0.15996 -0.75785,-0.17683"
         id="path4133"
         inkscape:connector-curvature="0" />
    </g>
    <text
       sodipodi:linespacing="125%"
       id="text4135"
       y="949.9928"
       x="-290.13989"
       style="font-size:51.73566437px;font-style:italic;font-variant:normal;font-weight:normal;font-stretch:normal;text-align:start;line-height:125%;letter-spacing:3.37575173px;word-spacing:0px;writing-mode:lr-tb;text-anchor:start;fill:#000000;fill-opacity:1;stroke:none;font-family:Certege;-inkscape-font-specification:Certege Italic"
       xml:space="preserve"><tspan
         y="949.9928"
         x="-290.13989"
         id="tspan4137"
         sodipodi:role="line">BESSST</tspan></text>
    <text
       xml:space="preserve"
       style="font-size:72.02926636px;font-style:normal;font-variant:normal;font-weight:normal;font-stretch:normal;text-align:start;line-height:125%;letter-spacing:4.69990969px;word-spacing:0px;writing-mode:lr-tb;text-anchor:start;fill:#000000;fill-opacity:1;stroke:none;font-family:Cicle;-inkscape-font-specification:Cicle"
       x="-1098.3851"
       y="70.544174"
       id="text4141"
       sodipodi:linespacing="125%"><tspan
         sodipodi:role="line"
         id="tspan4143"
         x="-1098.3851"
         y="70.544174">BESSST</tspan></text>
    <text
       sodipodi:linespacing="125%"
       id="text4145"
       y="1244.0502"
       x="-697.66296"
       style="font-size:56.1116333px;font-style:normal;font-variant:normal;font-weight:normal;font-stretch:normal;text-align:start;line-height:125%;letter-spacing:3.66128373px;word-spacing:0px;writing-mode:lr-tb;text-anchor:start;fill:#000000;fill-opacity:1;stroke:none;font-family:Cicle;-inkscape-font-specification:Cicle"
       xml:space="preserve"
       transform="matrix(1,0,0.18068255,1,0,0)"><tspan
         y="1244.0502"
         x="-697.66296"
         id="tspan4147"
         sodipodi:role="line"
         style="letter-spacing:5.01999998px">BESSST</tspan></text>
    <image
       y="1922.1931"
       x="1754.3185"
       id="image4243"
       xlink:href="file:///home/ludi/wrk/osp.work.bessst/transparante_uitsnedes/kolom.png"
       height="423"
       width="391" />
    <image
       y="2553.3997"
       x="-2935.188"
       id="image4337"
       xlink:href="file:///home/ludi/wrk/osp.work.bessst/transparante_uitsnedes/poliphilus_slaapt.png"
       height="426"
       width="810" />
    <image
       y="1797.0483"
       x="-1698.9297"
       id="image4479"
       xlink:href="file:///home/ludi/wrk/osp.work.bessst/transparante_uitsnedes/poort1.png"
       height="2003"
       width="1502" />
    <image
       y="1793.0482"
       x="34.120033"
       id="image4621"
       xlink:href="file:///home/ludi/wrk/osp.work.bessst/transparante_uitsnedes/poort2.png"
       height="2011"
       width="1457" />
    <image
       y="2297.9851"
       x="3195.1643"
       id="image4827"
       xlink:href="file:///home/ludi/wrk/osp.work.bessst/transparante_uitsnedes/opklaring_zonder_poliphilus.png"
       height="1386"
       width="1635" />
    <text
       sodipodi:linespacing="125%"
       id="text4885"
       y="1015.7139"
       x="-2193.811"
       style="font-size:89.23809052px;font-style:normal;font-variant:normal;font-weight:normal;font-stretch:normal;text-align:start;line-height:125%;letter-spacing:5.82278442px;word-spacing:0px;writing-mode:lr-tb;text-anchor:start;fill:#000000;fill-opacity:1;stroke:#000000;stroke-width:1.14292371;stroke-miterlimit:4;stroke-opacity:1;stroke-dasharray:none;font-family:Cicle;-inkscape-font-specification:Cicle"
       xml:space="preserve"><tspan
         y="1015.7139"
         x="-2193.811"
         id="tspan4887"
         sodipodi:role="line"
         style="stroke-width:1.14292371">BESSST</tspan></text>
    <path
       style="fill:none;stroke:#000000;stroke-width:6.25;stroke-linecap:butt;stroke-linejoin:miter;stroke-miterlimit:4;stroke-opacity:1;stroke-dasharray:none"
       d="m -1224.1256,440.45418 c 50.9239,-30.81114 103.7194,-58.52875 157.9984,-82.94923 72.2735,-32.51629 147.80854,-59.53515 213.29803,-104.16579 31.43057,-21.41972 60.21222,-46.72225 85.48245,-75.14936"
       id="path4901"
       inkscape:connector-curvature="0"
       sodipodi:nodetypes="caac"
       inkscape:path-effect="#path-effect4906"
       inkscape:original-d="m -1224.1256,440.45418 c 0,0 104.9348,-56.07018 157.9984,-82.94923 70.58562,-35.75471 147.45005,-60.29356 213.29803,-104.16579 31.57345,-21.0363 85.48245,-75.14936 85.48245,-75.14936" />
    <text
       xml:space="preserve"
       style="font-size:135.29905701px;font-style:normal;font-variant:normal;font-weight:normal;font-stretch:normal;text-align:start;line-height:125%;letter-spacing:8.82826233px;word-spacing:0px;writing-mode:lr-tb;text-anchor:start;fill:#000000;fill-opacity:1;stroke:#000000;stroke-width:1.73285306;stroke-miterlimit:4;stroke-opacity:1;stroke-dasharray:none;font-family:Cicle;-inkscape-font-specification:Cicle"
       x="-850.54584"
       y="3557.2769"
       id="text4909"
       sodipodi:linespacing="125%"
       transform="scale(1.5305508,0.65335956)"><tspan
         style="stroke-width:1.73285306"
         sodipodi:role="line"
         id="tspan4911"
         x="-850.54584"
         y="3557.2769">BESSST</tspan></text>
    <rect
       style="fill:#ffffff;fill-opacity:1;stroke:#ffffff;stroke-width:6.25;stroke-miterlimit:4;stroke-opacity:1;stroke-dasharray:none"
       id="rect4913"
       width="1653.7178"
       height="1516.7856"
       x="63.199402"
       y="2381.7498" />
    <rect
       style="fill:#ffffff;fill-opacity:1;stroke:#ffffff;stroke-width:8.66050339;stroke-miterlimit:4;stroke-opacity:1;stroke-dasharray:none"
       id="rect4915"
       width="1144.9059"
       height="71.591019"
       x="221.19791"
       y="2284.7505" />
    <text
       xml:space="preserve"
       style="font-size:89.23809052px;font-style:normal;font-variant:normal;font-weight:normal;font-stretch:normal;text-align:start;line-height:125%;letter-spacing:5.82278442px;word-spacing:0px;writing-mode:lr-tb;text-anchor:start;fill:#000000;fill-opacity:1;stroke:#000000;stroke-width:1.14292371;stroke-miterlimit:4;stroke-opacity:1;stroke-dasharray:none;font-family:Cicle;-inkscape-font-specification:Cicle"
       x="634.36224"
       y="2358.7012"
       id="text4917"
       sodipodi:linespacing="125%"><tspan
         style="stroke-width:1.14292371"
         sodipodi:role="line"
         id="tspan4919"
         x="634.36224"
         y="2358.7012">BESSST</tspan></text>
    <path
       style="fill:none;stroke:#000000;stroke-width:6.25;stroke-linecap:square;stroke-linejoin:round;stroke-miterlimit:4;stroke-opacity:1;stroke-dasharray:none"
       d="m -2804.3507,1341.5294 c -11.5396,-83.0542 -14.7286,-167.2664 -9.5032,-250.9555 5.6249,-90.0882 20.6478,-182.98251 -7.208,-268.84045 -4.531,-13.96558 -10.1931,-27.7023 -12.2295,-42.2426 -1.0182,-7.27015 -1.1061,-14.71785 0.3319,-21.91675 1.438,-7.19889 4.4456,-14.15062 9.1719,-19.76794 6.0889,-7.23685 14.9965,-12.03732 24.3891,-13.14383 9.3927,-1.1065 19.172,1.49257 26.7759,7.11633"
       id="path3992"
       inkscape:connector-curvature="0"
       sodipodi:nodetypes="casac"
       inkscape:path-effect="#path-effect4000"
       inkscape:original-d="m -2804.3507,1341.5294 c -2.1428,-8.1498 -6.7976,-167.289 -9.5032,-250.9555 -2.8976,-89.6001 39.668,-163.55565 -7.208,-268.84045 -9.7259,-21.84468 -21.8752,-62.67099 -2.7257,-83.92729 11.1802,-12.41027 51.165,-6.0275 51.165,-6.0275" />
    <path
       style="fill:none;stroke:#000000;stroke-width:6.25;stroke-linecap:square;stroke-linejoin:round;stroke-miterlimit:4;stroke-opacity:1;stroke-dasharray:none"
       d="m -2799.3301,721.89858 c 0,0 20.5395,-125.37535 22.6822,-149.82469 2.1428,-24.44935 3.9809,-61.72014 44.997,-63.16083 10.7061,-0.37606 8.5708,16.29956 8.5708,16.29956 0,0 1.8403,-24.60573 14.999,-22.30951 13.1588,2.29619 10.7136,48.79632 10.7136,48.79632 0,0 -2.8924,-18.2581 6.4281,-20.37447 11.601,-2.63419 10.7136,22.41191 10.7136,22.41191 0,0 14.9989,14.26213 32.1406,20.37446 17.1417,6.11234 4.2854,50.93615 4.2854,50.93615 0,0 10.1344,-34.79396 27.8552,-26.48679 21.1303,9.90556 -7.1634,274.52572 1.4074,307.12486 0,0 -3.6401,-51.56466 33.3959,-40.38179 29.2508,8.83211 1.4706,74.80634 3.6133,113.51782 2.1428,38.71142 38.7212,157.62482 28.0076,228.93552 -10.7135,71.3107 19.2843,228.1939 40.7114,254.6807 21.4273,26.4869 53.5679,87.6102 44.9971,85.5729"
       id="path3994"
       inkscape:connector-curvature="0"
       sodipodi:nodetypes="cssczcscscssssssc" />
    <path
       style="fill:none;stroke:#000000;stroke-width:6.25;stroke-linecap:square;stroke-linejoin:round;stroke-miterlimit:4;stroke-opacity:1;stroke-dasharray:none"
       d="m -3051.0679,904.53284 c -9.601,6.0386 -16.6387,17.35674 -22.821,41.08803 -6.1823,23.73129 2.0419,65.45303 -9.0563,97.54863"
       id="path3996"
       inkscape:connector-curvature="0"
       sodipodi:nodetypes="czc" />
    <path
       style="fill:none;stroke:#000000;stroke-width:6.25;stroke-linecap:square;stroke-linejoin:round;stroke-miterlimit:4;stroke-opacity:1;stroke-dasharray:none"
       d="m -3033.3466,917.5881 c 0,0 -15.0527,12.32316 -21.4259,31.35862 -8.7001,25.98472 -0.4925,30.54346 -4.2027,56.41488"
       id="path3998"
       inkscape:connector-curvature="0"
       sodipodi:nodetypes="csc" />
    <path
       style="fill:none;stroke:#000000;stroke-width:6;stroke-linecap:butt;stroke-linejoin:miter;stroke-miterlimit:3.66666675;stroke-opacity:1;stroke-dasharray:none"
       d="m -7944.9957,-2356.9369 c 0,0 -74.7941,-40.2082 -138.9501,-101.9881 -64.1561,-61.7799 -112.9449,-109.4384 -143.3809,-188.092 -11.5354,-29.81 -14.6522,-72.0964 4.9702,-88.7294 17.7248,-15.0246 36.8303,-0.044 36.8303,13.0687 0,15.1823 -10.1054,24.7263 -22.5735,21.3854 -9.8217,-2.6317 -5.1002,-18.0671 -5.1002,-18.0671"
       id="path4161"
       inkscape:connector-curvature="0"
       sodipodi:nodetypes="ccssssc" />
    <path
       style="fill:none;stroke:#000000;stroke-width:6;stroke-linecap:butt;stroke-linejoin:miter;stroke-miterlimit:3.66666675;stroke-opacity:1;stroke-dasharray:none"
       d="m -8200.4914,-2700.1041 c 0,0 -1.8494,32.7391 19.2224,56.1629 21.0718,23.4238 62.8029,42.2845 105.0456,50.1698 89.1056,16.6331 147.3213,12.4747 147.3213,12.4747 0,0 7.1285,29.1079 46.3349,35.0483 39.2065,5.9403 183.9288,7.1284 275.9392,7.1284 92.0104,0 236.7326,-1.1881 275.9391,-7.1284 39.2064,-5.9404 46.3349,-35.0483 46.3349,-35.0483 0,0 58.2158,4.1584 147.3214,-12.4747 42.2427,-7.8853 83.9738,-26.746 105.0456,-50.1698 21.0718,-23.4238 19.2224,-56.1629 19.2224,-56.1629"
       id="path4179"
       inkscape:connector-curvature="0"
       sodipodi:nodetypes="csscsascssc" />
    <path
       style="fill:none;stroke:#000000;stroke-width:6;stroke-linecap:butt;stroke-linejoin:miter;stroke-miterlimit:3.66666675;stroke-opacity:1;stroke-dasharray:none"
       d="m -7953.8517,-2553.9709 23.7615,-26.7317"
       id="path4185"
       inkscape:connector-curvature="0" />
    <path
       style="fill:none;stroke:#000000;stroke-width:6;stroke-linecap:butt;stroke-linejoin:miter;stroke-miterlimit:3.66666675;stroke-opacity:1;stroke-dasharray:none"
       d="m -8180.8335,-2594.3655 c -0.594,5.3463 56.9289,77.3832 116.9267,129.6585 59.9978,52.2753 142.7272,102.7088 142.7272,102.7088"
       id="path4187"
       inkscape:connector-curvature="0"
       sodipodi:nodetypes="csc" />
    <path
       style="fill:none;stroke:#000000;stroke-width:6;stroke-linecap:butt;stroke-linejoin:miter;stroke-miterlimit:3.66666675;stroke-opacity:1;stroke-dasharray:none"
       d="m -7602.7001,-2500.8594 0,-383.2031 -13.7947,0 0,383.5161"
       id="path4191"
       inkscape:connector-curvature="0"
       sodipodi:nodetypes="cccc" />
    <path
       style="fill:none;stroke:#000000;stroke-width:6;stroke-linecap:butt;stroke-linejoin:miter;stroke-miterlimit:3.66666675;stroke-opacity:1;stroke-dasharray:none"
       d="m -7618.3532,-2867.6806 -155.3064,0 0,9.3058 157.3231,0"
       id="path4193"
       inkscape:connector-curvature="0"
       sodipodi:nodetypes="cccc" />
    <path
       style="fill:none;stroke:#000000;stroke-width:6;stroke-linecap:butt;stroke-linejoin:miter;stroke-miterlimit:3.66666675;stroke-opacity:1;stroke-dasharray:none"
       d="m -7769.1111,-2856.5431 c -4.2719,45.7126 -51.4003,57.2792 -77.6368,56.4902 -19.682,-0.7935 -37.4297,-14.8977 -57.1265,-15.1217 -22.7519,-0.2588 -66.3676,15.9618 -66.3676,15.9618 32.3641,-13.28 47.2065,33.5082 83.1695,30.2435 59.7781,-9.3086 67.7717,20.7042 98.2912,29.4033 35.135,13.4542 62.4891,-14.1748 94.0907,-19.3222 25.3151,-4.1234 48.5311,19.5763 76.3891,-9.2411"
       id="path4197"
       inkscape:connector-curvature="0"
       sodipodi:nodetypes="ccacccac" />
    <path
       style="fill:none;stroke:#000000;stroke-width:6;stroke-linecap:butt;stroke-linejoin:miter;stroke-miterlimit:3.66666675;stroke-opacity:1;stroke-dasharray:none"
       d="m -7602.9197,-2774.85 c 0,0 47.9363,-2.8475 67.9666,-14.4821 19.1431,-11.1193 26.581,-36.1686 44.2053,-49.5657 11.4894,-8.7337 38.8449,-19.1217 38.8449,-19.1217"
       id="path4199"
       inkscape:connector-curvature="0"
       sodipodi:nodetypes="caac" />
    <path
       sodipodi:nodetypes="ccssssc"
       inkscape:connector-curvature="0"
       id="path4201"
       d="m -7273.301,-2353.9965 c 0,0 79.8348,-43.1486 143.9908,-104.9285 64.1561,-61.7799 112.9449,-109.4384 143.3809,-188.092 11.5354,-29.81 14.6522,-72.0964 -4.9701,-88.7294 -17.7249,-15.0246 -36.8304,-0.044 -36.8304,13.0687 0,15.1823 10.1054,24.7263 22.5735,21.3854 9.8217,-2.6317 5.1002,-18.0671 5.1002,-18.0671"
       style="fill:none;stroke:#000000;stroke-width:6;stroke-linecap:butt;stroke-linejoin:miter;stroke-miterlimit:3.66666675;stroke-opacity:1;stroke-dasharray:none" />
    <path
       sodipodi:nodetypes="cscsascsc"
       inkscape:connector-curvature="0"
       id="path4205"
       d="m -7030.2045,-2595.3953 c 0,0 -55.854,48.4801 -149.0048,55.0873 -26.0761,1.8495 -68.3144,-1.7822 -68.3144,-1.7822 0,0 -20.657,40.2325 -86.4129,49.8991 -42.3221,6.2217 -181.7421,8.9626 -272.6914,9.2868 -90.2626,0.3218 -228.3694,-1.0651 -270.6915,-7.2868 -65.7559,-9.6666 -88.4129,-51.8991 -88.4129,-51.8991 0,0 -42.2382,3.6317 -68.3143,1.7822 -93.1508,-6.6072 -149.0048,-55.0873 -149.0048,-55.0873"
       style="fill:none;stroke:#000000;stroke-width:6;stroke-linecap:butt;stroke-linejoin:miter;stroke-miterlimit:3.66666675;stroke-opacity:1;stroke-dasharray:none" />
    <path
       sodipodi:nodetypes="csscsazcssc"
       inkscape:connector-curvature="0"
       id="path4207"
       d="m -6999.3601,-2716.1854 c 1.7821,2.9702 10.1707,51.3632 -19.4591,86.7717 -27.2382,32.5505 -91.1039,68.9506 -153.4778,72.5148 -62.3739,3.5642 -89.4836,-0.6363 -89.4836,-0.6363 0,0 -7.0389,23.0656 -40.305,39.6986 -33.2661,16.6331 -202.8364,18.735 -304.5424,18.735 -101.7061,0 -249.4284,5.6371 -304.5425,-18.735 -55.1141,-24.372 -40.305,-39.6986 -40.305,-39.6986 0,0 -27.1095,4.2005 -89.4834,0.6363 -62.3739,-3.5642 -126.2397,-39.9643 -153.4779,-72.5148 -29.6298,-35.4085 -21.2412,-83.8015 -19.4591,-86.7717"
       style="fill:none;stroke:#000000;stroke-width:6;stroke-linecap:butt;stroke-linejoin:miter;stroke-miterlimit:3.66666675;stroke-opacity:1;stroke-dasharray:none" />
    <path
       inkscape:connector-curvature="0"
       id="path4209"
       d="m -7259.4044,-2553.9709 -23.7615,-26.7317"
       style="fill:none;stroke:#000000;stroke-width:6;stroke-linecap:butt;stroke-linejoin:miter;stroke-miterlimit:3.66666675;stroke-opacity:1;stroke-dasharray:none" />
    <path
       sodipodi:nodetypes="csc"
       inkscape:connector-curvature="0"
       id="path4211"
       d="m -7032.4225,-2594.3655 c 0.594,5.3463 -56.9289,77.3832 -116.9267,129.6585 -59.9978,52.2753 -142.7272,102.7088 -142.7272,102.7088"
       style="fill:none;stroke:#000000;stroke-width:6;stroke-linecap:butt;stroke-linejoin:miter;stroke-miterlimit:3.66666675;stroke-opacity:1;stroke-dasharray:none" />
    <path
       sodipodi:nodetypes="cccc"
       inkscape:connector-curvature="0"
       id="path4213"
       d="m -7601.3851,-2867.6806 155.3064,0 0,9.3058 -157.3231,0"
       style="fill:none;stroke:#000000;stroke-width:6;stroke-linecap:butt;stroke-linejoin:miter;stroke-miterlimit:3.66666675;stroke-opacity:1;stroke-dasharray:none" />
    <path
       style="fill:none;stroke:#000000;stroke-width:6;stroke-linecap:butt;stroke-linejoin:miter;stroke-miterlimit:4;stroke-opacity:1;stroke-dasharray:none"
       d="m -7616.5967,-2772.7946 c 0,0 -63.5651,2.5638 -92.8086,-2.9105 -43.8518,-8.209 -74.5182,-25.2412 -74.5182,-25.2412 0,0 -15.563,18.0443 -43.3982,17.0829 -42.7445,-1.4764 -69.2053,14.2569 -69.2053,14.2569"
       id="path4215"
       inkscape:connector-curvature="0"
       sodipodi:nodetypes="cscsc" />
    <g
       transform="translate(-843.51915,-5373.2222)"
       id="g4227">
      <path
         style="fill:none;stroke:#000000;stroke-width:6.25;stroke-linecap:butt;stroke-linejoin:miter;stroke-miterlimit:4;stroke-opacity:1;stroke-dasharray:none"
         d="m -2135.65,784.60059 0,-356.48233 c 0,0 0.087,-57.6802 62.7164,-57.6802 52.2111,0 50.7165,68.07616 50.7165,68.07616 l 0,315.7818 z"
         id="path4229"
         inkscape:connector-curvature="0"
         sodipodi:nodetypes="ccsccc" />
      <path
         style="fill:none;stroke:#000000;stroke-width:6.25;stroke-linecap:butt;stroke-linejoin:miter;stroke-miterlimit:4;stroke-opacity:1;stroke-dasharray:none"
         d="m -2131.0938,406.3998 c 0,0 8.6429,-28.38228 39.3854,-22.85004 27.7848,5 29.2944,46.4988 29.2944,68.50759 0,23.23351 0,281.02546 0,281.02546 l -71.7208,15.27485"
         id="path4231"
         inkscape:connector-curvature="0"
         sodipodi:nodetypes="csscc" />
      <path
         style="fill:none;stroke:#000000;stroke-width:6.25;stroke-linecap:butt;stroke-linejoin:miter;stroke-miterlimit:4;stroke-opacity:1;stroke-dasharray:none"
         d="m -2022.0079,752.27571 -41.4162,-20.20305"
         id="path4233"
         inkscape:connector-curvature="0"
         sodipodi:nodetypes="cc" />
    </g>
    <g
       transform="translate(-895.9888,-3196.0852)"
       id="g4235">
      <path
         style="fill:none;stroke:#000000;stroke-width:6.25;stroke-linecap:butt;stroke-linejoin:miter;stroke-miterlimit:4;stroke-opacity:1;stroke-dasharray:none"
         d="m -1589.612,367.17178 0,268.30991 40.1222,0 60.904,0 -1.3121,-252.72382 z"
         id="path4237"
         inkscape:connector-curvature="0"
         sodipodi:nodetypes="cccccc" />
      <path
         style="fill:none;stroke:#000000;stroke-width:6.25;stroke-linecap:butt;stroke-linejoin:miter;stroke-miterlimit:4;stroke-opacity:1;stroke-dasharray:none"
         d="m -1546.3152,637.4497 0,-236.21763 -41.9847,-7.87228"
         id="path4239"
         inkscape:connector-curvature="0"
         sodipodi:nodetypes="ccc" />
      <path
         style="fill:none;stroke:#000000;stroke-width:6.25;stroke-linecap:butt;stroke-linejoin:miter;stroke-miterlimit:4;stroke-opacity:1;stroke-dasharray:none"
         d="m -1491.8339,384.73587 -57.1052,19.12012"
         id="path4241"
         inkscape:connector-curvature="0"
         sodipodi:nodetypes="cc" />
    </g>
    <path
       transform="translate(114.84377,-2861.0929)"
       d="m -209.14986,-108.88409 a 206.62996,89.455658 0 1 1 -413.25991,0 206.62996,89.455658 0 1 1 413.25991,0 z"
       sodipodi:ry="89.455658"
       sodipodi:rx="206.62996"
       sodipodi:cy="-108.88409"
       sodipodi:cx="-415.77982"
       id="path4249"
       style="fill:none;stroke:#000000;stroke-width:6.25;stroke-miterlimit:4;stroke-dasharray:none"
       sodipodi:type="arc" />
    <path
       sodipodi:nodetypes="cssc"
       inkscape:connector-curvature="0"
       id="path4251"
       d="m -501.91523,-2948.004 c 9.008,-16.3234 28.352,-30.9095 54.87,-42.3898 37.392,-16.1883 89.05,-26.2009 146.109,-26.2009 96.944,0 178.296,28.903 200.586,67.8905"
       style="fill:none;stroke:#000000;stroke-width:6.25;stroke-miterlimit:4" />
    <path
       sodipodi:nodetypes="cccccc"
       inkscape:connector-curvature="0"
       id="path4253"
       d="m -267.54823,-3012.185 0,34.1132 -60.052,0 0,40.4755 -64.052,0 0,49.2952"
       style="fill:none;stroke:#000000;stroke-width:6.25;stroke-linecap:butt;stroke-linejoin:miter;stroke-miterlimit:4;stroke-opacity:1;stroke-dasharray:none" />
    <path
       sodipodi:nodetypes="cc"
       inkscape:connector-curvature="0"
       id="path4255"
       d="m -390.76123,-2934.6152 122.563,53.84"
       style="fill:#ccffaa;stroke:#000000;stroke-width:6.25;stroke-linecap:butt;stroke-linejoin:miter;stroke-miterlimit:4;stroke-opacity:1;stroke-dasharray:none" />
    <path
       sodipodi:nodetypes="cc"
       style="fill:none;stroke:#000000;stroke-width:6.25;stroke-linecap:butt;stroke-linejoin:miter;stroke-miterlimit:4;stroke-opacity:1;stroke-dasharray:none"
       d="m -267.54823,-2978.7895 147.971,50.2427"
       id="path4257"
       inkscape:connector-curvature="0" />
    <path
       sodipodi:nodetypes="cc"
       inkscape:connector-curvature="0"
       id="path4259"
       d="m -328.28623,-2976.8996 175.613,67.6974"
       style="fill:none;stroke:#000000;stroke-width:6.25;stroke-linecap:butt;stroke-linejoin:miter;stroke-miterlimit:4;stroke-opacity:1;stroke-dasharray:none" />
    <path
       sodipodi:nodetypes="cc"
       style="fill:none;stroke:#000000;stroke-width:6.25;stroke-linecap:butt;stroke-linejoin:miter;stroke-miterlimit:4;stroke-opacity:1;stroke-dasharray:none"
       d="m -328.13323,-2937.6569 118.133,47.3557"
       id="path4261"
       inkscape:connector-curvature="0" />
    <path
       sodipodi:nodetypes="csc"
       inkscape:connector-curvature="0"
       id="path4263"
       d="m -94.306231,-2969.977 c 0,49.405 -92.510999,89.4557 -206.629999,89.4557 -114.119,0 -206.63,-40.0507 -206.63,-89.4557"
       style="fill:none;stroke:#000000;stroke-width:6.25;stroke-miterlimit:4" />
    <path
       sodipodi:nodetypes="cccccc"
       inkscape:connector-curvature="0"
       id="path4383"
       d="m -1966.5278,-2987.0931 87.9059,0 0,309.6913 -50.556,0 -37.3499,-15.8498 z"
       style="fill:none;stroke:#000000;stroke-width:6.25;stroke-linecap:butt;stroke-linejoin:miter;stroke-miterlimit:4;stroke-opacity:1;stroke-dasharray:none" />
    <path
       sodipodi:nodetypes="ccc"
       inkscape:connector-curvature="0"
       id="path4385"
       d="m -1967.8396,-2985.2208 40.6727,42.7367 0,267.6537"
       style="fill:none;stroke:#000000;stroke-width:6.25;stroke-linecap:butt;stroke-linejoin:miter;stroke-miterlimit:4;stroke-opacity:1;stroke-dasharray:none" />
    <path
       sodipodi:nodetypes="cc"
       inkscape:connector-curvature="0"
       id="path4387"
       d="m -1877.6336,-2942.2811 -50.8454,0"
       style="fill:none;stroke:#000000;stroke-width:6.25;stroke-linecap:butt;stroke-linejoin:miter;stroke-miterlimit:4;stroke-opacity:1;stroke-dasharray:none" />
    <g
       id="g4417"
       transform="translate(-9046.3914,-1569.5158)"
       style="stroke:#000000">
      <path
         sodipodi:nodetypes="casc"
         transform="translate(0,308.2677)"
         inkscape:connector-curvature="0"
         id="path4389"
         d="m 1155.5517,-1087.634 c 0,0 52.6835,3.5492 78.5489,-0.5203 43.7989,-6.8911 82.5339,-38.7748 126.8545,-40.0048 54.9656,-1.5254 107.012,29.8234 107.012,29.8234"
         style="fill:none;stroke:#000000;stroke-width:5;stroke-linecap:butt;stroke-linejoin:miter;stroke-miterlimit:4;stroke-opacity:1;stroke-dasharray:none" />
      <path
         sodipodi:nodetypes="cssc"
         transform="translate(0,308.2677)"
         inkscape:connector-curvature="0"
         id="path4391"
         d="m 1187.8954,-1074.7128 c 0,0 49.9655,1.1938 72.2482,-8.6014 52.2507,-22.9687 77.2526,-37.9423 114.9738,-35.9236 23.0174,1.2318 72.3675,19.4224 72.3675,19.4224"
         style="fill:none;stroke:#000000;stroke-width:5;stroke-linecap:butt;stroke-linejoin:miter;stroke-miterlimit:4;stroke-opacity:1;stroke-dasharray:none" />
      <path
         sodipodi:nodetypes="cassc"
         transform="translate(0,308.2677)"
         inkscape:connector-curvature="0"
         id="path4393"
         d="m 1435.7236,-1095.0755 c 0,0 -46.5828,-17.858 -70.6062,-15.7614 -39.7175,3.4663 -70.7808,34.0391 -110.4535,45.8855 -55.5348,16.5829 -124.1795,-28.3224 -179.0597,-4.8019 -35.293,15.1259 -37.3652,48.8067 -37.3652,48.8067"
         style="fill:none;stroke:#000000;stroke-width:5;stroke-linecap:butt;stroke-linejoin:miter;stroke-miterlimit:4;stroke-opacity:1;stroke-dasharray:none" />
      <path
         sodipodi:nodetypes="cssc"
         transform="translate(0,308.2677)"
         inkscape:connector-curvature="0"
         id="path4395"
         d="m 1061.7617,-1019.2664 c 0,0 -3.6193,-35.0064 43.1647,-39.1647 22.6537,-2.0135 46.1475,10.2247 69.2076,9.7613 15.0137,-0.3017 31.7232,-13.7613 31.7232,-13.7613"
         style="fill:none;stroke:#000000;stroke-width:5;stroke-linecap:butt;stroke-linejoin:miter;stroke-miterlimit:4;stroke-opacity:1;stroke-dasharray:none" />
      <path
         sodipodi:nodetypes="caac"
         transform="translate(0,308.2677)"
         inkscape:connector-curvature="0"
         id="path4397"
         d="m 1207.819,-1032.1877 c 0,0 34.7161,0.7953 51.5656,-2.7208 34.8388,-7.27 64.8163,-31.9422 99.9714,-37.4845 15.757,-2.4841 47.8043,2.2005 47.8043,2.2005"
         style="fill:none;stroke:#000000;stroke-width:5;stroke-linecap:butt;stroke-linejoin:miter;stroke-miterlimit:4;stroke-opacity:1;stroke-dasharray:none" />
      <path
         sodipodi:nodetypes="casc"
         transform="translate(0,308.2677)"
         inkscape:connector-curvature="0"
         id="path4399"
         d="m 1306.2295,-1050.9896 c 0,0 29.9234,14.9192 45.8473,13.8211 66.0653,-4.5561 118.813,-82.9094 180.5394,-82.9094 65.6046,0 114.611,29.2028 114.611,29.2028"
         style="fill:none;stroke:#000000;stroke-width:5;stroke-linecap:butt;stroke-linejoin:miter;stroke-miterlimit:4;stroke-opacity:1;stroke-dasharray:none" />
      <path
         sodipodi:nodetypes="csac"
         transform="translate(0,308.2677)"
         inkscape:connector-curvature="0"
         id="path4401"
         d="m 1630.664,-1090.3548 c 0,0 -51.095,-24.5741 -102.5299,-16.2816 -42.6325,6.8734 -67.506,56.0409 -107.5322,72.2482 -23.4712,9.5039 -74.7685,13.4416 -74.7685,13.4416"
         style="fill:none;stroke:#000000;stroke-width:5;stroke-linecap:butt;stroke-linejoin:miter;stroke-miterlimit:4;stroke-opacity:1;stroke-dasharray:none" />
      <path
         sodipodi:nodetypes="cssc"
         transform="translate(0,308.2677)"
         inkscape:connector-curvature="0"
         id="path4403"
         d="m 1416.4014,-1016.7462 c 0,0 41.4444,-10.6415 56.2864,-24.7828 29.9247,-28.5121 40.8874,-39.1512 67.2076,-44.9451 37.5376,-8.2633 74.3486,6.3007 74.3486,6.3007"
         style="fill:none;stroke:#000000;stroke-width:5;stroke-linecap:butt;stroke-linejoin:miter;stroke-miterlimit:4;stroke-opacity:1;stroke-dasharray:none" />
      <path
         transform="translate(0,308.2677)"
         inkscape:connector-curvature="0"
         id="path4405"
         d="m 1183.2748,-1086.0541 c 0,0 18.0477,-15.6515 49.5657,-15.1217 10.1165,0.17 29.6229,4.6205 29.6229,4.6205"
         style="fill:none;stroke:#000000;stroke-width:5;stroke-linecap:butt;stroke-linejoin:miter;stroke-miterlimit:4;stroke-opacity:1;stroke-dasharray:none"
         sodipodi:nodetypes="csc" />
      <path
         sodipodi:nodetypes="csc"
         transform="translate(0,308.2677)"
         inkscape:connector-curvature="0"
         id="path4407"
         d="m 1147.5708,-1097.8154 c 0,0 48.1571,-26.3965 74.7685,-29.4033 34.2139,-3.8658 54.1862,15.5417 54.1862,15.5417"
         style="fill:none;stroke:#000000;stroke-width:5;stroke-linecap:butt;stroke-linejoin:miter;stroke-miterlimit:4;stroke-opacity:1;stroke-dasharray:none" />
      <path
         sodipodi:nodetypes="caacc"
         transform="translate(0,308.2677)"
         inkscape:connector-curvature="0"
         id="path4409"
         d="m 1321.609,-1120.2784 c 0,0 -66.7252,-23.8138 -100.9499,-20.8019 -39.0305,3.4348 -70.5825,36.9149 -109.2124,43.4654 -28.8717,4.8957 -60.6598,7.3077 -87.771,-3.7614 -9.8955,-4.0402 -23.6842,-17.4415 -23.6842,-17.4415"
         style="fill:none;stroke:#000000;stroke-width:5;stroke-linecap:butt;stroke-linejoin:miter;stroke-miterlimit:4;stroke-opacity:1;stroke-dasharray:none" />
      <path
         sodipodi:nodetypes="csc"
         transform="translate(0,308.2677)"
         inkscape:connector-curvature="0"
         id="path4411"
         d="m 1454.2057,-1004.9848 c 0,0 26.4185,-2.654 72.7527,-37.4422 23.6337,-17.7445 56.202,-9.1831 56.202,-9.1831"
         style="fill:none;stroke:#000000;stroke-width:5;stroke-linecap:butt;stroke-linejoin:miter;stroke-miterlimit:4;stroke-opacity:1;stroke-dasharray:none" />
      <path
         transform="translate(0,308.2677)"
         inkscape:connector-curvature="0"
         id="path4413"
         d="m 1548.7165,-1021.3667 c 0,0 31.9236,-6.3007 54.1861,-30.6635 22.2626,-24.3628 59.2268,-55.6468 112.5729,-54.3866 53.346,1.2601 92.5298,36.2243 122.3532,34.5441 29.8234,-1.6802 62.3676,-25.3222 62.3676,-25.3222"
         style="fill:none;stroke:#000000;stroke-width:5;stroke-linecap:butt;stroke-linejoin:miter;stroke-miterlimit:4;stroke-opacity:1;stroke-dasharray:none"
         sodipodi:nodetypes="csssc" />
      <path
         sodipodi:nodetypes="csssac"
         transform="translate(0,308.2677)"
         inkscape:connector-curvature="0"
         id="path4415"
         d="m 1552.0982,-1021.9905 c 0,0 57.2501,-0.8317 80.2377,-15.4399 45.3762,-28.8358 50.3337,-49.1157 101.9995,-47.8556 51.6659,1.2601 60.8101,21.8724 105.3352,24.3926 44.5251,2.5203 89.4416,-42.6341 137.1428,-41.1225 62.0572,1.9665 174.6718,64.6874 174.6718,64.6874"
         style="fill:none;stroke:#000000;stroke-width:5;stroke-linecap:butt;stroke-linejoin:miter;stroke-miterlimit:4;stroke-opacity:1;stroke-dasharray:none" />
    </g>
    <path
       style="fill:none;stroke:#000000;stroke-width:6.25;stroke-linecap:square;stroke-linejoin:miter;stroke-miterlimit:3.79999995;stroke-opacity:1;stroke-dasharray:none"
       d="m -6907.3081,-3911.042 c 0,0 -3.578,-27.6782 -15.464,-39.5644 -8.159,-8.1584 -32.081,-26.9985 -32.081,-26.9985 0,0 15.625,-49.5129 -7.132,-72.9023 -28.527,-29.3196 -12.679,-64.9782 -57.054,-91.128 -34.135,-20.1154 -161.213,-57.5604 -203.784,-71.739 -19.327,-6.4372 -46.752,-8.9342 -46.752,-8.9342 -16.713,6.7221 15.632,34.2353 27.867,48.1841 18.01,20.5344 53.884,26.1498 64.978,49.9223 11.094,23.7725 34.866,47.5449 58.639,63.3933 23.772,15.8482 52.299,13.4712 52.299,13.4712 0,0 -42.217,-2.0903 -49.922,26.1496 -6.12,22.4303 15.848,47.545 25.357,64.9782 9.509,17.4331 49.089,34.8307 58.639,23.7725 l 15.056,-17.4332 c 0,0 -14.262,29.0734 -12.679,44.3754 1.168,11.2824 4.762,27.7181 15.849,30.1117 5.887,1.2711 14.263,-11.0938 14.263,-11.0938 0,0 7.782,21.8826 17.433,25.3573 6.51,2.3437 19.963,-5.6829 19.963,-5.6829 0,0 2.825,26.9607 13.319,31.0404 9.576,3.723 28.096,-12.6787 28.096,-12.6787"
       id="path4495"
       inkscape:connector-curvature="0"
       sodipodi:nodetypes="cscssssasscssscaacacac" />
    <path
       style="fill:none;stroke:#000000;stroke-width:6.25;stroke-linecap:butt;stroke-linejoin:miter;stroke-miterlimit:3.79999995;stroke-opacity:1;stroke-dasharray:none"
       d="m -7274.4681,-4212.9466 c 0,0 27.576,13.3048 41.954,18.4811 41.999,15.1203 128.839,36.5187 128.839,36.5187"
       id="path4499"
       inkscape:connector-curvature="0"
       sodipodi:nodetypes="cac" />
    <path
       style="fill:none;stroke:#000000;stroke-width:6.25;stroke-linecap:butt;stroke-linejoin:miter;stroke-miterlimit:3.79999995;stroke-opacity:1;stroke-dasharray:none"
       d="m -7263.4691,-4197.764 c 0,0 77.93,42.0546 119.803,55.6936 15.941,5.1924 49.347,9.7265 49.347,9.7265"
       id="path4501"
       inkscape:connector-curvature="0"
       sodipodi:nodetypes="cac" />
    <path
       style="fill:none;stroke:#000000;stroke-width:6.25;stroke-linecap:butt;stroke-linejoin:miter;stroke-miterlimit:3.79999995;stroke-opacity:1;stroke-dasharray:none"
       d="m -7187.8241,-4138.4655 c 0,0 37.486,15.4877 58.421,33.0638 16.556,13.899 50.55,3.2239 50.55,3.2239"
       id="path4503"
       inkscape:connector-curvature="0"
       sodipodi:nodetypes="csc" />
    <path
       style="fill:none;stroke:#000000;stroke-width:6.25;stroke-linecap:butt;stroke-linejoin:miter;stroke-miterlimit:3.79999995;stroke-opacity:1;stroke-dasharray:none"
       d="m -6993.1071,-4116.8527 c 0,0 26.668,-56.1265 -39.403,-73.9123 -37.061,-9.9763 -83.647,-29.4712 -122.825,-49.9223 -43.839,-22.8848 -124.409,-80.8266 -124.409,-80.8266 0,0 -8.717,13.4712 1.584,19.8106 0,0 -9.31,11.623 13.053,27.1179 0,0 -4.336,16.465 8.343,25.974 12.678,9.5089 48.799,39.774 48.799,39.774"
       id="path4505"
       inkscape:connector-curvature="0"
       sodipodi:nodetypes="csacsssc" />
    <path
       style="fill:none;stroke:#000000;stroke-width:6.25;stroke-linecap:butt;stroke-linejoin:miter;stroke-miterlimit:3.79999995;stroke-opacity:1;stroke-dasharray:none"
       d="m -7098.9411,-4172.7606 c 0,0 -6.09,15.4109 -3.342,22.4652 5.631,14.4527 22.051,35.6632 36.179,29.2631 16.283,-7.3757 36.796,-9.3333 36.796,-9.3333"
       id="path4507"
       inkscape:connector-curvature="0"
       sodipodi:nodetypes="casc" />
    <path
       style="fill:none;stroke:#000000;stroke-width:6.25;stroke-linecap:butt;stroke-linejoin:miter;stroke-miterlimit:3.79999995;stroke-opacity:1;stroke-dasharray:none"
       d="m -7094.3191,-4136.0883 c 0,0 1.554,29.1382 12.679,33.2814 17.878,6.6581 22.549,15.9326 35.546,16.0242 6.474,0.046 17.818,-7.7318 17.818,-7.7318"
       id="path4509"
       inkscape:connector-curvature="0"
       sodipodi:nodetypes="csac" />
    <path
       style="fill:none;stroke:#000000;stroke-width:6.25;stroke-linecap:butt;stroke-linejoin:miter;stroke-miterlimit:3.79999995;stroke-opacity:1;stroke-dasharray:none"
       d="m -7091.0531,-4098.3407 c 0,0 -7.5,20.0026 20.235,27.1345 27.734,7.1316 21.746,15.0661 34.385,17.0087 6.296,0.9677 18.882,-2.9375 18.882,-2.9375"
       id="path4511"
       inkscape:connector-curvature="0"
       sodipodi:nodetypes="csac" />
    <path
       style="fill:none;stroke:#000000;stroke-width:6.25;stroke-linecap:butt;stroke-linejoin:miter;stroke-miterlimit:3.79999995;stroke-opacity:1;stroke-dasharray:none"
       d="m -7070.5461,-4071.3279 c 3.169,7.1319 3.582,27.0099 13.471,34.2917 18.282,13.4619 67.93,4.963 67.93,4.963"
       id="path4513"
       inkscape:connector-curvature="0"
       sodipodi:nodetypes="cac" />
    <path
       style="fill:none;stroke:#000000;stroke-width:6.25;stroke-linecap:butt;stroke-linejoin:miter;stroke-miterlimit:3.79999995;stroke-opacity:1;stroke-dasharray:none"
       d="m -7046.7741,-4019.603 c -5.547,0 -28.347,-4.5024 -38.981,3.0335 -11.646,8.2538 -17.28,39.1821 -17.28,39.1821"
       id="path4515"
       inkscape:connector-curvature="0"
       sodipodi:nodetypes="cac" />
    <path
       style="fill:none;stroke:#000000;stroke-width:6.25;stroke-linecap:butt;stroke-linejoin:miter;stroke-miterlimit:3.79999995;stroke-opacity:1;stroke-dasharray:none"
       d="m -7036.5561,-4000.343 c -4.754,0 -25.385,-4.6134 -40.194,5.7855 -10.284,7.2221 -16.505,33.8962 -16.505,33.8962"
       id="path4517"
       inkscape:connector-curvature="0"
       sodipodi:nodetypes="csc" />
    <path
       style="fill:none;stroke:#000000;stroke-width:6.25;stroke-linecap:butt;stroke-linejoin:miter;stroke-miterlimit:3.79999995;stroke-opacity:1;stroke-dasharray:none"
       d="m -7075.8111,-3942.4341 c 0,0 23.453,1.5239 31.302,-8.8686 12.788,-16.9335 0.321,-53.0193 16.369,-61.5201 11.281,-5.9759 10.972,-17.9304 10.972,-17.9304"
       id="path4519"
       inkscape:connector-curvature="0"
       sodipodi:nodetypes="cssc" />
    <path
       style="fill:none;stroke:#000000;stroke-width:6.25;stroke-linecap:butt;stroke-linejoin:miter;stroke-miterlimit:3.79999995;stroke-opacity:1;stroke-dasharray:none"
       d="m -6964.2101,-4010.2301 c 0,0 -7.978,8.2076 -36.604,0.9284 -15.605,-3.9684 -36.01,21.6148 -36.01,21.6148"
       id="path4521"
       inkscape:connector-curvature="0"
       sodipodi:nodetypes="csc" />
    <path
       style="fill:none;stroke:#000000;stroke-width:6.25;stroke-linecap:butt;stroke-linejoin:miter;stroke-miterlimit:3.79999995;stroke-opacity:1;stroke-dasharray:none"
       d="m -6997.6841,-3995.8305 c 0,0 -20.258,10.8276 -23.772,20.7389 -3.121,8.8004 4.794,27.5985 4.794,27.5985"
       id="path4523"
       inkscape:connector-curvature="0"
       sodipodi:nodetypes="cac" />
    <path
       style="fill:none;stroke:#000000;stroke-width:6.25;stroke-linecap:butt;stroke-linejoin:miter;stroke-miterlimit:3.79999995;stroke-opacity:1;stroke-dasharray:none"
       d="m -7006.5441,-3913.1679 c 0.02,-0.018 -5.164,-8.5348 -10.254,-1.7167 -11.105,14.8745 5.901,37.9166 5.901,37.9166"
       id="path4525"
       inkscape:connector-curvature="0"
       sodipodi:nodetypes="csc" />
    <path
       style="fill:none;stroke:#000000;stroke-width:6.25;stroke-linecap:butt;stroke-linejoin:miter;stroke-miterlimit:3.79999995;stroke-opacity:1;stroke-dasharray:none"
       d="m -6989.7201,-3899.7304 c 0,0 -4.163,-8.2686 -9.773,-2.8337 -4.122,3.9924 1.559,19.8769 1.559,19.8769"
       id="path4527"
       inkscape:connector-curvature="0"
       sodipodi:nodetypes="csc" />
    <path
       style="fill:none;stroke:#000000;stroke-width:6.25;stroke-linecap:butt;stroke-linejoin:miter;stroke-miterlimit:3.79999995;stroke-opacity:1;stroke-dasharray:none"
       d="m -6972.8611,-3885.4234 c 0,0 -6.724,-5.7762 -9.509,3.9184 -2.266,7.884 7.459,19.4568 7.459,19.4568"
       id="path4529"
       inkscape:connector-curvature="0"
       sodipodi:nodetypes="csc" />
    <path
       style="fill:none;stroke:#000000;stroke-width:6.25;stroke-linecap:butt;stroke-linejoin:miter;stroke-miterlimit:3.79999995;stroke-opacity:1;stroke-dasharray:none"
       d="m -6952.4761,-3941.1538 c 2.377,7.1317 9.509,20.6029 3.169,26.9422 -6.339,6.3392 -15.848,3.962 -15.848,3.962"
       id="path4531"
       inkscape:connector-curvature="0" />
    <path
       style="fill:none;stroke:#000000;stroke-width:6.25;stroke-linecap:butt;stroke-linejoin:miter;stroke-miterlimit:3.79999995;stroke-opacity:1;stroke-dasharray:none"
       d="m -6959.6081,-3949.8704 c 0.792,6.3394 11.094,25.3573 -6.339,28.527 -17.433,3.1697 -20.603,3.9622 -20.603,3.9622"
       id="path4533"
       inkscape:connector-curvature="0" />
    <path
       style="fill:none;stroke:#000000;stroke-width:6.25;stroke-linecap:butt;stroke-linejoin:miter;stroke-miterlimit:3.79999995;stroke-opacity:1;stroke-dasharray:none"
       d="m -6967.5321,-3953.8325 c -3.962,8.7166 -3.17,28.527 -15.056,26.9422 -11.886,-1.5849 -23.773,-5.5469 -23.773,-5.5469"
       id="path4535"
       inkscape:connector-curvature="0" />
    <path
       style="fill:none;stroke:#000000;stroke-width:6.25;stroke-linecap:butt;stroke-linejoin:miter;stroke-miterlimit:3.79999995;stroke-opacity:1;stroke-dasharray:none"
       d="m -6976.4811,-3982.1672 c 0,0 -5.167,21.35 -13.103,27.854 -7.623,6.2476 -28.706,7.0866 -28.706,7.0866"
       id="path4537"
       inkscape:connector-curvature="0"
       sodipodi:nodetypes="cac" />
    <path
       style="fill:none;stroke:#000000;stroke-width:6.25;stroke-linecap:butt;stroke-linejoin:miter;stroke-miterlimit:3.79999995;stroke-opacity:1;stroke-dasharray:none"
       d="m -7264.8441,-4274.4157 124.885,88.455"
       id="path4539"
       inkscape:connector-curvature="0"
       sodipodi:nodetypes="cc" />
    <path
       style="fill:none;stroke:#000000;stroke-width:6.25;stroke-linecap:butt;stroke-linejoin:miter;stroke-miterlimit:3.79999995;stroke-opacity:1;stroke-dasharray:none"
       d="m -7278.4661,-4301.2879 c 1.585,3.1697 89.85,65.3551 108.868,74.8641 19.018,9.5091 29.45,-2.0012 29.45,-2.0012 0,0 -1.593,10.8712 7.219,27.0668 5.288,9.7177 22.229,24.646 22.229,24.646"
       id="path4541"
       inkscape:connector-curvature="0"
       sodipodi:nodetypes="cscsc" />
    <path
       style="fill:none;stroke:#000000;stroke-width:6.25;stroke-linecap:butt;stroke-linejoin:miter;stroke-miterlimit:3.79999995;stroke-opacity:1;stroke-dasharray:none"
       d="m -7115.7141,-4208.9906 40.136,44.3232"
       id="path4543"
       inkscape:connector-curvature="0"
       sodipodi:nodetypes="cc" />
    <path
       style="fill:none;stroke:#000000;stroke-width:6.25;stroke-linecap:butt;stroke-linejoin:miter;stroke-miterlimit:3.79999995;stroke-opacity:1;stroke-dasharray:none"
       d="m -7079.2631,-4196.3121 c 0,0 4.493,15.7178 30.904,27.7347 11.653,5.3018 7.837,17.4751 7.837,17.4751"
       id="path4545"
       inkscape:connector-curvature="0"
       sodipodi:nodetypes="csc" />
    <path
       sodipodi:nodetypes="csscscsczcszc"
       inkscape:connector-curvature="0"
       id="path4361"
       d="m -4328.2531,-2101.9008 c 0,0 17.46,-16.9329 19.922,-65.3857 3.11,-61.2035 11.782,-60.9047 17.78,-69.8671 6.506,-9.7212 13.71,4.8886 13.71,4.8886 0,0 5.917,-14.0874 11.996,-13.0365 9.426,1.6295 6.855,16.2956 6.855,16.2956 0,0 3.318,-16.9542 11.997,-17.9251 14.566,-1.6295 10.282,26.0729 10.282,26.0729 0,0 -0.257,-15.9423 10.282,-8.1478 10.54,7.7945 1.714,24.4433 1.714,24.4433 0,0 5.728,-13.2571 15.424,-4.0739 15.342,14.53 -6.755,61.8372 -5.141,79.8481 1.613,18.0109 5.998,38.2944 5.998,38.2944"
       style="fill:none;stroke:#000000;stroke-width:6.25;stroke-linecap:square;stroke-linejoin:round;stroke-miterlimit:4;stroke-opacity:1;stroke-dasharray:none;display:inline" />
    <path
       sodipodi:nodetypes="csc"
       inkscape:connector-curvature="0"
       id="path4363"
       d="m -4210.5121,-2152.863 c 0,0 6.924,-25.0785 17.645,-17.479 10.752,7.6228 11.139,107.5505 11.139,107.5505"
       style="fill:none;stroke:#000000;stroke-width:6.25;stroke-linecap:square;stroke-linejoin:round;stroke-miterlimit:4;stroke-opacity:1;stroke-dasharray:none;display:inline" />
    <path
       sodipodi:nodetypes="czsscc"
       inkscape:connector-curvature="0"
       id="path4365"
       d="m -4261.4171,-2244.4867 c 0,0 23.565,-45.2129 17.994,-70.8855 -5.571,-25.6726 12.044,-26.0728 19.708,-26.0728 13.817,0 24.849,4.8887 32.561,17.925 4.201,7.1014 1.714,29.332 1.714,29.332 l 0,0"
       style="fill:none;stroke:#000000;stroke-width:6.25;stroke-linecap:square;stroke-linejoin:round;stroke-miterlimit:4;stroke-opacity:1;stroke-dasharray:none;display:inline" />
    <path
       sodipodi:nodetypes="cscsczzc"
       inkscape:connector-curvature="0"
       id="path4367"
       d="m -4187.7261,-2313.7427 c 0,0 5.141,-11.4068 10.282,-4.8886 5.142,6.5183 6.855,45.6275 6.855,45.6275 0,0 4.285,-18.7399 11.14,-12.2216 6.854,6.5182 7.711,64.3673 7.711,64.3673 0,0 3.635,-19.6623 11.14,-19.5547 7.504,0.108 6.23,22.0232 21.421,55.405 15.192,33.3815 29.137,56.7777 73.692,83.107"
       style="fill:none;stroke:#000000;stroke-width:6.25;stroke-linecap:square;stroke-linejoin:round;stroke-miterlimit:4;stroke-opacity:1;stroke-dasharray:none;display:inline" />
    <path
       sodipodi:nodetypes="cscscssc"
       inkscape:connector-curvature="0"
       id="path4369"
       d="m -4212.5761,-2341.445 c 0,0 -5.188,-72.0574 6.856,-73.3299 7.711,-0.8147 8.568,9.7774 8.568,9.7774 0,0 -5.998,-57.0343 2.571,-57.0343 8.569,0 10.282,11.4068 10.282,11.4068 0,0 -2.509,-90.1609 41.987,-102.6617 37.702,-10.5921 54.84,8.9625 63.409,26.8876 8.568,17.925 13.709,42.3683 13.709,42.3683"
       style="fill:none;stroke:#000000;stroke-width:6.25;stroke-linecap:square;stroke-linejoin:round;stroke-miterlimit:4;stroke-opacity:1;stroke-dasharray:none;display:inline" />
    <path
       sodipodi:nodetypes="cszscscscscscssssc"
       inkscape:connector-curvature="0"
       id="path4371"
       d="m -4126.8881,-2207.8218 c 0,0 -1.858,-53.3418 7.711,-53.7752 17.995,-0.8147 17.535,32.4452 7.712,29.332 -9.822,-3.1133 -3.023,-52.7032 8.569,-54.5901 15.669,-2.5504 12.853,51.331 12.853,51.331 0,0 -3.427,-175.1768 5.998,-173.5473 9.426,1.6296 6.855,39.1093 6.855,39.1093 0,0 -1.316,-111.5234 10.283,-114.0687 11.139,-2.4442 10.282,17.1103 10.282,17.1103 0,0 -3.51,-37.792 13.71,-37.4797 15.881,0.288 13.71,116.5129 13.71,116.5129 0,0 -0.185,-20.3386 5.998,-19.5546 12.853,1.6296 11.996,87.9958 11.996,87.9958 0,0 0,-19.5546 11.996,-18.7397 11.997,0.8147 10.283,92.0696 23.993,96.1435 13.71,4.0739 12.853,-21.1842 23.992,-21.1842 11.14,0 -6.855,83.9221 31.704,136.8825 38.56,52.9604 113.964,92.8844 113.964,92.8844"
       style="fill:none;stroke:#000000;stroke-width:6.25;stroke-linecap:square;stroke-linejoin:round;stroke-miterlimit:4;stroke-opacity:1;stroke-dasharray:none;display:inline" />
    <path
       inkscape:original-d="m -3890.8741,-2096.9281 c -2.143,-8.1498 -6.798,-167.289 -9.503,-250.9555 -2.898,-89.6001 39.668,-163.5557 -7.208,-268.8405 -9.726,-21.8447 -21.876,-62.671 -2.726,-83.9273 11.18,-12.4103 51.165,-6.0275 51.165,-6.0275"
       inkscape:path-effect="#path-effect4381-0"
       sodipodi:nodetypes="casac"
       inkscape:connector-curvature="0"
       id="path4373"
       d="m -3890.8741,-2096.9281 c -11.5396,-83.0542 -14.7285,-167.2664 -9.503,-250.9555 5.625,-90.0883 20.6481,-182.9826 -7.208,-268.8405 -4.531,-13.9656 -10.1932,-27.7023 -12.2297,-42.2426 -1.0182,-7.2701 -1.1061,-14.7178 0.3319,-21.9167 1.4379,-7.1989 4.4455,-14.1507 9.1718,-19.768 6.0889,-7.2369 14.9964,-12.0374 24.3891,-13.1439 9.3927,-1.1065 19.172,1.4926 26.7759,7.1164"
       style="fill:none;stroke:#000000;stroke-width:6.25;stroke-linecap:square;stroke-linejoin:round;stroke-miterlimit:4;stroke-opacity:1;stroke-dasharray:none;display:inline" />
    <path
       sodipodi:nodetypes="cssczcscscssssssc"
       inkscape:connector-curvature="0"
       id="path4375"
       d="m -3885.8541,-2716.559 c 0,0 20.54,-125.3753 22.683,-149.8246 2.142,-24.4494 3.981,-61.7202 44.997,-63.1609 10.706,-0.376 8.57,16.2996 8.57,16.2996 0,0 1.841,-24.6057 14.999,-22.3095 13.159,2.2962 10.714,48.7963 10.714,48.7963 0,0 -2.892,-18.2581 6.428,-20.3745 11.601,-2.6342 10.714,22.4119 10.714,22.4119 0,0 14.999,14.2622 32.14,20.3745 17.142,6.1123 4.286,50.9361 4.286,50.9361 0,0 10.134,-34.7939 27.855,-26.4867 21.13,9.9055 -7.163,274.5256 1.407,307.1248 0,0 -3.64,-51.5647 33.396,-40.3818 29.251,8.8321 1.471,74.8063 3.614,113.5179 2.142,38.7114 38.721,157.6248 28.007,228.9355 -10.713,71.3107 19.284,228.1939 40.712,254.6807 21.427,26.4869 53.567,87.6102 44.997,85.5729"
       style="fill:none;stroke:#000000;stroke-width:6.25;stroke-linecap:square;stroke-linejoin:round;stroke-miterlimit:4;stroke-opacity:1;stroke-dasharray:none;display:inline" />
    <path
       sodipodi:nodetypes="czc"
       inkscape:connector-curvature="0"
       id="path4377"
       d="m -4137.5911,-2533.9247 c -9.601,6.0386 -16.639,17.3567 -22.821,41.0881 -6.183,23.7313 2.042,65.453 -9.057,97.5486"
       style="fill:none;stroke:#000000;stroke-width:6.25;stroke-linecap:square;stroke-linejoin:round;stroke-miterlimit:4;stroke-opacity:1;stroke-dasharray:none;display:inline" />
    <path
       sodipodi:nodetypes="csc"
       inkscape:connector-curvature="0"
       id="path4379"
       d="m -4119.8701,-2520.8695 c 0,0 -15.053,12.3232 -21.426,31.3588 -8.7,25.9847 -0.492,30.5434 -4.203,56.4148"
       style="fill:none;stroke:#000000;stroke-width:6.25;stroke-linecap:square;stroke-linejoin:round;stroke-miterlimit:4;stroke-opacity:1;stroke-dasharray:none;display:inline" />
    <path
       style="fill:none;stroke:#000000;stroke-width:6.25;stroke-linecap:square;stroke-linejoin:round;stroke-miterlimit:3.79999995;stroke-opacity:1;stroke-dasharray:none"
       d="m -2638.8821,-3848.031 0,119.6133 c 0,72.4536 183.1157,131.1888 409.0004,131.1888 225.8847,0 409.0004,-58.7352 409.0004,-131.1888 l 0,-111.8964"
       id="path4645"
       inkscape:connector-curvature="0"
       sodipodi:nodetypes="csc" />
    <path
       transform="matrix(0.8435893,0,0,0.8435893,4707.6912,-3202.4381)"
       d="m -7739.0414,-760.71906 a 484.83356,155.51265 0 1 1 -969.6672,0 484.83356,155.51265 0 1 1 969.6672,0 z"
       sodipodi:ry="155.51265"
       sodipodi:rx="484.83356"
       sodipodi:cy="-760.71906"
       sodipodi:cx="-8223.875"
       id="path4647"
       style="fill:none;stroke:#000000;stroke-width:7.40881872;stroke-linecap:square;stroke-linejoin:round;stroke-miterlimit:3.79999995;stroke-opacity:1;stroke-dasharray:none"
       sodipodi:type="arc" />
    <path
       sodipodi:type="arc"
       style="fill:none;stroke:#000000;stroke-width:8.10626698;stroke-linecap:square;stroke-linejoin:round;stroke-miterlimit:3.79999995;stroke-opacity:1;stroke-dasharray:none"
       id="path4650"
       sodipodi:cx="-8223.875"
       sodipodi:cy="-760.71906"
       sodipodi:rx="484.83356"
       sodipodi:ry="155.51265"
       d="m -7739.0414,-760.71906 a 484.83356,155.51265 0 1 1 -969.6672,0 484.83356,155.51265 0 1 1 969.6672,0 z"
       transform="matrix(0.80724645,0,0,0.73639704,4408.8122,-3285.4077)" />
    <path
       sodipodi:nodetypes="csc"
       inkscape:connector-curvature="0"
       id="path4658"
       d="m -2574.7664,-3990.3392 0,100.8625 c 0,61.0956 154.4102,110.6234 344.8847,110.6234 190.4745,0 344.8847,-49.5278 344.8847,-110.6234 l 0,-94.3553"
       style="fill:#ffffff;stroke:#000000;stroke-width:6.25;stroke-linecap:square;stroke-linejoin:round;stroke-miterlimit:3.79999995;stroke-opacity:1;stroke-dasharray:none" />
    <path
       sodipodi:type="arc"
       style="fill:#ffffff;stroke:#000000;stroke-width:8.78615379;stroke-linecap:square;stroke-linejoin:round;stroke-miterlimit:3.79999995;stroke-opacity:1;stroke-dasharray:none"
       id="path4660"
       sodipodi:cx="-8223.875"
       sodipodi:cy="-760.71906"
       sodipodi:rx="484.83356"
       sodipodi:ry="155.51265"
       d="m -7739.0414,-760.71906 a 484.83356,155.51265 0 1 1 -969.6672,0 484.83356,155.51265 0 1 1 969.6672,0 z"
       transform="matrix(0.71134649,0,0,0.71134649,3620.1429,-3445.9507)" />
    <path
       transform="matrix(0.66087608,0,0,0.60287313,3205.0805,-3529.6713)"
       d="m -7739.0414,-760.71906 a 484.83356,155.51265 0 1 1 -969.6672,0 484.83356,155.51265 0 1 1 969.6672,0 z"
       sodipodi:ry="155.51265"
       sodipodi:rx="484.83356"
       sodipodi:cy="-760.71906"
       sodipodi:cx="-8223.875"
       id="path4662"
       style="fill:#ffffff;stroke:#000000;stroke-width:9.61326218;stroke-linecap:square;stroke-linejoin:round;stroke-miterlimit:3.79999995;stroke-opacity:1;stroke-dasharray:none"
       sodipodi:type="arc" />
    <path
       style="fill:#ffffff;stroke:#000000;stroke-width:6.25;stroke-linecap:square;stroke-linejoin:round;stroke-miterlimit:3.79999995;stroke-opacity:1;stroke-dasharray:none"
       d="m -2501.6998,-4114.4275 0,79.4939 c 0,48.152 121.6972,87.1869 271.8181,87.1869 150.1209,0 271.8181,-39.0349 271.8181,-87.1869 l 0,-74.3653"
       id="path4664"
       inkscape:connector-curvature="0"
       sodipodi:nodetypes="csc" />
    <path
       transform="matrix(0.56064192,0,0,0.56064192,2380.7673,-3685.3722)"
       d="m -7739.0414,-760.71906 a 484.83356,155.51265 0 1 1 -969.6672,0 484.83356,155.51265 0 1 1 969.6672,0 z"
       sodipodi:ry="155.51265"
       sodipodi:rx="484.83356"
       sodipodi:cy="-760.71906"
       sodipodi:cx="-8223.875"
       id="path4666"
       style="fill:#ffffff;stroke:#000000;stroke-width:11.14793587;stroke-linecap:square;stroke-linejoin:round;stroke-miterlimit:3.79999995;stroke-opacity:1;stroke-dasharray:none"
       sodipodi:type="arc" />
    <path
       sodipodi:type="arc"
       style="fill:#ffffff;stroke:#000000;stroke-width:12.19737625;stroke-linecap:square;stroke-linejoin:round;stroke-miterlimit:3.79999995;stroke-opacity:1;stroke-dasharray:none"
       id="path4668"
       sodipodi:cx="-8223.875"
       sodipodi:cy="-760.71906"
       sodipodi:rx="484.83356"
       sodipodi:ry="155.51265"
       d="m -7739.0414,-760.71906 a 484.83356,155.51265 0 1 1 -969.6672,0 484.83356,155.51265 0 1 1 969.6672,0 z"
       transform="matrix(0.51458977,0,0,0.4694259,2002.0402,-3755.71)" />
    <g
       id="g4793"
       transform="translate(7767.5633,-5585.0071)">
      <path
         sodipodi:nodetypes="ccccc"
         inkscape:connector-curvature="0"
         id="rect4774"
         d="m -8770.7682,1074.5031 317.48,0 0,645.7608 -317.48,0 z"
         style="fill:none;stroke:#000000;stroke-width:6;stroke-linecap:square;stroke-linejoin:miter;stroke-miterlimit:3.875;stroke-opacity:1;stroke-dasharray:none" />
      <path
         sodipodi:nodetypes="ccccc"
         inkscape:connector-curvature="0"
         id="rect4776"
         d="m -8729.1666,1110.638 235.7432,0 0,576.6912 -235.7432,0 z"
         style="fill:none;stroke:#000000;stroke-width:6;stroke-linecap:square;stroke-linejoin:miter;stroke-miterlimit:3.875;stroke-opacity:1;stroke-dasharray:none" />
      <path
         sodipodi:nodetypes="cccc"
         inkscape:connector-curvature="0"
         id="rect4778"
         d="m -8495.9576,1661.9941 -200.2742,0 0,-525.8881 198.2742,0"
         style="fill:none;stroke:#000000;stroke-width:6;stroke-linecap:square;stroke-linejoin:miter;stroke-miterlimit:3.875;stroke-opacity:1;stroke-dasharray:none" />
      <path
         sodipodi:nodetypes="cc"
         inkscape:connector-curvature="0"
         id="path4783"
         d="m -8729.4366,1111.1257 32.8908,25.0969"
         style="fill:none;stroke:#000000;stroke-width:6;stroke-linecap:butt;stroke-linejoin:miter;stroke-miterlimit:3.875;stroke-opacity:1;stroke-dasharray:none" />
      <path
         sodipodi:nodetypes="cc"
         inkscape:connector-curvature="0"
         id="path4785"
         d="m -8728.2124,1687.1301 33.6666,-25.5453"
         style="fill:none;stroke:#000000;stroke-width:6;stroke-linecap:butt;stroke-linejoin:miter;stroke-miterlimit:3.875;stroke-opacity:1;stroke-dasharray:none" />
      <path
         transform="translate(-4623.7873,1501.2887)"
         d="m -4005.0981,-70.02449 c 0,15.212893 -11.0992,27.545379 -24.7908,27.545379 -13.6916,0 -24.7909,-12.332486 -24.7909,-27.545379 0,-15.212893 11.0993,-27.54538 24.7909,-27.54538 13.6916,0 24.7908,12.332487 24.7908,27.54538 z"
         sodipodi:ry="27.54538"
         sodipodi:rx="24.79084"
         sodipodi:cy="-70.02449"
         sodipodi:cx="-4029.8889"
         id="path4787"
         style="fill:none;stroke:#000000;stroke-width:6;stroke-linecap:square;stroke-linejoin:miter;stroke-miterlimit:3.875;stroke-opacity:1;stroke-dasharray:none"
         sodipodi:type="arc" />
      <path
         sodipodi:type="arc"
         style="fill:none;stroke:#000000;stroke-width:10.74832726;stroke-linecap:square;stroke-linejoin:miter;stroke-miterlimit:3.875;stroke-opacity:1;stroke-dasharray:none"
         id="path4789"
         sodipodi:cx="-4029.8889"
         sodipodi:cy="-70.02449"
         sodipodi:rx="24.79084"
         sodipodi:ry="27.54538"
         d="m -4005.0981,-70.02449 c 0,15.212893 -11.0992,27.545379 -24.7908,27.545379 -13.6916,0 -24.7909,-12.332486 -24.7909,-27.545379 0,-15.212893 11.0993,-27.54538 24.7909,-27.54538 13.6916,0 24.7908,12.332487 24.7908,27.54538 z"
         transform="matrix(0.55822639,0,0,0.55822639,-6404.0859,1470.3537)" />
    </g>
    <text
       sodipodi:linespacing="125%"
       id="text5034"
       y="-3299.573"
       x="-7892.1885"
       style="font-size:72.02926636px;font-style:normal;font-variant:normal;font-weight:normal;font-stretch:normal;text-align:start;line-height:125%;letter-spacing:4.69990969px;word-spacing:0px;writing-mode:lr-tb;text-anchor:start;fill:#000000;fill-opacity:1;stroke:none;font-family:Cicle;-inkscape-font-specification:Cicle"
       xml:space="preserve"><tspan
         y="-3299.573"
         x="-7892.1885"
         id="tspan5036"
         sodipodi:role="line">1. Traag, langzaam verkeer</tspan></text>
    <text
       xml:space="preserve"
       style="font-size:72.02926636px;font-style:normal;font-variant:normal;font-weight:normal;font-stretch:normal;text-align:start;line-height:125%;letter-spacing:4.69990969px;word-spacing:0px;writing-mode:lr-tb;text-anchor:start;fill:#000000;fill-opacity:1;stroke:none;font-family:Cicle;-inkscape-font-specification:Cicle"
       x="-5742.3989"
       y="-3299.2488"
       id="text5038"
       sodipodi:linespacing="125%"><tspan
         sodipodi:role="line"
         id="tspan5040"
         x="-5742.3989"
         y="-3299.2488">2. Groen en open ruimte voor iedereen </tspan></text>
    <text
       sodipodi:linespacing="125%"
       id="text5042"
       y="-3299.429"
       x="-3117.3164"
       style="font-size:72.02926636px;font-style:normal;font-variant:normal;font-weight:normal;font-stretch:normal;text-align:start;line-height:125%;letter-spacing:4.69990969px;word-spacing:0px;writing-mode:lr-tb;text-anchor:start;fill:#000000;fill-opacity:1;stroke:none;font-family:Cicle;-inkscape-font-specification:Cicle"
       xml:space="preserve"><tspan
         y="-3299.429"
         x="-3117.3164"
         id="tspan5044"
         sodipodi:role="line">3. Betekenisvol erfgoed vandaag</tspan></text>
    <text
       xml:space="preserve"
       style="font-size:72.02926636px;font-style:normal;font-variant:normal;font-weight:normal;font-stretch:normal;text-align:start;line-height:125%;letter-spacing:4.69990969px;word-spacing:0px;writing-mode:lr-tb;text-anchor:start;fill:#000000;fill-opacity:1;stroke:none;font-family:Cicle;-inkscape-font-specification:Cicle"
       x="-668.68927"
       y="-3292.7302"
       id="text5046"
       sodipodi:linespacing="125%"><tspan
         sodipodi:role="line"
         id="tspan5048"
         x="-668.68927"
         y="-3292.7302">4. Klanken van de stad</tspan></text>
    <text
       sodipodi:linespacing="125%"
       id="text5050"
       y="-3299.3928"
       x="829.80902"
       style="font-size:72.02926636px;font-style:normal;font-variant:normal;font-weight:normal;font-stretch:normal;text-align:start;line-height:125%;letter-spacing:4.69990969px;word-spacing:0px;writing-mode:lr-tb;text-anchor:start;fill:#000000;fill-opacity:1;stroke:none;font-family:Cicle;-inkscape-font-specification:Cicle"
       xml:space="preserve"><tspan
         y="-3299.3928"
         x="829.80902"
         id="tspan5052"
         sodipodi:role="line">5. Werkplaatsen voor stilte en rust</tspan></text>
  </g>
  <g
     inkscape:groupmode="layer"
     id="layer4"
     inkscape:label="u">
    <g
       id="g5018"
       transform="translate(1310.0394,-120.84744)">
      <g
         style="stroke:#000000;stroke-width:6.25;stroke-miterlimit:3.875;stroke-dasharray:none;display:inline"
         transform="translate(-7730.5063,-541.78372)"
         id="g4894">
        <path
           sodipodi:nodetypes="csssc"
           inkscape:connector-curvature="0"
           id="rect4890"
           d="m 1397.3696,-3359.5098 0,-1174.1217 c 0,-53.3221 37.9706,-96.2494 85.1359,-96.2494 47.1652,0 85.1358,42.9273 85.1358,96.2494 0,0 0,-193.4747 0,93.2318"
           style="fill:none;stroke:#000000;stroke-width:6.25;stroke-linecap:square;stroke-linejoin:miter;stroke-miterlimit:3.875;stroke-opacity:1;stroke-dasharray:none" />
        <path
           sodipodi:nodetypes="csssc"
           inkscape:connector-curvature="0"
           id="rect4892"
           d="m 1594.7418,-4440.3997 0,-93.2318 c 0,-53.3221 37.9706,-96.2494 85.1359,-96.2494 47.1652,0 85.1358,42.9273 85.1358,96.2494 l 0,1172.1217"
           style="fill:none;stroke:#000000;stroke-width:6.25;stroke-linecap:square;stroke-linejoin:miter;stroke-miterlimit:3.875;stroke-opacity:1;stroke-dasharray:none" />
      </g>
      <path
         sodipodi:nodetypes="csssc"
         inkscape:connector-curvature="0"
         id="rect4886"
         d="m -6458.6045,-3584.9845 0,-1139.9054 c 0,-84.4061 55.4935,-152.3575 124.4249,-152.3575 68.9313,0 124.4248,67.9514 124.4248,152.3575 l 0,56.4886"
         style="fill:none;stroke:#000000;stroke-width:6.25;stroke-linecap:square;stroke-linejoin:miter;stroke-miterlimit:3.875;stroke-opacity:1;stroke-dasharray:none;display:inline"
         transform="translate(0,-308.2677)" />
      <path
         sodipodi:nodetypes="csssc"
         inkscape:connector-curvature="0"
         id="rect4888"
         d="m -6088.8747,-4672.05 0,-52.8399 c 0,-84.4061 55.4935,-152.3575 124.4248,-152.3575 68.9314,0 124.4248,67.9514 124.4248,152.3575 l 0,1137.9054"
         style="fill:none;stroke:#000000;stroke-width:6.25;stroke-linecap:square;stroke-linejoin:miter;stroke-miterlimit:3.875;stroke-opacity:1;stroke-dasharray:none;display:inline"
         transform="translate(0,-308.2677)" />
      <g
         transform="translate(-7735.2181,-541.78372)"
         style="stroke:#000000;stroke-width:6.25;stroke-miterlimit:3.875;stroke-dasharray:none;display:inline"
         id="g4902">
        <path
           sodipodi:nodetypes="csc"
           inkscape:connector-curvature="0"
           id="path4880"
           d="m 1200.8557,-3344.4042 0,-252.3743 c 0,-212.656 172.3917,-385.0477 385.0477,-385.0477 212.6559,0 385.0477,172.3917 385.0477,385.0477 l 0,252.3743"
           style="fill:none;stroke:#000000;stroke-width:5.94015026;stroke-linecap:square;stroke-linejoin:miter;stroke-miterlimit:3.875;stroke-opacity:1;stroke-dasharray:none" />
      </g>
      <path
         sodipodi:nodetypes="caasssaac"
         inkscape:connector-curvature="0"
         id="rect4910"
         d="m -5767.4657,-3551.791 c 0,0 -18.5044,24.7902 -24,39.0444 -8.7746,22.7592 -2.1439,50.3152 -13.4472,71.9302 -9.3572,17.8934 -23.9229,35.3258 -42.5528,43.1142 -91.4996,38.2521 -194.5102,31.3781 -297.5208,31.3781 -103.0106,0 -206.0212,6.874 -297.5208,-31.3781 -18.6299,-7.7884 -33.1956,-25.2208 -42.5528,-43.1142 -11.3033,-21.615 -4.6726,-49.171 -13.4472,-71.9302 -5.4956,-14.2542 -24,-39.0444 -24,-39.0444"
         style="fill:none;stroke:#000000;stroke-width:6.25;stroke-linecap:square;stroke-linejoin:miter;stroke-miterlimit:3.875;stroke-opacity:1;stroke-dasharray:none;display:inline"
         transform="translate(0,-308.2677)" />
      <path
         transform="matrix(1.0638541,0,0,0.86753971,-7864.6853,-666.23285)"
         d="m 2287.0942,-2828.5164 c 0,99.9219 -306.9575,180.9246 -685.6088,180.9246 -378.6513,0 -685.60887,-81.0027 -685.60887,-180.9246 0,-99.9218 306.95757,-180.9245 685.60887,-180.9245 378.6513,0 685.6088,81.0027 685.6088,180.9245 z"
         sodipodi:ry="180.92456"
         sodipodi:rx="685.60883"
         sodipodi:cy="-2828.5164"
         sodipodi:cx="1601.4854"
         id="path4929"
         style="fill:none;stroke:#000000;stroke-width:6.50570393;stroke-linecap:square;stroke-linejoin:miter;stroke-miterlimit:3.875;stroke-opacity:1;stroke-dasharray:none;display:inline"
         sodipodi:type="arc" />
      <path
         sodipodi:type="arc"
         style="fill:none;stroke:#000000;stroke-width:8.76673031;stroke-linecap:square;stroke-linejoin:miter;stroke-miterlimit:3.875;stroke-opacity:1;stroke-dasharray:none;display:inline"
         id="path4931"
         sodipodi:cx="1601.4854"
         sodipodi:cy="-2828.5164"
         sodipodi:rx="685.60883"
         sodipodi:ry="180.92456"
         d="m 2287.0942,-2828.5164 c 0,99.9219 -306.9575,180.9246 -685.6088,180.9246 -378.6513,0 -685.60887,-81.0027 -685.60887,-180.9246 0,-99.9218 306.95757,-180.9245 685.60887,-180.9245 378.6513,0 685.6088,81.0027 685.6088,180.9245 z"
         transform="matrix(0.88135413,0,0,0.57667919,-7572.4142,-1504.6921)" />
      <path
         sodipodi:nodetypes="csc"
         inkscape:connector-curvature="0"
         id="path4933"
         d="m -6741.1677,-2800.643 c 0,-48.59 259.7775,-87.9799 580.2293,-87.9799 320.4517,0 580.2291,39.3899 580.2291,87.9799"
         style="fill:none;stroke:#000000;stroke-width:6.25;stroke-linecap:square;stroke-linejoin:miter;stroke-miterlimit:3.875;stroke-opacity:1;stroke-dasharray:none;display:inline"
         transform="translate(0,-308.2677)" />
      <path
         sodipodi:nodetypes="casssac"
         inkscape:connector-curvature="0"
         id="rect4922"
         d="m -6249.4906,-3602.0152 c 0,0 11.4973,-59.3403 13.805,-89.4077 2.2805,-29.7151 0,-89.4077 0,-89.4077 0,-47.1286 37.8424,-85.0696 84.8485,-85.0696 47.0061,0 84.8485,37.941 84.8485,85.0696 0,0 -2.2805,59.6926 0,89.4077 2.3077,30.0674 13.805,89.4077 13.805,89.4077"
         style="fill:#ffffff;stroke:#000000;stroke-width:6.25;stroke-linecap:square;stroke-linejoin:miter;stroke-miterlimit:3.875;stroke-opacity:1;stroke-dasharray:none;display:inline"
         transform="translate(0,-308.2677)" />
      <path
         sodipodi:nodetypes="caccacc"
         inkscape:connector-curvature="0"
         id="rect4998"
         d="m -6288.2116,-4658.2588 c 0,0 86.8521,-16 130.7658,-16 43.9136,0 130.7657,16 130.7657,16 l -10,12.5101 c 0,0 -80.1587,-16 -120.7657,-16 -40.607,0 -120.7658,16 -120.7658,16 z"
         style="fill:none;stroke:#000000;stroke-width:6.25;stroke-linecap:square;stroke-linejoin:miter;stroke-miterlimit:3.875;stroke-opacity:1;display:inline"
         transform="translate(0,-308.2677)" />
      <path
         sodipodi:nodetypes="caccacc"
         inkscape:connector-curvature="0"
         id="rect4907"
         d="m -6561.3726,-3882.1483 c 0,0 277.8551,-28 417.2519,-28 139.3967,0 417.2518,28 417.2518,28 l 0,24.2387 c 0,0 -277.8551,-28 -417.2518,-28 -139.3968,0 -417.2519,28 -417.2519,28 z"
         style="fill:none;stroke:#000000;stroke-width:6.25;stroke-linecap:square;stroke-linejoin:miter;stroke-miterlimit:3.875;stroke-opacity:1;stroke-dasharray:none;display:inline" />
    </g>
  </g>
</svg>
