<?xml version="1.0" encoding="UTF-8" standalone="no"?>
<!-- Created with Inkscape (http://www.inkscape.org/) -->

<svg
   xmlns:dc="http://purl.org/dc/elements/1.1/"
   xmlns:cc="http://creativecommons.org/ns#"
   xmlns:rdf="http://www.w3.org/1999/02/22-rdf-syntax-ns#"
   xmlns:svg="http://www.w3.org/2000/svg"
   xmlns="http://www.w3.org/2000/svg"
   xmlns:sodipodi="http://sodipodi.sourceforge.net/DTD/sodipodi-0.dtd"
   xmlns:inkscape="http://www.inkscape.org/namespaces/inkscape"
   width="1000"
   height="1000"
   id="svg16253"
   version="1.1"
   inkscape:version="0.48.3.1 r9886"
   sodipodi:docname="New document 69">
  <defs
     id="defs16255">
    <inkscape:path-effect
       effect="spiro"
       id="path-effect16144"
       is_visible="true" />
    <inkscape:path-effect
       is_visible="true"
       id="path-effect16142"
       effect="spiro" />
    <inkscape:path-effect
       effect="spiro"
       id="path-effect16140"
       is_visible="true" />
  </defs>
  <sodipodi:namedview
     id="base"
     pagecolor="#ffffff"
     bordercolor="#666666"
     borderopacity="1.0"
     inkscape:pageopacity="0.0"
     inkscape:pageshadow="2"
     inkscape:zoom="0.49497475"
     inkscape:cx="1026.0501"
     inkscape:cy="532.01701"
     inkscape:document-units="px"
     inkscape:current-layer="layer1"
     showgrid="false"
     inkscape:showpageshadow="false"
     inkscape:window-width="1280"
     inkscape:window-height="744"
     inkscape:window-x="0"
     inkscape:window-y="27"
     inkscape:window-maximized="1" />
  <metadata
     id="metadata16258">
    <rdf:RDF>
      <cc:Work
         rdf:about="">
        <dc:format>image/svg+xml</dc:format>
        <dc:type
           rdf:resource="http://purl.org/dc/dcmitype/StillImage" />
        <dc:title></dc:title>
      </cc:Work>
    </rdf:RDF>
  </metadata>
  <g
     inkscape:label="Layer 1"
     inkscape:groupmode="layer"
     id="layer1"
     transform="translate(0,-52.362183)">
    <path
       style="font-size:35px;font-style:normal;font-variant:normal;font-weight:300;font-stretch:normal;text-align:center;line-height:125%;letter-spacing:0px;word-spacing:0px;writing-mode:lr-tb;text-anchor:middle;fill:#000000;fill-opacity:1;stroke:none;font-family:Source Sans Pro;-inkscape-font-specification:Source Sans Pro Light"
       d="m 40.06854,426.00243 0,258.69514 13.49714,0 1.6068,-16.06802 0.64272,0 c 8.15896,6.23902 16.83106,11.2651 25.70884,15.10394 9.11841,3.59924 17.95402,5.14177 26.35155,5.14177 10.07787,0 19.4837,-2.02637 28.60108,-6.10585 9.35802,-4.31908 17.46555,-10.39922 24.42339,-18.31755 7.19848,-8.15792 12.95366,-18.0476 17.03211,-29.56515 4.07947,-11.51756 6.10584,-24.56839 6.10584,-39.20598 0,-26.87396 -5.8359,-48.11408 -17.35346,-63.95072 -11.51756,-16.07625 -28.70391,-24.10203 -51.73903,-24.10203 -10.79771,0 -21.0941,2.75547 -31.17196,8.03401 -10.07786,5.27956 -19.72227,11.52218 -28.60108,18.96026 l 0.64272,-33.74284 0,-74.87698 -15.74666,0 z m 799.54475,35.99237 -2.24953,49.81086 -27.31563,1.6068 0,12.2117 26.99427,0 0,111.19071 c -0.001,7.67871 0.40672,14.73116 1.6068,21.20979 1.43867,6.47862 4.03166,12.15205 7.39129,16.71074 3.35861,4.55869 7.65661,7.88438 13.17578,10.28353 5.51815,2.63979 12.48987,3.85633 20.88843,3.85633 3.59821,0 8.13582,-0.40723 13.17578,-1.6068 5.0379,-1.20009 10.06398,-2.90048 15.10394,-4.82041 l -4.49905,-12.85442 c -3.12002,1.4397 -6.52644,2.65624 -10.60489,3.85633 -3.83987,0.95637 -7.56766,1.6068 -10.92626,1.6068 -5.99941,0 -10.94373,-0.89158 -14.78258,-2.57088 -3.60026,-1.91994 -6.51821,-4.59366 -8.67673,-7.71265 -2.16057,-3.35861 -3.54268,-6.92854 -4.49904,-11.24762 -0.71985,-4.55869 -1.28647,-9.58477 -1.28545,-15.10394 l 0,-112.79751 50.13223,0 0,-13.8185 -50.13223,0 0,-49.81086 -13.49713,0 z m -265.76508,41.77685 c -6.18613,-0.22726 -12.44085,0.73116 -18.31754,2.89225 -7.84029,2.8837 -14.87256,8.00974 -20.24571,14.46121 -5.37621,6.45508 -8.95729,14.15714 -10.28353,22.49523 -1.32708,8.34293 -0.34975,16.89832 2.89224,24.74476 4.19181,10.14542 11.41488,17.94908 19.28163,23.78067 7.81014,5.78953 16.16689,9.7418 23.78067,13.49714 7.60686,3.75184 14.75181,7.24012 20.56707,11.56897 5.75816,4.28638 10.2663,9.55505 12.53305,15.10394 2.05435,5.02896 2.33114,10.94281 0.96408,16.38938 -1.37368,5.4729 -4.40432,10.81921 -8.67673,14.78258 -4.28893,3.9787 -9.86556,6.67165 -15.74666,8.03401 -5.89891,1.36658 -12.2471,1.45913 -18.31754,0 -11.71303,-2.81491 -22.30647,-11.21409 -27.95836,-21.8525 l -4.82041,-8.9981 -18.31754,9.64082 4.82041,8.99809 c 8.52618,16.04858 23.78575,27.88966 41.45549,32.13604 9.03148,2.17096 18.7261,2.46075 27.95836,0.32085 9.25009,-2.14289 17.96823,-6.59123 25.06611,-13.17578 7.11443,-6.59987 12.37509,-15.1531 14.78258,-24.74475 2.41412,-9.61819 1.56979,-19.89432 -2.24952,-29.2438 -4.15394,-10.16867 -11.4205,-17.92893 -19.28163,-23.78067 -7.80403,-5.80927 -16.16054,-10.06008 -23.78067,-13.8185 -7.61322,-3.75514 -14.41634,-7.24773 -20.24571,-11.56898 -5.77275,-4.27939 -10.5628,-9.23615 -12.85441,-14.78258 -1.7521,-4.24062 -2.33417,-9.24572 -1.60681,-13.8185 0.72818,-4.57781 2.79106,-9.26021 5.78449,-12.85441 2.9965,-3.5978 7.13501,-6.40325 11.56898,-8.03401 4.43869,-1.63241 9.42866,-2.03902 14.13986,-1.28545 5.79305,0.92655 11.58071,3.90322 15.74666,8.03402 4.16588,4.13069 7.05837,9.64019 8.03401,15.4253 l 1.6068,10.28353 20.24571,-3.53497 -1.60681,-10.28353 c -1.70745,-10.12331 -6.52767,-19.44308 -13.81849,-26.6724 -7.29077,-7.22922 -16.85577,-11.87553 -26.99428,-13.49714 -2.0507,-0.32804 -4.0438,-0.56662 -6.10585,-0.64272 z m 149.75396,0 c -5.04252,0.19539 -9.98453,1.14178 -14.78258,2.89225 -9.6057,3.50442 -17.92625,9.85255 -23.78067,18.31754 -5.8605,8.47384 -8.97691,18.878 -8.67673,29.2438 0.30048,10.37711 4.02633,20.48397 10.60489,28.60108 5.88526,7.26161 13.46104,11.91213 20.88843,15.4253 7.38586,3.49352 14.49292,5.71106 21.20979,7.71265 6.71235,2.00014 13.01482,3.97541 18.31754,6.42721 5.26312,2.43349 9.85353,5.42466 12.85442,8.99809 3.65345,4.35055 5.74389,10.46298 5.78449,16.38938 0.0401,5.97072 -2.18233,12.28471 -5.78449,17.35346 -3.62294,5.09796 -8.77803,9.38517 -14.78258,11.89034 -6.03053,2.51597 -13.16639,3.21802 -19.92435,2.57088 -9.37613,-0.89775 -18.37686,-4.95718 -25.38747,-11.24761 -7.01063,-6.29044 -12.23482,-14.87771 -14.13986,-24.10204 l -2.24952,-11.56897 -23.13795,4.82041 2.24952,11.56897 c 2.95171,14.29247 10.34729,27.20992 21.20979,36.95645 10.8625,9.74653 24.6783,15.96241 39.20597,17.35346 10.43101,0.99853 21.26623,-0.68797 31.17196,-4.8204 9.93171,-4.14355 18.68635,-10.62567 25.06612,-19.60299 6.40057,-9.00652 10.03886,-20.19696 9.96217,-31.49332 -0.0782,-11.34089 -3.79643,-22.29912 -11.24762,-31.17196 -5.98831,-7.13091 -13.46394,-11.99245 -20.88842,-15.4253 -7.38488,-3.41455 -14.84745,-5.39978 -21.53115,-7.39129 -6.67919,-1.99028 -12.74609,-3.94394 -17.99619,-6.42721 -5.20855,-2.46363 -9.61717,-5.72166 -12.53305,-9.31945 -3.18942,-3.93541 -4.99323,-9.00982 -5.14177,-14.13986 -0.14891,-5.14136 1.53511,-10.81838 4.49905,-15.10394 2.97005,-4.29441 7.24337,-7.82824 12.21169,-9.64082 4.97796,-1.81607 10.86565,-1.95973 16.06802,-0.64272 4.93862,1.25028 9.64713,4.03794 13.17578,7.71265 3.52864,3.67482 6.02093,8.51179 7.06993,13.49714 l 2.57088,11.56898 23.13796,-4.82041 -2.57089,-11.56897 c -1.97715,-9.39638 -6.52518,-18.14006 -13.17578,-25.06612 -6.65058,-6.92596 -15.11479,-11.78328 -24.42339,-14.13986 -4.91841,-1.24513 -10.06142,-1.80188 -15.10394,-1.6068 z m -291.15255,1.6068 c -1.91699,0.17894 -3.90401,0.51829 -5.78448,0.96357 -7.52179,1.78306 -14.41854,5.8211 -19.92435,11.24762 -5.5059,5.42651 -9.35622,12.10711 -11.24762,19.60298 -1.89139,7.49587 -1.63034,15.42715 0.64273,22.81659 3.04939,9.91343 9.29812,17.83957 16.38938,24.10203 7.04973,6.22586 14.9448,11.03794 22.17387,15.4253 7.22369,4.38408 14.05604,8.4468 19.60298,13.49714 5.50298,5.01035 9.8382,11.05336 11.56898,17.35347 1.15916,4.21943 1.22074,9.02997 0.32136,13.49713 -0.90207,4.48064 -2.80828,8.91151 -5.46313,12.85442 -6.00349,8.91634 -16.06849,15.27485 -26.67291,17.0321 -10.60447,1.75736 -22.29184,-1.20955 -30.8506,-7.71265 l -6.10585,-4.49904 -9.31946,12.21169 6.10585,4.49905 c 12.0633,9.16592 27.79432,13.08189 42.74094,10.60489 14.94666,-2.47689 28.17338,-11.21347 36.63509,-23.78067 3.6983,-5.49264 6.69105,-11.64672 8.03401,-18.31754 1.3457,-6.68409 1.21146,-13.81768 -0.64272,-20.56707 -2.75829,-10.04043 -9.04074,-18.02518 -16.06802,-24.42339 -6.98331,-6.35821 -14.5896,-11.01737 -21.85251,-15.4253 -7.25755,-4.40465 -14.27235,-8.82708 -19.92435,-13.8185 -5.61045,-4.95481 -9.95748,-10.74856 -11.89033,-17.0321 -1.42836,-4.64333 -1.50999,-9.75054 -0.32137,-14.46122 1.18863,-4.71068 3.60966,-9.12273 7.06993,-12.53306 3.46034,-3.41053 7.80527,-5.94913 12.53306,-7.06993 4.72768,-1.1209 10.15881,-0.85148 14.78258,0.64272 4.25318,1.37429 8.17727,3.82188 11.24762,7.06993 l 5.14176,5.46313 11.24762,-10.6049 -5.14177,-5.46312 c -4.87607,-5.15833 -11.24197,-9.06525 -17.99618,-11.24762 -5.51664,-1.78244 -11.28112,-2.46506 -17.03211,-1.92816 z m -139.14906,2.24953 c -9.59762,0 -18.83995,2.10812 -27.95836,6.4272 -8.87777,4.07948 -16.90356,10.07787 -24.10203,17.99619 -6.95887,7.67871 -12.71302,17.32415 -17.0321,28.60108 -4.07948,11.27795 -6.10585,23.76421 -6.10585,37.92053 0,14.15734 2.02637,26.96497 6.10585,38.24189 4.31908,11.03834 10.15499,20.68276 17.35346,28.60108 7.19847,7.67871 15.46849,13.27398 25.06611,17.35346 9.83826,4.07948 20.45601,6.10585 31.49333,6.10585 12.71764,0 23.01403,-1.54253 31.17196,-5.14177 8.39856,-3.59924 16.17908,-7.4895 23.13795,-11.56897 l -6.42721,-12.2117 c -6.47863,4.79932 -13.53107,8.68958 -21.20979,11.56897 -7.43808,2.63979 -16.02946,3.85633 -25.38747,3.85633 -9.83826,0 -18.7546,-1.86389 -26.67292,-5.46313 -7.91832,-3.83884 -14.48693,-8.94667 -20.2457,-15.4253 -5.51918,-6.71823 -10.05679,-14.66226 -13.17578,-23.78067 -3.119,-9.35802 -4.58389,-19.41017 -4.82041,-30.20788 l 124.36649,0 c 0.48332,-2.15954 0.64272,-4.26767 0.64272,-6.42721 l 0,-6.42721 c 0,-25.43426 -5.91766,-45.21258 -17.67483,-59.13032 -11.75716,-13.9167 -27.88945,-20.88842 -48.52542,-20.88842 z m -5.14177,13.81849 c 1.81463,-0.19538 3.60361,0 5.46313,0 15.59704,0 28.1594,5.43382 37.27781,16.71075 9.11841,11.03834 13.49714,27.81696 13.49714,50.13222 l -109.90527,0 c 0.95945,-10.31747 3.06758,-19.47804 6.42721,-27.63699 3.59924,-8.39754 7.89724,-15.45101 13.17578,-21.20979 5.51917,-5.75878 11.59931,-10.37712 18.31754,-13.49714 5.03868,-2.3393 10.30279,-3.91412 15.74666,-4.49905 z m -175.78415,0.32085 c 9.83826,0 18.42963,1.94565 25.38747,5.78449 6.95887,3.59924 12.39166,8.70707 16.71074,15.4253 4.31909,6.47863 7.40055,14.34193 9.31946,23.45931 2.15954,9.11841 3.2136,18.6857 3.2136,29.2438 0,11.75819 -1.37902,22.62017 -4.49904,32.4574 -2.87939,9.59865 -6.93213,17.78692 -12.2117,24.74476 -5.27854,6.95886 -11.84252,12.55053 -19.28163,16.38938 -7.43808,3.83884 -15.46386,5.78448 -24.10203,5.78448 -6.71823,0 -14.25915,-1.78213 -23.13795,-5.14176 -8.87777,-3.3586 -18.35971,-9.19451 -27.95836,-17.35347 l 0,-102.51397 c 10.3185,-9.11738 20.20715,-16.0891 29.56516,-20.88843 9.35802,-5.03893 18.35611,-7.39129 26.99428,-7.39129 z"
       id="path16128"
       inkscape:connector-curvature="0" />
  </g>
</svg>
