<?xml version="1.0" encoding="UTF-8" standalone="no"?>
<!-- Created with Inkscape (http://www.inkscape.org/) -->

<svg
   xmlns:dc="http://purl.org/dc/elements/1.1/"
   xmlns:cc="http://creativecommons.org/ns#"
   xmlns:rdf="http://www.w3.org/1999/02/22-rdf-syntax-ns#"
   xmlns:svg="http://www.w3.org/2000/svg"
   xmlns="http://www.w3.org/2000/svg"
   version="1.1"
   width="248.03149"
   height="212.59842"
   id="svg3810">
  <defs
     id="defs3812" />
  <metadata
     id="metadata3815">
    <rdf:RDF>
      <cc:Work
         rdf:about="">
        <dc:format>image/svg+xml</dc:format>
        <dc:type
           rdf:resource="http://purl.org/dc/dcmitype/StillImage" />
        <dc:title></dc:title>
      </cc:Work>
    </rdf:RDF>
  </metadata>
  <g
     transform="translate(0,-839.76245)"
     id="layer1">
    <g
       transform="matrix(0.66177802,0,0,-0.66177802,-1131.9193,1126.5243)"
       id="g3756"
       style="fill:#ffffff;stroke:none;display:inline;enable-background:new">
      <path
         d="m 1875.0955,381.08074 c 0,18.73612 35.0837,33.9249 78.3617,33.9249 43.278,0 78.3617,-15.18878 78.3617,-33.9249"
         id="path3758"
         style="fill:#ffffff;stroke:none;display:inline;enable-background:new" />
      <path
         d="m -209.14986,-108.88409 c 0,49.404999 -92.51138,89.455661 -206.62996,89.455661 -114.11857,0 -206.62995,-40.050662 -206.62995,-89.455661 0,-49.40499 92.51138,-89.45565 206.62995,-89.45565 114.11858,0 206.62996,40.05066 206.62996,89.45565 z"
         transform="matrix(-0.37923667,0,0,0.37923667,1795.7783,422.37369)"
         id="path3760"
         style="fill:#ffffff;stroke:none;display:inline;enable-background:new" />
    </g>
    <g
       transform="translate(-0.5050766,-2.5456862)"
       id="g3888">
      <g
         transform="translate(1700.439,438.45378)"
         id="g3782">
        <g
           transform="matrix(0.66177802,0,0,-0.66177802,-2832.4196,688.69666)"
           id="g5683"
           style="fill:#ffffff;stroke-width:4.38071346;stroke-miterlimit:4;stroke-dasharray:none;display:inline;enable-background:new">
          <path
             d="m -1539.6562,-427.21875 c -14.4957,0 -27.6416,2.54545 -37.2813,6.71875 -4.8199,2.08665 -8.7787,4.55614 -11.5937,7.4375 -2.8151,2.88136 -4.5,6.24458 -4.5,9.8125 0,3.56793 1.6849,6.89989 4.5,9.78125 2.815,2.88136 6.7738,5.3821 11.5937,7.46875 9.6397,4.1733 22.7856,6.6875 37.2813,6.6875 14.4956,0 27.6102,-2.5142 37.25,-6.6875 4.8198,-2.08665 8.7786,-4.58739 11.5937,-7.46875 2.8151,-2.88136 4.5,-6.21332 4.5,-9.78125 0,-3.56792 -1.6849,-6.93114 -4.5,-9.8125 -2.8151,-2.88136 -6.7739,-5.35085 -11.5937,-7.4375 -9.6398,-4.1733 -22.7544,-6.71875 -37.25,-6.71875 z m 0,3 c 14.1447,0 26.9333,2.51649 36.0624,6.46875 4.5647,1.97614 8.2231,4.32192 10.6563,6.8125 0.7487,0.76633 1.3571,1.53247 1.875,2.3125 -2.2168,3.3284 -6.5712,6.54482 -12.5313,9.125 -9.1291,3.95229 -21.9177,6.4375 -36.0624,6.4375 -12.0161,0 -23.068,-1.81128 -31.7188,-4.78125 -8.1728,-2.80589 -14.1429,-6.69158 -16.875,-10.78125 0.5179,-0.78003 1.1263,-1.54617 1.875,-2.3125 2.4332,-2.49058 6.0605,-4.83636 10.625,-6.8125 9.1292,-3.95226 21.949,-6.46875 36.0938,-6.46875 z m -50.0313,18.6875 c 3.5545,4.35407 9.6366,7.88523 17.3437,10.53125 9.0387,3.10312 20.3733,4.9375 32.6876,4.9375 14.4956,0 27.6415,-2.51418 37.2812,-6.6875 5.5364,-2.3968 9.9351,-5.33147 12.75,-8.78125 0.2049,0.75272 0.3125,1.51694 0.3125,2.28125 0,2.63167 -1.1917,5.19692 -3.625,7.6875 -2.4332,2.49058 -6.0916,4.83636 -10.6563,6.8125 -9.1291,3.95226 -21.9177,6.4375 -36.0624,6.4375 -14.1448,0 -26.9646,-2.48524 -36.0938,-6.4375 -4.5645,-1.97614 -8.1918,-4.32192 -10.625,-6.8125 -2.4333,-2.49058 -3.6563,-5.05583 -3.6562,-7.6875 0,-0.76431 0.1388,-1.52853 0.3437,-2.28125 z"
             transform="matrix(1.5110807,0,0,-1.5110807,4280.0146,-228.27544)"
             id="path5685"
             style="font-size:medium;font-style:normal;font-variant:normal;font-weight:normal;font-stretch:normal;text-indent:0;text-align:start;text-decoration:none;line-height:normal;letter-spacing:normal;word-spacing:normal;text-transform:none;direction:ltr;block-progression:tb;writing-mode:lr-tb;text-anchor:start;baseline-shift:baseline;color:#000000;fill:#000000;fill-opacity:1;fill-rule:nonzero;stroke:none;stroke-width:4.38071346;marker:none;visibility:visible;display:inline;overflow:visible;enable-background:new;font-family:Sans;-inkscape-font-specification:Sans" />
        </g>
        <g
           id="g3776">
          <path
             d="m -1535.0312,414.84375 c -0.4062,7.7675 -3.4913,15.4462 -8.5626,21.34375 -3.4973,4.06724 -8.345,7.67164 -12.6562,12.59375 -2.1599,2.46589 -4.1687,5.26457 -5.5312,8.5625 -1.3713,3.31906 -2.0437,7.08083 -1.4376,10.90625 0.5416,3.41749 2.0334,6.4471 3.9063,9 1.8633,2.53965 4.0847,4.62397 6.2813,6.4375 4.3869,3.62201 8.7367,6.39246 11.5937,9.84375 3.8121,4.60505 5.5526,11.0691 4.9687,17.21875 -0.5877,6.19058 -3.4363,12.249 -7.6562,17.09375 -1.5735,1.80655 -3.5115,3.61826 -5.4375,5.8125 -1.9337,2.20294 -3.849,4.83787 -4.9687,8.09375 -0.9662,2.80942 -1.2264,5.82256 -0.7188,8.75 0.5075,2.92748 1.7694,5.67982 3.625,8 1.8557,2.32032 4.2558,4.14272 7,5.28125 2.7442,1.13855 5.7343,1.54383 8.6875,1.21875 l -0.875,-7.9375 c -1.5928,0.17534 -3.27,-0.0734 -4.75,-0.6875 -1.48,-0.61405 -2.8118,-1.62374 -3.8125,-2.875 -1.0008,-1.25142 -1.6951,-2.79634 -1.9688,-4.375 -0.2737,-1.57868 -0.146,-3.26591 0.375,-4.78125 0.6123,-1.78024 1.858,-3.60673 3.4376,-5.40625 1.5871,-1.8082 3.5132,-3.63448 5.4374,-5.84375 5.207,-5.97799 8.825,-13.49599 9.5938,-21.59375 0.7727,-8.13871 -1.4412,-16.61165 -6.7812,-23.0625 -3.947,-4.76795 -8.8153,-7.76621 -12.6563,-10.9375 -1.9175,-1.58311 -3.6136,-3.20688 -4.9063,-4.96875 -1.2828,-1.74862 -2.1753,-3.67944 -2.4687,-5.53125 -0.3275,-2.06678 0.031,-4.39913 0.9375,-6.59375 0.9154,-2.21573 2.3853,-4.35319 4.1562,-6.375 3.5502,-4.05327 8.437,-7.64548 12.7188,-12.625 6.2548,-7.27391 9.9679,-16.57611 10.4688,-26.15625 l -8,-0.40625 z"
             id="path5691"
             style="font-size:medium;font-style:normal;font-variant:normal;font-weight:normal;font-stretch:normal;text-indent:0;text-align:start;text-decoration:none;line-height:normal;letter-spacing:normal;word-spacing:normal;text-transform:none;direction:ltr;block-progression:tb;writing-mode:lr-tb;text-anchor:start;baseline-shift:baseline;color:#000000;fill:#ffffff;fill-opacity:1;stroke:none;stroke-width:8;marker:none;visibility:visible;display:inline;overflow:visible;enable-background:accumulate;font-family:Sans;-inkscape-font-specification:Sans" />
          <path
             d="m -1555.6338,547.35556 0.3242,5.9445 2.702,4.1071 3.3506,0.1072 0.5404,-1.6212 -3.2425,-4.7556 z"
             id="path5693"
             style="fill:#ffffff;stroke:none" />
          <g
             transform="scale(0.99694755,1.0030618)"
             id="text5701"
             style="font-size:26.64201355px;font-style:normal;font-variant:normal;font-weight:normal;font-stretch:normal;text-align:start;line-height:110.00000238%;letter-spacing:-0.1px;word-spacing:0px;writing-mode:lr-tb;text-anchor:start;fill:#000000;fill-opacity:1;stroke:none;font-family:EB Garamond;-inkscape-font-specification:EB Garamond">
            <path
               d="m -1535.0312,-425.65625 c -1.0738,1.05504 -1.7179,2.4676 -1.8438,3.96875 -0.096,1.13846 0.1385,2.2266 0.5,3.25 -0.9494,0.8072 -1.7162,1.8267 -2.0625,3.03125 -0.3032,1.06013 -0.2314,2.14793 -0.094,3.1875 -1.0699,0.61467 -2.0021,1.45775 -2.5626,2.5625 -0.5182,1.02237 -0.701,2.13412 -0.75,3.21875 -1.0978,0.36179 -2.1206,0.93987 -2.875,1.8125 -0.054,0.0642 -0.1357,0.15282 -0.1874,0.21875 -0.6822,0.87388 -1.0353,1.9206 -1.3126,2.96875 -1.2933,0.21752 -2.547,0.76527 -3.5312,1.75 -0.9353,0.93559 -1.5284,2.11789 -1.9062,3.3125 -1.4168,0.23846 -2.7948,0.89911 -3.8438,2.0625 -0.5435,0.60416 -0.9865,1.28723 -1.3125,2 -0.2526,0.54677 -0.406,1.12359 -0.5313,1.6875 -1.4214,0.51626 -2.7541,1.50332 -3.5937,2.96875 -0.7343,1.28134 -1.0689,2.71538 -1.0625,4.0625 10e-5,0.14937 0.023,0.29115 0.031,0.4375 -0.5561,0.431 -1.126,0.8851 -1.5312,1.53125 -0.5385,0.85841 -0.8858,1.84266 -1.0312,2.90625 -0.2293,1.69008 0.1308,3.33836 0.8124,4.6875 -0.056,0.12134 -0.1393,0.21624 -0.1874,0.34375 -0.544,1.51878 -0.5159,3.35776 0.094,5 0.6051,1.6327 1.7465,2.8282 2.9687,3.65625 0,0.53155 -0.022,1.05585 0.125,1.59375 0.2994,1.12135 0.8845,2.20969 1.6876,3.09375 1.0461,1.14939 2.3614,1.84763 3.6562,2.21875 0.2184,0.76152 0.4447,1.53472 0.9375,2.1875 0.4028,0.54666 0.8649,1.02473 1.4063,1.4375 1.1058,0.84347 2.3744,1.25388 3.5937,1.4375 0.4107,1.31663 1.1819,2.52311 2.2813,3.34375 0.9464,0.70471 2.0154,1.05936 3.0624,1.28125 0.2137,1.17267 0.66,2.29533 1.4063,3.15625 l 0.031,0.0312 c 0.01,0.0109 0.021,0.0204 0.031,0.0312 l 0.094,0.0625 c 0.6711,0.68337 1.5,1.10122 2.3437,1.5 -0.1646,1.19953 -0.048,2.41165 0.4687,3.5 0.444,0.93112 1.1663,1.6762 1.9063,2.34375 -0.4371,1.10276 -0.6591,2.27577 -0.4375,3.4375 0.2101,1.10252 0.7321,2.08761 1.3438,2.96875 -0.4881,0.67438 -0.9638,1.36315 -1.1563,2.15625 -0.082,0.34108 -0.1341,0.67695 -0.1563,1.03125 -0.062,1.04408 0.2045,2.04752 0.5313,3 -0.9284,0.77986 -1.6739,1.77356 -2.0313,2.9375 -0.3276,1.0679 -0.3152,2.15819 -0.1874,3.21875 -1.1034,0.56912 -2.0798,1.40965 -2.6876,2.5 -0.5342,0.9618 -0.6799,2.01863 -0.7812,3.0625 -0.5248,0.15648 -1.0676,0.28144 -1.5312,0.5625 -0.5873,0.35639 -1.1251,0.81557 -1.5938,1.375 -0.8246,0.984 -1.3347,2.20546 -1.625,3.4375 -0.8055,0.20414 -1.6283,0.45298 -2.3438,1 -0.01,0.006 -0.023,-0.006 -0.031,0 l 0,0.0312 c -0.5213,0.39601 -1.0009,0.85314 -1.4062,1.40625 -0.9231,1.26139 -1.4036,2.7749 -1.5,4.21875 -0.859,0.54819 -1.6139,1.33646 -2.1876,2.34375 l -0.094,0 -0.2187,0.4375 c -0.011,0.0219 -0.021,0.0405 -0.031,0.0625 l 0,0.0312 c -0.2027,0.45503 -0.3571,0.91761 -0.4687,1.40625 -0.4166,1.82039 -0.074,3.56699 0.5937,5 -0.372,0.67919 -0.7159,1.40445 -0.8125,2.25 -0.1204,1.05407 -0.017,2.18125 0.3438,3.25 0.1185,0.35447 0.2425,0.67217 0.4062,1 l 0.031,0 c 0.6495,1.28766 1.5873,2.30768 2.625,3 0.058,0.70018 0.091,1.39782 0.4063,2.09375 0.438,0.96701 1.0912,1.86626 1.9375,2.59375 1.0596,0.91111 2.3287,1.4928 3.5625,1.75 0.3967,0.0815 0.7737,0.0754 1.1563,0.0937 0.4335,0.643 0.9204,1.27518 1.625,1.75 0.8813,0.59428 1.9316,1.01201 3.0312,1.1875 1.2746,0.20219 2.5146,0.0436 3.625,-0.3125 0,0 0.1374,-0.0236 0.1875,-0.0312 0.044,-0.0152 0.082,-0.0466 0.125,-0.0625 0.1667,-0.0356 0.3241,-0.0881 0.5937,-0.21875 0.03,-0.014 0.064,-0.017 0.094,-0.0312 0.051,-0.0269 0.1047,-0.0622 0.1562,-0.0937 0.097,-0.0492 0.1875,-0.10356 0.2813,-0.15625 l 0,-0.0312 c 0.032,-0.0254 0.062,-0.0349 0.094,-0.0625 0.702,-0.6189 1.3162,-1.75801 1.4376,-3.625 0.1592,-2.45015 -0.7878,-4.07051 -1.8126,-4.96875 l 0,-0.0312 c -0.101,-0.0706 -0.211,-0.12061 -0.3124,-0.1875 -0.3174,-0.23797 -0.6278,-0.42701 -0.9063,-0.5625 -0.2469,-0.12012 -0.3367,-0.16279 -0.5,-0.21875 -0.045,-0.0154 -0.057,-0.0512 -0.094,-0.0625 -0.1082,-0.044 -0.2337,-0.0556 -0.3438,-0.0937 -0.104,-0.036 -0.2065,-0.0946 -0.3125,-0.125 -0.8789,-0.25257 -1.8066,-0.3034 -2.75,-0.21875 -0.031,0.003 -0.063,-0.003 -0.094,0 -0.011,-0.0207 -0.021,-0.042 -0.031,-0.0625 l -0.031,0 c -0.316,-0.60258 -0.6786,-1.16547 -1.125,-1.65625 -0.6105,-0.67251 -1.335,-1.19715 -2.1874,-1.625 -0.04,-0.0201 -0.085,-0.0429 -0.125,-0.0625 0.023,-0.51439 0.062,-1.05188 0,-1.53125 -0.021,-0.14876 -0.033,-0.29112 -0.063,-0.4375 -0.1789,-0.87576 -0.5539,-1.72548 -1.0624,-2.53125 -0.035,-0.0553 -0.089,-0.10145 -0.125,-0.15625 0.4031,-0.58649 0.836,-1.18342 1.0624,-1.8125 0.096,-0.26651 0.1576,-0.53819 0.2188,-0.8125 l 0,-0.0312 c 0.1066,-0.57506 0.1875,-1.19239 0.1875,-1.875 5e-4,-0.091 0,-0.1873 0,-0.28125 0.7107,-0.39723 1.4194,-0.80474 2,-1.4375 0.3606,-0.3927 0.6867,-0.83718 0.9687,-1.3125 0.01,-0.0116 0.024,-0.0197 0.031,-0.0312 0.3052,-0.50236 0.5705,-1.04783 0.7813,-1.625 0.067,-0.18383 0.039,-0.37602 0.094,-0.5625 1.0363,-0.37245 2.0623,-0.88425 2.9375,-1.71875 0.6057,-0.57711 1.1542,-1.25414 1.5938,-2 0.2936,-0.4971 0.5364,-1.02983 0.7187,-1.5625 0.07,-0.20538 0.1033,-0.41933 0.1563,-0.625 1.0423,-0.58709 2.0089,-1.3785 2.75,-2.40625 0.8664,-1.20102 1.4441,-2.61873 1.625,-4.03125 0.03,-0.23747 -0.041,-0.45521 -0.031,-0.6875 0.9702,-0.81193 1.7749,-1.85618 2.3125,-3.09375 0.5936,-1.36511 0.8468,-2.88609 0.7188,-4.3125 -0.021,-0.23342 -0.054,-0.46418 -0.094,-0.6875 0.7071,-0.97952 1.2603,-2.10816 1.5,-3.375 0.095,-0.50111 0.1452,-1.02402 0.1562,-1.53125 0.019,-1.00081 -0.1324,-1.99643 -0.4374,-2.90625 -0.079,-0.23481 -0.2156,-0.40543 -0.3126,-0.625 0.5074,-1.18827 0.7556,-2.52664 0.6563,-3.90625 -0.1088,-1.51793 -0.6044,-3.00261 -1.4063,-4.21875 -0.1369,-0.20783 -0.2867,-0.40473 -0.4374,-0.59375 0.1401,-1.21041 0.078,-2.48804 -0.3438,-3.71875 -0.4956,-1.44705 -1.3741,-2.77539 -2.4688,-3.75 -0.1952,-0.17388 -0.4207,-0.25702 -0.625,-0.40625 -0.1669,-1.29697 -0.6251,-2.58839 -1.4374,-3.75 -0.024,-0.0345 -0.062,-0.0819 -0.094,-0.125 -0.8987,-1.19206 -2.0682,-2.16227 -3.3125,-2.75 -0.2436,-0.11499 -0.474,-0.19401 -0.7187,-0.28125 -0.453,-1.03883 -0.9831,-2.07309 -1.8126,-2.875 -1.0038,-0.9716 -2.216,-1.67805 -3.4687,-2.0625 -0.2119,-0.065 -0.4144,-0.0784 -0.625,-0.125 -0.4685,-0.98739 -1.0583,-1.91959 -1.8437,-2.65625 -0.4648,-0.43607 -0.9702,-0.80895 -1.5,-1.125 -0.5054,-0.31036 -1.044,-0.55917 -1.5938,-0.75 -0.147,-0.051 -0.2904,-0.0828 -0.4375,-0.125 -0.2919,-0.85915 -0.6154,-1.70865 -1.125,-2.40625 -0.4978,-0.6818 -1.1013,-1.29068 -1.75,-1.78125 -0.011,-0.008 -0.02,-0.0231 -0.031,-0.0312 -0.1732,-0.12898 -0.3775,-0.26022 -0.5624,-0.375 -0.098,-0.0607 -0.2129,-0.0685 -0.3126,-0.125 0.028,-0.8365 0.038,-1.66104 -0.1562,-2.40625 -0.2383,-0.91656 -0.664,-1.74034 -1.1875,-2.5 0,0.003 9e-4,-0.0295 0,-0.0312 0,-0.005 -0.033,-0.0217 -0.062,-0.0625 -0.01,-0.007 0.01,-0.0245 0,-0.0312 -0.01,-0.012 -0.022,-0.0192 -0.031,-0.0312 0.344,-0.59469 0.6917,-1.18023 0.875,-1.84375 0.2573,-0.9309 0.3342,-1.93191 0.2187,-2.96875 -0.012,-0.10511 -0.047,-0.20783 -0.062,-0.3125 0.69,-0.50109 1.326,-1.05556 1.8438,-1.75 0.6442,-0.86422 1.154,-1.89329 1.4374,-3 0.028,-0.10652 0.039,-0.20687 0.063,-0.3125 0.3222,-0.13176 0.633,-0.26431 0.9374,-0.4375 0.5216,-0.29418 1.0398,-0.65495 1.5,-1.0625 0.9005,-0.79649 1.6381,-1.77866 2.1563,-2.90625 0.088,-0.19192 0.052,-0.39875 0.125,-0.59375 1.0593,-0.2968 2.1215,-0.70849 3.0313,-1.4375 1.0432,-0.83552 1.9257,-1.93772 2.5,-3.15625 0.09,-0.19209 0.1755,-0.36919 0.25,-0.5625 1.0596,-0.40798 2.0681,-1.01416 2.9374,-1.875 0.1141,-0.11245 0.238,-0.22799 0.3438,-0.34375 0.88,-0.97857 1.5451,-2.13554 1.9062,-3.34375 0.07,-0.23362 0.047,-0.45568 0.094,-0.6875 1.0753,-0.63186 2.0503,-1.49256 2.7812,-2.59375 0.8136,-1.22396 1.3381,-2.65643 1.4688,-4.0625 0.018,-0.22097 0.027,-0.43985 0.031,-0.65625 0.8643,-0.80396 1.6133,-1.78799 2.0938,-2.9375 0.5665,-1.35487 0.7934,-2.84431 0.6562,-4.25 -0.024,-0.24476 -0.1119,-0.45297 -0.1562,-0.6875 0.7509,-0.98625 1.3328,-2.17891 1.5938,-3.46875 0.2918,-1.44242 0.2241,-2.95627 -0.1876,-4.3125 -0.085,-0.28042 -0.2011,-0.54957 -0.3124,-0.8125 l -1.6563,0.71875 c 0.086,0.20387 0.1832,0.40508 0.25,0.625 0.3166,1.04367 0.3574,2.2899 0.125,3.4375 -0.1087,0.53763 -0.434,0.9226 -0.6563,1.40625 -0.1846,-0.35666 -0.3489,-0.7446 -0.5624,-1.0625 -0.761,-1.13306 -1.6356,-2.04656 -2.4688,-2.90625 -0.8279,-0.85397 -1.6278,-1.66676 -2.25,-2.5625 0,0.004 -6e-4,-0.0319 0,-0.0312 0,0.004 -0.027,-0.0494 -0.125,-0.15625 l -0.6562,0.59375 -0.625,-0.625 z m 0.6874,2.125 c 0.5471,0.66054 1.0866,1.34988 1.6563,1.9375 0.837,0.86357 1.669,1.66654 2.3125,2.625 0.6398,0.95249 1.1278,2.06092 1.25,3.3125 0.1055,1.08203 -0.081,2.29723 -0.5312,3.375 -0.2246,0.53647 -0.664,0.89247 -1,1.34375 -0.1143,-0.39596 -0.1295,-0.85633 -0.2813,-1.21875 -0.5267,-1.25823 -1.2265,-2.30611 -1.875,-3.3125 -0.6486,-1.00673 -1.258,-1.98935 -1.6875,-3 -0.4288,-1.00867 -0.677,-2.07277 -0.5938,-3.0625 0.06,-0.71472 0.3717,-1.38742 0.75,-2 z m -1.2187,6.78125 c 0.4067,0.76274 0.804,1.55771 1.25,2.25 0.6525,1.01251 1.273,1.9661 1.7187,3.03125 0.3365,0.80316 0.5852,1.67508 0.625,2.59375 l 0.063,0.0625 c 0,0.2287 -0.012,0.45281 -0.031,0.6875 -0.1005,1.08155 -0.5089,2.24489 -1.1563,3.21875 -0.2973,0.44813 -0.7446,0.67134 -1.125,1.03125 -0.037,-0.38939 -0.049,-0.79089 -0.125,-1.15625 -0.2781,-1.33593 -0.7719,-2.51451 -1.2187,-3.625 -0.4473,-1.11108 -0.8625,-2.17525 -1.0937,-3.25 0.01,0.0507 0,-0.0549 -0.063,-0.21875 l -0.062,0.0312 c -0.167,-0.96732 -0.1836,-1.94894 0.062,-2.8125 0.204,-0.70899 0.645,-1.30785 1.1563,-1.84375 z m -2.4687,6.3125 c 0.2569,0.83397 0.5024,1.66713 0.8124,2.4375 0.4497,1.11727 0.8897,2.18271 1.125,3.3125 0.2346,1.12303 0.2676,2.35584 -0.094,3.5625 -0.2783,0.93049 -0.8279,1.87424 -1.5313,2.65625 -0.088,0.0965 -0.1605,0.16175 -0.25,0.25 -0.4166,0.41259 -0.9307,0.55981 -1.4062,0.84375 0.039,-0.40376 0.192,-0.82886 0.1875,-1.21875 -0.01,-0.79045 -0.075,-1.52383 -0.1875,-2.25 -0.08,-0.51744 -0.1907,-1.04211 -0.2812,-1.53125 -0.2195,-1.1777 -0.4191,-2.30945 -0.4376,-3.40625 -0.018,-1.09447 0.143,-2.14233 0.5938,-3.03125 0.3322,-0.65512 0.8677,-1.19505 1.4688,-1.625 z m -3.6876,6.0625 c 0.092,0.78622 0.1427,1.59968 0.2813,2.34375 0.091,0.4913 0.207,0.95766 0.2813,1.4375 0.1042,0.67571 0.1795,1.35754 0.1874,2.03125 0.01,0.87028 -0.097,1.76805 -0.375,2.625 l 0.063,0.0625 c -0.074,0.20602 -0.1878,0.4262 -0.2813,0.625 -0.448,0.95119 -1.1426,1.83816 -1.9687,2.5 -0.4293,0.34379 -0.9303,0.46391 -1.4063,0.6875 0.06,-0.41798 0.2606,-0.84106 0.2813,-1.25 0.066,-1.30479 -0.044,-2.53374 -0.094,-3.71875 -0.051,-1.18316 -0.042,-2.33709 0.1562,-3.4375 -0.01,0.0404 -0.01,0.0301 0,-0.0312 0.01,-0.045 0.031,-0.11477 0.031,-0.21875 l -0.062,0 c 0.2212,-0.9654 0.6062,-1.88878 1.1562,-2.59375 0.039,-0.0491 0.054,-0.0784 0.094,-0.125 0.4179,-0.48348 1.0737,-0.66119 1.6562,-0.9375 z m -4.7187,4.8125 c -0.069,0.88092 -0.129,1.75581 -0.094,2.59375 0.052,1.22949 0.1214,2.40991 0.062,3.5625 -0.057,1.14811 -0.2485,2.28914 -0.7187,3.3125 -0.4088,0.88951 -1.0384,1.71412 -1.75,2.34375 -0.3416,0.30245 -0.7087,0.55735 -1.0937,0.78125 0,-0.10472 0.031,-0.20814 0.031,-0.3125 0,-0.34495 -0.014,-0.69519 -0.031,-1.03125 -0.066,-1.25191 -0.24,-2.42397 -0.3126,-3.59375 -0.072,-1.16685 -0.06,-2.34123 0.2188,-3.46875 0.2773,-1.12037 0.8573,-2.23186 1.6562,-3.03125 0.5838,-0.58396 1.298,-0.93546 2.0313,-1.15625 z m -5.5313,5.0625 c -0.1025,0.91174 -0.2401,1.83951 -0.1874,2.6875 0.078,1.25924 0.2523,2.44356 0.3124,3.59375 0.016,0.30978 0.032,0.63321 0.031,0.9375 5e-4,0.55625 -0.048,1.10425 -0.125,1.625 l 0.094,0.0625 c -0.035,0.19446 -0.078,0.38179 -0.125,0.5625 -0.2253,0.88013 -0.6231,1.67109 -1.125,2.34375 -0.241,0.32376 -0.5792,0.57115 -0.875,0.84375 -0.1114,-0.39585 -0.1859,-0.79809 -0.3124,-1.1875 -0.3715,-1.14283 -0.7839,-2.24894 -1.0626,-3.375 -0.278,-1.12177 -0.4219,-2.27849 -0.25,-3.46875 l 0,-0.0312 c 0.01,-0.0398 0.031,-0.0948 0.031,-0.1875 l -0.062,0 c 0.097,-0.49378 0.2188,-0.99542 0.4375,-1.46875 0.2556,-0.55899 0.5897,-1.07521 1,-1.53125 0.6235,-0.69149 1.4268,-1.14433 2.2187,-1.40625 z m -5.3124,5.78125 c 0.017,0.9452 -0.019,1.91657 0.1874,2.75 0.3108,1.25482 0.7384,2.40595 1.0938,3.5 0.2309,0.71023 0.4445,1.38897 0.5938,2.0625 l 0,0.0312 c 0.082,0.3597 0.1501,0.695 0.1874,1.03125 0.093,0.83102 0.036,1.58683 -0.1562,2.28125 -0.091,0.33037 -0.3162,0.65008 -0.4688,0.96875 -0.2727,-0.29918 -0.5327,-0.60391 -0.8124,-0.90625 -0.781,-0.84389 -1.5447,-1.67231 -2.1876,-2.625 -0.6396,-0.94848 -1.1607,-2.015 -1.3124,-3.25 -0.029,-0.23419 -0.031,-0.47352 -0.031,-0.71875 -0.01,-1.04418 0.2554,-2.2154 0.8125,-3.1875 0.5142,-0.89748 1.2993,-1.50563 2.0938,-1.9375 z m -4.25,7.59375 c 0.3053,0.9219 0.7034,1.78229 1.1874,2.5 0.7418,1.09889 1.5939,1.99956 2.375,2.84375 0.5942,0.64172 1.1707,1.26822 1.6563,1.84375 l 0.094,0 c 0.1015,0.12621 0.1888,0.25165 0.2813,0.375 l 0.031,0 c 0.01,0.009 -0.024,0.002 0,0.0312 0.4239,0.61626 0.7255,1.24237 0.9062,1.9375 0.087,0.33206 0.034,0.74964 0.062,1.125 -0.3839,-0.14436 -0.7442,-0.36946 -1.125,-0.5 -1.1134,-0.3819 -2.2145,-0.72164 -3.2187,-1.25 -0.8271,-0.43483 -1.5759,-0.97426 -2.2188,-1.78125 -0.1324,-0.17058 -0.2571,-0.33879 -0.375,-0.53125 0.028,0.0453 -0.015,-0.0487 -0.125,-0.1875 l -0.062,0.0312 c -0.5616,-1.04407 -0.8697,-2.43745 -0.6875,-3.78125 0.1098,-0.80283 0.3853,-1.58726 0.7812,-2.21875 0.1236,-0.19686 0.2961,-0.26988 0.4376,-0.4375 z m -0.7813,8.71875 c 0.7067,0.71819 1.4466,1.3752 2.2187,1.78125 1.1815,0.6215 2.3474,1.0011 3.4376,1.375 1.095,0.37535 2.1231,0.74467 2.9374,1.25 0.1522,0.0942 0.2973,0.20713 0.4376,0.3125 0.5255,0.39355 0.9762,0.86022 1.375,1.40625 0.2436,0.33359 0.3757,0.76624 0.5624,1.15625 -0.4136,-0.0313 -0.8482,-0.12024 -1.25,-0.125 -1.2327,-0.0147 -2.3815,0.0478 -3.5312,-0.0312 -0.6362,-0.0438 -1.2816,-0.13935 -1.9062,-0.3125 -0.5017,-0.13921 -0.9874,-0.3209 -1.4688,-0.59375 -1.0628,-0.60217 -2.1017,-1.71297 -2.625,-3.125 -0.373,-1.00571 -0.3788,-2.12646 -0.1875,-3.09375 z m -98.5937,7.59375 0,0.4375 0,49.15625 0,0.4375 0.4374,0 2.5,0 0.375,0 0.063,-0.375 0.2812,-2.5 c 1.4362,1.05103 2.9107,1.98262 4.4688,2.65625 1.7737,0.70021 3.498,1.0625 5.1562,1.0625 1.9766,0 3.8733,-0.42094 5.6562,-1.21875 1.8299,-0.84423 3.4202,-2.04442 4.7813,-3.59375 1.4085,-1.5959 2.5217,-3.51701 3.3125,-5.75 0.7942,-2.24248 1.1875,-4.77333 1.1875,-7.59375 0,-5.1671 -1.1178,-9.33415 -3.375,-12.4375 -2.2678,-3.1657 -5.7121,-4.75 -10.1875,-4.75 -2.1212,0 -4.1838,0.52947 -6.1562,1.5625 -1.6777,0.87859 -3.2453,1.96794 -4.75,3.15625 l 0.125,-5.59375 0,-14.21875 0,-0.4375 -0.4376,0 -3,0 -0.4374,0 z m 101.9062,0.71875 c 0.1697,0.0583 0.3316,0.17199 0.5,0.21875 0.7725,0.21415 1.529,0.32532 2.25,0.375 1.2967,0.0892 2.5078,0.0177 3.6562,0.0312 0.8715,0.0103 1.7053,0.0725 2.5,0.25 l 0.094,-0.0625 c 0.1876,0.0478 0.349,0.0931 0.5312,0.15625 0.4253,0.14755 0.8547,0.35085 1.25,0.59375 0.4204,0.25051 0.8192,0.5608 1.1876,0.90625 0.3299,0.30957 0.5122,0.74926 0.7812,1.125 -0.4017,0.0105 -0.8053,0.0192 -1.1875,0.0625 -1.2862,0.14549 -2.4697,0.41891 -3.625,0.59375 -0.219,0.0332 -0.4381,0.0695 -0.6563,0.0937 -0.9358,0.10606 -1.8696,0.10368 -2.8124,-0.0937 0.052,0.0117 -0.033,-0.0193 -0.2188,-0.0312 l 0,0.0625 c -1.0405,-0.27477 -2.1092,-0.83996 -2.9375,-1.75 -0.6008,-0.66152 -1.061,-1.5194 -1.2813,-2.34375 l -0.031,0 c -0.018,-0.0652 0.015,-0.12252 0,-0.1875 z m 12.5938,5.34375 c 0.8577,-0.0368 1.7273,0.0562 2.5624,0.3125 0.9625,0.29535 1.9491,0.84982 2.75,1.625 0.3986,0.3851 0.5764,0.90976 0.875,1.375 -0.4135,-0.0273 -0.8565,-0.17552 -1.25,-0.15625 -1.3432,0.0656 -2.5815,0.34477 -3.75,0.5625 -1.1695,0.21786 -2.2971,0.39999 -3.4374,0.3125 -1.1303,-0.0864 -2.3083,-0.47663 -3.2813,-1.21875 -0.3986,-0.30395 -0.7591,-0.65084 -1.0625,-1.0625 l 0,-0.0312 c -0.2368,-0.31363 -0.2855,-0.65599 -0.4375,-1 0.6429,0.0249 1.3128,0.12973 1.9063,0.0625 0.2456,-0.0275 0.4811,-0.0577 0.7187,-0.0937 1.2521,-0.18948 2.4169,-0.46416 3.5625,-0.59375 0.2861,-0.0324 0.5576,-0.0815 0.8438,-0.0937 z m 28.125,0.78125 -0.031,0.4375 -0.375,9.125 -4.8125,0.21875 -0.4062,0.0312 0,0.40625 0,2.34375 0,0.40625 0.4374,0 4.6876,0 0,20.71875 c -7e-4,1.48142 0.11,2.83292 0.3437,4.09375 l 0,0.0312 c 0.2842,1.27937 0.7588,2.39148 1.4375,3.3125 0.6749,0.91622 1.5955,1.6112 2.6875,2.09375 0.01,0.003 0.027,-0.006 0.031,0 1.1204,0.53044 2.4954,0.8125 4.125,0.8125 0.7311,0 1.5824,-0.14151 2.5624,-0.375 0.9766,-0.2324 1.9631,-0.50389 2.9376,-0.875 l 0.375,-0.15625 -0.125,-0.40625 -0.8126,-2.46875 -0.1562,-0.4375 -0.4375,0.1875 c -0.5583,0.25773 -1.2284,0.49906 -1.9687,0.71875 -0.7016,0.17465 -1.3724,0.28125 -1.9688,0.28125 -1.0866,0 -1.9421,-0.15787 -2.5938,-0.4375 -0.01,-0.004 -0.024,0.004 -0.031,0 -0.6052,-0.32669 -1.0751,-0.76957 -1.4375,-1.28125 -0.01,-0.0117 -0.023,-0.0195 -0.031,-0.0312 -0.3646,-0.5764 -0.6433,-1.25059 -0.8124,-2 l 0,-0.0312 c -0.1313,-0.83166 -0.1876,-1.76246 -0.1876,-2.78125 l 0,-20.96875 9.0626,0 0.4374,0 0,-0.40625 0,-2.625 0,-0.40625 -0.4374,0 -9.0626,0 0,-9.09375 0,-0.4375 -0.4374,0 -2.5938,0 -0.4062,0 z m -22.4376,4.15625 c 0.6475,0.01 1.2854,0.10906 1.9376,0.3125 l 0.094,-0.0625 c 0.2074,0.0719 0.4188,0.15268 0.625,0.25 0.9525,0.44991 1.8997,1.2255 2.625,2.1875 0.016,0.0225 0.043,0.062 0.062,0.0937 0.3292,0.47068 0.3621,0.98598 0.5625,1.5 -0.375,-0.12255 -0.7565,-0.27149 -1.125,-0.34375 -0.6346,-0.12456 -1.2428,-0.19343 -1.8437,-0.21875 -0.6941,-0.0279 -1.3579,-0.0185 -2,0 -1.1877,0.0346 -2.3007,0.0752 -3.375,-0.0625 0,7.8e-4 -0.032,2.5e-4 -0.031,0 0,-0.002 -0.068,-0.002 -0.2187,0 l 0,0.0312 c -0.9592,-0.16745 -1.8846,-0.45668 -2.6563,-1.03125 -0.6254,-0.46695 -1.0954,-1.15617 -1.4375,-1.875 0.8978,-0.0442 1.8124,-0.0674 2.625,-0.21875 1.2105,-0.22563 2.3548,-0.47531 3.5,-0.53125 0.2161,-0.0106 0.4406,-0.0344 0.6562,-0.0312 z m -40.8437,4.3125 c -0.3868,-0.006 -0.7727,0.0215 -1.1563,0.0625 -0.7663,0.082 -1.5172,0.26536 -2.25,0.53125 -1.4663,0.53229 -2.8078,1.43565 -3.8437,2.625 -1.0371,1.1907 -1.7446,2.64844 -2.0313,4.21875 -0.2867,1.57231 -0.1388,3.19097 0.4688,4.6875 0.8364,2.05988 2.3954,3.58749 4.0625,4.6875 1.6532,1.09085 3.4143,1.78499 5.0313,2.4375 1.615,0.65183 3.1213,1.29284 4.375,2.125 1.2391,0.82281 2.2504,1.89054 2.7187,3.0625 0.4425,1.10733 0.4492,2.45324 0.031,3.625 -0.421,1.18083 -1.2974,2.26273 -2.375,3 -1.0843,0.74139 -2.4178,1.16121 -3.7813,1.25 -1.3686,0.0891 -2.7991,-0.1638 -4.125,-0.6875 -2.0031,-0.79119 -3.7564,-2.18899 -4.9687,-3.96875 l -1,-1.5 -2.9688,2.03125 1,1.46875 c 1.6226,2.38164 3.9761,4.22254 6.6562,5.28125 1.7708,0.69924 3.7031,1.0647 5.6563,0.9375 1.9585,-0.12753 3.8987,-0.73689 5.5625,-1.875 1.6698,-1.14223 2.991,-2.79497 3.6875,-4.75 0.6997,-1.96412 0.7292,-4.14103 -0.062,-6.125 -0.8255,-2.06606 -2.3969,-3.61302 -4.0625,-4.71875 -1.6515,-1.0964 -3.4127,-1.78437 -5.0313,-2.4375 -1.6166,-0.65245 -3.1175,-1.29545 -4.375,-2.125 -1.2429,-0.82037 -2.2433,-1.86043 -2.7187,-3.03125 -0.342,-0.84219 -0.4473,-1.83911 -0.2813,-2.75 0.1668,-0.91291 0.5981,-1.78728 1.2188,-2.5 0.6219,-0.71405 1.4687,-1.29603 2.375,-1.625 0.9077,-0.32952 1.8999,-0.43777 2.875,-0.3125 1.3447,0.17275 2.6789,0.81047 3.6562,1.75 0.9775,0.93947 1.6493,2.22563 1.875,3.5625 l 0.3126,1.75 3.5,-0.59375 -0.3126,-1.75 c -0.3558,-2.10743 -1.3652,-4.05004 -2.9062,-5.53125 -1.5409,-1.48115 -3.5365,-2.4464 -5.6562,-2.71875 -0.3824,-0.0491 -0.7695,-0.0881 -1.1563,-0.0937 z m -30.0937,0.21875 c -1.8869,0 -3.744,0.40362 -5.5313,1.25 -1.7444,0.80165 -3.3167,2.02046 -4.7187,3.5625 -1.3634,1.50409 -2.4455,3.31753 -3.2813,5.5 -0.7936,2.19426 -1.2187,4.67272 -1.2187,7.40625 -5e-4,2.73392 0.4251,5.21236 1.2187,7.40625 0.8375,2.14011 1.9687,3.98424 3.375,5.53125 1.4071,1.50087 3.0607,2.67092 4.9375,3.46875 1.9183,0.79541 3.94,1.21875 6.0938,1.21875 2.4443,0 4.4738,-0.35357 6.0937,-1.0625 0.01,-0.004 0.022,0.004 0.031,0 1.5996,-0.6867 3.0741,-1.43788 4.4062,-2.21875 l 0.3438,-0.21875 -0.1876,-0.34375 -1.2187,-2.34375 -0.2187,-0.46875 -0.4063,0.3125 c -1.1986,0.88783 -2.5152,1.59151 -3.9375,2.125 -1.3589,0.48217 -2.8876,0.71875 -4.625,0.71875 -1.8204,0 -3.436,-0.31462 -4.875,-0.96875 l 0,0.0312 c -1.4443,-0.70004 -2.695,-1.69298 -3.75,-2.875 -1.0144,-1.23503 -1.8293,-2.65626 -2.4062,-4.34375 -0.5326,-1.59659 -0.767,-3.3485 -0.8438,-5.1875 l 23.1562,0 0.3438,0 0.094,-0.34375 c 0.1,-0.44658 0.1246,-0.87902 0.125,-1.3125 l 0,-1.25 c 0,-4.89822 -1.1208,-8.72607 -3.4376,-11.46875 -2.3134,-2.7383 -5.5447,-4.125 -9.5624,-4.125 z m 54.7812,0.0312 c -0.3389,-0.004 -0.6638,0.0217 -1,0.0625 -0.6724,0.0816 -1.311,0.23838 -1.9375,0.5 -1.251,0.52235 -2.3465,1.3736 -3.1563,2.4375 -0.808,1.0623 -1.3234,2.32521 -1.5312,3.625 -0.2077,1.29833 -0.1017,2.60669 0.2812,3.84375 0.579,1.867 1.7372,3.39878 3,4.625 1.2501,1.21332 2.5802,2.14608 3.8438,3.03125 l 0.031,0 c 1.2684,0.88849 2.4596,1.75973 3.4063,2.71875 0.9391,0.95134 1.6458,2.01987 1.9375,3.125 0.4057,1.53703 0.02,3.3835 -0.9375,4.8125 -1.0312,1.53932 -2.7174,2.68369 -4.5313,3.0625 -1.8134,0.37882 -3.845,-0.002 -5.4062,-1 l -1.5,-0.9375 -1.9062,3 1.5,0.9375 c 2.3721,1.51632 5.2753,2.07562 8.0312,1.5 2.7559,-0.57561 5.2145,-2.25473 6.7812,-4.59375 1.4766,-2.20318 2.1164,-4.99739 1.4063,-7.6875 -0.5021,-1.90261 -1.5976,-3.45633 -2.8437,-4.71875 -1.2391,-1.25474 -2.5958,-2.22855 -3.875,-3.125 -1.279,-0.89582 -2.4929,-1.74002 -3.4688,-2.6875 -0.9689,-0.9407 -1.7203,-2.02064 -2.0625,-3.125 -0.225,-0.72672 -0.2732,-1.48698 -0.1563,-2.21875 0.1171,-0.73029 0.4072,-1.45751 0.8438,-2.03125 0.4354,-0.57214 1.0413,-1.04267 1.6875,-1.3125 0.644,-0.26896 1.3603,-0.3596 2.0313,-0.25 0.8188,0.13382 1.6204,0.6165 2.1562,1.25 l 1.1562,1.34375 2.7188,-2.28125 -1.1562,-1.375 c -1.0992,-1.29924 -2.633,-2.16304 -4.3126,-2.4375 -0.3394,-0.0555 -0.6923,-0.0897 -1.0312,-0.0937 z m 14.5938,0.90625 c 0.8589,0.0363 1.7178,0.0862 2.5312,0.0625 0.6355,-0.0183 1.2869,-0.0249 1.9062,0 0.5338,0.0225 1.0382,0.0534 1.5626,0.15625 1.1233,0.22035 2.2779,0.69701 3.25,1.5625 0.8394,0.74765 1.544,1.81948 1.9374,2.96875 0.1943,0.56649 0.08,1.11329 0.125,1.6875 -0.3326,-0.22351 -0.6288,-0.5767 -0.9687,-0.75 -1.2338,-0.62927 -2.4635,-0.94318 -3.625,-1.25 -1.1621,-0.3071 -2.2808,-0.60077 -3.2813,-1 -0.9836,-0.39244 -1.8522,-0.90954 -2.4687,-1.5625 0.012,0.014 -0.039,-0.008 -0.031,0 -0.015,-0.017 -0.017,-0.0452 -0.031,-0.0625 -0.4234,-0.50454 -0.7191,-1.13742 -0.9062,-1.8125 z m -69.3126,2.53125 c 2.8588,0 5.03,1.01292 6.6876,3.0625 1.5744,1.9066 2.3714,4.85594 2.4374,8.78125 l -19.875,0 c 0.1984,-1.71973 0.5314,-3.32186 1.0938,-4.6875 0.6638,-1.54845 1.4792,-2.82483 2.4375,-3.875 1.0137,-1.05772 2.1491,-1.86806 3.375,-2.4375 1.219,-0.56596 2.4884,-0.84375 3.8437,-0.84375 z m -35.1562,0.0625 c 1.8128,0 3.316,0.34349 4.5625,1.03125 l 0.031,0 c 1.2574,0.65056 2.2494,1.56506 3.0312,2.78125 l 0,0.0312 c 0.7858,1.17868 1.3633,2.59375 1.7188,4.28125 l 0.031,0 c 0.4019,1.69681 0.5934,3.5563 0.5938,5.53125 0,2.19343 -0.2972,4.20756 -0.875,6.03125 -0.5355,1.78327 -1.2836,3.31939 -2.25,4.59375 -0.9665,1.27347 -2.1109,2.23669 -3.4688,2.9375 -1.3515,0.69744 -2.8293,1.03125 -4.4062,1.03125 -1.2094,0 -2.6307,-0.28146 -4.2813,-0.90625 -1.5761,-0.59636 -3.2329,-1.6405 -4.9687,-3.09375 l 0,-19.09375 c 1.8768,-1.64047 3.6599,-2.91788 5.3437,-3.78125 l 0.031,0 c 1.7289,-0.93127 3.3494,-1.375 4.9062,-1.375 z m 108.2812,2.8125 c 0.8134,0.26138 1.6387,0.53894 2.4376,0.75 1.1459,0.30276 2.251,0.63084 3.2812,1.15625 0.7763,0.39576 1.5027,0.9197 2.125,1.625 l 0.125,0 c 0.1451,0.17492 0.277,0.33511 0.4062,0.53125 0.6152,0.93296 1.0074,2.16933 1.0938,3.375 0.04,0.55871 -0.1922,1.027 -0.2812,1.5625 -0.2611,-0.29208 -0.5021,-0.62777 -0.7813,-0.875 -1.0368,-0.91846 -2.1418,-1.55899 -3.1875,-2.15625 -1.0467,-0.59752 -2.0469,-1.15222 -2.9062,-1.8125 0.045,0.035 -0.037,-0.0396 -0.1876,-0.125 l -0.031,0.0625 c -0.747,-0.61977 -1.3561,-1.30165 -1.7188,-2.0625 -0.2934,-0.6187 -0.3958,-1.32825 -0.375,-2.03125 z m 2.1563,6.1875 c 0.7135,0.4665 1.4428,0.93651 2.1563,1.34375 1.0371,0.59244 2.039,1.16922 2.9062,1.9375 0.8614,0.76276 1.6215,1.74667 2.0312,2.96875 0.2348,0.6995 0.3277,1.48106 0.3126,2.28125 -0.01,0.41063 -0.049,0.81874 -0.125,1.21875 -0.109,0.57508 -0.4522,0.98859 -0.6876,1.5 -0.1828,-0.35358 -0.287,-0.7791 -0.5,-1.09375 -0.7207,-1.06727 -1.5654,-1.92287 -2.375,-2.71875 -0.057,-0.0559 -0.105,-0.10585 -0.1562,-0.15625 l -0.031,0 c -0.861,-0.8421 -1.677,-1.63976 -2.3438,-2.5 -0.6663,-0.85923 -1.1661,-1.7871 -1.3438,-2.71875 -0.1279,-0.67197 -0.037,-1.3876 0.1563,-2.0625 z m 0.5937,6.78125 c 0.5567,0.60857 1.1214,1.22764 1.6876,1.78125 0.057,0.056 0.1044,0.10529 0.1562,0.15625 0.7936,0.78038 1.5524,1.54315 2.1562,2.4375 0.4866,0.71986 0.8844,1.53235 1.0938,2.4375 l 0.094,0.0312 c 0.044,0.22071 0.073,0.45875 0.094,0.6875 0.099,1.09691 -0.091,2.35223 -0.5625,3.4375 -0.2218,0.51057 -0.6446,0.81938 -0.9688,1.25 -0.103,-0.39195 -0.1715,-0.79694 -0.3124,-1.15625 -0.5004,-1.27619 -1.1742,-2.36167 -1.8126,-3.375 -0.6385,-1.01367 -1.2523,-1.97108 -1.6874,-2.96875 0.025,0.0582 4e-4,-0.0341 -0.094,-0.1875 l -0.031,0.0312 c -0.3525,-0.90413 -0.5827,-1.8274 -0.5313,-2.6875 0.015,-0.2468 0.067,-0.50686 0.125,-0.75 0.1013,-0.41766 0.3755,-0.7455 0.5937,-1.125 z m -1.1562,6.4375 c 0.4053,0.75811 0.8103,1.52087 1.25,2.21875 0.6376,1.01237 1.2657,1.98651 1.6875,3.0625 0.4192,1.069 0.6297,2.2736 0.4687,3.53125 -0.1388,1.08714 -0.5926,2.23304 -1.2812,3.1875 -0.3381,0.46892 -0.8232,0.70111 -1.25,1.0625 -0.02,-0.41193 0.064,-0.86209 0,-1.25 -0.2242,-1.35061 -0.6553,-2.52726 -1.0625,-3.65625 -0.4072,-1.12935 -0.8008,-2.23621 -1,-3.3125 -0.199,-1.07451 -0.2224,-2.1309 0.062,-3.0625 0.2079,-0.67765 0.6279,-1.26741 1.125,-1.78125 z m -2.625,6.3125 c 0.2284,0.82979 0.4395,1.66356 0.7188,2.4375 0.4084,1.13247 0.8103,2.23385 1,3.375 0.1428,0.86043 0.1763,1.75135 0,2.65625 l 0.062,0.0937 c -0.049,0.21616 -0.1134,0.40826 -0.1874,0.625 -0.1407,0.41075 -0.3288,0.82357 -0.5626,1.21875 -0.3539,0.60102 -0.7999,1.16639 -1.2812,1.625 -0.4091,0.39007 -0.8888,0.52116 -1.3438,0.78125 0.03,-0.40842 0.1955,-0.81932 0.1876,-1.21875 -0.027,-1.31608 -0.2311,-2.56672 -0.4063,-3.75 -0.056,-0.37597 -0.1081,-0.75508 -0.1563,-1.125 -0.1024,-0.78935 -0.17,-1.56213 -0.1562,-2.3125 l 0,-0.0312 c 3e-4,0.009 0,-0.0173 0,-0.0625 l -0.094,-0.0312 c 0.052,-1.00361 0.2767,-1.95407 0.7188,-2.75 0.352,-0.63169 0.8929,-1.1286 1.5,-1.53125 z m -3.8438,5.59375 c 0.032,0.45513 0.036,0.93328 0.094,1.375 0.05,0.38742 0.1001,0.77566 0.1562,1.15625 0.1771,1.19524 0.3518,2.34448 0.375,3.5 0.023,1.1499 -0.1179,2.32838 -0.5,3.375 -0.1714,0.4705 -0.4023,0.93 -0.6562,1.34375 -0.2251,0.38374 -0.4693,0.72554 -0.75,1.03125 -0.2821,0.30742 -0.6697,0.48361 -1,0.71875 -0.062,-0.39859 -0.1086,-0.78888 -0.1875,-1.1875 -0.2352,-1.18938 -0.518,-2.34794 -0.6875,-3.5 -0.025,-0.17455 -0.043,-0.35764 -0.062,-0.53125 -0.1124,-0.97969 -0.1095,-1.95955 0.062,-2.9375 0.2022,-1.14463 0.6863,-2.3032 1.375,-3.125 0.3387,-0.40423 0.7338,-0.74353 1.1562,-1 0.1925,-0.11657 0.4194,-0.1313 0.625,-0.21875 z m -4.9687,5.4375 c -0.026,0.69445 -0.1068,1.40736 -0.031,2.0625 0.022,0.19355 0.035,0.37409 0.063,0.5625 0.1862,1.26586 0.4949,2.46197 0.7187,3.59375 0.1697,0.85795 0.288,1.70102 0.3437,2.46875 l 0.094,0.0625 c 0.01,0.17458 9e-4,0.35455 0,0.53125 0,0.54778 -0.038,1.05603 -0.125,1.53125 l 0,0.0312 c -0.044,0.19069 -0.1203,0.37597 -0.1875,0.5625 -0.1021,0.28354 -0.3366,0.58503 -0.5,0.875 -0.2606,-0.31968 -0.4869,-0.64821 -0.75,-0.96875 -0.6518,-0.79448 -1.2719,-1.58189 -1.7813,-2.46875 -0.054,-0.0946 -0.1049,-0.18451 -0.1562,-0.28125 -0.5271,-0.99478 -0.8976,-2.10902 -0.9062,-3.375 5e-4,-0.0418 0,-0.0648 0,-0.0937 l -0.094,-0.0625 c 0.043,-1.16957 0.4294,-2.47497 1.1562,-3.46875 0.3074,-0.41895 0.6698,-0.76824 1.0626,-1.0625 l 0.031,-0.0312 c 0.3498,-0.2699 0.697,-0.31382 1.0625,-0.46875 z m -4.8125,6.71875 c 0.1881,0.97934 0.487,1.89586 0.9062,2.6875 0.061,0.11436 0.1238,0.23271 0.1876,0.34375 0.5975,1.04082 1.2765,1.91297 1.9374,2.71875 0.7356,0.89589 1.4588,1.71068 1.9376,2.46875 0.414,0.65607 0.6509,1.26863 0.7812,1.90625 0.022,0.10925 0.047,0.23241 0.062,0.34375 0.026,0.20564 -0.01,0.46357 0,0.6875 -0.3921,-0.13658 -0.7614,-0.30116 -1.1563,-0.4375 -0.1847,-0.0639 -0.3781,-0.12114 -0.5624,-0.1875 -0.8794,-0.3158 -1.7552,-0.67825 -2.5626,-1.15625 -0.9737,-0.57689 -1.8439,-1.33846 -2.4687,-2.46875 -0.6116,-1.10592 -0.9448,-2.68423 -0.5937,-4.21875 0.082,-0.35907 0.1955,-0.72391 0.3437,-1.0625 0.01,-0.014 0.025,-0.0174 0.031,-0.0312 0.3079,-0.64142 0.7219,-1.17169 1.1562,-1.59375 z m -20.8125,7.21875 -0.062,0.0312 c -1.6113,0.60575 -2.6509,0.95562 -3.0938,1.0625 -0.1241,0.0178 -0.1874,0.12998 -0.1874,0.34375 0.018,0.19599 0.095,0.326 0.2187,0.34375 0.8145,0.17817 1.2187,0.81513 1.2187,1.9375 l 0,13.46875 c 0,0.16034 -0.036,0.32185 -0.125,0.5 -0.088,0.16034 -0.379,0.33966 -0.875,0.5 -0.4958,0.16035 -0.75,0.32185 -0.75,0.5 3e-4,0.16037 0.1772,0.25 0.5313,0.25 l 0.094,0 2.0626,-0.15625 2.0624,0.15625 0.094,0 c 0.3541,0 0.5314,-0.0897 0.5312,-0.25 3e-4,-0.17815 -0.1906,-0.34404 -0.5624,-0.46875 -0.3544,-0.12471 -0.6449,-0.23685 -0.875,-0.34375 -0.2127,-0.1069 -0.3126,-0.33118 -0.3126,-0.6875 l 0.031,-13.34375 c 0,-1.28272 0.023,-2.33671 0.094,-3.15625 0.035,-0.28503 0.062,-0.46439 0.063,-0.5 0,-0.12468 -0.05,-0.18748 -0.1563,-0.1875 z m -61.9687,1.28125 -2.9376,0.15625 -2.75,-0.0312 c -0.5135,2e-5 -0.7812,0.0853 -0.7812,0.28125 0,0.24944 0.3177,0.43781 0.9375,0.5625 0.6374,0.10692 1.0646,0.30871 1.3125,0.59375 0.2656,0.26725 0.4062,0.72022 0.4062,1.34375 l 0,12 c 0,0.60574 -0.1633,1.07214 -0.5,1.375 -0.3364,0.30286 -0.8446,0.53154 -1.5,0.65625 -0.6374,0.10689 -0.9376,0.25497 -0.9374,0.46875 0,0.19596 0.2362,0.28125 0.75,0.28125 l 3.4687,-0.125 2.5313,0.125 c 2.0717,0 3.775,-0.50669 5.1562,-1.46875 0.2302,-0.16034 0.5248,-0.41151 0.8438,-0.75 0.3364,-0.3385 0.5903,-0.76459 0.75,-1.28125 0.1772,-0.51665 0.2366,-1.13111 0.2187,-1.84375 -10e-5,-0.71263 -0.1001,-1.30927 -0.3125,-1.84375 -0.4605,-1.12239 -1.6137,-1.97895 -3.4375,-2.53125 -0.071,-0.0356 -0.094,-0.0715 -0.094,-0.125 -3e-4,-0.0535 0.023,-0.0894 0.094,-0.125 0.6552,-0.26723 1.2499,-0.6574 1.7813,-1.15625 0.602,-0.60572 0.9062,-1.45791 0.9062,-2.5625 0,-1.42524 -0.4947,-2.45675 -1.4688,-3.0625 -0.9562,-0.62353 -2.4365,-0.93748 -4.4374,-0.9375 z m 81.2812,0.625 c 0.6574,0.73679 1.3797,1.371 2.125,1.8125 0.958,0.56736 1.9201,0.94949 2.8438,1.28125 0.1935,0.0696 0.4039,0.15314 0.5937,0.21875 0.8288,0.28632 1.5973,0.53432 2.2813,0.8125 l 0.094,-0.0312 c 0.1581,0.0693 0.3239,0.11483 0.4687,0.1875 0.6922,0.34717 1.2432,0.76089 1.6876,1.25 0.2144,0.23583 0.3789,0.54917 0.5624,0.84375 -0.4064,0.0834 -0.8048,0.16574 -1.2187,0.25 -1.112,0.22614 -2.238,0.432 -3.375,0.4375 -1.1332,0.006 -2.289,-0.1945 -3.4063,-0.84375 0.033,0.0196 -0.031,-0.0267 -0.1874,-0.0937 l -0.031,0.0312 c -0.7856,-0.52153 -1.5601,-1.28464 -2.0625,-2.28125 -0.1267,-0.25373 -0.2522,-0.53967 -0.3438,-0.8125 -0.2708,-0.80241 -0.3396,-1.6833 -0.25,-2.46875 0.027,-0.23798 0.162,-0.37524 0.2188,-0.59375 z m -81.2812,0.1875 c 1.3457,2e-5 2.3125,0.33645 2.8437,1.03125 0.5312,0.69483 0.7811,1.46174 0.7813,2.28125 0,0.81954 -0.1407,1.44743 -0.4063,1.875 -0.2478,0.4276 -0.4978,0.71467 -0.7813,0.875 -0.8499,0.51667 -1.8531,0.78126 -2.9687,0.78125 -0.2833,-0.0177 -0.4061,-0.0312 -0.4063,-0.0312 -0.2301,-0.0178 -0.4343,-0.0672 -0.5937,-0.15625 -0.1417,-0.0891 -0.2187,-0.36709 -0.2187,-0.8125 l 0,-4.65625 c 0,-0.42756 0.1135,-0.72808 0.3437,-0.90625 0.2479,-0.19596 0.7155,-0.28123 1.4063,-0.28125 z m 12.2812,5.25 c -0.035,0 -0.031,0.0135 -0.031,0.0312 0,10e-6 -0.013,10e-6 -0.031,0 l -1.4687,0.9375 c -0.319,0.2138 -0.796,0.38873 -1.4688,0.53125 -0.1241,0.0178 -0.1875,0.12997 -0.1875,0.34375 0.018,0.19598 0.064,0.326 0.1875,0.34375 0.726,0.16035 1.0938,0.78386 1.0938,1.90625 l 0,5.75 c -3e-4,0.23161 -0.063,0.41997 -0.1876,0.5625 -0.1061,0.14253 -0.2062,0.22779 -0.3124,0.28125 -0.1064,0.0356 -0.3063,0.11185 -0.625,0.21875 -0.319,0.1069 -0.5002,0.25935 -0.5,0.4375 0,0.16037 0.1771,0.25 0.5312,0.25 l 0.094,0 2.0624,-0.15625 2.25,0.15625 0.063,0 c 0.3541,0 0.5312,-0.0897 0.5312,-0.25 0,-0.17815 -0.1863,-0.32622 -0.5938,-0.46875 -0.9384,-0.28505 -1.4195,-0.67522 -1.4374,-1.15625 l 0,-5.28125 c 0,-0.81951 0.1771,-1.38024 0.5312,-1.71875 0.3719,-0.33848 0.799,-0.49999 1.3125,-0.5 0.1771,10e-6 0.4719,0.0584 0.8437,0.21875 0.3721,0.16037 0.649,0.25001 0.8438,0.25 0.1947,10e-6 0.3811,-0.14805 0.5938,-0.46875 0.2301,-0.32067 0.3437,-0.639 0.3437,-0.90625 0,-0.26723 -0.096,-0.46465 -0.3437,-0.625 -0.2304,-0.16037 -0.5345,-0.24999 -0.9063,-0.25 -0.7791,10e-6 -1.6189,0.39018 -2.4687,1.15625 -0.053,0.0534 -0.1125,0.14312 -0.2188,0.25 l -0.25,0.28125 c -0.071,0.0891 -0.1214,0.12501 -0.1562,0.125 -0.018,10e-6 -0.018,-0.21085 0,-0.65625 0.035,-0.44539 0.062,-0.92521 0.062,-1.40625 -0.035,-0.12467 -0.1034,-0.18749 -0.1562,-0.1875 z m 15.9688,0.40625 -0.4688,0.15625 c -0.1948,0.0712 -0.3175,0.10725 -0.4062,0.125 -0.071,0 -0.2386,0.0269 -0.4688,0.0625 -0.2302,0.0357 -0.4938,0.0581 -0.8125,0.0937 -0.3187,0.0179 -0.65,0.0448 -0.9687,0.0625 -0.319,2e-5 -0.5595,0.0225 -0.7188,0.0937 -0.1418,0.0535 -0.2188,0.13873 -0.2188,0.28125 0,0.30288 0.2178,0.48225 0.625,0.5 0.4075,1e-5 0.7844,0.0853 1.1563,0.28125 0.3719,0.19599 0.5625,0.55023 0.5625,1.03125 l 0,4.875 c 0,0.74826 -0.3906,1.41209 -1.1875,2 -0.4604,0.35632 -1.1917,0.53125 -2.2187,0.53125 -0.5669,0 -1.102,-0.23773 -1.5626,-0.71875 -0.4603,-0.49884 -0.6876,-1.04613 -0.6874,-1.6875 l 0,-5.21875 c 0,-0.55228 0.05,-1.24297 0.1562,-2.0625 0.018,-0.14252 0.01,-0.22779 -0.062,-0.28125 -0.071,-0.0711 -0.1885,-0.1115 -0.3125,-0.0937 -1.204,0.28506 -2.0987,0.451 -2.7188,0.46875 -0.2655,0.0535 -0.4062,0.17465 -0.4062,0.40625 0,0.21379 0.1134,0.36628 0.3438,0.4375 0.7614,0.30287 1.1562,0.81863 1.1562,1.53125 l 0,5.40625 c 0,1.0155 0.2636,1.82271 0.8125,2.375 0.5667,0.55229 1.3157,0.8125 2.2187,0.8125 1.647,0 3.1001,-0.64134 4.375,-1.90625 l 0,0.15625 c 3e-4,0.17815 -0.028,0.47867 -0.062,0.90625 -0.053,0.5701 -0.062,0.89753 -0.063,0.96875 0,0.0177 0.063,0 0.1876,0 0.1416,0 0.5458,-0.13464 1.2187,-0.4375 0.6906,-0.28505 1.4853,-0.50029 2.4063,-0.625 0.2478,0 0.375,-0.13901 0.375,-0.40625 0,-0.26722 -0.1407,-0.36596 -0.4063,-0.3125 -0.2657,0.0535 -0.6698,0.0937 -1.2187,0.0937 -0.319,0 -0.4688,-0.61446 -0.4688,-1.84375 l 0,-5.6875 c 0,-1.01549 0.05,-1.60308 0.1562,-1.78125 0.1069,-0.17814 0.12,-0.33059 0.031,-0.4375 -0.071,-0.10688 -0.1886,-0.15624 -0.3125,-0.15625 -0.035,1e-5 -0.031,1e-5 -0.031,0 z m 7.3124,0.0312 c -1.0978,10e-6 -1.9739,0.31396 -2.5937,0.9375 -0.6197,0.60575 -0.9063,1.3233 -0.9063,2.125 0,1.0155 0.8448,2.11448 2.5626,3.34375 0.6729,0.48103 1.1677,0.9115 1.4687,1.25 0.3011,0.33849 0.4374,0.71086 0.4375,1.15625 -10e-5,1.26492 -0.6582,1.90625 -1.9688,1.90625 -0.4603,0 -0.9281,-0.21524 -1.4062,-0.625 -0.478,-0.40976 -0.7548,-0.84929 -0.8438,-1.3125 -0.018,-0.12467 -0.1542,-0.1875 -0.4374,-0.1875 -0.2659,0 -0.4063,0.0897 -0.4063,0.25 0.035,0.677 0.1489,1.21524 0.3437,1.625 0.089,0.19597 0.4022,0.41121 0.9688,0.625 0.5667,0.2316 1.1885,0.34375 1.8438,0.34375 2.5498,0 3.8437,-1.08086 3.8437,-3.21875 0,-0.53447 -0.1768,-1.0324 -0.5313,-1.53125 -0.3541,-0.51665 -0.6719,-0.86652 -0.9374,-1.0625 -0.2659,-0.19597 -0.6197,-0.43369 -1.0626,-0.71875 -1.505,-0.94423 -2.25,-1.76487 -2.25,-2.40625 3e-4,-0.4632 0.123,-0.87586 0.4063,-1.25 0.2833,-0.37411 0.6876,-0.56249 1.2187,-0.5625 0.5315,10e-6 0.9759,0.17495 1.3126,0.53125 0.3541,0.33851 0.5588,0.69276 0.5937,1.03125 0.018,0.10691 0.1313,0.23248 0.3437,0.375 0.2304,0.12467 0.4074,0.18751 0.5313,0.1875 0.1241,10e-6 0.1875,-0.0537 0.1875,-0.125 0,-1.01548 -0.1676,-1.68837 -0.4688,-2.0625 -0.4072,-0.40975 -1.1519,-0.62499 -2.25,-0.625 z m 8.4688,0 c -1.0978,10e-6 -1.9737,0.31396 -2.5938,0.9375 -0.6197,0.60575 -0.9374,1.3233 -0.9374,2.125 0,1.0155 0.8762,2.11448 2.5937,3.34375 0.6729,0.48103 1.1678,0.9115 1.4687,1.25 0.3013,0.33849 0.4374,0.71086 0.4376,1.15625 0,1.26492 -0.6584,1.90625 -1.9688,1.90625 -0.4603,0 -0.9281,-0.21524 -1.4062,-0.625 -0.4783,-0.40976 -0.7551,-0.84929 -0.8438,-1.3125 -0.018,-0.12467 -0.1853,-0.1875 -0.4688,-0.1875 -0.2656,0 -0.3748,0.0897 -0.375,0.25 0.036,0.677 0.149,1.21524 0.3438,1.625 0.089,0.19597 0.402,0.41121 0.9688,0.625 0.5666,0.2316 1.1886,0.34375 1.8437,0.34375 2.5499,0 3.8125,-1.08086 3.8125,-3.21875 0,-0.53447 -0.177,-1.0324 -0.5312,-1.53125 -0.3544,-0.51665 -0.6718,-0.86652 -0.9376,-1.0625 -0.2656,-0.19597 -0.6198,-0.43369 -1.0624,-0.71875 -1.5053,-0.94423 -2.2502,-1.76487 -2.25,-2.40625 -3e-4,-0.4632 0.1541,-0.87586 0.4374,-1.25 0.2836,-0.37411 0.6876,-0.56249 1.2188,-0.5625 0.5313,10e-6 0.976,0.17495 1.3125,0.53125 0.3541,0.33851 0.5276,0.69276 0.5625,1.03125 0.018,0.10691 0.131,0.23248 0.3438,0.375 0.23,0.12467 0.4073,0.18751 0.5312,0.1875 0.1241,10e-6 0.1875,-0.0537 0.1875,-0.125 0,-1.01548 -0.1365,-1.68837 -0.4375,-2.0625 -0.4073,-0.40975 -1.1522,-0.62499 -2.25,-0.625 z m 9.2812,0 c -1.3457,10e-6 -2.499,0.62791 -3.4374,1.875 -0.9388,1.24711 -1.4063,2.62849 -1.4063,4.125 0,1.49653 0.4449,2.77481 1.3125,3.84375 0.8676,1.06894 1.8667,1.59375 3,1.59375 1.1509,0 2.0998,-0.26459 2.8438,-0.78125 0.7613,-0.53447 1.2154,-1.08615 1.375,-1.65625 0.018,-0.1069 -0.023,-0.19218 -0.094,-0.28125 -0.071,-0.0891 -0.1298,-0.125 -0.2188,-0.125 -0.071,0 -0.161,0.0359 -0.25,0.125 -0.5489,0.71263 -1.3842,1.0625 -2.5,1.0625 -1.0978,0 -2.0198,-0.43953 -2.7812,-1.3125 -0.7437,-0.89079 -1.125,-1.9807 -1.125,-3.28125 0,-0.42758 0.036,-0.70559 0.125,-0.8125 0.1062,-0.12467 0.2833,-0.1875 0.5312,-0.1875 l 4.375,0 c 0.6023,0 1.0969,-0.0718 1.4688,-0.25 0.3895,-0.19597 0.5625,-0.68924 0.5625,-1.4375 0,-0.76607 -0.304,-1.36709 -0.9063,-1.8125 -0.5843,-0.46319 -1.529,-0.68749 -2.875,-0.6875 z m -0.4687,0.84375 c 0.1317,-0.0181 0.2666,0 0.4063,0 1.328,10e-6 2.036,0.42173 2.125,1.3125 0,0.69482 -0.077,1.076 -0.2188,1.09375 -0.4604,0.0891 -1.1052,0.12501 -1.9375,0.125 l -2.1875,0 c -0.2478,10e-6 -0.3978,-0.10308 -0.4688,-0.28125 -0.035,-0.0713 -0.062,-0.13404 -0.062,-0.1875 -3e-4,-0.10689 0.067,-0.21903 0.1562,-0.34375 0.5422,-1.01325 1.2656,-1.59208 2.1875,-1.71875 z m -53.0625,1.0625 c 1.0447,10e-6 1.9532,0.21087 2.75,0.65625 1.3104,0.73046 1.9686,1.90097 1.9688,3.46875 -3e-4,1.1224 -0.4313,2.07329 -1.2813,2.875 -0.8499,0.78389 -1.7813,1.15625 -2.8437,1.15625 -0.7262,0 -1.2614,-0.13464 -1.5626,-0.4375 -0.301,-0.30287 -0.4649,-0.77832 -0.5,-1.4375 -0.053,-1.53215 -0.062,-2.81481 -0.062,-3.8125 -3e-4,-0.60573 -0.018,-1.09024 0,-1.5 0.035,-0.33849 0.1531,-0.5806 0.3124,-0.6875 0.3013,-0.19597 0.7053,-0.28124 1.2188,-0.28125 z m 94.9062,0 c 0.1822,-0.007 0.3575,-0.0124 0.5313,0 0.3477,0.0247 0.6803,0.0956 1,0.1875 0.2987,0.0857 0.6027,0.32062 0.9063,0.46875 -0.2984,0.27624 -0.6052,0.53205 -0.9063,0.8125 -0.8336,0.77622 -1.6604,1.52296 -2.625,2.125 -0.9613,0.59978 -2.0479,1.06519 -3.3437,1.09375 -0.4005,0.009 -0.847,-0.0383 -1.2813,-0.125 -0.01,-0.002 -0.023,0.002 -0.031,0 -0.9357,-0.19963 -1.9183,-0.65555 -2.7187,-1.34375 -0.6391,-0.54937 -1.1752,-1.28297 -1.5,-2 -0.1001,-0.22097 -0.061,-0.40521 -0.125,-0.625 0.9524,0.30054 1.8758,0.47343 2.75,0.46875 1.3448,-0.006 2.5886,-0.23889 3.7187,-0.46875 0.5756,-0.11716 1.1307,-0.23976 1.6563,-0.34375 0.5052,-0.0987 0.9712,-0.1797 1.4063,-0.21875 0.1915,-0.0172 0.3804,-0.0247 0.5624,-0.0312 z m 3.9063,1.71875 c 0.4229,0.60421 0.7147,1.49507 0.625,2.875 -0.097,1.49332 -0.519,2.10327 -0.8125,2.375 -1.0298,0.52626 -2.3845,0.80537 -3.7188,0.59375 -0.8293,-0.13237 -1.6579,-0.46497 -2.3124,-0.90625 -0.2024,-0.13632 -0.2667,-0.31424 -0.4376,-0.46875 0.9693,-0.2427 1.8536,-0.60067 2.5938,-1.0625 1.1406,-0.71192 2.0627,-1.55807 2.9062,-2.34375 0.4107,-0.38233 0.7766,-0.7166 1.1563,-1.0625 z m -31.75,4.3125 c -0.5135,0 -0.9177,0.11215 -1.2187,0.34375 -0.2835,0.23161 -0.4063,0.53651 -0.4063,0.875 0,0.32068 0.1,0.56746 0.3125,0.78125 0.2302,0.19598 0.4938,0.30814 0.8125,0.34375 0.3364,0.0178 0.6312,0.17026 0.8437,0.4375 0.2127,0.26724 0.3124,0.5184 0.3126,0.75 0,0.85516 -0.2679,1.50555 -0.7813,1.96875 -0.4959,0.48103 -1.0905,0.79497 -1.7813,0.9375 -0.177,0.0356 -0.2909,0.11185 -0.3437,0.21875 -0.017,0.0356 -0.031,0.0581 -0.031,0.0937 3e-4,0.0534 0.041,0.13404 0.094,0.1875 0.089,0.0891 0.2292,0.125 0.4062,0.125 l 0.031,0 c 0.7969,-0.0356 1.6189,-0.4886 2.4687,-1.34375 0.8679,-0.85516 1.3126,-1.89571 1.3126,-3.125 0,-0.74825 -0.2002,-1.36272 -0.625,-1.84375 -0.4076,-0.49883 -0.8929,-0.75 -1.4063,-0.75 z m 35.4687,11.125 c -1.3103,2e-5 -2.5771,0.56075 -3.7812,1.71875 -0.6021,0.58793 -1.079,1.45794 -1.4688,2.5625 -0.3896,1.10459 -0.5937,2.38287 -0.5937,3.84375 -0.7791,0.39196 -1.2969,0.61628 -1.5625,0.6875 -0.1236,0.0713 -0.1104,0.21934 0.031,0.46875 0.071,0.10688 0.1204,0.18751 0.1563,0.1875 0.3718,0.0357 0.8261,0.0313 1.375,0.0312 l 0,7.53125 c 0,0.55229 -0.3946,0.95589 -1.1563,1.1875 -0.4072,0.14253 -0.5937,0.29059 -0.5937,0.46875 0,0.16036 0.1769,0.25 0.5313,0.25 l 0.062,0 2.125,-0.125 2.0938,0.125 0.062,0 c 0.3541,0 0.5311,-0.0897 0.5313,-0.25 -3e-4,-0.17816 -0.1865,-0.32622 -0.5938,-0.46875 -0.7437,-0.23161 -1.1383,-0.63521 -1.1562,-1.1875 l 0,-7.1875 c -3e-4,-0.0178 0.013,-0.0715 0.031,-0.125 0.017,-0.0712 0.041,-0.10715 0.094,-0.125 0.053,-0.0178 0.13,-0.0581 0.2187,-0.0937 0.1063,-0.0356 0.347,-0.0312 0.7187,-0.0312 l 2.5,0 c 0.089,10e-6 0.1793,-0.12996 0.25,-0.34375 0.072,-0.2316 0.094,-0.41559 0.094,-0.59375 0,-0.19597 -0.023,-0.33939 -0.094,-0.375 l -3.1562,0 c -0.4426,10e-6 -0.6562,-0.17054 -0.6562,-0.5625 l 0,-1.4375 c -3e-4,-1.7281 0.254,-2.99296 0.75,-3.8125 0.5135,-0.83732 1.1948,-1.24998 2.0624,-1.25 0.4606,2e-5 0.8782,0.0897 1.25,0.25 0.3721,0.14255 0.6353,0.31748 0.8126,0.53125 0.4603,0.53448 0.8145,0.78126 1.0624,0.78125 0.4251,10e-6 0.7198,-0.17053 0.8438,-0.5625 0.071,-0.19595 0.094,-0.40214 0.094,-0.5625 0,-0.3563 -0.1231,-0.62995 -0.4063,-0.84375 -0.4073,-0.32067 -0.7751,-0.52243 -1.0937,-0.59375 -0.3367,-0.0713 -0.8176,-0.0937 -1.4376,-0.0937 z m -82.375,0.0312 -0.031,0.0312 c -1.6113,0.60575 -2.6509,0.95562 -3.0938,1.0625 -0.1241,0.0178 -0.1874,0.12998 -0.1874,0.34375 0.018,0.19599 0.095,0.29475 0.2187,0.3125 0.8145,0.17817 1.2187,0.84637 1.2187,1.96875 l 0,13.46875 c 0,0.16035 -0.036,0.32185 -0.125,0.5 -0.088,0.16034 -0.3789,0.30841 -0.875,0.46875 -0.4957,0.16034 -0.75,0.32184 -0.75,0.5 0,0.16036 0.1772,0.25 0.5313,0.25 l 0.094,0 2.0626,-0.125 2.0624,0.125 0.094,0 c 0.3541,0 0.5314,-0.0897 0.5312,-0.25 3e-4,-0.17816 -0.1906,-0.31279 -0.5624,-0.4375 -0.3545,-0.12471 -0.6449,-0.23686 -0.875,-0.34375 -0.2128,-0.1069 -0.3124,-0.33118 -0.3126,-0.6875 l 0,-13.375 c 0,-1.28272 0.054,-2.33671 0.125,-3.15625 0.035,-0.28503 0.031,-0.43314 0.031,-0.46875 0,-0.12467 -0.05,-0.18748 -0.1563,-0.1875 z m 128.0938,0.0312 c -0.089,2e-5 -0.2657,0.0494 -0.5312,0.15625 l -1.125,0.40625 c -0.496,0.17817 -1.0134,0.3575 -1.5626,0.5 -0.1241,0.0356 -0.1874,0.14779 -0.1874,0.34375 -3e-4,0.17817 0.077,0.27689 0.2187,0.3125 0.4958,0.10692 0.8362,0.29528 1.0313,0.5625 0.2125,0.24944 0.3124,0.72926 0.3124,1.40625 l 0,4.21875 c 0,0.32069 -0.027,0.49128 -0.062,0.5625 -0.036,0.0713 -0.1084,0.0488 -0.25,-0.0937 -0.1242,-0.16033 -0.4283,-0.31278 -0.9063,-0.4375 -0.4604,-0.14247 -0.8646,-0.18748 -1.2187,-0.1875 -1.7887,2e-5 -3.246,0.58761 -4.3438,1.78125 -1.0978,1.17585 -1.6562,2.53035 -1.6562,4.0625 -3e-4,1.51433 0.4716,2.83293 1.375,3.9375 0.9206,1.10458 2.1104,1.65625 3.5624,1.65625 0.797,0 1.4917,-0.18837 2.0938,-0.5625 0.6021,-0.39194 1.0563,-0.84491 1.375,-1.34375 l 0,0.125 c 0,0.17816 -0.028,0.47867 -0.062,0.90625 -0.053,0.5701 -0.062,0.89753 -0.062,0.96875 0,0.0178 0.063,0.0312 0.1875,0.0312 0.1417,0 0.5459,-0.16589 1.2187,-0.46875 0.6908,-0.28505 1.4855,-0.46904 2.4063,-0.59375 0.2479,0 0.375,-0.13901 0.375,-0.40625 0,-0.26723 -0.1405,-0.36596 -0.4063,-0.3125 -0.2655,0.0535 -0.6699,0.0625 -1.2187,0.0625 -0.3719,0 -0.5625,-0.59198 -0.5625,-1.75 l 0,-12.0625 c 0,-1.08675 0.081,-2.14074 0.1875,-3.15625 0.036,-0.28503 0.036,-0.45993 0,-0.53125 0,-0.0713 -0.081,-0.0937 -0.1875,-0.0937 z m -135.4688,2.375 c -0.3718,2e-5 -0.7031,0.13903 -0.9687,0.40625 -0.2478,0.24944 -0.375,0.57682 -0.375,0.96875 0,0.37415 0.1272,0.70152 0.375,0.96875 0.2656,0.24943 0.5969,0.37501 0.9687,0.375 0.3899,1e-5 0.6895,-0.12557 0.9376,-0.375 0.2656,-0.26723 0.4062,-0.5946 0.4062,-0.96875 0,-0.39193 -0.1406,-0.71931 -0.4062,-0.96875 -0.2481,-0.26722 -0.5477,-0.40623 -0.9376,-0.40625 z m -7.5624,3.90625 c -0.089,1e-5 -0.2927,0.29147 -0.5938,0.84375 -0.1062,0.2138 -0.1792,0.36628 -0.25,0.4375 -0.6197,0.62356 -1.2823,1.00936 -1.9375,1.1875 -0.071,0.0356 -0.094,0.085 -0.094,0.15625 0,0.0891 0.023,0.1878 0.094,0.3125 0.071,0.10688 0.1347,0.18751 0.1875,0.1875 l 0.3438,0 c 0.1239,0 0.1969,-0.0178 0.25,0 0.071,0 0.175,0.0269 0.2812,0.0625 0.1066,0.0178 0.1563,0.11653 0.1562,0.3125 l 0,6.21875 c 0,1.06894 0.2408,1.87178 0.7188,2.40625 0.4958,0.51666 1.0865,0.78125 1.8125,0.78125 0.7437,0 1.4563,-0.19276 2.0937,-0.53125 0.6377,-0.35632 1.0279,-0.67026 1.1876,-0.9375 0.035,-0.0534 0.062,-0.11618 0.062,-0.1875 3e-4,-0.35643 -0.104,-0.46846 -0.2812,-0.34375 -0.4426,0.33849 -1.1146,0.5 -2,0.5 -0.4958,0 -0.9135,-0.15712 -1.25,-0.53125 -0.3364,-0.39194 -0.5,-1.06015 -0.5,-1.96875 l 0,-5.53125 0.031,-0.0937 c 0.036,-0.0713 0.059,-0.12499 0.094,-0.125 l 0.5,-0.0312 c 1.027,1e-5 2.0354,1e-5 3.0625,0 0.1417,1e-5 0.2187,-0.22866 0.2187,-0.65625 0,-0.42757 -0.077,-0.65624 -0.2187,-0.65625 l -3.0313,0 c -0.3896,10e-6 -0.5624,-0.0943 -0.5624,-0.34375 l 0,-1.1875 c 0,-0.17816 -0.1272,-0.28124 -0.375,-0.28125 z m 20.9062,0 c -0.089,1e-5 -0.2614,0.29147 -0.5625,0.84375 -0.1062,0.2138 -0.2103,0.36628 -0.2813,0.4375 -0.6197,0.62356 -1.2511,1.00936 -1.9062,1.1875 -0.071,0.0356 -0.125,0.085 -0.125,0.15625 0,0.0891 0.054,0.1878 0.125,0.3125 0.071,0.10688 0.1347,0.18751 0.1875,0.1875 l 0.3125,0 c 0.1239,0 0.1972,-0.0178 0.25,0 0.071,0 0.175,0.0269 0.2812,0.0625 0.1068,0.0178 0.1563,0.11653 0.1563,0.3125 l 0,6.21875 c 0,1.06894 0.2406,1.87178 0.7187,2.40625 0.496,0.51666 1.1178,0.78125 1.8438,0.78125 0.7437,0 1.4251,-0.19276 2.0625,-0.53125 0.6374,-0.35632 1.0281,-0.67026 1.1875,-0.9375 0.035,-0.0534 0.062,-0.11618 0.062,-0.1875 -10e-5,-0.35643 -0.104,-0.46846 -0.2813,-0.34375 -0.4426,0.33849 -1.0834,0.5 -1.9687,0.5 -0.4958,0 -0.9135,-0.15712 -1.25,-0.53125 -0.3365,-0.39194 -0.5,-1.06015 -0.5,-1.96875 l 0,-5.53125 0,-0.0937 c 0.035,-0.0713 0.09,-0.12499 0.125,-0.125 l 0.4687,-0.0312 c 1.0272,1e-5 2.0667,1e-5 3.0938,0 0.1417,1e-5 0.2186,-0.22866 0.2188,-0.65625 0,-0.42757 -0.077,-0.65624 -0.2188,-0.65625 l -3.0312,0 c -0.3899,10e-6 -0.5938,-0.0943 -0.5938,-0.34375 l 0,-1.1875 c 0,-0.17816 -0.1271,-0.28124 -0.375,-0.28125 z m -12.1562,0.90625 c -0.089,2e-5 -0.3022,0.1434 -0.6563,0.375 l -0.5937,0.34375 c -0.6731,0.42759 -1.3314,0.6878 -1.9688,0.8125 -0.1241,0.0356 -0.1875,0.14778 -0.1875,0.34375 0,0.17816 0.077,0.30814 0.2187,0.34375 0.8325,0.17816 1.25,0.81511 1.25,1.9375 l 0,5.8125 c 0,0.16035 -0.036,0.32185 -0.125,0.5 -0.088,0.16034 -0.379,0.30841 -0.875,0.46875 -0.4958,0.16034 -0.75,0.32184 -0.75,0.5 0,0.16036 0.1772,0.25 0.5313,0.25 l 0.062,0 2.0938,-0.125 2.0624,0.125 0.094,0 c 0.3542,0 0.5314,-0.0897 0.5312,-0.25 0,-0.17816 -0.1906,-0.31279 -0.5624,-0.4375 -0.3544,-0.12471 -0.6449,-0.23686 -0.875,-0.34375 -0.2127,-0.1069 -0.3125,-0.33118 -0.3126,-0.6875 l 0,-6.21875 c 0,-0.76607 0.059,-1.95469 0.2188,-3.59375 0,-0.0891 -0.05,-0.15623 -0.1562,-0.15625 z m 46.5,0.125 c -0.036,0 -0.044,0.0135 -0.063,0.0312 -1.027,0.76609 -2.0167,1.25497 -2.9374,1.46875 -0.1244,0.0356 -0.1876,0.14779 -0.1876,0.34375 3e-4,0.17816 0.077,0.27689 0.2188,0.3125 0.726,0.14254 1.0936,0.7973 1.0938,1.9375 l 0,5.75 c 0,0.21379 -0.1042,0.39778 -0.2813,0.59375 -0.035,0.0534 -0.1083,0.11628 -0.25,0.1875 -0.1417,0.0712 -0.2597,0.10715 -0.3125,0.125 -0.035,0 -0.1989,0.0806 -0.5,0.1875 -0.2832,0.0891 -0.4062,0.19684 -0.4062,0.375 0,0.16036 0.1771,0.25 0.5312,0.25 l 0.062,0 2.0937,-0.125 2.0626,0.125 0.062,0 c 0.3544,0 0.5312,-0.0897 0.5313,-0.25 -1e-4,-0.23161 -0.3405,-0.4156 -1.0313,-0.59375 -0.071,-0.0178 -0.1937,-0.0806 -0.4062,-0.1875 -0.1944,-0.12471 -0.3125,-0.349 -0.3125,-0.6875 l 0,-5.53125 c 0,-0.97986 0.2948,-1.65712 0.8437,-2.03125 0.5492,-0.37412 1.2438,-0.56249 2.0938,-0.5625 0.8676,10e-6 1.5259,0.24212 1.9688,0.6875 0.4426,0.44541 0.6561,1.04643 0.6562,1.8125 l 0,5.625 c -1e-4,0.16035 -0.036,0.32185 -0.125,0.5 -0.089,0.16034 -0.3792,0.30841 -0.875,0.46875 -0.4959,0.16034 -0.75,0.32184 -0.75,0.5 0,0.16036 0.1771,0.25 0.5312,0.25 l 0.063,0 2.125,-0.125 2.125,0.125 0.062,0 c 0.3544,0 0.5313,-0.0897 0.5313,-0.25 0,-0.17816 -0.1906,-0.31279 -0.5625,-0.4375 -0.3541,-0.12471 -0.6448,-0.23686 -0.875,-0.34375 -0.2124,-0.1069 -0.3125,-0.33118 -0.3125,-0.6875 l 0,-6.25 c 0,-1.01548 -0.2906,-1.79145 -0.875,-2.34375 -0.5666,-0.55228 -1.2615,-0.81248 -2.0937,-0.8125 -0.8148,2e-5 -1.6502,0.17056 -2.5,0.5625 -0.8325,0.37414 -1.5043,0.77775 -2,1.1875 -0.054,-0.1247 -0.066,-0.2862 -0.031,-0.5 l 0.125,-0.84375 c 0.036,-0.33849 0.045,-0.52243 0.062,-0.59375 -0.053,-0.16037 -0.1034,-0.24999 -0.1562,-0.25 z m 29.3437,0 c -0.035,0 -0.031,0.0135 -0.031,0.0312 0,2e-5 -0.013,2e-5 -0.031,0 l -1.4688,0.9375 c -0.3187,0.2138 -0.8269,0.38872 -1.5,0.53125 -0.1241,0.0178 -0.1562,0.12998 -0.1562,0.34375 0.018,0.19599 0.064,0.29465 0.1875,0.3125 0.726,0.16035 1.0939,0.81511 1.0937,1.9375 l 0,5.75 c 3e-4,0.23161 -0.063,0.38872 -0.1874,0.53125 -0.1064,0.14253 -0.2061,0.25904 -0.3126,0.3125 -0.1061,0.0356 -0.306,0.11186 -0.625,0.21875 -0.3187,0.1069 -0.4998,0.22809 -0.5,0.40625 3e-4,0.16036 0.1772,0.25 0.5313,0.25 l 0.094,0 2.0626,-0.125 2.25,0.125 0.062,0 c 0.3544,0 0.5313,-0.0897 0.5313,-0.25 0,-0.17816 -0.1865,-0.32622 -0.5937,-0.46875 -0.9387,-0.28505 -1.4194,-0.67522 -1.4376,-1.15625 l 0,-5.25 c 3e-4,-0.81952 0.1772,-1.4115 0.5313,-1.75 0.3719,-0.33849 0.799,-0.49999 1.3125,-0.5 0.1771,1e-5 0.4717,0.0897 0.8438,0.25 0.3718,0.16036 0.6489,0.21876 0.8437,0.21875 0.1947,1e-5 0.3813,-0.14806 0.5937,-0.46875 0.2304,-0.32068 0.3438,-0.60775 0.3438,-0.875 0,-0.26723 -0.1272,-0.49589 -0.375,-0.65625 -0.2302,-0.16037 -0.5032,-0.21873 -0.875,-0.21875 -0.7792,2e-5 -1.6187,0.35893 -2.4688,1.125 -0.053,0.0535 -0.1124,0.14311 -0.2187,0.25 l -0.25,0.28125 c -0.071,0.0891 -0.1212,0.15626 -0.1563,0.15625 -0.018,1e-5 -0.018,-0.2421 0,-0.6875 0.035,-0.44538 0.063,-0.89397 0.063,-1.375 -0.035,-0.12468 -0.1035,-0.18749 -0.1563,-0.1875 z m 18.1875,0.375 c -1.2395,1e-5 -2.3563,0.37237 -3.3125,1.15625 -0.9562,0.76609 -1.4063,1.74824 -1.4063,2.90625 3e-4,1.15802 0.4137,2.14923 1.2813,2.96875 0.425,0.40976 0.7521,0.63404 1,0.6875 -0.2302,0.32069 -0.5844,0.6212 -1.0625,0.90625 -0.2478,0.14253 -0.4113,0.24118 -0.5,0.3125 -0.4073,0.32068 -0.5936,0.66151 -0.5938,1 0,0.55229 0.2543,0.99181 0.75,1.3125 0.4961,0.33849 1.0231,0.56279 1.625,0.6875 -0.2655,0.40976 -0.7197,0.80899 -1.375,1.21875 -0.6374,0.40976 -1.0914,0.8268 -1.375,1.21875 -0.2655,0.40976 -0.4062,0.88521 -0.4062,1.4375 0,1.06894 0.4813,1.83147 1.4375,2.3125 0.9739,0.48102 2.1231,0.74999 3.4687,0.75 1.3637,-1e-5 2.6939,-0.61886 3.9688,-1.8125 1.2925,-1.17585 1.9375,-2.48099 1.9375,-3.90625 0,-0.76608 -0.2499,-1.31776 -0.7813,-1.65625 -0.3187,-0.19598 -0.6864,-0.38435 -1.0937,-0.5625 -0.3896,-0.17816 -1.7292,-0.34871 -4.0313,-0.5625 -1.6998,-0.16034 -2.5624,-0.52365 -2.5624,-1.09375 0,-0.26724 0.3771,-0.70676 1.1562,-1.3125 0.3895,0.21379 0.8708,0.31251 1.4375,0.3125 1.2749,1e-5 2.3376,-0.51575 3.1875,-1.53125 0.8499,-1.01549 1.2812,-2.19506 1.2812,-3.53125 0,-0.62353 0.023,-1.02276 0.094,-1.21875 0.071,-0.0179 0.1347,-0.0446 0.1875,-0.0625 0.053,-0.0356 0.13,-0.0581 0.2187,-0.0937 0.089,-0.0356 0.4699,-0.0625 1.125,-0.0625 0.1771,0 0.2501,-0.15244 0.25,-0.4375 0,-0.33848 -0.073,-0.5134 -0.25,-0.53125 -0.1594,-0.0177 -0.35,-0.0312 -0.5624,-0.0312 l -0.8438,0.0312 c -0.6906,1e-5 -1.5897,-0.17492 -2.6875,-0.53125 -0.6021,-0.19596 -1.1198,-0.28124 -1.5625,-0.28125 z m -110.1875,0.0625 c -1.0978,2e-5 -1.9428,0.28271 -2.5625,0.90625 -0.6198,0.60574 -0.9375,1.3233 -0.9375,2.125 0,1.01551 0.8449,2.14572 2.5625,3.375 0.6728,0.48103 1.1675,0.88026 1.4688,1.21875 0.3009,0.3385 0.4687,0.74211 0.4687,1.1875 0,1.26492 -0.6585,1.875 -1.9687,1.875 -0.4606,0 -0.9283,-0.18399 -1.4063,-0.59375 -0.4781,-0.40976 -0.7863,-0.8493 -0.875,-1.3125 -0.018,-0.12468 -0.1542,-0.18749 -0.4375,-0.1875 -0.2656,1e-5 -0.4064,0.0897 -0.4062,0.25 0.035,0.677 0.1489,1.21524 0.3437,1.625 0.089,0.19598 0.4333,0.37996 1,0.59375 0.5666,0.23161 1.1573,0.375 1.8125,0.375 2.5498,0 3.8438,-1.08085 3.8438,-3.21875 -3e-4,-0.53446 -0.1772,-1.06366 -0.5313,-1.5625 -0.3542,-0.51666 -0.6719,-0.86652 -0.9375,-1.0625 -0.2656,-0.19597 -0.6198,-0.43369 -1.0625,-0.71875 -1.5051,-0.94422 -2.2501,-1.73362 -2.25,-2.375 -10e-5,-0.46319 0.1227,-0.87586 0.4063,-1.25 0.2833,-0.37412 0.6874,-0.56249 1.2187,-0.5625 0.5312,1e-5 0.976,0.17494 1.3125,0.53125 0.3541,0.3385 0.5577,0.66152 0.5938,1 0.018,0.10691 0.1312,0.23248 0.3437,0.375 0.2302,0.12468 0.4071,0.1875 0.5313,0.1875 0.1241,0 0.1874,-0.0224 0.1874,-0.0937 0,-1.01549 -0.1677,-1.71961 -0.4687,-2.09375 -0.4073,-0.40975 -1.1522,-0.59373 -2.25,-0.59375 z m 37.9687,0 c -1.133,0.13641 -2.1163,0.75254 -2.9374,1.84375 -0.9388,1.24711 -1.4063,2.62848 -1.4063,4.125 0,1.49652 0.4449,2.77481 1.3125,3.84375 0.8676,1.06894 1.8667,1.625 3,1.625 1.1509,0 2.0998,-0.26459 2.8438,-0.78125 0.7613,-0.53447 1.2154,-1.08614 1.375,-1.65625 0.018,-0.10689 -0.023,-0.22343 -0.094,-0.3125 -0.071,-0.0891 -0.1298,-0.125 -0.2188,-0.125 -0.071,0 -0.161,0.0359 -0.25,0.125 -0.549,0.71264 -1.3842,1.09375 -2.5,1.09375 -1.0978,0 -2.0198,-0.43953 -2.7812,-1.3125 -0.7437,-0.89078 -1.125,-2.01195 -1.125,-3.3125 0,-0.42758 0.036,-0.67434 0.125,-0.78125 0.1063,-0.12467 0.2833,-0.18749 0.5312,-0.1875 l 4.375,0 c 0.6022,1e-5 1.0655,-0.10309 1.4376,-0.28125 0.3895,-0.19597 0.5937,-0.65798 0.5937,-1.40625 0,-0.76606 -0.304,-1.3671 -0.9063,-1.8125 -0.5844,-0.4632 -1.529,-0.68748 -2.875,-0.6875 -0.1682,0 -0.3379,-0.0195 -0.5,0 z m 15.4063,0 c -1.133,0.13641 -2.1164,0.75254 -2.9375,1.84375 -0.9385,1.24711 -1.4062,2.62848 -1.4062,4.125 0,1.49652 0.4448,2.77481 1.3124,3.84375 0.8679,1.06894 1.8668,1.625 3,1.625 1.1512,0 2.1002,-0.26459 2.8438,-0.78125 0.7615,-0.53447 1.2157,-1.08614 1.375,-1.65625 0.018,-0.10689 0.01,-0.22343 -0.062,-0.3125 -0.071,-0.0891 -0.1613,-0.125 -0.25,-0.125 -0.071,0 -0.1613,0.0359 -0.25,0.125 -0.5489,0.71264 -1.3844,1.09375 -2.5,1.09375 -1.0978,0 -2.0197,-0.43953 -2.7813,-1.3125 -0.7437,-0.89078 -1.1248,-2.01195 -1.125,-3.3125 0,-0.42758 0.068,-0.67434 0.1563,-0.78125 0.1063,-0.12467 0.2831,-0.18749 0.5313,-0.1875 l 4.3437,0 c 0.602,1e-5 1.0969,-0.10309 1.4687,-0.28125 0.3898,-0.19597 0.5626,-0.65798 0.5626,-1.40625 0,-0.76606 -0.2731,-1.3671 -0.875,-1.8125 -0.5847,-0.4632 -1.5606,-0.68748 -2.9063,-0.6875 -0.1682,0 -0.3381,-0.0195 -0.5,0 z m 29.3125,0 c -1.133,0.13641 -2.0851,0.75254 -2.9062,1.84375 -0.9388,1.24711 -1.4063,2.62848 -1.4063,4.125 0,1.49652 0.4134,2.77481 1.2813,3.84375 0.8676,1.06894 1.8665,1.625 3,1.625 1.1509,0 2.1,-0.26459 2.8437,-0.78125 0.7615,-0.53447 1.2157,-1.08614 1.375,-1.65625 0.018,-0.10689 0.01,-0.22343 -0.062,-0.3125 -0.071,-0.0891 -0.1613,-0.125 -0.25,-0.125 -0.071,0 -0.1298,0.0359 -0.2188,0.125 -0.5489,0.71264 -1.3843,1.09375 -2.5,1.09375 -1.0978,0 -2.0511,-0.43953 -2.8124,-1.3125 -0.744,-0.89078 -1.0938,-2.01195 -1.0938,-3.3125 0,-0.42758 0.036,-0.67434 0.125,-0.78125 0.1063,-0.12467 0.2833,-0.18749 0.5312,-0.1875 l 4.3438,0 c 0.6021,1e-5 1.0967,-0.10309 1.4688,-0.28125 0.3895,-0.19597 0.5937,-0.65798 0.5937,-1.40625 0,-0.76606 -0.3041,-1.3671 -0.9063,-1.8125 -0.5844,-0.4632 -1.5605,-0.68748 -2.9062,-0.6875 -0.1682,0 -0.3381,-0.0195 -0.5,0 z m 39.4375,0 c -1.3189,0.13836 -2.4929,0.7682 -3.5,1.875 -1.1332,1.24711 -1.6875,2.63754 -1.6875,4.1875 0,1.53216 0.4907,2.82826 1.5,3.84375 1.0093,1.0155 2.2761,1.53125 3.7812,1.53125 1.8948,0 3.3616,-0.60541 4.4063,-1.78125 1.0624,-1.19364 1.5939,-2.55721 1.5937,-4.125 0,-1.56778 -0.5313,-2.88637 -1.5937,-3.9375 -1.0624,-1.06893 -2.3793,-1.59373 -3.9375,-1.59375 -0.1948,0 -0.3741,-0.0198 -0.5625,0 z m 12.0937,0 c -1.133,0.13641 -2.085,0.75254 -2.9062,1.84375 -0.9384,1.24711 -1.4062,2.62848 -1.4062,4.125 -3e-4,1.49652 0.4136,2.77481 1.2812,3.84375 0.8676,1.06894 1.8668,1.625 3,1.625 1.151,0 2.0998,-0.26459 2.8438,-0.78125 0.7614,-0.53447 1.2153,-1.08614 1.375,-1.65625 0.018,-0.10689 0.01,-0.22343 -0.063,-0.3125 -0.071,-0.0891 -0.161,-0.125 -0.25,-0.125 -0.071,0 -0.13,0.0359 -0.2187,0.125 -0.5489,0.71264 -1.3845,1.09375 -2.5,1.09375 -1.0978,0 -2.0511,-0.43953 -2.8125,-1.3125 -0.7437,-0.89078 -1.0938,-2.01195 -1.0938,-3.3125 0,-0.42758 0.036,-0.67434 0.125,-0.78125 0.1065,-0.12467 0.2835,-0.18749 0.5313,-0.1875 l 4.3437,0 c 0.6023,1e-5 1.0969,-0.10309 1.4688,-0.28125 0.3895,-0.19597 0.5938,-0.65798 0.5938,-1.40625 0,-0.76606 -0.3042,-1.3671 -0.9063,-1.8125 -0.5843,-0.4632 -1.5604,-0.68748 -2.9063,-0.6875 -0.1682,0 -0.3379,-0.0195 -0.5,0 z m -24.3437,0.71875 c 0.7083,1e-5 1.303,0.34083 1.7813,1 0.4781,0.65918 0.7187,1.43954 0.7187,2.3125 0,0.85516 -0.2584,1.59083 -0.7187,2.25 -0.443,0.65918 -0.9968,1.00001 -1.6876,1 -0.6905,1e-5 -1.2716,-0.34986 -1.75,-1.0625 -0.4603,-0.71262 -0.6876,-1.47953 -0.6874,-2.28125 -3e-4,-0.8017 0.1999,-1.52831 0.625,-2.1875 0.4249,-0.67699 1.0105,-1.03124 1.7187,-1.03125 z m -71.4687,0.0937 c 1.328,10e-6 2.036,0.45297 2.125,1.34375 -3e-4,0.69482 -0.077,1.04465 -0.2188,1.0625 -0.4604,0.0891 -1.1053,0.12501 -1.9375,0.125 l -2.1875,0 c -0.2478,1e-5 -0.3978,-0.0718 -0.4688,-0.25 -0.035,-0.0713 -0.062,-0.13404 -0.062,-0.1875 -3e-4,-0.10689 0.067,-0.21903 0.1562,-0.34375 0.6197,-1.15801 1.478,-1.74999 2.5938,-1.75 z m 15.4062,0 c 1.328,10e-6 2.0363,0.45297 2.125,1.34375 0,0.69482 -0.077,1.04465 -0.2188,1.0625 -0.4603,0.0891 -1.1053,0.12501 -1.9374,0.125 l -2.1563,0 c -0.2478,1e-5 -0.4292,-0.0718 -0.5,-0.25 -0.035,-0.0713 -0.031,-0.13404 -0.031,-0.1875 3e-4,-0.10689 0.036,-0.21903 0.125,-0.34375 0.62,-1.15801 1.4782,-1.74999 2.5938,-1.75 z m 29.3438,0 c 1.328,10e-6 2.036,0.45297 2.125,1.34375 -3e-4,0.69482 -0.077,1.04465 -0.2188,1.0625 -0.4604,0.0891 -1.1052,0.12501 -1.9375,0.125 l -2.1875,0 c -0.2479,1e-5 -0.3978,-0.0718 -0.4688,-0.25 -0.035,-0.0713 -0.062,-0.13404 -0.062,-0.1875 -3e-4,-0.10689 0.036,-0.21903 0.125,-0.34375 0.6197,-1.15801 1.5092,-1.74999 2.625,-1.75 z m 39.125,0 c 1.08,10e-6 1.9792,0.52482 2.6874,1.59375 0.7086,1.05113 1.0624,2.28444 1.0626,3.65625 -3e-4,1.37182 -0.1772,2.39894 -0.5313,3.09375 -0.4959,0.97986 -1.3907,1.46875 -2.7187,1.46875 -1.0272,0 -1.9167,-0.52919 -2.625,-1.5625 -0.7085,-1.05113 -1.0626,-2.25319 -1.0626,-3.625 3e-4,-3.08212 1.0625,-4.62499 3.1876,-4.625 z m 12.4062,0 c 1.328,10e-6 2.0363,0.45297 2.125,1.34375 0,0.69482 -0.077,1.04465 -0.2188,1.0625 -0.4603,0.0891 -1.1052,0.12501 -1.9374,0.125 l -2.1876,0 c -0.2479,1e-5 -0.3979,-0.0718 -0.4687,-0.25 -0.035,-0.0713 -0.062,-0.13404 -0.062,-0.1875 0,-0.10689 0.036,-0.21903 0.125,-0.34375 0.6197,-1.15801 1.5094,-1.74999 2.625,-1.75 z m 10.625,0.0937 c 0.9738,10e-6 1.7729,0.3677 2.375,1.0625 0.6021,0.69482 0.9062,1.43049 0.9062,2.25 l 0,3.625 c 0,0.65918 -0.2407,1.2243 -0.7187,1.6875 -0.4781,0.46321 -1.1,0.6875 -1.8437,0.6875 -0.744,0 -1.5116,-0.30052 -2.3438,-0.90625 -0.4427,-0.32068 -0.824,-0.82299 -1.125,-1.5 -0.2833,-0.6948 -0.4375,-1.48421 -0.4375,-2.375 0,-0.89079 0.1136,-1.65769 0.3437,-2.28125 0.2304,-0.62353 0.5208,-1.07213 0.875,-1.375 0.6731,-0.57009 1.3313,-0.87499 1.9688,-0.875 z m -36.6562,11.0625 0.625,0 c 1.08,0.0534 1.9291,0.11186 2.5312,0.21875 0.6021,0.12471 1.1064,0.35339 1.5312,0.65625 0.443,0.30286 0.6563,0.6796 0.6563,1.125 0,1.08676 -0.3769,1.97486 -1.1563,2.6875 -0.7791,0.71263 -1.705,1.0625 -2.75,1.0625 -1.0447,0 -1.88,-0.2871 -2.5,-0.875 -0.602,-0.57011 -0.9062,-1.31016 -0.9062,-2.21875 0,-0.46321 0.2314,-0.93867 0.6562,-1.4375 0.6732,-0.677 1.0999,-1.07622 1.3126,-1.21875 z"
               transform="matrix(1.0030618,0,0,0.99694755,0,837.20099)"
               id="path5792"
               style="line-height:110.00000238%;fill:#000000;font-family:EB Garamond;-inkscape-font-specification:EB Garamond" />
          </g>
        </g>
      </g>
      <path
         d="m 108.91657,874.95954 c 0,-12.3992 23.2176,-22.4508 51.858,-22.4508 28.6404,0 51.858,10.0516 51.858,22.4508"
         id="path5717"
         style="fill:none;stroke:#000000;stroke-width:3;stroke-miterlimit:4;stroke-dasharray:none;display:inline;enable-background:new" />
    </g>
  </g>
</svg>
