<?xml version="1.0" encoding="UTF-8" standalone="no"?>
<!-- Created with Inkscape (http://www.inkscape.org/) -->

<svg
   xmlns:dc="http://purl.org/dc/elements/1.1/"
   xmlns:cc="http://creativecommons.org/ns#"
   xmlns:rdf="http://www.w3.org/1999/02/22-rdf-syntax-ns#"
   xmlns:svg="http://www.w3.org/2000/svg"
   xmlns="http://www.w3.org/2000/svg"
   xmlns:sodipodi="http://sodipodi.sourceforge.net/DTD/sodipodi-0.dtd"
   xmlns:inkscape="http://www.inkscape.org/namespaces/inkscape"
   width="70"
   height="70"
   id="svg15338"
   version="1.1"
   inkscape:version="0.48.3.1 r9886"
   sodipodi:docname="feet.svg">
  <defs
     id="defs15340">
    <inkscape:path-effect
       effect="spiro"
       id="path-effect4394"
       is_visible="true" />
    <inkscape:path-effect
       effect="spiro"
       id="path-effect4396"
       is_visible="true" />
    <inkscape:path-effect
       effect="spiro"
       id="path-effect4398"
       is_visible="true" />
    <inkscape:path-effect
       effect="spiro"
       id="path-effect4391"
       is_visible="true" />
    <inkscape:path-effect
       effect="spiro"
       id="path-effect4388"
       is_visible="true" />
    <inkscape:path-effect
       effect="spiro"
       id="path-effect4385"
       is_visible="true" />
    <inkscape:path-effect
       effect="spiro"
       id="path-effect4382"
       is_visible="true" />
    <inkscape:path-effect
       effect="spiro"
       id="path-effect4378"
       is_visible="true" />
    <inkscape:path-effect
       effect="spiro"
       id="path-effect4375"
       is_visible="true" />
    <inkscape:path-effect
       effect="spiro"
       id="path-effect4372"
       is_visible="true" />
    <inkscape:path-effect
       effect="spiro"
       id="path-effect4369"
       is_visible="true" />
    <inkscape:path-effect
       effect="spiro"
       id="path-effect4366"
       is_visible="true" />
    <inkscape:path-effect
       effect="spiro"
       id="path-effect4363"
       is_visible="true" />
    <inkscape:path-effect
       effect="spiro"
       id="path-effect4360"
       is_visible="true" />
    <inkscape:path-effect
       effect="spiro"
       id="path-effect4356"
       is_visible="true" />
    <inkscape:path-effect
       effect="spiro"
       id="path-effect4353"
       is_visible="true" />
    <inkscape:path-effect
       effect="spiro"
       id="path-effect4350"
       is_visible="true" />
    <inkscape:path-effect
       effect="spiro"
       id="path-effect4347"
       is_visible="true" />
    <inkscape:path-effect
       is_visible="true"
       id="path-effect4344"
       effect="spiro" />
    <inkscape:path-effect
       effect="spiro"
       id="path-effect4341"
       is_visible="true" />
    <inkscape:path-effect
       effect="spiro"
       id="path-effect4338"
       is_visible="true" />
    <inkscape:path-effect
       effect="spiro"
       id="path-effect4335"
       is_visible="true" />
    <inkscape:path-effect
       effect="spiro"
       id="path-effect4332"
       is_visible="true" />
  </defs>
  <sodipodi:namedview
     id="base"
     pagecolor="#ffffff"
     bordercolor="#666666"
     borderopacity="1.0"
     inkscape:pageopacity="0.0"
     inkscape:pageshadow="2"
     inkscape:zoom="1.979899"
     inkscape:cx="54.770162"
     inkscape:cy="33.065477"
     inkscape:document-units="px"
     inkscape:current-layer="g15315"
     showgrid="false"
     borderlayer="true"
     inkscape:showpageshadow="false"
     inkscape:window-width="1280"
     inkscape:window-height="744"
     inkscape:window-x="0"
     inkscape:window-y="27"
     inkscape:window-maximized="1" />
  <metadata
     id="metadata15343">
    <rdf:RDF>
      <cc:Work
         rdf:about="">
        <dc:format>image/svg+xml</dc:format>
        <dc:type
           rdf:resource="http://purl.org/dc/dcmitype/StillImage" />
        <dc:title></dc:title>
      </cc:Work>
    </rdf:RDF>
  </metadata>
  <g
     inkscape:label="Layer 1"
     inkscape:groupmode="layer"
     id="layer1"
     transform="translate(0,-982.3622)">
    <g
       transform="translate(1800.5473,-114.51193)"
       id="g15315">
      <g
         id="g3796">
        <path
           style="fill:#ffffff;stroke:#aa5500;stroke-width:1.80000007000000006;stroke-linecap:butt;stroke-linejoin:miter;stroke-miterlimit:4;stroke-opacity:1;stroke-dasharray:none;enable-background:new"
           d="m -1784.0993,1128.5003 -0.2198,-3.4369 1.2428,-3.4306 0.787,-8.6842 c 0,0 1.8084,-2.2392 3.0115,-2.9775 1.1553,-0.709 2.5037,-1.3244 3.8586,-1.2835 1.1487,0.035 3.1057,0.7188 3.1997,1.2835 0.094,0.5646 0.8471,3.0116 0.7529,3.388 -0.094,0.3764 -0.1882,3.1998 -0.1882,3.6703 0,0.4706 1.3176,4.7997 1.3176,4.7997"
           id="path15260"
           inkscape:connector-curvature="0"
           sodipodi:nodetypes="ccccssscsc" />
        <path
           style="fill:#ffffff;stroke:#aa5500;stroke-width:1.80000007000000006;stroke-linecap:butt;stroke-linejoin:miter;stroke-miterlimit:4;stroke-opacity:1;stroke-dasharray:none;enable-background:new"
           d="m -1788.1177,1137.0597 4.2284,-8.831 c 0,0 1.5569,-5.5442 3.4821,-7.5289 1.221,-1.2588 2.9613,-2.1712 4.7056,-2.3528 1.3546,-0.1411 3.9527,1.0352 3.9527,1.0352 0,0 1.3175,2.0705 1.4116,2.4469 0.094,0.3765 0,3.388 0,3.388"
           id="path15262"
           inkscape:connector-curvature="0"
           sodipodi:nodetypes="ccsscsc" />
        <path
           style="fill:#ffffff;stroke:#aa5500;stroke-width:1.80000007000000006;stroke-linecap:round;stroke-linejoin:round;stroke-miterlimit:4;stroke-opacity:1;stroke-dasharray:none;enable-background:new"
           d="m -1754.6986,1138.0163 c 0,0 1.655,-0.4417 2.619,-0.2824 1.0527,0.1741 1.788,0.847 2.9174,1.3176 1.1294,0.4706 1.4117,2.4469 1.4117,2.4469 l 0.1882,3.2939 c 0,0 -0.3585,1.3764 -1.1031,1.9561 -1.647,1.2821 -4.131,0.9156 -6.1435,1.4689 -1.7151,0.4715 -4.0176,1.6586 -5.7764,1.9238 -2.1496,0.3242 -4.5419,0.1595 -7.342,-0.2775 -1.3033,-0.2035 -0.5277,-4.2243 -0.5277,-4.2243 l 1.5999,-4.4233 c 0,0 0.5203,-1.3595 0.6587,-2.0704 0.1565,-0.8029 -0.08,-1.6434 0.1883,-2.4469 0.1568,-0.4705 0.5274,-0.9189 0.4705,-1.4117 -0.055,-0.4756 -0.7154,-0.746 -0.7529,-1.2234 -0.032,-0.4066 0.4202,-0.7246 0.4706,-1.1293 0.1058,-0.8497 -0.3765,-2.541 -0.3765,-2.541 l 8.4939,1.3902 2.8936,-1.7667 -1.0352,4.7056 0.847,3.2939"
           id="path15264"
           inkscape:connector-curvature="0"
           sodipodi:nodetypes="csssssccsssscccsccccc" />
        <path
           style="fill:#ffffff;stroke:#aa5500;stroke-width:1.80000007000000006;stroke-linecap:round;stroke-linejoin:round;stroke-miterlimit:4;stroke-opacity:1;stroke-dasharray:none;enable-background:new"
           d="m -1754.8089,1130.0168 c 0.2393,-1.088 -1.7411,1.5241 -2.8234,1.7881 -1.7742,0.4329 -3.6651,-0.1255 -5.4584,-0.4705 -1.0622,-0.2045 -2.8101,0.099 -3.1057,-0.9411 -0.1943,-0.6842 0.7676,-1.2982 1.4117,-1.5999 1.9893,-0.9322 4.4143,-0.5075 6.5878,-0.1882 1.1772,0.1729 3.388,1.1236 3.388,1.1236"
           id="path15266"
           inkscape:connector-curvature="0"
           sodipodi:nodetypes="caaaaac" />
        <path
           style="fill:#ffffff;stroke:#aa5500;stroke-width:1.80000007000000006;stroke-linecap:butt;stroke-linejoin:miter;stroke-miterlimit:4;stroke-opacity:1;stroke-dasharray:none;enable-background:new"
           d="m -1788.6782,1143.2448 c 0.49,1.6249 1.0416,2.5658 2.4253,3.55 1.3838,0.9843 3.7784,0.991 5.7778,0.6279 1.9994,-0.3631 3.5664,-1.6417 4.7688,-3.0795 1.2024,-1.4377 0.9898,-2.9044 1.0305,-4.7008 0.048,-2.1299 -0.7267,-3.9839 -0.1479,-6.5508 0.5788,-2.5669 4.4041,-5.6358 4.4864,-7.8745 0.082,-2.2386 -1.8822,-3.9527 -1.8822,-3.9527 0,0 -2.7273,-1.0146 -4.0468,-0.6587 -1.7646,0.4758 -3.1966,1.9782 -4.235,3.4821 -1.3359,1.9347 -1.0641,4.6569 -2.2587,6.6819 -1.4893,2.5245 -3.5567,3.5075 -5.0464,5.8147 -0.9312,1.4424 -1.3619,5.0356 -0.8718,6.6604 z"
           id="path15268"
           inkscape:connector-curvature="0"
           sodipodi:nodetypes="zzzzszzcssssz" />
        <path
           inkscape:connector-curvature="0"
           id="path15270"
           d="m -1768.4551,1145.6393 8.8354,0.5426 4.897,-0.9601 5.377,-1.1523 1.5952,-2.5711"
           style="fill:none;stroke:#aa5500;stroke-width:1.80000007000000006;stroke-linecap:butt;stroke-linejoin:miter;stroke-miterlimit:4;stroke-opacity:1;stroke-dasharray:none;enable-background:new" />
        <path
           sodipodi:nodetypes="cccc"
           inkscape:connector-curvature="0"
           id="path15272"
           d="m -1752.8326,1139.8044 -2.1645,-1.7881 -0.847,-3.2939 1.0352,-4.7056"
           style="fill:none;stroke:#aa5500;stroke-width:1.80000007000000006;stroke-linecap:round;stroke-linejoin:round;stroke-miterlimit:4;stroke-opacity:1;stroke-dasharray:none;enable-background:new" />
      </g>
    </g>
  </g>
</svg>
