<?xml version="1.0" encoding="UTF-8" standalone="no"?>
<!-- Created with Inkscape (http://www.inkscape.org/) -->

<svg
   xmlns:dc="http://purl.org/dc/elements/1.1/"
   xmlns:cc="http://creativecommons.org/ns#"
   xmlns:rdf="http://www.w3.org/1999/02/22-rdf-syntax-ns#"
   xmlns:svg="http://www.w3.org/2000/svg"
   xmlns="http://www.w3.org/2000/svg"
   xmlns:xlink="http://www.w3.org/1999/xlink"
   version="1.1"
   width="200"
   height="160"
   id="svg4594">
  <defs
     id="defs4596">
    <radialGradient
       cx="8505.5156"
       cy="1733.3148"
       r="211.27292"
       fx="8505.5156"
       fy="1733.3148"
       id="radialGradient3486"
       xlink:href="#linearGradient4092"
       gradientUnits="userSpaceOnUse"
       gradientTransform="translate(0,-2.5036951e-4)" />
    <linearGradient
       id="linearGradient4092">
      <stop
         id="stop4094"
         style="stop-color:#545454;stop-opacity:1"
         offset="0" />
      <stop
         id="stop4096"
         style="stop-color:#545454;stop-opacity:0"
         offset="1" />
    </linearGradient>
    <linearGradient
       x1="-3178.2664"
       y1="2747.4319"
       x2="-2938.2678"
       y2="2797.8896"
       id="linearGradient3488"
       xlink:href="#linearGradient4875"
       gradientUnits="userSpaceOnUse"
       gradientTransform="matrix(-0.25135372,0,0,-0.25135372,194.49616,-2401.6662)" />
    <linearGradient
       id="linearGradient4875">
      <stop
         id="stop4877"
         style="stop-color:#ff8080;stop-opacity:1"
         offset="0" />
      <stop
         id="stop4880"
         style="stop-color:#ff8080;stop-opacity:0"
         offset="1" />
    </linearGradient>
    <linearGradient
       x1="-3178.2664"
       y1="2747.4319"
       x2="-2938.2678"
       y2="2797.8896"
       id="linearGradient4780"
       xlink:href="#linearGradient4875"
       gradientUnits="userSpaceOnUse"
       gradientTransform="matrix(-0.25135372,0,0,-0.25135372,-729.85574,1576.7479)" />
    <linearGradient
       x1="-2233.0259"
       y1="-4378.4111"
       x2="-2043.4371"
       y2="-4722.8882"
       id="linearGradient3494"
       xlink:href="#linearGradient5196-5"
       gradientUnits="userSpaceOnUse"
       gradientTransform="matrix(0.20126478,0,0,0.16304033,545.71152,1698.205)" />
    <linearGradient
       id="linearGradient5196-5">
      <stop
         id="stop5198-2"
         style="stop-color:#0000aa;stop-opacity:1"
         offset="0" />
      <stop
         id="stop5200-5"
         style="stop-color:#0000aa;stop-opacity:0"
         offset="1" />
    </linearGradient>
  </defs>
  <metadata
     id="metadata4599">
    <rdf:RDF>
      <cc:Work
         rdf:about="">
        <dc:format>image/svg+xml</dc:format>
        <dc:type
           rdf:resource="http://purl.org/dc/dcmitype/StillImage" />
        <dc:title></dc:title>
      </cc:Work>
    </rdf:RDF>
  </metadata>
  <g
     transform="translate(0,-892.36218)"
     id="layer1">
    <path
       d="m 22.784376,995.01811 0,21.50119 c 0,13.0239 32.91608,23.5819 73.520121,23.5819 40.604013,0 73.520143,-10.558 73.520143,-23.5819 l 0,-20.11399"
       id="path3348"
       style="fill:#ffffff;stroke:#000000;stroke-width:1.33233178;stroke-linecap:square;stroke-linejoin:round;stroke-miterlimit:3.79999995;stroke-opacity:1;stroke-dasharray:none;display:inline;enable-background:new" />
    <path
       d="m -7739.0414,-760.71906 a 484.83356,155.51265 0 1 1 -969.6672,0 484.83356,155.51265 0 1 1 969.6672,0 z"
       transform="matrix(0.15163992,0,0,0.15163992,1343.3724,1111.067)"
       id="path3350"
       style="fill:#ffffff;stroke:#000000;stroke-width:8.78615379;stroke-linecap:square;stroke-linejoin:round;stroke-miterlimit:3.79999995;stroke-opacity:1;stroke-dasharray:none;display:inline;enable-background:new" />
    <path
       d="m -7739.0414,-760.71906 a 484.83356,155.51265 0 1 1 -969.6672,0 484.83356,155.51265 0 1 1 969.6672,0 z"
       transform="matrix(0.14088099,0,0,0.12851631,1254.8922,1093.2201)"
       id="path3352"
       style="fill:#ffffff;stroke:#000000;stroke-width:9.61326218;stroke-linecap:square;stroke-linejoin:round;stroke-miterlimit:3.79999995;stroke-opacity:1;stroke-dasharray:none;display:inline;enable-background:new" />
    <path
       d="m 38.360196,968.56581 0,16.946 c 0,10.2647 25.94254,18.58579 57.944301,18.58579 32.001763,0 57.944323,-8.32109 57.944323,-18.58579 l 0,-15.8527"
       id="path3354"
       style="fill:#ffffff;stroke:#000000;stroke-width:1.33233178;stroke-linecap:square;stroke-linejoin:round;stroke-miterlimit:3.79999995;stroke-opacity:1;stroke-dasharray:none;display:inline;enable-background:new" />
    <path
       d="m -7739.0414,-760.71906 a 484.83356,155.51265 0 1 1 -969.6672,0 484.83356,155.51265 0 1 1 969.6672,0 z"
       transform="matrix(0.11951376,0,0,0.11951376,1079.1709,1060.0288)"
       id="path3356"
       style="fill:none;stroke:#000000;stroke-width:11.14793587;stroke-linecap:square;stroke-linejoin:round;stroke-miterlimit:3.79999995;stroke-opacity:1;stroke-dasharray:none;display:inline;enable-background:new" />
    <path
       d="m -7739.0414,-760.71906 a 484.83356,155.51265 0 1 1 -969.6672,0 484.83356,155.51265 0 1 1 969.6672,0 z"
       transform="matrix(0.10969669,0,0,0.10006896,998.43643,1045.0346)"
       id="path3358"
       style="fill:none;stroke:#000000;stroke-width:12.19737625;stroke-linecap:square;stroke-linejoin:round;stroke-miterlimit:3.79999995;stroke-opacity:1;stroke-dasharray:none;display:inline;enable-background:new" />
    <path
       d="m 173.85139,904.3529 -25.2888,66.76151 c -2.45482,6.4806 -26.07268,13.2514 -51.885653,13.0967 -30.883591,-0.1853 -56.269891,-7.9856 -52.852431,-17.0921 l 23.55489,-62.76611"
       id="path3470"
       style="fill:url(#linearGradient3494);fill-opacity:1;stroke:none;display:inline;enable-background:new" />
  </g>
</svg>
