<?xml version="1.0" encoding="UTF-8" standalone="no"?>
<!-- Created with Inkscape (http://www.inkscape.org/) -->

<svg
   xmlns:dc="http://purl.org/dc/elements/1.1/"
   xmlns:cc="http://creativecommons.org/ns#"
   xmlns:rdf="http://www.w3.org/1999/02/22-rdf-syntax-ns#"
   xmlns:svg="http://www.w3.org/2000/svg"
   xmlns="http://www.w3.org/2000/svg"
   xmlns:xlink="http://www.w3.org/1999/xlink"
   version="1.1"
   width="120.81245"
   height="121.00215"
   id="svg4594">
  <defs
     id="defs4596">
    <radialGradient
       cx="8505.5156"
       cy="1733.3148"
       r="211.27292"
       fx="8505.5156"
       fy="1733.3148"
       id="radialGradient3486"
       xlink:href="#linearGradient4092"
       gradientUnits="userSpaceOnUse"
       gradientTransform="translate(0,-2.5036951e-4)" />
    <linearGradient
       id="linearGradient4092">
      <stop
         id="stop4094"
         style="stop-color:#545454;stop-opacity:1"
         offset="0" />
      <stop
         id="stop4096"
         style="stop-color:#545454;stop-opacity:0"
         offset="1" />
    </linearGradient>
    <linearGradient
       x1="-3178.2664"
       y1="2747.4319"
       x2="-2938.2678"
       y2="2797.8896"
       id="linearGradient3488"
       xlink:href="#linearGradient4875"
       gradientUnits="userSpaceOnUse"
       gradientTransform="matrix(-0.25135372,0,0,-0.25135372,194.49616,-2401.6662)" />
    <linearGradient
       id="linearGradient4875">
      <stop
         id="stop4877"
         style="stop-color:#ff8080;stop-opacity:1"
         offset="0" />
      <stop
         id="stop4880"
         style="stop-color:#ff8080;stop-opacity:0"
         offset="1" />
    </linearGradient>
    <linearGradient
       x1="-2233.0259"
       y1="-4378.4111"
       x2="-2043.4371"
       y2="-4722.8882"
       id="linearGradient3494"
       xlink:href="#linearGradient5196-5"
       gradientUnits="userSpaceOnUse"
       gradientTransform="matrix(0.20126478,0,0,0.16304033,545.71152,1698.205)" />
    <linearGradient
       id="linearGradient5196-5">
      <stop
         id="stop5198-2"
         style="stop-color:#0000aa;stop-opacity:1"
         offset="0" />
      <stop
         id="stop5200-5"
         style="stop-color:#0000aa;stop-opacity:0"
         offset="1" />
    </linearGradient>
  </defs>
  <metadata
     id="metadata4599">
    <rdf:RDF>
      <cc:Work
         rdf:about="">
        <dc:format>image/svg+xml</dc:format>
        <dc:type
           rdf:resource="http://purl.org/dc/dcmitype/StillImage" />
        <dc:title></dc:title>
      </cc:Work>
    </rdf:RDF>
  </metadata>
  <g
     transform="translate(-4.2525148,-898.34375)"
     id="layer1">
    <path
       d="m 24.174717,906.78339 c 0,0 1.13026,24.8656 -5.65127,35.6031 -6.78153,10.7374 -12.4328095,21.4748 -4.52101,31.6471 7.91177,10.1723 21.4749,7.9118 21.4749,7.9118 l 0,0"
       id="path4447"
       style="fill:none;stroke:#000000;stroke-width:1.79283881;stroke-linecap:butt;stroke-linejoin:miter;stroke-miterlimit:4;stroke-opacity:1;stroke-dasharray:none;display:inline;enable-background:new" />
    <path
       d="m 28.413227,977.98959 c 0,0 9.32455,4.2384 12.15022,8.1943 2.82567,3.9559 9.04204,12.7154 20.06208,17.51891 11.01997,4.8036 16.10615,7.0642 18.08408,7.0642 1.97793,0 5.88714,3.1324 7.34669,1.1302 1.48875,-2.0423 -1.13026,-6.2164 -3.39077,-6.7815 -2.28586,-0.2676 -2.65925,-1.1632 -3.95592,-3.1082"
       id="path4449"
       style="fill:none;stroke:#000000;stroke-width:1.79283881;stroke-linecap:butt;stroke-linejoin:miter;stroke-miterlimit:4;stroke-opacity:1;stroke-dasharray:none;display:inline;enable-background:new" />
    <path
       d="m 86.056297,1011.8972 c 0,0 6.59525,2.0848 8.47688,1.4128 1.97799,-0.7064 3.12288,-0.6971 3.39076,-1.9779 0.62109,-2.9692 -4.23354,-7.069 -5.36379,-7.3515 -1.13026,-0.2826 -4.80844,-1.4177 -6.50385,-2.8305 -1.69542,-1.41281 -1.97793,-2.53341 -1.97793,-2.53341"
       id="path4451"
       style="fill:none;stroke:#000000;stroke-width:1.79283881;stroke-linecap:butt;stroke-linejoin:miter;stroke-miterlimit:4;stroke-opacity:1;stroke-dasharray:none;display:inline;enable-background:new" />
    <path
       d="m 97.923937,1011.3321 c 0,0 5.510023,0.2826 5.651343,-2.8257 -0.84774,-2.2605 -1.97799,-6.2163 -3.955923,-6.4989 -1.97793,-0.2826 -5.65128,-0.8477 -6.78153,-2.26051 -1.13026,-1.4128 -5.93379,-3.1082 -5.93379,-3.1082"
       id="path4453"
       style="fill:none;stroke:#000000;stroke-width:1.79283881;stroke-linecap:butt;stroke-linejoin:miter;stroke-miterlimit:4;stroke-opacity:1;stroke-dasharray:none;display:inline;enable-background:new" />
    <path
       d="m 103.8578,1009.0716 c 0,0 4.30031,1.6306 5.65127,-1.4079 0.74523,-1.6761 -2.8256,-5.9388 -3.95586,-6.7865 -1.13025,-0.8476 -7.629273,-2.82561 -10.737453,-4.23841 -3.10819,-1.4128 -3.95586,-3.3908 -3.95586,-3.3908"
       id="path4455"
       style="fill:none;stroke:#000000;stroke-width:1.79283881;stroke-linecap:butt;stroke-linejoin:miter;stroke-miterlimit:4;stroke-opacity:1;stroke-dasharray:none;display:inline;enable-background:new" />
    <path
       d="m 109.79165,1007.6588 c 0,0 6.7816,0 8.19437,-1.4129 1.41283,-1.4127 1.97799,-5.9338 -0.84768,-6.49891 -2.82567,-0.5651 -15.25847,-4.2385 -17.801503,-6.499 -2.54309,-2.2605 -7.33212,-15.2828 -16.93925,-23.1946 -9.6072,-7.9118 -22.90232,-17.7772 -22.05464,-28.7972 0.84767,-11.02 -0.28258,-37.8636 -0.28258,-37.8636"
       id="path4457"
       style="fill:none;stroke:#000000;stroke-width:1.79283881;stroke-linecap:butt;stroke-linejoin:miter;stroke-miterlimit:4;stroke-opacity:1;stroke-dasharray:none;display:inline;enable-background:new" />
    <path
       d="m 28.130647,937.01769 c 0,0 -5.36876,6.2165 -5.93386,10.7375 -0.56509,4.2384 3.67335,6.2164 3.67335,6.2164"
       id="path4459"
       style="fill:none;stroke:#000000;stroke-width:1.79283881;stroke-linecap:butt;stroke-linejoin:miter;stroke-miterlimit:4;stroke-opacity:1;stroke-dasharray:none;display:inline;enable-background:new" />
  </g>
</svg>
